<?xml version="1.0" encoding="UTF-8"?>
<svg version="1.1" xmlns="http://www.w3.org/2000/svg" width="500" height="500">
<path d="M0 0 C0.5465625 0.474375 1.093125 0.94875 1.65625 1.4375 C1.65625 2.0975 1.65625 2.7575 1.65625 3.4375 C2.31625 3.4375 2.97625 3.4375 3.65625 3.4375 C3.65625 4.0975 3.65625 4.7575 3.65625 5.4375 C4.31625 5.4375 4.97625 5.4375 5.65625 5.4375 C5.65625 6.0975 5.65625 6.7575 5.65625 7.4375 C6.31625 7.4375 6.97625 7.4375 7.65625 7.4375 C9.56640625 9.703125 9.56640625 9.703125 11.71875 12.6875 C12.43160156 13.66203125 13.14445312 14.6365625 13.87890625 15.640625 C15.41040249 18.05062787 16.22621146 19.65878943 16.65625 22.4375 C17.31625 22.4375 17.97625 22.4375 18.65625 22.4375 C19.84204102 24.05126953 19.84204102 24.05126953 21.16015625 26.3203125 C21.64943604 27.15151611 22.13871582 27.98271973 22.64282227 28.83911133 C23.16287842 29.73782959 23.68293457 30.63654785 24.21875 31.5625 C25.30015202 33.40347958 26.38349878 35.24331813 27.46875 37.08203125 C28.27505859 38.44835693 28.27505859 38.44835693 29.09765625 39.84228516 C31.86556039 44.45112303 34.8335126 48.92296814 37.81640625 53.39453125 C43.16311857 62.23760747 44.8361783 71.87928343 43.15625 82.125 C40.62519171 91.0669625 35.121205 98.10287137 27.31640625 103 C18.14820122 107.95433106 8.85899919 110.60523776 -1.51660156 107.86328125 C-6.18876353 106.42934939 -10.77903621 104.76917553 -15.37890625 103.12109375 C-32.10973728 97.30022808 -48.50967646 100.8158695 -64.59375 106.6875 C-73.909733 109.88119065 -83.32228644 109.36955238 -92.34375 105.4375 C-101.62075627 100.53960689 -108.46105943 93.65838083 -111.6796875 83.5546875 C-115.17416368 67.1512052 -109.09904489 55.5219786 -100.43359375 42.140625 C-99.40561583 40.5716242 -98.37546196 39.00404798 -97.34375 37.4375 C-96.70840332 36.47005859 -96.07305664 35.50261719 -95.41845703 34.50585938 C-78.67816203 9.0697686 -78.67816203 9.0697686 -75.34375 5.4375 C-74.68375 5.4375 -74.02375 5.4375 -73.34375 5.4375 C-73.34375 4.7775 -73.34375 4.1175 -73.34375 3.4375 C-51.84632936 -14.44764914 -23.2008847 -15.46725646 0 0 Z " fill="#707289" transform="translate(276.34375,227.5625)"/>
<path d="M0 0 C9.33057114 5.53343437 16.44850159 13.79258751 19.24609375 24.33203125 C20.52274853 32.92632324 20.70535942 40.97052796 18.24609375 49.33203125 C18.08496094 50.00363281 17.92382812 50.67523438 17.7578125 51.3671875 C15.24329536 59.97128356 7.82402802 67.16746184 0.12890625 71.4375 C-7.50994743 75.06674791 -16.88910084 75.91196639 -25.00390625 73.20703125 C-35.32571177 68.60290638 -41.5837507 60.68255904 -45.9921875 50.5078125 C-47.73605667 45.52660673 -47.93650976 40.69627733 -47.94140625 35.45703125 C-47.95365234 34.77511719 -47.96589844 34.09320313 -47.97851562 33.390625 C-48.00680595 23.48901244 -44.25072696 13.65314013 -37.37890625 6.45703125 C-27.02335772 -3.11059511 -13.03998426 -6.05963144 0 0 Z " fill="#717389" transform="translate(238.75390625,137.66796875)"/>
<path d="M0 0 C8.53569568 4.55342874 13.65567107 10.41724478 17.125 19.4375 C17.9375 22.375 17.9375 22.375 18.125 25.4375 C18.17527344 26.24832031 18.22554688 27.05914062 18.27734375 27.89453125 C18.68180317 39.4620707 15.17756799 49.88368414 7.23828125 58.48046875 C-0.35296327 65.47515182 -8.16001361 68.81958933 -18.48046875 68.6484375 C-25.98954587 67.98695273 -32.58000265 64.790303 -37.875 59.4375 C-39.8689493 56.56803489 -41.44600131 53.6222839 -42.875 50.4375 C-43.42414063 49.32955078 -43.42414063 49.32955078 -43.984375 48.19921875 C-45.2167581 44.37775012 -45.25790856 40.80632501 -45.25 36.8125 C-45.24911377 36.01432861 -45.24822754 35.21615723 -45.24731445 34.39379883 C-45.07580696 25.78795312 -42.70051788 18.59345171 -37.875 11.4375 C-37.215 11.4375 -36.555 11.4375 -35.875 11.4375 C-35.215 10.1175 -34.555 8.7975 -33.875 7.4375 C-33.215 7.4375 -32.555 7.4375 -31.875 7.4375 C-31.875 6.7775 -31.875 6.1175 -31.875 5.4375 C-31.215 5.4375 -30.555 5.4375 -29.875 5.4375 C-29.875 4.7775 -29.875 4.1175 -29.875 3.4375 C-20.48360512 -1.92901136 -10.39117713 -4.12063921 0 0 Z " fill="#72748A" transform="translate(307.875,154.5625)"/>
<path d="M0 0 C2.66367598 1.76063871 4.73975765 3.8109766 6.83203125 6.2109375 C7.33605469 6.67757812 7.84007812 7.14421875 8.359375 7.625 C13.4857628 13.14572533 13.36227032 21.6397535 13.171875 28.71484375 C12.21965043 38.51071717 8.19414718 45.73126697 0.83203125 52.2109375 C-8.09010798 58.62716725 -16.13316994 61.37398827 -27.16796875 60.2109375 C-35.51793606 57.77866474 -41.90054564 52.78748519 -46.16796875 45.2109375 C-49.3697049 37.2010192 -49.5583447 27.95232444 -46.54296875 19.8359375 C-42.27853904 10.70856163 -35.807805 3.14341404 -26.60546875 -1.1640625 C-17.98135157 -4.29293428 -8.1964525 -4.28831096 0 0 Z " fill="#72748A" transform="translate(352.16796875,214.7890625)"/>
<path d="M0 0 C9.12203724 6.52321592 15.43369624 15.17824113 17.53515625 26.296875 C18.53785176 35.68575117 16.31989169 43.95300919 10.45703125 51.41015625 C8.32231001 53.66778568 6.76746023 54.71944034 3.79296875 55.7109375 C3.79296875 56.3709375 3.79296875 57.0309375 3.79296875 57.7109375 C-5.62619435 61.5803482 -12.62694508 62.56975239 -22.20703125 58.7109375 C-30.76761546 54.2450663 -37.70527444 47.43430406 -41.08203125 38.2734375 C-44.06050808 27.63602026 -43.60490101 18.29129307 -38.3359375 8.4921875 C-34.66143252 2.69435266 -29.1476778 -1.21973648 -22.76953125 -3.5390625 C-14.70209296 -5.23747056 -7.15682315 -4.1800914 0 0 Z " fill="#72748A" transform="translate(177.20703125,183.2890625)"/>
<path d="M0 0 C0.625 1.8125 0.625 1.8125 1 4 C0.01 5.485 0.01 5.485 -1 7 C-1.66 7 -2.32 7 -3 7 C-3.0825 7.886875 -3.165 8.77375 -3.25 9.6875 C-4.09984348 13.44097537 -5.34027809 15.25968046 -8 18 C-8.66 18 -9.32 18 -10 18 C-10.33 20.31 -10.66 22.62 -11 25 C-11.99 24.67 -12.98 24.34 -14 24 C-14.66 25.32 -15.32 26.64 -16 28 C-16 24.67816608 -15.47345884 23.7713479 -13.76953125 21.015625 C-13.29580078 20.24476563 -12.82207031 19.47390625 -12.33398438 18.6796875 C-11.58084961 17.47699219 -11.58084961 17.47699219 -10.8125 16.25 C-10.32974609 15.46367187 -9.84699219 14.67734375 -9.34960938 13.8671875 C-6.40431675 9.10727834 -3.30396326 4.51803385 0 0 Z " fill="#9292A2" transform="translate(187,253)"/>
<path d="M0 0 C1.12233032 -0.0009668 1.12233032 -0.0009668 2.26733398 -0.00195312 C7.66050301 0.04958329 12.48770801 0.67483324 17.6875 2.1875 C17.6875 2.5175 17.6875 2.8475 17.6875 3.1875 C16.79289062 3.1153125 15.89828125 3.043125 14.9765625 2.96875 C1.98513653 1.29785696 1.98513653 1.29785696 -10.3125 4.1875 C-12.11306384 4.59806076 -13.92787319 4.94926062 -15.75 5.25 C-19.28392935 5.84472246 -22.80167228 6.46749359 -26.3125 7.1875 C-24.87508996 4.31267992 -23.11247646 4.1853324 -20.125 3.125 C-19.18269531 2.78339844 -18.24039063 2.44179687 -17.26953125 2.08984375 C-11.52846743 0.33794713 -5.97395689 -0.0053155 0 0 Z " fill="#999AA8" transform="translate(241.3125,216.8125)"/>
<path d="M0 0 C1.796875 1.60546875 1.796875 1.60546875 3 3 C2.12601563 2.67515625 2.12601563 2.67515625 1.234375 2.34375 C-7.16336263 -0.50831184 -15.60284537 -1.7384731 -24 1.75 C-27.21472515 3.38361714 -29.68670425 5.18381387 -32 8 C-32.66 7.67 -33.32 7.34 -34 7 C-24.83160017 -3.31444981 -12.66795247 -5.38166512 0 0 Z " fill="#A1A3B1" transform="translate(175,182)"/>
<path d="M0 0 C0.33 0 0.66 0 1 0 C2.4863123 14.11996684 1.73008023 22.46970536 -7 34 C-7.99 34.495 -7.99 34.495 -9 35 C-8.505 32.03 -8.505 32.03 -8 29 C-7.34 29 -6.68 29 -6 29 C-6 28.01 -6 27.02 -6 26 C-5.01 25.34 -4.02 24.68 -3 24 C-0.73565142 18.99378716 -0.58169304 14.02485565 -0.375 8.625 C-0.31699219 7.37783203 -0.31699219 7.37783203 -0.2578125 6.10546875 C-0.16425754 4.07064844 -0.08107287 2.03535584 0 0 Z " fill="#C3C2CD" transform="translate(318,291)"/>
<path d="M0 0 C1.20943609 4.18503282 0.88361837 8.07865772 0.5625 12.375 C0.2188648 17.2622562 -0.07005717 22.09599817 0 27 C0.66 27 1.32 27 2 27 C2 28.65 2 30.3 2 32 C2.99 32.33 3.98 32.66 5 33 C4.67 34.32 4.34 35.64 4 37 C-0.26805075 29.74431372 -2.33348633 24.59886246 -2.25 16.125 C-2.25773437 15.34769531 -2.26546875 14.57039062 -2.2734375 13.76953125 C-2.25676109 8.80829977 -1.58064015 4.70428617 0 0 Z " fill="#9D9FAB" transform="translate(265,175)"/>
<path d="M0 0 C2 1 2 1 3.0625 3.1875 C5.96486967 11.89460902 6.07395391 21.35450462 3 30 C2.67 30 2.34 30 2 30 C2.01047363 29.42556152 2.02094727 28.85112305 2.03173828 28.25927734 C2.07357099 25.63123023 2.099412 23.00325346 2.125 20.375 C2.14175781 19.47136719 2.15851563 18.56773437 2.17578125 17.63671875 C2.21242958 12.61589809 1.80992527 8.74570957 0 4 C0 2.68 0 1.36 0 0 Z " fill="#A6A8B4" transform="translate(321,168)"/>
<path d="M0 0 C3.33774431 5.43384774 2.54333996 11.86802041 2 18 C1.04116369 21.85343649 -0.13139796 25.48784653 -2 29 C-2.66 29.33 -3.32 29.66 -4 30 C-2.27090301 19.8277592 -2.27090301 19.8277592 -0.875 15.5625 C0.39727157 10.38253717 0.15685734 5.30700667 0 0 Z " fill="#9C9CA9" transform="translate(363,229)"/>
<path d="M0 0 C-2 3 -2 3 -4.2421875 3.625 C-5.54542969 3.810625 -5.54542969 3.810625 -6.875 4 C-10.83867041 4.56792889 -12.86098353 5.55480047 -16 8 C-18.25 7.6875 -18.25 7.6875 -20 7 C-13.99066134 1.55403684 -8.00301777 -0.50018861 0 0 Z " fill="#8E90A2" transform="translate(224,135)"/>
<path d="M0 0 C1.42505859 0.49113281 1.42505859 0.49113281 2.87890625 0.9921875 C7.56136707 2.33003345 12.10295873 2.22058789 16.9375 2.125 C17.81212891 2.11597656 18.68675781 2.10695312 19.58789062 2.09765625 C21.72538064 2.0742957 23.86272786 2.03843247 26 2 C22.68428011 5.31571989 18.57698486 5.70150099 14 6 C8.60356041 5.21301923 3.65167273 4.27836244 0 0 Z " fill="#9B99A8" transform="translate(152,239)"/>
<path d="M0 0 C1.47173383 2.94346765 0.41011033 4.73319106 -0.4375 7.875 C-2.02939738 14.36559979 -2.32360782 20.34806157 -2 27 C-5.40058449 21.89912326 -4.54408126 15.95326128 -4 10 C-2.99228877 6.47301068 -1.68088193 3.25670873 0 0 Z " fill="#A1A5B3" transform="translate(308,230)"/>
<path d="M0 0 C0.66 0.33 1.32 0.66 2 1 C-0.20304176 5.52847472 -2.36662035 7.10882463 -7 9 C-9.375 9.6875 -9.375 9.6875 -11 10 C-11 10.66 -11 11.32 -11 12 C-11.66 11.67 -12.32 11.34 -13 11 C-12.67 10.34 -12.34 9.68 -12 9 C-11.34 9 -10.68 9 -10 9 C-10 8.34 -10 7.68 -10 7 C-7.8125 5.2734375 -7.8125 5.2734375 -5 3.375 C-4.071875 2.74335938 -3.14375 2.11171875 -2.1875 1.4609375 C-1.1046875 0.73777344 -1.1046875 0.73777344 0 0 Z " fill="#A19FAD" transform="translate(213,224)"/>
<path d="M0 0 C0.99 0.495 0.99 0.495 2 1 C2.4140625 3.06640625 2.4140625 3.06640625 2.625 5.5625 C2.69976562 6.38878906 2.77453125 7.21507812 2.8515625 8.06640625 C2.92503906 9.02353516 2.92503906 9.02353516 3 10 C3.66 10 4.32 10 5 10 C5 10.99 5 11.98 5 13 C5.66 13.33 6.32 13.66 7 14 C7.625 16.0625 7.625 16.0625 8 18 C8.66 18 9.32 18 10 18 C9.67 18.99 9.34 19.98 9 21 C-0.48076923 8.17307692 -0.48076923 8.17307692 0 0 Z " fill="#9EA0AB" transform="translate(192,181)"/>
<path d="M0 0 C0.66 0.33 1.32 0.66 2 1 C0.57282151 2.67551353 -0.86708482 4.34019309 -2.3125 6 C-3.51326172 7.3921875 -3.51326172 7.3921875 -4.73828125 8.8125 C-7 11 -7 11 -10 11 C-10 10.34 -10 9.68 -10 9 C-9.34 9 -8.68 9 -8 9 C-7.34 7.68 -6.68 6.36 -6 5 C-5.34 5 -4.68 5 -4 5 C-4 4.34 -4 3.68 -4 3 C-3.34 3 -2.68 3 -2 3 C-2 2.34 -2 1.68 -2 1 C-1.34 0.67 -0.68 0.34 0 0 Z " fill="#9A9CA8" transform="translate(280,157)"/>
<path d="M0 0 C-3.37776975 1.84618297 -6.82013334 2.95263196 -10.5 4.0625 C-12.18609375 4.57490234 -12.18609375 4.57490234 -13.90625 5.09765625 C-16.26381291 5.78527876 -18.61163229 6.43217728 -21 7 C-21 6.34 -21 5.68 -21 5 C-20.34 5 -19.68 5 -19 5 C-19 4.34 -19 3.68 -19 3 C-16.77228658 2.49356447 -14.54275924 1.9951038 -12.3125 1.5 C-10.45044922 1.08234375 -10.45044922 1.08234375 -8.55078125 0.65625 C-5.57601782 0.10645874 -3.00631398 -0.13795705 0 0 Z " fill="#9D9FAE" transform="translate(233,327)"/>
<path d="M0 0 C0.33 1.32 0.66 2.64 1 4 C0.34 4 -0.32 4 -1 4 C-1.33 6.31 -1.66 8.62 -2 11 C-2.99 10.67 -3.98 10.34 -5 10 C-5.66 11.32 -6.32 12.64 -7 14 C-7 10.11708254 -5.62139506 8.53247465 -3.5 5.3125 C-2.8503125 4.31863281 -2.200625 3.32476562 -1.53125 2.30078125 C-0.77328125 1.16189453 -0.77328125 1.16189453 0 0 Z " fill="#A5A5B4" transform="translate(178,267)"/>
<path d="M0 0 C3.31252776 1.65626388 3.88538685 4.945718 5.1796875 8.27734375 C6.3136082 12.04088054 6.28908416 15.09736385 6 19 C5.67 19 5.34 19 5 19 C4.67 16.36 4.34 13.72 4 11 C3.34 11 2.68 11 2 11 C1.34 7.37 0.68 3.74 0 0 Z " fill="#A8A8B6" transform="translate(252,151)"/>
<path d="M0 0 C5.17379682 2.24783891 8.77697025 4.16545537 12 9 C10.35 8.67 8.7 8.34 7 8 C7 7.34 7 6.68 7 6 C6.34 6 5.68 6 5 6 C3.97895449 5.02149805 2.9793879 4.02019573 2 3 C1.34 2.67 0.68 2.34 0 2 C0 1.34 0 0.68 0 0 Z " fill="#9DA3AF" transform="translate(236,137)"/>
<path d="M0 0 C2.43816585 -0.0809723 4.87364384 -0.14046972 7.3125 -0.1875 C8.34793945 -0.22520508 8.34793945 -0.22520508 9.40429688 -0.26367188 C11.42578125 -0.29296875 11.42578125 -0.29296875 15 0 C15.99 0.99 16.98 1.98 18 3 C12.06 2.34 6.12 1.68 0 1 C0 0.67 0 0.34 0 0 Z " fill="#8C8D9E" transform="translate(240,326)"/>
<path d="M0 0 C0 3.28565953 -0.24329531 4.28509275 -2 7 C-3.92358201 8.79056836 -5.92632276 10.37712216 -8 12 C-6.64994369 6.32976351 -4.1842771 3.82042691 0 0 Z " fill="#B5B6C1" transform="translate(203,143)"/>
<path d="M0 0 C0.33 0.99 0.66 1.98 1 3 C0.00390625 4.82421875 0.00390625 4.82421875 -1.4375 6.6875 C-1.91058594 7.31011719 -2.38367188 7.93273437 -2.87109375 8.57421875 C-3.24363281 9.04472656 -3.61617188 9.51523437 -4 10 C-5 7 -5 7 -4 4 C-3.34 4 -2.68 4 -2 4 C-2 3.01 -2 2.02 -2 1 C-1.34 0.67 -0.68 0.34 0 0 Z " fill="#A3A3B2" transform="translate(314,316)"/>
<path d="M0 0 C2 4 2 4 1.8125 6.5625 C1 9 1 9 -2 12 C-1.34 8.04 -0.68 4.08 0 0 Z " fill="#A3A5B1" transform="translate(136,198)"/>
<path d="M0 0 C0.66 0.33 1.32 0.66 2 1 C-1.87564767 4.61139896 -1.87564767 4.61139896 -4 6 C-6.375 5.8125 -6.375 5.8125 -8 5 C-5.31158141 2.74754119 -3.35358125 1.11786042 0 0 Z " fill="#ACABB9" transform="translate(212,137)"/>
<path d="M0 0 C1.32 0.33 2.64 0.66 4 1 C2.71186658 1.83878455 1.41936744 2.67086783 0.125 3.5 C-0.59429687 3.9640625 -1.31359375 4.428125 -2.0546875 4.90625 C-4 6 -4 6 -6 6 C-6 5.34 -6 4.68 -6 4 C-4.02 3.34 -2.04 2.68 0 2 C0 1.34 0 0.68 0 0 Z " fill="#9798AB" transform="translate(241,204)"/>
<path d="M0 0 C0.8125 1.6875 0.8125 1.6875 1 4 C-1.4375 6.75 -1.4375 6.75 -4 9 C-4 5.00095031 -2.27413033 3.19799578 0 0 Z " fill="#A8A9B9" transform="translate(187,253)"/>
<path d="M0 0 C0.66 0.33 1.32 0.66 2 1 C-0.46153846 5.8 -0.46153846 5.8 -3.1875 6.8125 C-3.785625 6.874375 -4.38375 6.93625 -5 7 C-2.25 1.125 -2.25 1.125 0 0 Z " fill="#8E8F9C" transform="translate(213,224)"/>
<path d="M0 0 C0.33 0.66 0.66 1.32 1 2 C-0.25 4.5625 -0.25 4.5625 -2 7 C-2.99 7.33 -3.98 7.66 -5 8 C-3.8141763 4.62496331 -2.72426311 2.35277269 0 0 Z " fill="#9798A9" transform="translate(314,222)"/>
<path d="M0 0 C0.66 0.33 1.32 0.66 2 1 C0.29374499 3.78388975 -0.47626739 4.85384206 -3.6875 5.75 C-4.8321875 5.87375 -4.8321875 5.87375 -6 6 C-4 4 -2 2 0 0 Z " fill="#9D9DA9" transform="translate(321,216)"/>
<path d="M0 0 C0.66 0.33 1.32 0.66 2 1 C-1.44615385 5.8 -1.44615385 5.8 -4.25 6.8125 C-5.11625 6.9053125 -5.11625 6.9053125 -6 7 C-4.60667426 3.63279613 -3.0210714 2.0140476 0 0 Z " fill="#B3B3C0" transform="translate(147,183)"/>
</svg>
