<?xml version="1.0" encoding="UTF-8"?>
<svg version="1.1" xmlns="http://www.w3.org/2000/svg" width="500" height="500">
<path d="M0 0 C1.45147907 -0.00543067 2.90295262 -0.0125586 4.35441589 -0.02124023 C8.26739734 -0.03935644 12.17995337 -0.03245723 16.09294152 -0.01972389 C20.19854329 -0.00954477 24.30411043 -0.01900224 28.40971375 -0.02526855 C35.2966461 -0.03252663 42.18340632 -0.02300148 49.0703125 -0.00390625 C57.02762692 0.01790233 64.98453198 0.01077504 72.94183666 -0.01121187 C79.78710599 -0.02936691 86.63225219 -0.03192502 93.47753781 -0.0214572 C97.56048021 -0.01522836 101.6432301 -0.01437063 105.72616005 -0.02760315 C109.56034723 -0.03916421 113.39400593 -0.03113195 117.22813606 -0.00802612 C118.63379794 -0.00274217 120.03950439 -0.00424754 121.44514847 -0.01307678 C123.36525624 -0.02402519 125.28546137 -0.00785392 127.20552063 0.00964355 C128.81622924 0.01190571 128.81622924 0.01190571 130.45947742 0.01421356 C134.11557619 0.64910687 135.77508897 1.88672439 138.3581543 4.51757812 C139.8191963 7.85640144 139.48677241 11.51426622 139.49186707 15.11509705 C139.49413262 15.7765224 139.49639818 16.43794775 139.49873239 17.1194163 C139.5050588 19.33410457 139.5042439 21.54873143 139.50341797 23.76342773 C139.50641028 25.35194477 139.50981297 26.94046109 139.51359558 28.52897644 C139.52243174 32.84299119 139.52477351 37.1569861 139.52541137 41.47100902 C139.52636091 45.0719812 139.53003967 48.67294876 139.53358346 52.27391917 C139.5417263 60.7687968 139.54416783 69.26366383 139.54345703 77.75854492 C139.54285604 86.52336908 139.55341261 95.28813172 139.56920069 104.05294031 C139.58227196 111.57745591 139.58764111 119.10195139 139.58700162 126.62647825 C139.58674654 131.12082396 139.58960321 135.61511499 139.60017967 140.10944939 C139.60985387 144.33572715 139.6099445 148.56189788 139.60266304 152.7881794 C139.60161641 154.33897686 139.60398476 155.88978096 139.6100235 157.44056702 C139.61773527 159.55819601 139.61310427 161.67545461 139.60539246 163.79307556 C139.60593722 164.97791503 139.60648199 166.1627545 139.60704327 167.38349819 C139.34395718 170.69635224 139.09150348 172.677859 137.3581543 175.51757812 C133.8931543 177.49757813 133.8931543 177.49757813 130.3581543 179.51757812 C130.3581543 186.77757812 130.3581543 194.03757812 130.3581543 201.51757812 C132.3381543 202.50757813 134.3181543 203.49757813 136.3581543 204.51757812 C138.2956543 206.20507812 138.2956543 206.20507812 139.3581543 208.51757812 C139.3581543 214.05603966 139.3581543 214.05603966 138.3581543 216.51757812 C134.6740514 220.07117239 132.36182794 221.01777952 127.27471924 221.01878357 C126.05238586 221.02861771 124.83005249 221.03845184 123.57067871 221.04858398 C122.22411829 221.03921266 120.87756066 221.02943338 119.53100586 221.01928711 C118.10646023 221.02307211 116.68191829 221.02857364 115.25738525 221.03565979 C111.39340719 221.04961343 107.52987452 221.03844328 103.66592121 221.02194858 C99.61555459 221.00807944 95.56521335 221.01456069 91.51483154 221.01808167 C84.70895228 221.02078356 77.90324939 221.00731432 71.09741211 220.98413086 C63.24428341 220.95756394 55.39145036 220.95576048 47.53829217 220.96751922 C39.97079984 220.97832707 32.40341379 220.97208365 24.83592987 220.95796394 C21.62242857 220.95222584 18.40900561 220.95226973 15.19550323 220.95702934 C11.40329749 220.96182786 7.61141217 220.95157954 3.81926727 220.93007469 C2.43302999 220.92454396 1.04676168 220.92400709 -0.33947754 220.92902756 C-11.56478695 220.96456031 -21.12102886 219.94023213 -29.45825195 211.72851562 C-39.58498321 200.77726971 -38.79354012 188.66317712 -38.80297852 174.60571289 C-38.80761304 172.99353931 -38.81263855 171.38136681 -38.81802368 169.76919556 C-38.8310841 165.40763424 -38.83757955 161.04608826 -38.84203434 156.68451047 C-38.84497392 153.95599683 -38.84908026 151.22748731 -38.85353851 148.49897575 C-38.86719349 139.95120374 -38.87687126 131.40344123 -38.8807404 122.85565907 C-38.88522358 113.00761068 -38.90279194 103.15970092 -38.931741 93.31169468 C-38.95338049 85.68427675 -38.96344581 78.05689779 -38.96478152 70.4294495 C-38.96582744 65.88022989 -38.97169053 61.33114095 -38.98960114 56.78195381 C-39.00612228 52.50304607 -39.00821779 48.22436673 -38.99946213 43.94543839 C-38.99869405 42.38018747 -39.00300403 40.81492405 -39.01292038 39.24970436 C-39.0853718 27.09602564 -37.9614345 17.88244859 -29.6418457 8.51757812 C-21.45252624 0.32825866 -10.94172536 -0.06927189 0 0 Z M4.2331543 42.20507812 C2.12048241 44.42187663 2.12048241 44.42187663 1.8581543 47.51757812 C2.43112128 50.95538001 2.80019937 52.16081745 5.3581543 54.51757812 C8.33071102 54.92474741 10.93692465 55.07453494 13.9128418 55.05102539 C14.78628235 55.05964096 15.6597229 55.06825653 16.55963135 55.07713318 C19.45110581 55.099864 22.34161674 55.0930417 25.2331543 55.08398438 C27.2395049 55.08921661 29.24585303 55.09549161 31.25219727 55.10276794 C35.45885791 55.11318515 39.66518056 55.10859141 43.87182617 55.09399414 C49.26946766 55.07679966 54.66604536 55.10030304 60.06356812 55.13548374 C64.20710336 55.15741637 68.3503824 55.15602638 72.49395752 55.14771843 C74.48432584 55.14689673 76.47471256 55.1538017 78.46502686 55.16848946 C81.24517736 55.18586029 84.02339504 55.17145624 86.8034668 55.14868164 C88.04256805 55.16621994 88.04256805 55.16621994 89.30670166 55.18411255 C91.85848108 55.19821617 91.85848108 55.19821617 95.3581543 54.51757812 C97.91635763 51.58155743 98.38891293 50.28654393 98.2331543 46.39257812 C97.15936374 42.78169444 97.15936374 42.78169444 94.3581543 40.51757812 C89.63728432 39.67602296 85.08559697 39.39136455 80.29638672 39.38818359 C79.62867752 39.38643127 78.96096832 39.38467896 78.27302551 39.38287354 C76.08653082 39.37850689 73.90011843 39.38137562 71.71362305 39.38476562 C70.17816655 39.38409086 68.64271016 39.38311939 67.10725403 39.38186646 C63.89554829 39.38039629 60.68387045 39.38252119 57.47216797 39.38720703 C53.3805502 39.39288941 49.28899826 39.38963043 45.19738293 39.38363457 C42.02728288 39.37999814 38.85719809 39.38118187 35.68709755 39.38376236 C34.1798025 39.38442388 32.672506 39.38363068 31.16521263 39.38128281 C17.26837018 38.67409405 17.26837018 38.67409405 4.2331543 42.20507812 Z M-19.5168457 183.20507812 C-21.17300214 186.60939969 -21.1905315 189.84504121 -20.6418457 193.51757812 C-19.16277893 196.68700692 -17.42937371 199.37332581 -14.6418457 201.51757812 C-11.18621172 202.38449781 -7.96321784 202.64149303 -4.40898132 202.63783264 C-2.85888115 202.63989464 -2.85888115 202.63989464 -1.27746582 202.64199829 C0.40675476 202.63660538 0.40675476 202.63660538 2.125 202.63110352 C3.91099861 202.63132256 3.91099861 202.63132256 5.733078 202.63154602 C8.9888937 202.63096963 12.24466616 202.62596177 15.50047326 202.61897206 C18.90641609 202.61271163 22.3123598 202.6121326 25.7183075 202.61094666 C32.16385519 202.60784127 38.60938588 202.59963857 45.0549261 202.58959717 C52.39468238 202.57841142 59.73443949 202.57291937 67.07420218 202.56790173 C82.16886391 202.55745529 97.26350356 202.53911966 112.3581543 202.51757812 C112.3581543 194.59757812 112.3581543 186.67757812 112.3581543 178.51757812 C96.29417998 178.4498255 80.23032781 178.39457566 64.16625023 178.36214161 C56.70721695 178.34668082 49.24827884 178.32560645 41.78930664 178.29125977 C35.28712767 178.26133317 28.78501763 178.24199739 22.28277171 178.23531264 C18.84070402 178.23140587 15.39883349 178.2222411 11.95682907 178.20038795 C8.11188851 178.1761752 4.26713985 178.17561023 0.42211914 178.17700195 C-0.71580078 178.16621613 -1.8537207 178.1554303 -3.02612305 178.14431763 C-9.63464897 178.17023379 -14.4052207 178.60461562 -19.5168457 183.20507812 Z " fill="#6A6C85" transform="translate(199.641845703125,139.482421875)"/>
<path d="M0 0 C1.45147907 -0.00543067 2.90295262 -0.0125586 4.35441589 -0.02124023 C8.26739734 -0.03935644 12.17995337 -0.03245723 16.09294152 -0.01972389 C20.19854329 -0.00954477 24.30411043 -0.01900224 28.40971375 -0.02526855 C35.2966461 -0.03252663 42.18340632 -0.02300148 49.0703125 -0.00390625 C57.02762692 0.01790233 64.98453198 0.01077504 72.94183666 -0.01121187 C79.78710599 -0.02936691 86.63225219 -0.03192502 93.47753781 -0.0214572 C97.56048021 -0.01522836 101.6432301 -0.01437063 105.72616005 -0.02760315 C109.56034723 -0.03916421 113.39400593 -0.03113195 117.22813606 -0.00802612 C118.63379794 -0.00274217 120.03950439 -0.00424754 121.44514847 -0.01307678 C123.36525624 -0.02402519 125.28546137 -0.00785392 127.20552063 0.00964355 C128.81622924 0.01190571 128.81622924 0.01190571 130.45947742 0.01421356 C134.11557619 0.64910687 135.77508897 1.88672439 138.3581543 4.51757812 C139.8191963 7.85640144 139.48677241 11.51426622 139.49186707 15.11509705 C139.49413262 15.7765224 139.49639818 16.43794775 139.49873239 17.1194163 C139.5050588 19.33410457 139.5042439 21.54873143 139.50341797 23.76342773 C139.50641028 25.35194477 139.50981297 26.94046109 139.51359558 28.52897644 C139.52243174 32.84299119 139.52477351 37.1569861 139.52541137 41.47100902 C139.52636091 45.0719812 139.53003967 48.67294876 139.53358346 52.27391917 C139.5417263 60.7687968 139.54416783 69.26366383 139.54345703 77.75854492 C139.54285604 86.52336908 139.55341261 95.28813172 139.56920069 104.05294031 C139.58227196 111.57745591 139.58764111 119.10195139 139.58700162 126.62647825 C139.58674654 131.12082396 139.58960321 135.61511499 139.60017967 140.10944939 C139.60985387 144.33572715 139.6099445 148.56189788 139.60266304 152.7881794 C139.60161641 154.33897686 139.60398476 155.88978096 139.6100235 157.44056702 C139.61773527 159.55819601 139.61310427 161.67545461 139.60539246 163.79307556 C139.60593722 164.97791503 139.60648199 166.1627545 139.60704327 167.38349819 C139.35711583 170.53065485 138.80574364 172.7226978 137.3581543 175.51757812 C136.6981543 175.84757813 136.0381543 176.17757812 135.3581543 176.51757812 C135.3581543 175.19757813 135.3581543 173.87757813 135.3581543 172.51757812 C136.0181543 172.51757812 136.6781543 172.51757812 137.3581543 172.51757812 C137.27431635 151.07327017 137.17920597 129.62903869 137.07062721 108.18484116 C137.02047735 98.22822358 136.9740347 88.27161433 136.9362793 78.31494141 C136.90336738 69.63803916 136.8635406 60.96120113 136.81536424 52.28436971 C136.79009129 47.68885777 136.76831235 43.09338847 136.75481033 38.49782562 C136.74199721 34.17389056 136.7199509 29.85010167 136.6907711 25.52624702 C136.68168946 23.93796174 136.67600373 22.34965291 136.67394066 20.761343 C136.67062223 18.5949401 136.65515661 16.42895269 136.6366272 14.26263428 C136.63109644 13.04955471 136.62556568 11.83647514 136.61986732 10.58663559 C136.37027514 7.65971686 135.89328215 5.98359605 134.3581543 3.51757812 C115.3299114 3.47081851 96.3016802 3.43556986 77.27339172 3.41395378 C68.43785682 3.40364945 59.60235766 3.38960525 50.7668457 3.36669922 C43.06413244 3.34673952 35.36144507 3.33385556 27.65870667 3.32940114 C23.58170364 3.32679813 19.50477466 3.3206975 15.42779541 3.30611801 C11.58651214 3.29249332 7.74533308 3.28836533 3.90402794 3.29136276 C2.49800741 3.29081478 1.09198321 3.28686652 -0.31401634 3.27916718 C-15.33425228 3.0879696 -15.33425228 3.0879696 -28.23950195 10.02148438 C-33.83387015 16.16566763 -36.02009767 21.84789567 -36.00260925 30.15489197 C-36.00517253 30.89182881 -36.0077358 31.62876566 -36.01037675 32.38803393 C-36.01529081 34.84021567 -35.99886171 37.29177213 -35.98242188 39.74389648 C-35.98157509 41.50845322 -35.98205176 43.27301102 -35.98374939 45.03756714 C-35.98460874 49.81601896 -35.96699262 54.59424402 -35.94602752 59.37264323 C-35.92725078 64.3707773 -35.92550949 69.36891679 -35.92195129 74.36708069 C-35.91263377 83.82650247 -35.8880239 93.28582001 -35.85790282 102.74519593 C-35.82434975 113.51660174 -35.80787052 124.28801258 -35.79281652 135.05945766 C-35.76147412 157.21222262 -35.70871927 179.3648938 -35.6418457 201.51757812 C-40.55963219 194.14089839 -38.79720487 183.20493068 -38.80297852 174.60571289 C-38.80761304 172.99353931 -38.81263855 171.38136681 -38.81802368 169.76919556 C-38.8310841 165.40763424 -38.83757955 161.04608826 -38.84203434 156.68451047 C-38.84497392 153.95599683 -38.84908026 151.22748731 -38.85353851 148.49897575 C-38.86719349 139.95120374 -38.87687126 131.40344123 -38.8807404 122.85565907 C-38.88522358 113.00761068 -38.90279194 103.15970092 -38.931741 93.31169468 C-38.95338049 85.68427675 -38.96344581 78.05689779 -38.96478152 70.4294495 C-38.96582744 65.88022989 -38.97169053 61.33114095 -38.98960114 56.78195381 C-39.00612228 52.50304607 -39.00821779 48.22436673 -38.99946213 43.94543839 C-38.99869405 42.38018747 -39.00300403 40.81492405 -39.01292038 39.24970436 C-39.0853718 27.09602564 -37.9614345 17.88244859 -29.6418457 8.51757812 C-21.45252624 0.32825866 -10.94172536 -0.06927189 0 0 Z " fill="#B1B2C0" transform="translate(199.641845703125,139.482421875)"/>
<path d="M0 0 C1.06293274 -0.00137466 2.12586548 -0.00274933 3.2210083 -0.00416565 C4.3920108 -0.00057037 5.56301331 0.0030249 6.76950073 0.00672913 C7.99874268 0.0065831 9.22798462 0.00643707 10.49447632 0.00628662 C13.87030712 0.00686498 17.24607718 0.01188915 20.62189722 0.01886058 C24.14797443 0.02510093 27.6740524 0.02569846 31.20013428 0.02688599 C37.87952694 0.02999728 44.55890329 0.03820797 51.23828876 0.04823548 C58.84157395 0.05940285 66.44485991 0.06490864 74.04815125 0.06993091 C89.69079314 0.08039074 105.33341253 0.09873373 120.9760437 0.12025452 C120.9760437 9.36025452 120.9760437 18.60025452 120.9760437 28.12025452 C104.78168562 28.18800607 88.58744871 28.24325636 72.3929882 28.27569103 C64.87342119 28.29115209 57.35394857 28.31222698 49.83444214 28.34657288 C43.27952546 28.37649864 36.72467716 28.39583506 30.16969407 28.40252 C26.6996814 28.40642691 23.22986431 28.41559259 19.7599144 28.43744469 C15.88384112 28.46165579 12.0079582 28.46222246 8.13180542 28.46083069 C6.98453476 28.47161652 5.8372641 28.48240234 4.65522766 28.49351501 C-2.35025232 28.46626022 -6.83636997 27.72065389 -12.3989563 23.18275452 C-14.94257667 18.38900844 -14.50361943 13.44372895 -14.0239563 8.12025452 C-13.6939563 7.46025452 -13.3639563 6.80025452 -13.0239563 6.12025452 C-12.3639563 6.45025452 -11.7039563 6.78025452 -11.0239563 7.12025452 C-11.3539563 7.78025452 -11.6839563 8.44025452 -12.0239563 9.12025452 C-12.37777657 14.51601367 -12.41934168 17.68013517 -9.0239563 22.12025452 C-5.62535703 25.51885379 -1.40729563 25.2451944 3.20890808 25.2784729 C4.2423082 25.28826172 5.27570831 25.29805054 6.34042358 25.30813599 C7.4632373 25.31389145 8.58605103 25.31964691 9.7428894 25.32557678 C11.52888802 25.34042618 11.52888802 25.34042618 13.35096741 25.35557556 C16.6067533 25.38170956 19.86253427 25.40359371 23.11836267 25.42357755 C26.52433383 25.44549144 29.93026115 25.47285362 33.3361969 25.49963379 C39.78171241 25.54948778 46.22725235 25.59445357 52.6728155 25.63765615 C60.01260306 25.68709098 67.35234662 25.74198589 74.69209158 25.79733574 C89.78670269 25.91104379 104.8813555 26.0171863 119.9760437 26.12025452 C119.9760437 18.20025452 119.9760437 10.28025452 119.9760437 2.12025452 C103.87749224 2.22824023 87.77898576 2.3402383 71.68051529 2.45959377 C64.20579839 2.51488281 56.73107672 2.5683577 49.25631714 2.61756897 C42.74167682 2.66046374 36.22707103 2.70675506 29.71248412 2.75713307 C26.26275332 2.78369138 22.81302918 2.80854333 19.36325836 2.82932854 C15.51311173 2.85258966 11.66304626 2.88343351 7.81295776 2.91493225 C6.09529205 2.92356544 6.09529205 2.92356544 4.34292603 2.93237305 C3.29407227 2.94216187 2.24521851 2.95195068 1.1645813 2.96203613 C-0.2015159 2.97171496 -0.2015159 2.97171496 -1.59521103 2.98158932 C-3.87277674 3.11162317 -5.84016852 3.48154311 -8.0239563 4.12025452 C-7.6939563 3.13025452 -7.3639563 2.14025452 -7.0239563 1.12025452 C-4.51220465 -0.13562131 -2.81158729 -0.00279482 0 0 Z " fill="#ABACB8" transform="translate(192.02395629882813,315.87974548339844)"/>
<path d="M0 0 C1.22018829 -0.00503792 1.22018829 -0.00503792 2.46502686 -0.01017761 C5.15117931 -0.01966865 7.83726933 -0.02162962 10.5234375 -0.02270508 C12.39143906 -0.02591832 14.25944037 -0.02928245 16.12744141 -0.03279114 C20.04134708 -0.03877734 23.95523069 -0.0406315 27.86914062 -0.04003906 C32.88629886 -0.03993733 37.90331593 -0.05360352 42.92044067 -0.07081127 C46.77743176 -0.08192305 50.63438859 -0.08395854 54.49139404 -0.08342934 C56.34137459 -0.08461015 58.191356 -0.08903762 60.0413208 -0.0967617 C62.62660666 -0.10654742 65.21158429 -0.10368947 67.796875 -0.09765625 C68.56167175 -0.10327576 69.32646851 -0.10889526 70.11444092 -0.11468506 C73.86319659 -0.09242893 76.71767665 0.04807621 79.8984375 2.14526367 C76.84006223 3.67445131 74.2377674 2.6445296 70.8984375 2.14526367 C68.54572976 2.05821274 66.19098705 2.01743286 63.83666992 2.01586914 C63.16896072 2.01411682 62.50125153 2.0123645 61.81330872 2.01055908 C59.62681402 2.00619244 57.44040163 2.00906117 55.25390625 2.01245117 C53.71844975 2.0117764 52.18299336 2.01080494 50.64753723 2.009552 C47.43583149 2.00808184 44.22415365 2.01020674 41.01245117 2.01489258 C36.9208334 2.02057496 32.82928146 2.01731598 28.73766613 2.01132011 C25.56756608 2.00768369 22.39748129 2.00886741 19.22738075 2.01144791 C17.7200857 2.01210943 16.21278921 2.01131622 14.70549583 2.00896835 C-0.1467275 0.88998154 -0.1467275 0.88998154 -13.1015625 6.14526367 C-13.65468239 10.47803613 -13.10143508 12.14551851 -11.1015625 16.14526367 C33.9434375 15.65026367 33.9434375 15.65026367 79.8984375 15.14526367 C79.8984375 15.80526367 79.8984375 16.46526367 79.8984375 17.14526367 C75.93269505 18.45132371 71.92131567 18.28557459 67.796875 18.2746582 C66.98341614 18.27641052 66.16995728 18.27816284 65.33184814 18.27996826 C62.6456895 18.28436578 59.95959681 18.28145616 57.2734375 18.27807617 C55.40543607 18.27874981 53.53743472 18.27972034 51.66943359 18.28097534 C47.75552536 18.28244947 43.84163996 18.28030689 39.92773438 18.27563477 C34.91061587 18.26993766 29.89355087 18.27321818 24.87643433 18.27920723 C21.01944577 18.28282051 17.1624699 18.28167071 13.30548096 18.27907944 C11.45550531 18.2784123 9.60552851 18.27923117 7.7555542 18.28155899 C5.17033842 18.28409806 2.58520932 18.28022715 0 18.2746582 C-1.14719513 18.27769455 -1.14719513 18.27769455 -2.31756592 18.28079224 C-10.99820079 18.24614592 -10.99820079 18.24614592 -13.83984375 15.41088867 C-15.35945136 12.68218151 -15.41142087 10.99500913 -15.2890625 7.89526367 C-15.26199219 7.00323242 -15.23492187 6.11120117 -15.20703125 5.19213867 C-15.17222656 4.51666992 -15.13742188 3.84120117 -15.1015625 3.14526367 C-14.1115625 3.14526367 -13.1215625 3.14526367 -12.1015625 3.14526367 C-12.1015625 2.48526367 -12.1015625 1.82526367 -12.1015625 1.14526367 C-8.13647955 -0.15794626 -4.12379751 -0.00244359 0 0 Z " fill="#C6C6D4" transform="translate(216.1015625,177.854736328125)"/>
<path d="M0 0 C1.5 1.25390625 1.5 1.25390625 3 3 C3 8.49519231 3 8.49519231 2 11 C-1.70226053 14.58325717 -4.02626162 15.49861991 -9.14399719 15.48101807 C-10.99700691 15.48926605 -10.99700691 15.48926605 -12.88745117 15.49768066 C-14.24829493 15.48352603 -15.60913474 15.46898681 -16.9699707 15.45410156 C-18.40911324 15.45297275 -19.84825809 15.45360761 -21.28739929 15.45587158 C-25.18800771 15.45701836 -29.08812323 15.43351541 -32.98861718 15.40557575 C-37.06718965 15.3805558 -41.14577364 15.37821964 -45.22441101 15.37347412 C-52.94503424 15.36104606 -60.66543068 15.32822684 -68.38595408 15.28807616 C-77.17668088 15.2433531 -85.96741855 15.22137008 -94.75823081 15.20129442 C-112.83894908 15.15949399 -130.9194563 15.08914532 -149 15 C-149 14.67 -149 14.34 -149 14 C-147.89094189 13.99365209 -147.89094189 13.99365209 -146.75947857 13.98717594 C-128.78282625 13.88394657 -110.806214 13.77532043 -92.82963085 13.66066074 C-84.13635291 13.60534322 -75.44307087 13.55186362 -66.74975586 13.50268555 C-59.17414876 13.45982571 -51.59857171 13.41354314 -44.02301103 13.36312145 C-40.01048465 13.33653503 -35.99796418 13.3116823 -31.98540306 13.29092598 C-28.21060963 13.27134558 -24.4358733 13.24719756 -20.66113091 13.21950912 C-19.27398973 13.21014613 -17.88683603 13.20246814 -16.49967575 13.19658089 C-14.6089455 13.18830707 -12.71824749 13.17344142 -10.82756042 13.15821838 C-9.23885022 13.14853956 -9.23885022 13.14853956 -7.61804485 13.1386652 C-4.88822089 13.11030046 -4.88822089 13.11030046 -2 12 C0.13586678 8.79619983 0.23132175 7.98060033 0.125 4.3125 C0.10695313 3.50425781 0.08890625 2.69601562 0.0703125 1.86328125 C0.04710937 1.24839844 0.02390625 0.63351562 0 0 Z " fill="#C5C6D6" transform="translate(336,345)"/>
<path d="M0 0 C1.22018829 -0.00503792 1.22018829 -0.00503792 2.46502686 -0.01017761 C5.15117931 -0.01966865 7.83726933 -0.02162962 10.5234375 -0.02270508 C12.39143906 -0.02591832 14.25944037 -0.02928245 16.12744141 -0.03279114 C20.04134708 -0.03877734 23.95523069 -0.0406315 27.86914062 -0.04003906 C32.88629886 -0.03993733 37.90331593 -0.05360352 42.92044067 -0.07081127 C46.77743176 -0.08192305 50.63438859 -0.08395854 54.49139404 -0.08342934 C56.34137459 -0.08461015 58.191356 -0.08903762 60.0413208 -0.0967617 C62.62660666 -0.10654742 65.21158429 -0.10368947 67.796875 -0.09765625 C68.56167175 -0.10327576 69.32646851 -0.10889526 70.11444092 -0.11468506 C73.86319659 -0.09242893 76.71767665 0.04807621 79.8984375 2.14526367 C76.84006223 3.67445131 74.2377674 2.6445296 70.8984375 2.14526367 C68.54572976 2.05821274 66.19098705 2.01743286 63.83666992 2.01586914 C63.16896072 2.01411682 62.50125153 2.0123645 61.81330872 2.01055908 C59.62681402 2.00619244 57.44040163 2.00906117 55.25390625 2.01245117 C53.71844975 2.0117764 52.18299336 2.01080494 50.64753723 2.009552 C47.43583149 2.00808184 44.22415365 2.01020674 41.01245117 2.01489258 C36.9208334 2.02057496 32.82928146 2.01731598 28.73766613 2.01132011 C25.56756608 2.00768369 22.39748129 2.00886741 19.22738075 2.01144791 C17.7200857 2.01210943 16.21278921 2.01131622 14.70549583 2.00896835 C-0.12221262 0.92539716 -0.12221262 0.92539716 -13.1015625 6.14526367 C-13.58213965 8.19412847 -13.58213965 8.19412847 -13.3515625 10.33276367 C-13.2690625 11.59088867 -13.1865625 12.84901367 -13.1015625 14.14526367 C-13.7615625 13.81526367 -14.4215625 13.48526367 -15.1015625 13.14526367 C-15.1015625 9.84526367 -15.1015625 6.54526367 -15.1015625 3.14526367 C-14.1115625 3.14526367 -13.1215625 3.14526367 -12.1015625 3.14526367 C-12.1015625 2.48526367 -12.1015625 1.82526367 -12.1015625 1.14526367 C-8.13647955 -0.15794626 -4.12379751 -0.00244359 0 0 Z " fill="#A7A8B8" transform="translate(216.1015625,177.854736328125)"/>
<path d="M0 0 C1.16660156 0.00322266 2.33320313 0.00644531 3.53515625 0.00976562 C4.75847656 0.01814453 5.98179687 0.02652344 7.2421875 0.03515625 C8.47324219 0.03966797 9.70429688 0.04417969 10.97265625 0.04882812 C14.02088142 0.06064295 17.06901064 0.07711597 20.1171875 0.09765625 C19.7871875 0.75765625 19.4571875 1.41765625 19.1171875 2.09765625 C18.41110352 2.1227124 17.70501953 2.14776855 16.97753906 2.17358398 C13.77391241 2.28972994 10.57056632 2.41237228 7.3671875 2.53515625 C6.25601563 2.57447266 5.14484375 2.61378906 4 2.65429688 C2.39511719 2.71713867 2.39511719 2.71713867 0.7578125 2.78125 C-0.71896973 2.83623657 -0.71896973 2.83623657 -2.22558594 2.89233398 C-4.57204801 3.07364367 -6.62999662 3.44097444 -8.8828125 4.09765625 C-8.5528125 3.10765625 -8.2228125 2.11765625 -7.8828125 1.09765625 C-5.16879956 -0.25935022 -3.03434934 -0.01472985 0 0 Z " fill="#9291C4" transform="translate(192.8828125,315.90234375)"/>
<path d="M0 0 C1.98 0 3.96 0 6 0 C5.34805664 0.38969971 4.69611328 0.77939941 4.02441406 1.1809082 C1.78775612 2.82229312 1.78775612 2.82229312 1.54589844 5.36010742 C1.5668457 6.26607666 1.58779297 7.1720459 1.609375 8.10546875 C1.62226563 9.08837891 1.63515625 10.07128906 1.6484375 11.08398438 C1.68195313 12.10814453 1.71546875 13.13230469 1.75 14.1875 C1.76804687 15.22326172 1.78609375 16.25902344 1.8046875 17.32617188 C1.85185563 19.88504284 1.91765943 22.44205842 2 25 C3.98 25.99 5.96 26.98 8 28 C7.34 28.33 6.68 28.66 6 29 C4.02 28.34 2.04 27.68 0 27 C0 18.09 0 9.18 0 0 Z " fill="#BEBEC8" transform="translate(328,316)"/>
<path d="M0 0 C0.33 0 0.66 0 1 0 C1.0740421 5.09029944 1.12855008 10.18028692 1.16479492 15.27099609 C1.1799009 17.00347349 1.20038694 18.73591254 1.22631836 20.46826172 C1.26262321 22.95549978 1.27970765 25.44223326 1.29296875 27.9296875 C1.30845261 28.70682098 1.32393646 29.48395447 1.33988953 30.28463745 C1.34057617 32.46826172 1.34057617 32.46826172 1 36 C0.01 36.66 -0.98 37.32 -2 38 C-2 36.68 -2 35.36 -2 34 C-1.34 34 -0.68 34 0 34 C0 22.78 0 11.56 0 0 Z " fill="#9899A5" transform="translate(337,278)"/>
<path d="M0 0 C1.5078125 1.25 1.5078125 1.25 3 3 C3.33576058 6.62037499 2.63390237 10.0038677 0.6875 13.0625 C-1 14 -1 14 -3.1875 13.6875 C-3.785625 13.460625 -4.38375 13.23375 -5 13 C-4.01 12.67 -3.02 12.34 -2 12 C0.13586678 8.79619983 0.23132175 7.98060033 0.125 4.3125 C0.10695313 3.50425781 0.08890625 2.69601562 0.0703125 1.86328125 C0.04710937 1.24839844 0.02390625 0.63351562 0 0 Z " fill="#BFBCCA" transform="translate(336,345)"/>
<path d="M0 0 C0.33 0 0.66 0 1 0 C1.00257813 0.61488281 1.00515625 1.22976563 1.0078125 1.86328125 C1.12782055 4.37144958 1.31774275 6.57991767 2 9 C4.90251302 11.16247221 4.90251302 11.16247221 8 12 C6 13 6 13 2.875 12.0625 C1.92625 11.711875 0.9775 11.36125 0 11 C0 7.37 0 3.74 0 0 Z " fill="#ACACB6" transform="translate(328,332)"/>
<path d="M0 0 C0 0.33 0 0.66 0 1 C-3.63 1.66 -7.26 2.32 -11 3 C-10.67 2.01 -10.34 1.02 -10 0 C-6.7169902 -1.6415049 -3.57454967 -0.51888624 0 0 Z " fill="#B0B0BB" transform="translate(195,317)"/>
<path d="M0 0 C0.99 0 1.98 0 3 0 C2.85892253 1.45880109 2.71197585 2.91703551 2.5625 4.375 C2.48128906 5.18710938 2.40007812 5.99921875 2.31640625 6.8359375 C2 9 2 9 1 11 C0 10 0 10 -0.09765625 7.71484375 C-0.08605469 6.79832031 -0.07445312 5.88179687 -0.0625 4.9375 C-0.05347656 4.01839844 -0.04445312 3.09929687 -0.03515625 2.15234375 C-0.02355469 1.44207031 -0.01195312 0.73179687 0 0 Z " fill="#9091A9" transform="translate(201,181)"/>
</svg>
