<?xml version="1.0" encoding="UTF-8"?>
<svg version="1.1" xmlns="http://www.w3.org/2000/svg" width="500" height="500">
<path d="M0 0 C0 0.66 0 1.32 0 2 C0.90878906 2.38865234 0.90878906 2.38865234 1.8359375 2.78515625 C4.23340593 4.13102752 5.12769336 5.15479631 6.625 7.4375 C7.14964844 8.21996094 7.67429687 9.00242188 8.21484375 9.80859375 C9.70192317 12.4671143 10.82317108 14.96689771 11.94140625 17.78515625 C15.04690031 25.46801487 15.04690031 25.46801487 20 32 C25.48073967 34.22680727 31.42186787 33.69757866 37.1875 32.98266602 C39 33 39 33 41 35 C41.67491564 41.97412823 41.67491564 41.97412823 39.4375 45.375 C36.41477974 47.39014684 33.52218907 48.18718714 30 49 C32.19591151 52.96953235 34.49111797 56.7615568 37.0625 60.5 C42.67803751 68.85240302 44.15346564 76.56415822 44.16796875 86.50390625 C44.17129715 87.30481186 44.17462555 88.10571747 44.17805481 88.93089294 C44.18309525 90.61595082 44.18546403 92.30101858 44.18530273 93.98608398 C44.18749612 96.55794661 44.20570098 99.12938458 44.22460938 101.70117188 C44.22754257 103.34374854 44.22952786 104.98632723 44.23046875 106.62890625 C44.23765427 107.39360733 44.24483978 108.15830841 44.25224304 108.94618225 C44.23464612 113.07011187 43.97974019 116.34747205 42 120 C41.47140381 120.50853516 40.94280762 121.01707031 40.39819336 121.54101562 C38.52193305 123.49885247 38.63145505 124.66808044 38.62890625 127.34375 C38.60280273 128.59478516 38.60280273 128.59478516 38.57617188 129.87109375 C38.56705737 131.62368196 38.56184896 133.37629483 38.56054688 135.12890625 C38.4203504 141.38456986 38.4203504 141.38456986 36.5859375 144.0703125 C32.44777373 145.55805113 28.42411761 145.43135974 24.0625 145.375 C23.16853516 145.38660156 22.27457031 145.39820313 21.35351562 145.41015625 C17.64839271 145.39365236 14.47504185 145.13735427 10.90625 144.10546875 C7.7155445 140.58130838 8.39224639 136.51283687 8.4375 131.9375 C8.22019227 120.71436222 6.42702323 113.3573944 -0.828125 104.59375 C-2 103 -2 103 -2 101 C-6.61051855 99.21446672 -10.46256416 98.74300987 -15.39477539 98.7253418 C-16.10938431 98.72023087 -16.82399323 98.71511993 -17.56025696 98.70985413 C-19.90614352 98.69603183 -22.25173399 98.69690878 -24.59765625 98.69921875 C-26.23620207 98.69532879 -27.87474688 98.6909935 -29.51329041 98.68623352 C-32.94029009 98.67878793 -36.3671867 98.67905125 -39.79418945 98.68432617 C-44.1812933 98.69012962 -48.56797618 98.67316086 -52.95501041 98.6499815 C-56.33595741 98.63523982 -59.71680298 98.63437285 -63.09777641 98.63749123 C-64.71527378 98.63697859 -66.33277691 98.63175174 -67.950243 98.62167931 C-70.21197959 98.60931851 -72.47289532 98.61610286 -74.73461914 98.62768555 C-76.0200209 98.62705612 -77.30542267 98.6264267 -78.629776 98.6257782 C-83.15959871 99.12875913 -85.72253562 100.70128881 -88.87890625 103.91015625 C-96.75344934 113.97714753 -98.50842344 122.14272975 -98.49755859 134.77636719 C-98.50867676 135.66356445 -98.51979492 136.55076172 -98.53125 137.46484375 C-98.52673828 138.265271 -98.52222656 139.06569824 -98.51757812 139.89038086 C-99 142 -99 142 -100.77197266 143.76074219 C-103.14975149 145.08329373 -104.4271576 145.37481975 -107.1171875 145.36328125 C-107.88933594 145.36263672 -108.66148437 145.36199219 -109.45703125 145.36132812 C-110.65392578 145.3371582 -110.65392578 145.3371582 -111.875 145.3125 C-113.06029297 145.31733398 -113.06029297 145.31733398 -114.26953125 145.32226562 C-118.85872727 145.28026799 -122.73645217 144.89119755 -127 143 C-128.17426264 140.65147472 -128.11508173 139.26225935 -128.09765625 136.6484375 C-128.09443359 135.79765625 -128.09121094 134.946875 -128.08789062 134.0703125 C-128.07532227 132.73613281 -128.07532227 132.73613281 -128.0625 131.375 C-128.05798828 130.4778125 -128.05347656 129.580625 -128.04882812 128.65625 C-128.03702591 126.43743352 -128.02056155 124.21874982 -128 122 C-128.639375 121.71125 -129.27875 121.4225 -129.9375 121.125 C-132 120 -132 120 -133 118 C-133.10926962 116.59798411 -133.15897401 115.19106409 -133.17700195 113.78491211 C-133.18983719 112.91317856 -133.20267242 112.04144501 -133.21589661 111.14329529 C-133.22328354 110.19753128 -133.23067047 109.25176727 -133.23828125 108.27734375 C-133.246353 107.30269669 -133.25442474 106.32804962 -133.26274109 105.3238678 C-133.27659178 103.25507388 -133.28730951 101.18625701 -133.29516602 99.11743164 C-133.31229929 95.97432043 -133.35616717 92.83228295 -133.40039062 89.68945312 C-133.41052466 87.67709105 -133.41903853 85.66472004 -133.42578125 83.65234375 C-133.44328934 82.72074936 -133.46079742 81.78915497 -133.47883606 80.82933044 C-133.45156524 72.49774183 -130.75891364 66.10171104 -126 59.3125 C-125.49210938 58.57773438 -124.98421875 57.84296875 -124.4609375 57.0859375 C-123.97882813 56.39757812 -123.49671875 55.70921875 -123 55 C-122.20495977 53.81475598 -121.41279441 52.62757241 -120.625 51.4375 C-119.820625 50.2309375 -119.820625 50.2309375 -119 49 C-119.61488281 48.82984375 -120.22976562 48.6596875 -120.86328125 48.484375 C-127.37209302 46.53276956 -127.37209302 46.53276956 -130.0625 44.25 C-131.39803711 41.04471094 -131.31752326 38.42925123 -131 35 C-130.34 34.34 -129.68 33.68 -129 33 C-126.89206092 33.21163205 -124.78416016 33.42365721 -122.67651367 33.63818359 C-118.12508435 33.94913188 -114.18762998 33.98316098 -110 32 C-105.50072356 27.01949369 -103.11360749 20.8001863 -100.54296875 14.6796875 C-97.38213661 7.21174702 -93.64860395 2.06494977 -86.10791016 -1.27539062 C-82.49820835 -2.51625175 -78.98122538 -2.95785141 -75.1875 -3.25 C-74.31150146 -3.32444336 -73.43550293 -3.39888672 -72.53295898 -3.47558594 C-19.23106954 -7.3703616 -19.23106954 -7.3703616 0 0 Z M-86.5859375 11.0390625 C-89.70897002 14.86957811 -91.60983894 18.88605502 -93.625 23.375 C-94.19734375 24.6125 -94.19734375 24.6125 -94.78125 25.875 C-96.93333117 30.55021081 -98.99427706 35.26036171 -101 40 C-99.49764115 41.50235885 -98.07279436 41.29920636 -95.9765625 41.5 C-95.13125977 41.5820166 -94.28595703 41.6640332 -93.41503906 41.74853516 C-92.49432617 41.83151855 -91.57361328 41.91450195 -90.625 42 C-89.66819336 42.08685059 -88.71138672 42.17370117 -87.72558594 42.26318359 C-54.84202488 45.16211479 -21.79745529 44.85648044 11 41 C9.91416092 36.11580695 7.78848662 31.73616188 5.75 27.1875 C5.36714844 26.31029297 4.98429687 25.43308594 4.58984375 24.52929688 C1.74383938 18.16624029 -1.04657321 11.9689512 -7 8 C-10.85920851 6.95715571 -14.54628138 6.86802173 -18.53100586 6.85473633 C-19.83263168 6.84835648 -21.13425751 6.84197662 -22.47532654 6.83540344 C-23.88849856 6.8338747 -25.30167109 6.83276077 -26.71484375 6.83203125 C-28.17306043 6.82881531 -29.63127679 6.82545098 -31.0894928 6.82194519 C-34.14161934 6.81596791 -37.19371763 6.81410389 -40.24584961 6.81469727 C-44.14740083 6.81479891 -48.04877016 6.80113831 -51.95027828 6.78392506 C-54.96066615 6.77278168 -57.97101033 6.77077876 -60.9814167 6.77130699 C-62.41945587 6.77013073 -63.85749631 6.76572885 -65.29551506 6.75797462 C-67.31018586 6.74812623 -69.32491034 6.7523295 -71.33959961 6.75708008 C-72.48367783 6.75565506 -73.62775604 6.75423004 -74.8065033 6.75276184 C-79.48050529 7.11461963 -82.89690334 8.13018662 -86.5859375 11.0390625 Z M-121 68 C-122.3141908 71.77829856 -122.21535601 73.45084218 -120.75 77.1875 C-118.42519822 80.92378858 -117.19757505 82.60080832 -113 84 C-111.04433497 84.11979145 -109.08429234 84.17528496 -107.125 84.1875 C-106.09632813 84.20167969 -105.06765625 84.21585938 -104.0078125 84.23046875 C-100.8842478 83.99113068 -98.76788411 83.45145143 -96 82 C-93.74844124 79.26357821 -93.74844124 79.26357821 -94.109375 76.57421875 C-95.2229966 73.35546157 -96.67390763 72.01753271 -99.25 69.8125 C-100.01828125 69.13832031 -100.7865625 68.46414062 -101.578125 67.76953125 C-107.93210984 63.12702297 -115.31319919 61.6441638 -121 68 Z M6.8125 71.875 C4.671288 74.94771223 4.671288 74.94771223 5.0625 78.8125 C5.5265625 80.3903125 5.5265625 80.3903125 6 82 C8.96384698 83.48192349 12.05702407 83.49552047 15.3125 83.75 C15.97701172 83.81832031 16.64152344 83.88664062 17.32617188 83.95703125 C21.8600584 84.30682665 24.39439256 83.76603459 28 81 C30.68901832 78.31098168 31.87162421 76.77025473 32.5 73 C31.88466097 69.30796584 30.58383614 67.65983132 28 65 C20.81713399 61.408567 11.89034704 66.59857793 6.8125 71.875 Z M-83 71 C-84.51988393 75.83264921 -84.51988393 75.83264921 -82.3125 79.125 C-79.50977137 82.60947343 -77.73896753 84.75455769 -73.20559692 85.39440918 C-71.59393143 85.40703796 -71.59393143 85.40703796 -69.94970703 85.41992188 C-68.72808868 85.43583374 -67.50647034 85.45174561 -66.24783325 85.46813965 C-64.9311264 85.46834106 -63.61441956 85.46854248 -62.2578125 85.46875 C-60.88784474 85.4758548 -59.51787994 85.48355427 -58.1479187 85.49182129 C-55.27805307 85.50525828 -52.40846247 85.50683898 -49.53857422 85.50097656 C-45.87083125 85.4950864 -42.20441476 85.52564432 -38.53692818 85.56609344 C-35.70747844 85.59201775 -32.87834591 85.5948436 -30.04879379 85.59120178 C-28.04247515 85.59370672 -26.03622354 85.61837539 -24.03005981 85.64343262 C-16.6538561 85.78762903 -16.6538561 85.78762903 -10.24951172 82.65039062 C-6.38550952 78.09779589 -6 77.40475454 -6 71 C-31.41 71 -56.82 71 -83 71 Z M-120 101 C-122.4756762 104.7135143 -122.64466177 107.69667338 -122 112 C-120.76546291 115.14744519 -120.76546291 115.14744519 -118 117 C-114.87904285 117.64709754 -112.12218956 117.63706441 -109 117 C-106.49839182 115.12379387 -105.38054348 113.76108697 -104 111 C-103.64546077 105.62332623 -103.64546077 105.62332623 -106 101 C-112.49254827 97.81067804 -113.7482276 97.55514582 -120 101 Z M15 103 C13.84217469 106.98002449 13.54656667 109.02835714 15.3125 112.8125 C16.96234177 115.04765599 16.96234177 115.04765599 19 117 C23.55943179 117.4484687 25.91509446 117.60016051 29.9375 115.375 C32.4910849 112.43450829 33 110.88714368 33 107 C31.47126129 103.02527937 30.57219503 101.38146335 27 99 C21.60555623 98.40061736 18.63493096 98.83052037 15 103 Z " fill="#6F7088" transform="translate(295,179)"/>
<path d="M0 0 C1.29768311 -0.0004985 2.59536621 -0.00099701 3.93237305 -0.00151062 C6.66564744 -0.00142145 9.39862353 0.0088944 12.13183594 0.02709961 C15.6115314 0.04978487 19.09079229 0.05032488 22.57054138 0.04358196 C25.92207584 0.03941124 29.27348038 0.05143283 32.625 0.0625 C33.8627417 0.06158859 35.1004834 0.06067719 36.37573242 0.05973816 C52.34852613 0.18970041 52.34852613 0.18970041 58.125 4.42578125 C62.09223897 9.75321644 65.28693023 15.54226962 64.3125 22.36328125 C62.3125 25.36328125 62.3125 25.36328125 59.3125 26.36328125 C56.71275168 26.46452693 54.13974335 26.5101232 51.53979492 26.50854492 C50.74920181 26.51190353 49.9586087 26.51526215 49.14405823 26.51872253 C46.52701247 26.52823134 43.91003072 26.53017574 41.29296875 26.53125 C39.47316969 26.53446308 37.6533709 26.53782719 35.83357239 26.54133606 C32.01623943 26.54732747 28.19892912 26.54917599 24.3815918 26.54858398 C19.49575745 26.54848246 14.61006877 26.56212409 9.72426891 26.57935619 C5.96413001 26.59048922 2.20402615 26.59250278 -1.55612755 26.59197426 C-3.35700672 26.59315281 -5.15788684 26.59756761 -6.95874977 26.60530663 C-9.48147314 26.61513096 -12.00388264 26.61221865 -14.52661133 26.60620117 C-15.2670871 26.61182068 -16.00756287 26.61744019 -16.77047729 26.62322998 C-21.11830768 26.59694719 -24.64472056 25.96227272 -28.6875 24.36328125 C-30.62994144 18.2122167 -28.269696 13.89788057 -25.6875 8.36328125 C-25.295625 7.39390625 -24.90375 6.42453125 -24.5 5.42578125 C-18.71286087 -1.15958396 -7.96091613 -0.05923532 0 0 Z " fill="#73748B" transform="translate(232.6875,283.63671875)"/>
<path d="M0 0 C1.13663589 -0.00009064 1.13663589 -0.00009064 2.29623413 -0.00018311 C11.81098864 0.01057269 21.26719913 0.2011765 30.75 1.0625 C31.61310791 1.14089111 32.47621582 1.21928223 33.36547852 1.30004883 C37.8009518 1.76985675 41.74188289 2.57951792 45.9375 4.1875 C45.9375 4.8475 45.9375 5.5075 45.9375 6.1875 C46.54078125 6.44144531 47.1440625 6.69539062 47.765625 6.95703125 C53.88368176 10.4231965 57.06137428 19.09368581 60.3125 25.125 C60.67053711 25.78781982 61.02857422 26.45063965 61.39746094 27.13354492 C63.9375 31.93917492 63.9375 31.93917492 63.9375 34.1875 C62.9475 34.1875 61.9575 34.1875 60.9375 34.1875 C60.2775 33.5275 59.6175 32.8675 58.9375 32.1875 C56.82929203 32.5060177 56.82929203 32.5060177 54.9375 33.1875 C54.9375 34.8375 54.9375 36.4875 54.9375 38.1875 C51.42114966 33.98316807 49.36283378 29.05368411 47.07421875 24.11914062 C44.94710331 19.70351383 42.82912889 16.32341502 38.9375 13.1875 C34.91079417 12.05847691 31.0161862 12.06657871 26.85229492 12.07397461 C26.15906128 12.07382858 25.46582764 12.07368256 24.75158691 12.0735321 C22.47368171 12.07422549 20.19585957 12.08199085 17.91796875 12.08984375 C16.33327784 12.09170997 14.74858635 12.09313291 13.16389465 12.09413147 C9.0030049 12.09794057 4.84215032 12.10775708 0.68127441 12.11883545 C-3.56859868 12.12908418 -7.81847748 12.1336365 -12.06835938 12.13867188 C-20.39975569 12.14938084 -28.73112346 12.16643789 -37.0625 12.1875 C-37.0625 11.5275 -37.0625 10.8675 -37.0625 10.1875 C-27.18787698 10.16436201 -17.31326037 10.14657745 -7.4386158 10.13568783 C-2.85376149 10.1304622 1.73107431 10.12337033 6.31591797 10.11206055 C10.73791817 10.10122033 15.15990054 10.09522075 19.58191299 10.09262276 C21.27166144 10.09077056 22.96140887 10.08715386 24.65114975 10.08176994 C27.01208378 10.07454449 29.37294347 10.0735097 31.73388672 10.07397461 C32.78908508 10.0685817 32.78908508 10.0685817 33.86560059 10.06307983 C38.70939568 10.07344784 38.70939568 10.07344784 40.9375 11.1875 C40.9375 11.8475 40.9375 12.5075 40.9375 13.1875 C42.2575 13.1875 43.5775 13.1875 44.9375 13.1875 C44.9375 14.5075 44.9375 15.8275 44.9375 17.1875 C45.9275 17.1875 46.9175 17.1875 47.9375 17.1875 C48.9464034 12.95103233 48.9464034 12.95103233 48 8.8125 C47.649375 8.27625 47.29875 7.74 46.9375 7.1875 C46.2775 7.1875 45.6175 7.1875 44.9375 7.1875 C44.9375 6.5275 44.9375 5.8675 44.9375 5.1875 C39.6575 4.8575 34.3775 4.5275 28.9375 4.1875 C28.9375 3.5275 28.9375 2.8675 28.9375 2.1875 C11.1175 2.1875 -6.7025 2.1875 -25.0625 2.1875 C-25.0625 2.8475 -25.0625 3.5075 -25.0625 4.1875 C-33.4775 4.6825 -33.4775 4.6825 -42.0625 5.1875 C-42.3925 6.1775 -42.7225 7.1675 -43.0625 8.1875 C-44.3825 7.8575 -45.7025 7.5275 -47.0625 7.1875 C-33.17951593 -1.48936504 -15.8641949 -0.01957281 0 0 Z " fill="#73748B" transform="translate(249.0625,174.8125)"/>
<path d="M0 0 C1.13663589 -0.00009064 1.13663589 -0.00009064 2.29623413 -0.00018311 C11.81098864 0.01057269 21.26719913 0.2011765 30.75 1.0625 C31.61310791 1.14089111 32.47621582 1.21928223 33.36547852 1.30004883 C37.8009518 1.76985675 41.74188289 2.57951792 45.9375 4.1875 C45.9375 4.8475 45.9375 5.5075 45.9375 6.1875 C46.494375 6.373125 47.05125 6.55875 47.625 6.75 C50.96884807 8.82860826 52.98557828 11.79563602 54.9375 15.1875 C54.9375 15.8475 54.9375 16.5075 54.9375 17.1875 C51.63463914 16.08654638 51.15239099 15.4978981 49.25 12.75 C48.81300781 12.13253906 48.37601562 11.51507813 47.92578125 10.87890625 C46.9375 9.1875 46.9375 9.1875 46.9375 7.1875 C46.2775 7.1875 45.6175 7.1875 44.9375 7.1875 C44.9375 6.5275 44.9375 5.8675 44.9375 5.1875 C39.6575 4.8575 34.3775 4.5275 28.9375 4.1875 C28.9375 3.5275 28.9375 2.8675 28.9375 2.1875 C11.1175 2.1875 -6.7025 2.1875 -25.0625 2.1875 C-25.0625 2.8475 -25.0625 3.5075 -25.0625 4.1875 C-33.4775 4.6825 -33.4775 4.6825 -42.0625 5.1875 C-42.3925 6.1775 -42.7225 7.1675 -43.0625 8.1875 C-44.3825 7.8575 -45.7025 7.5275 -47.0625 7.1875 C-33.17951593 -1.48936504 -15.8641949 -0.01957281 0 0 Z " fill="#A9A8B6" transform="translate(249.0625,174.8125)"/>
<path d="M0 0 C0.66 0 1.32 0 2 0 C1.5256902 4.2687882 -0.80716564 6.31511656 -4 9 C-7.62806496 10.00063208 -11.07837418 10.12643238 -14.82836914 10.12939453 C-15.97628433 10.13254669 -17.12419952 10.13569885 -18.30690002 10.13894653 C-19.53722458 10.1369223 -20.76754913 10.13489807 -22.03515625 10.1328125 C-23.30596542 10.13376923 -24.5767746 10.13472595 -25.88609314 10.13571167 C-28.57001161 10.13639161 -31.25383875 10.13505383 -33.93774414 10.13037109 C-37.37310722 10.1246684 -40.80839225 10.12796016 -44.24375248 10.13394356 C-47.52838985 10.13843033 -50.81301786 10.1352872 -54.09765625 10.1328125 C-55.94617943 10.13584885 -55.94617943 10.13584885 -57.83204651 10.13894653 C-58.97680954 10.13579437 -60.12157257 10.13264221 -61.30102539 10.12939453 C-62.81062584 10.12820114 -62.81062584 10.12820114 -64.35072327 10.12698364 C-66.72693064 10.01308861 -68.72937909 9.67948535 -71 9 C-71 8.34 -71 7.68 -71 7 C-70.20930618 7.00888245 -69.41861237 7.01776489 -68.60395813 7.0269165 C-61.14446502 7.10713727 -53.68518169 7.16800202 -46.22536945 7.20724869 C-42.39037453 7.22810438 -38.55573669 7.25638415 -34.72094727 7.30175781 C-31.01860747 7.34528908 -27.31661066 7.36915229 -23.61403465 7.37950897 C-22.20303131 7.38688742 -20.79204628 7.40129614 -19.38118935 7.42292023 C-17.40185552 7.45204479 -15.42217498 7.45363467 -13.44262695 7.45410156 C-12.31677689 7.46298401 -11.19092682 7.47186646 -10.03096008 7.48101807 C-6.29408602 6.88797036 -4.68889189 5.61240294 -2 3 C-1.34 2.01 -0.68 1.02 0 0 Z " fill="#C1C1CA" transform="translate(288,256)"/>
<path d="M0 0 C1.32 0.33 2.64 0.66 4 1 C3.125 4.875 3.125 4.875 2 6 C2.99 6.66 3.98 7.32 5 8 C4.27425781 8.62261719 3.54851562 9.24523437 2.80078125 9.88671875 C-0.87752825 13.56502825 -2.71046799 18.12227549 -4.8125 22.8125 C-5.21919922 23.69615234 -5.62589844 24.57980469 -6.04492188 25.49023438 C-7.03992789 27.6558357 -8.02453945 29.82554249 -9 32 C-9.33 32 -9.66 32 -10 32 C-10 30.35 -10 28.7 -10 27 C-9.34 27 -8.68 27 -8 27 C-8 25.68 -8 24.36 -8 23 C-7.34 23 -6.68 23 -6 23 C-6.12375 21.9790625 -6.12375 21.9790625 -6.25 20.9375 C-5.9017576 16.84565178 -4.1172924 14.50676554 -2 11 C-2 10.34 -2 9.68 -2 9 C-5.13349732 7.95550089 -5.98968256 8.06576355 -9 9 C-9 9.99 -9 10.98 -9 12 C-9.66 12 -10.32 12 -11 12 C-9.75865893 8.56244012 -8.5565077 5.65119317 -6 3 C-3.375 2.375 -3.375 2.375 -1 2 C-0.67 1.34 -0.34 0.68 0 0 Z " fill="#818196" transform="translate(207,180)"/>
<path d="M0 0 C9.87462302 -0.02313799 19.74923963 -0.04092255 29.6238842 -0.05181217 C34.20873851 -0.0570378 38.79357431 -0.06412967 43.37841797 -0.07543945 C47.80041817 -0.08627967 52.22240054 -0.09227925 56.64441299 -0.09487724 C58.33416144 -0.09672944 60.02390887 -0.10034614 61.71364975 -0.10573006 C64.07458378 -0.11295551 66.43544347 -0.1139903 68.79638672 -0.11352539 C69.85158508 -0.1189183 69.85158508 -0.1189183 70.92810059 -0.12442017 C75.77189568 -0.11405216 75.77189568 -0.11405216 78 1 C78 1.66 78 2.32 78 3 C79.32 3 80.64 3 82 3 C82 4.32 82 5.64 82 7 C82.66 7 83.32 7 84 7 C83.67 7.99 83.34 8.98 83 10 C82.401875 9.21625 81.80375 8.4325 81.1875 7.625 C78.09494936 3.91393924 75.68297876 2.6494131 71 2 C68.6395317 1.91389682 66.27682937 1.88227917 63.91479492 1.88647461 C63.22156128 1.88632858 62.52832764 1.88618256 61.81408691 1.8860321 C59.53618171 1.88672549 57.25835957 1.89449085 54.98046875 1.90234375 C53.39577784 1.90420997 51.81108635 1.90563291 50.22639465 1.90663147 C46.0655049 1.91044057 41.90465032 1.92025708 37.74377441 1.93133545 C33.49390132 1.94158418 29.24402252 1.9461365 24.99414062 1.95117188 C16.66274431 1.96188084 8.33137654 1.97893789 0 2 C0 1.34 0 0.68 0 0 Z " fill="#A19FAF" transform="translate(212,185)"/>
<path d="M0 0 C0.5669458 0.05534912 1.1338916 0.11069824 1.71801758 0.16772461 C14.8043409 1.4330387 27.86511686 2.42364254 41 3 C40.67 3.66 40.34 4.32 40 5 C36.04168191 5.02892857 32.08339083 5.04677427 28.125 5.0625 C26.43310547 5.07506836 26.43310547 5.07506836 24.70703125 5.08789062 C23.63066406 5.09111328 22.55429688 5.09433594 21.4453125 5.09765625 C20.45031738 5.10289307 19.45532227 5.10812988 18.43017578 5.11352539 C16 5 16 5 14 4 C11.795636 3.77049681 9.58607827 3.58924067 7.375 3.4375 C6.18648437 3.35371094 4.99796875 3.26992187 3.7734375 3.18359375 C2.85820312 3.12300781 1.94296875 3.06242188 1 3 C0.67 2.01 0.34 1.02 0 0 Z " fill="#918FA1" transform="translate(194,219)"/>
<path d="M0 0 C9.41253728 -0.24412921 18.02475823 0.00825274 27 3 C27 3.66 27 4.32 27 5 C27.556875 5.185625 28.11375 5.37125 28.6875 5.5625 C32.03134807 7.64110826 34.04807828 10.60813602 36 14 C36 14.66 36 15.32 36 16 C32.69713914 14.89904638 32.21489099 14.3103981 30.3125 11.5625 C29.87550781 10.94503906 29.43851562 10.32757813 28.98828125 9.69140625 C28 8 28 8 28 6 C27.34 6 26.68 6 26 6 C26 5.34 26 4.68 26 4 C20.72 3.67 15.44 3.34 10 3 C10 2.34 10 1.68 10 1 C6.7 1 3.4 1 0 1 C0 0.67 0 0.34 0 0 Z " fill="#9D9CAA" transform="translate(268,176)"/>
<path d="M0 0 C0.66 0 1.32 0 2 0 C2.33 5.94 2.66 11.88 3 18 C4.65 18 6.3 18 8 18 C8 18.66 8 19.32 8 20 C6.02 20.33 4.04 20.66 2 21 C-0.06723714 17.89914429 -0.24497423 17.27068319 -0.1953125 13.76953125 C-0.18886719 12.96708984 -0.18242187 12.16464844 -0.17578125 11.33789062 C-0.15902344 10.50451172 -0.14226562 9.67113281 -0.125 8.8125 C-0.11597656 7.96751953 -0.10695312 7.12253906 -0.09765625 6.25195312 C-0.07410703 4.16784757 -0.03823647 2.08388783 0 0 Z " fill="#91909E" transform="translate(167,302)"/>
<path d="M0 0 C0 0.33 0 0.66 0 1 C-1.98 1 -3.96 1 -6 1 C-6 1.66 -6 2.32 -6 3 C-14.415 3.495 -14.415 3.495 -23 4 C-23.33 4.99 -23.66 5.98 -24 7 C-25.32 6.67 -26.64 6.34 -28 6 C-18.7038504 0.1899065 -10.81542017 -0.29676458 0 0 Z " fill="#A09FAF" transform="translate(230,176)"/>
<path d="M0 0 C3.79165074 -0.0289337 7.58327327 -0.04677601 11.375 -0.0625 C12.45523437 -0.07087891 13.53546875 -0.07925781 14.6484375 -0.08789062 C16.1953125 -0.09272461 16.1953125 -0.09272461 17.7734375 -0.09765625 C18.72653809 -0.10289307 19.67963867 -0.10812988 20.66162109 -0.11352539 C23 0 23 0 25 1 C25 1.66 25 2.32 25 3 C26.32 3 27.64 3 29 3 C29 4.32 29 5.64 29 7 C29.66 7 30.32 7 31 7 C30.67 7.99 30.34 8.98 30 10 C29.401875 9.21625 28.80375 8.4325 28.1875 7.625 C25.0780416 3.89364992 22.69514345 2.66530373 18 2 C14.89843001 1.74981491 11.79536387 1.58712881 8.6875 1.4375 C7.85154297 1.39431641 7.01558594 1.35113281 6.15429688 1.30664062 C4.10303065 1.20114693 2.0515352 1.10012685 0 1 C0 0.67 0 0.34 0 0 Z " fill="#9896A7" transform="translate(265,185)"/>
<path d="M0 0 C0.9075 0.66 1.815 1.32 2.75 2 C9.12425565 5.68145785 17.07618474 4.55976058 24 3 C21.62944336 5.47830921 20.21411332 6.91210964 16.6796875 7.16796875 C10.7410561 7.20932412 5.68875062 6.71735868 0 5 C0 3.35 0 1.7 0 0 Z " fill="#898998" transform="translate(175,258)"/>
<path d="M0 0 C0.33 1.32 0.66 2.64 1 4 C0.34 4 -0.32 4 -1 4 C-1.12375 5.134375 -1.2475 6.26875 -1.375 7.4375 C-1.684375 9.2009375 -1.684375 9.2009375 -2 11 C-4.45250093 12.22625047 -5.84310435 12.03425355 -8.5703125 11.87890625 C-9.91416016 11.80639648 -9.91416016 11.80639648 -11.28515625 11.73242188 C-12.22230469 11.67634766 -13.15945312 11.62027344 -14.125 11.5625 C-15.06988281 11.51029297 -16.01476562 11.45808594 -16.98828125 11.40429688 C-19.3258419 11.27443239 -21.66299545 11.1394613 -24 11 C-24 10.67 -24 10.34 -24 10 C-22.02966797 10.04833984 -22.02966797 10.04833984 -20.01953125 10.09765625 C-10.68948054 10.5624528 -10.68948054 10.5624528 -2.625 6.9296875 C-1.40658892 4.61615694 -0.56144554 2.54968385 0 0 Z " fill="#91919F" transform="translate(190,202)"/>
<path d="M0 0 C0.99 0.33 1.98 0.66 3 1 C0.03 7.27 -2.94 13.54 -6 20 C-6.33 20 -6.66 20 -7 20 C-7 18.35 -7 16.7 -7 15 C-6.34 15 -5.68 15 -5 15 C-5 13.68 -5 12.36 -5 11 C-4.34 11 -3.68 11 -3 11 C-3.061875 10.29875 -3.12375 9.5975 -3.1875 8.875 C-2.95743899 5.34739788 -1.70799432 3.06015649 0 0 Z " fill="#9798A8" transform="translate(204,192)"/>
<path d="M0 0 C2.51912388 0.33588318 3.67196119 0.57354954 5.25 2.625 C6.29715848 5.94100187 6.37036804 8.54323162 6 12 C4 14.4375 4 14.4375 2 16 C1.34 15.67 0.68 15.34 0 15 C0.515625 14.29875 1.03125 13.5975 1.5625 12.875 C3.33931052 9.32137896 3.04444788 7.77608078 2 4 C1.02651373 1.71519747 1.02651373 1.71519747 0 0 Z " fill="#8C8D9B" transform="translate(324,279)"/>
<path d="M0 0 C3.51226466 4.68301955 4.35176664 6.25447819 4 12 C3.01 13.485 3.01 13.485 2 15 C1.01 14.67 0.02 14.34 -1 14 C-0.34 14 0.32 14 1 14 C0.67 9.38 0.34 4.76 0 0 Z " fill="#9796A4" transform="translate(293,294)"/>
<path d="M0 0 C7 8.20689655 7 8.20689655 7 13 C4 12 4 12 2.83203125 10.29296875 C2.49558594 9.59816406 2.15914063 8.90335938 1.8125 8.1875 C1.46832031 7.50042969 1.12414062 6.81335938 0.76953125 6.10546875 C0 4 0 4 0 0 Z " fill="#9C9BA9" transform="translate(304,192)"/>
<path d="M0 0 C0.99 0 1.98 0 3 0 C3.33 1.65 3.66 3.3 4 5 C4.66 5 5.32 5 6 5 C6 7.31 6 9.62 6 12 C2.82781157 8.37464179 1.57097403 4.48849722 0 0 Z " fill="#8E8DA1" transform="translate(295,195)"/>
<path d="M0 0 C0.33 0 0.66 0 1 0 C1 6.27 1 12.54 1 19 C-0.98 19.99 -0.98 19.99 -3 21 C-2.67 19.68 -2.34 18.36 -2 17 C-1.34 17 -0.68 17 0 17 C0 11.39 0 5.78 0 0 Z " fill="#91919F" transform="translate(332,302)"/>
<path d="M0 0 C0.66 0 1.32 0 2 0 C1.52797514 4.24822374 -0.96655518 6.19989709 -4 9 C-4.66 8.67 -5.32 8.34 -6 8 C-5.04956626 6.66102417 -4.08940853 5.32894573 -3.125 4 C-2.59132813 3.2575 -2.05765625 2.515 -1.5078125 1.75 C-1.01023437 1.1725 -0.51265625 0.595 0 0 Z " fill="#8E8EA1" transform="translate(288,256)"/>
<path d="M0 0 C3.63 0 7.26 0 11 0 C11 0.66 11 1.32 11 2 C9.824375 1.95875 8.64875 1.9175 7.4375 1.875 C3.27590326 1.86016365 -0.06487667 2.68829222 -4 4 C-3.67 3.01 -3.34 2.02 -3 1 C-2.01 1.33 -1.02 1.66 0 2 C0 1.34 0 0.68 0 0 Z " fill="#8E8E9F" transform="translate(312,242)"/>
<path d="M0 0 C3 1 3 1 4.16796875 2.84765625 C4.50441406 3.57855469 4.84085937 4.30945313 5.1875 5.0625 C5.53167969 5.79597656 5.87585938 6.52945313 6.23046875 7.28515625 C6.48441406 7.85105469 6.73835938 8.41695312 7 9 C6.34 9 5.68 9 5 9 C5 8.34 5 7.68 5 7 C4.01 7 3.02 7 2 7 C2 6.34 2 5.68 2 5 C1.34 5 0.68 5 0 5 C0 3.35 0 1.7 0 0 Z " fill="#9696A5" transform="translate(322,227)"/>
<path d="M0 0 C0.33 0 0.66 0 1 0 C1 1.65 1 3.3 1 5 C1.66 5.33 2.32 5.66 3 6 C2.34 6 1.68 6 1 6 C0.67 6.99 0.34 7.98 0 9 C-0.99 9 -1.98 9 -3 9 C-2.01 6.03 -1.02 3.06 0 0 Z " fill="#87879A" transform="translate(165,245)"/>
<path d="M0 0 C1.32 0.33 2.64 0.66 4 1 C2.50260417 2.23697917 1.00520833 3.47395833 -0.4921875 4.7109375 C-1.71051161 5.75250992 -2.86660097 6.86660097 -4 8 C-4 6.35 -4 4.7 -4 3 C-2.68 2.67 -1.36 2.34 0 2 C0 1.34 0 0.68 0 0 Z " fill="#9392A1" transform="translate(304,246)"/>
<path d="M0 0 C1.485 0.99 1.485 0.99 3 2 C5.51584891 2.24150773 5.51584891 2.24150773 8.1875 2.125 C9.53908203 2.09792969 9.53908203 2.09792969 10.91796875 2.0703125 C11.94857422 2.03550781 11.94857422 2.03550781 13 2 C13 2.66 13 3.32 13 4 C9.04 4 5.08 4 1 4 C0.67 2.68 0.34 1.36 0 0 Z " fill="#A6A6B2" transform="translate(311,293)"/>
<path d="M0 0 C0.66 0.33 1.32 0.66 2 1 C1.21302675 4.41021743 0.12880057 7.68885166 -1 11 C-1.66 10.67 -2.32 10.34 -3 10 C-3 9.34 -3 8.68 -3 8 C-2.34 8 -1.68 8 -1 8 C-1.020625 7.05125 -1.04125 6.1025 -1.0625 5.125 C-1 2 -1 2 0 0 Z " fill="#848594" transform="translate(198,289)"/>
<path d="M0 0 C0.66 0 1.32 0 2 0 C3.8597711 2.59240819 5.57205423 5.14410847 7 8 C5.68 8 4.36 8 3 8 C2.67 6.35 2.34 4.7 2 3 C1.34 3 0.68 3 0 3 C0 2.01 0 1.02 0 0 Z " fill="#9495A4" transform="translate(210,255)"/>
<path d="M0 0 C-1.36983503 3.16115776 -1.9890638 3.9927092 -5 6 C-5.33 5.01 -5.66 4.02 -6 3 C-4.60722783 0.21445565 -3.01148006 0 0 0 Z " fill="#898899" transform="translate(338,296)"/>
</svg>
