<?xml version="1.0" encoding="UTF-8"?>
<svg version="1.1" xmlns="http://www.w3.org/2000/svg" width="500" height="500">
<path d="M0 0 C6.26496374 4.98376103 10.25744502 11.72081883 11.83203125 19.59375 C12.35498615 27.4380735 10.93538118 33.27147419 5.95703125 39.46875 C3.45976675 42.15622383 1.52769128 43.8726456 -2.16796875 44.59375 C-5.97749688 44.46008235 -8.34261979 44.17372494 -11.48046875 41.96875 C-13.59931387 38.98667168 -14.35054451 36.13592172 -15.16796875 32.59375 C-17.16751621 32.55120644 -19.16838511 32.55294217 -21.16796875 32.59375 C-22.71826993 34.14405118 -22.41201974 35.63051001 -22.48046875 37.78125 C-22.39799511 42.51223788 -21.42160705 45.01474787 -18.16796875 48.59375 C-13.55988022 52.28221999 -9.19180005 54.69584884 -3.16796875 54.59375 C5.90644919 52.32514552 12.14361444 48.7001775 17.14453125 40.65625 C21.81321583 31.57553627 21.36106898 21.66797801 19.79296875 11.80078125 C19.83203125 9.59375 19.83203125 9.59375 20.91015625 7.98828125 C23.52932536 6.08778659 26.26286171 4.80945878 29.20703125 3.46875 C30.32851563 2.95054687 31.45 2.43234375 32.60546875 1.8984375 C41.9530257 -1.88132524 53.92054654 -1.79615266 63.41796875 1.5390625 C69.50355496 4.19781375 75.75859484 7.25183233 80.83203125 11.59375 C80.83203125 12.25375 80.83203125 12.91375 80.83203125 13.59375 C81.49203125 13.59375 82.15203125 13.59375 82.83203125 13.59375 C82.83203125 14.25375 82.83203125 14.91375 82.83203125 15.59375 C83.49203125 15.59375 84.15203125 15.59375 84.83203125 15.59375 C84.83203125 16.25375 84.83203125 16.91375 84.83203125 17.59375 C85.49203125 17.59375 86.15203125 17.59375 86.83203125 17.59375 C94.12582983 30.03611229 97.54319708 39.91744074 94.1953125 54.3359375 C92.95623889 58.75464444 91.65928304 62.90603027 88.83203125 66.59375 C88.17203125 66.59375 87.51203125 66.59375 86.83203125 66.59375 C86.83203125 67.25375 86.83203125 67.91375 86.83203125 68.59375 C86.17203125 68.59375 85.51203125 68.59375 84.83203125 68.59375 C84.83203125 69.25375 84.83203125 69.91375 84.83203125 70.59375 C83.58467558 71.2446759 82.33401293 71.88926669 81.08203125 72.53125 C80.3859375 72.89089844 79.68984375 73.25054687 78.97265625 73.62109375 C74.36824989 75.7132419 69.96385849 75.80700264 64.95703125 75.84375 C64.26222656 75.864375 63.56742188 75.885 62.8515625 75.90625 C56.9509855 75.95069879 53.02821127 74.48490502 48.58203125 70.65625 C44.50431604 65.85037136 44.39946387 61.67267604 44.51953125 55.51171875 C44.94520424 51.53699717 46.04909704 49.44991932 48.83203125 46.59375 C53.23541046 43.65816386 56.59335318 43.12601089 61.83203125 43.59375 C65.26953125 44.59375 65.26953125 44.59375 67.83203125 45.59375 C67.83203125 46.25375 67.83203125 46.91375 67.83203125 47.59375 C71.2102055 48.43829356 73.50668368 48.70219919 76.83203125 47.59375 C76.80553903 44.2303231 76.80553903 44.2303231 75.83203125 40.59375 C69.77177883 35.3791142 63.44561829 34.15145373 55.66015625 34.2578125 C51.89674784 34.7048472 48.94889574 35.97954209 45.609375 37.71875 C43.83203125 38.59375 43.83203125 38.59375 41.83203125 38.59375 C41.83203125 39.25375 41.83203125 39.91375 41.83203125 40.59375 C41.17203125 40.59375 40.51203125 40.59375 39.83203125 40.59375 C39.56390625 41.274375 39.29578125 41.955 39.01953125 42.65625 C37.83203125 45.59375 37.83203125 45.59375 36.20703125 48.78125 C33.36366865 55.46895489 34.2721207 62.77027122 36.79296875 69.42578125 C39.85115416 75.80658164 43.98869741 81.14604071 50.83203125 83.59375 C59.9359376 86.11038876 68.55731113 85.53135832 77.83203125 84.59375 C80.41834898 89.76638546 79.52702869 97.75933272 78.18359375 103.23828125 C74.68330904 111.77957427 68.18809828 118.6962205 59.83203125 122.59375 C47.70201433 127.36874079 34.05034882 126.90138752 21.83203125 122.59375 C17.46140365 120.28217363 13.78583478 117.39918409 10.01953125 114.21875 C7.75104013 112.19620067 7.75104013 112.19620067 3.83203125 112.59375 C2.27244725 114.33513008 2.27244725 114.33513008 1.01953125 116.65625 C-4.01802491 124.60633863 -8.53718778 129.25655024 -17.78515625 131.93359375 C-27.34125029 133.7984666 -37.76409497 134.09258099 -46.16796875 128.59375 C-53.08259329 122.68926192 -57.51842306 115.5665839 -58.5078125 106.46875 C-58.67897796 100.88190939 -58.59224693 97.20734624 -55.16796875 92.59375 C-50.40942101 89.93994453 -46.59150995 88.99113431 -41.16796875 89.59375 C-37.14215266 91.09172808 -35.73215934 93.0738018 -33.85546875 96.78125 C-33.27901035 98.0458129 -32.71175204 99.314796 -32.16796875 100.59375 C-29.85796875 100.59375 -27.54796875 100.59375 -25.16796875 100.59375 C-24.88889949 95.1053879 -24.91305084 92.2048837 -28.16796875 87.59375 C-28.16796875 86.93375 -28.16796875 86.27375 -28.16796875 85.59375 C-28.82796875 85.59375 -29.48796875 85.59375 -30.16796875 85.59375 C-30.16796875 84.93375 -30.16796875 84.27375 -30.16796875 83.59375 C-31.34359375 83.1296875 -31.34359375 83.1296875 -32.54296875 82.65625 C-35.16796875 81.59375 -35.16796875 81.59375 -37.16796875 80.59375 C-45.0896605 79.95959882 -52.66457101 79.49521245 -59.16796875 84.59375 C-66.40374619 91.82952744 -67.65273725 98.76881834 -68.16796875 108.59375 C-81.10711105 106.31741941 -90.78169125 100.16641099 -98.48046875 89.28125 C-103.63438965 80.80268717 -106.48799171 72.13306923 -108.48046875 62.46875 C-108.6520752 61.64592529 -108.82368164 60.82310059 -109.00048828 59.9753418 C-110.11603096 54.13415562 -110.35940649 48.53225908 -110.16796875 42.59375 C-108.68296875 42.09875 -108.68296875 42.09875 -107.16796875 41.59375 C-104.71484375 42.95703125 -104.71484375 42.95703125 -101.91796875 44.90625 C-93.08237906 50.68912617 -85.58899885 51.13955304 -75.16796875 50.59375 C-72.86804829 50.14773984 -72.86804829 50.14773984 -71.16796875 49.59375 C-71.09320313 48.95308594 -71.0184375 48.31242187 -70.94140625 47.65234375 C-69.94754194 41.11427562 -68.23056886 36.9475861 -63.16796875 32.59375 C-58.66858628 29.67523164 -54.21069017 30.81601685 -49.16796875 31.59375 C-46.501102 31.97473096 -43.8477978 32.30662546 -41.16796875 32.59375 C-39.3661735 30.79195475 -39.99886893 28.32199373 -39.9284668 25.91699219 C-39.62068012 16.12134653 -38.41534563 7.84112688 -31.16796875 0.59375 C-21.51437667 -6.07559348 -9.93941168 -6.44718596 0 0 Z " fill="#6F7189" transform="translate(257.16796875,185.40625)"/>
<path d="M0 0 C0.69287109 0.00451172 1.38574219 0.00902344 2.09960938 0.01367188 C3.79561068 0.02536844 5.49156703 0.04330076 7.1875 0.0625 C7.1875 0.3925 7.1875 0.7225 7.1875 1.0625 C6.33285156 1.12308594 5.47820312 1.18367187 4.59765625 1.24609375 C2.94056641 1.37177734 2.94056641 1.37177734 1.25 1.5 C0.14785156 1.58121094 -0.95429688 1.66242188 -2.08984375 1.74609375 C-4.72359903 1.76668084 -4.72359903 1.76668084 -5.8125 3.0625 C-6.885 3.18625 -7.9575 3.31 -9.0625 3.4375 C-12.8326939 4.06586565 -14.62505605 5.10099603 -17.8125 7.0625 C-21.125 7.75 -21.125 7.75 -23.8125 8.0625 C-24.52707113 14.39155858 -25.19052877 20.72368686 -25.8125 27.0625 C-26.1425 27.0625 -26.4725 27.0625 -26.8125 27.0625 C-27.22862253 24.29333927 -27.62097753 21.52426504 -28 18.75 C-28.12052734 17.96431641 -28.24105469 17.17863281 -28.36523438 16.36914062 C-28.46513672 15.61181641 -28.56503906 14.85449219 -28.66796875 14.07421875 C-28.76746826 13.37772217 -28.86696777 12.68122559 -28.96948242 11.96362305 C-28.8125 10.0625 -28.8125 10.0625 -27.5065918 8.40991211 C-25.0198649 6.43207009 -22.32419937 5.25203816 -19.4375 3.9375 C-17.75527344 3.16019531 -17.75527344 3.16019531 -16.0390625 2.3671875 C-10.61925274 0.17564215 -5.79937317 -0.07214531 0 0 Z " fill="#8B8A98" transform="translate(305.8125,184.9375)"/>
<path d="M0 0 C3.19248099 4.78872149 3.56167253 9.28966262 3 15 C1.62871357 21.10106252 -1.41951979 25.78082994 -6 30 C-10.14982333 32.55373743 -13.31861666 31.9179183 -18 31 C-18 30.67 -18 30.34 -18 30 C-16.9275 29.87625 -15.855 29.7525 -14.75 29.625 C-10.59573169 28.94205057 -10.59573169 28.94205057 -7 27 C-6.67 26.01 -6.34 25.02 -6 24 C-5.01 24 -4.02 24 -3 24 C-3 23.34 -3 22.68 -3 22 C-2.34 22 -1.68 22 -1 22 C0.17700048 17.37540756 0.11408412 12.92133538 0.0625 8.1875 C0.05798828 7.39923828 0.05347656 6.61097656 0.04882812 5.79882812 C0.03711312 3.86585239 0.01917998 1.93291607 0 0 Z " fill="#8B8B9C" transform="translate(266,198)"/>
<path d="M0 0 C3.77201588 3.77201588 3.99316062 9.58911866 4.0078125 14.75390625 C3.40806699 23.18632805 2.06259834 31.72834655 -4 38 C-4.33 36.68 -4.66 35.36 -5 34 C-4.34 34 -3.68 34 -3 34 C-3 33.34 -3 32.68 -3 32 C-2.34 32 -1.68 32 -1 32 C-1 30.35 -1 28.7 -1 27 C-0.34 27 0.32 27 1 27 C0.67 18.09 0.34 9.18 0 0 Z " fill="#9C9AA9" transform="translate(349,214)"/>
<path d="M0 0 C4.86056544 -0.08964158 9.61769847 -0.1375829 14.4375 0.5625 C17.95560394 1.25341315 17.95560394 1.25341315 21 0 C22.56118428 -0.06740865 24.1250252 -0.08514456 25.6875 -0.0625 C26.89986328 -0.04896484 26.89986328 -0.04896484 28.13671875 -0.03515625 C29.05904297 -0.01775391 29.05904297 -0.01775391 30 0 C26.27944525 3.72055475 21.27750422 3.15956942 16.25 3.1875 C10.50924929 3.15728552 5.52232253 2.52339932 0 1 C0 0.67 0 0.34 0 0 Z " fill="#9494A2" transform="translate(283,308)"/>
<path d="M0 0 C0.66 0 1.32 0 2 0 C0.49740332 5.34256597 -3.05971727 9.23728366 -7 13 C-9.9375 14.5 -9.9375 14.5 -12 15 C-10.63029745 12.04987143 -9.17390875 9.4347778 -7 7 C-6.01 7 -5.02 7 -4 7 C-4 6.34 -4 5.68 -4 5 C-3.34 5 -2.68 5 -2 5 C-2 4.34 -2 3.68 -2 3 C-1.34 3 -0.68 3 0 3 C0 2.01 0 1.02 0 0 Z " fill="#9491A3" transform="translate(332,290)"/>
<path d="M0 0 C0.80824219 0.10183594 1.61648437 0.20367187 2.44921875 0.30859375 C3.06410156 0.39238281 3.67898437 0.47617188 4.3125 0.5625 C4.3125 0.8925 4.3125 1.2225 4.3125 1.5625 C3.74402344 1.56507813 3.17554688 1.56765625 2.58984375 1.5703125 C-3.21307289 1.86094272 -6.12033751 3.11794913 -10.1796875 7.28515625 C-11.6875 8.5625 -11.6875 8.5625 -14.6875 8.5625 C-13.19271886 4.75760255 -10.99307786 2.90059165 -7.6875 0.5625 C-4.59271121 -0.46909626 -3.16118607 -0.41232862 0 0 Z " fill="#9998A8" transform="translate(203.6875,216.4375)"/>
<path d="M0 0 C0.66 0.33 1.32 0.66 2 1 C0.25 4.875 0.25 4.875 -2 6 C-3.32327128 11.16502659 -3.2181679 15.14775771 -1 20 C-1.375 22.3125 -1.375 22.3125 -2 24 C-5.81207997 18.48916821 -5.82817767 13.51969658 -5 7 C-3.81065923 4.14986807 -2.19181851 2.19181851 0 0 Z " fill="#8F8E9D" transform="translate(307,231)"/>
<path d="M0 0 C0.56203125 0.22042969 1.1240625 0.44085938 1.703125 0.66796875 C0.89875 1.28671875 0.094375 1.90546875 -0.734375 2.54296875 C-3.33562019 4.40960916 -3.33562019 4.40960916 -4.296875 6.66796875 C-6.296875 7.00130208 -8.296875 7.33463542 -10.296875 7.66796875 C-10.626875 8.32796875 -10.956875 8.98796875 -11.296875 9.66796875 C-11.296875 8.34796875 -11.296875 7.02796875 -11.296875 5.66796875 C-9.46875 3.9296875 -9.46875 3.9296875 -7.046875 2.35546875 C-5.86351562 1.55689453 -5.86351562 1.55689453 -4.65625 0.7421875 C-2.296875 -0.33203125 -2.296875 -0.33203125 0 0 Z " fill="#8F8FA0" transform="translate(235.296875,182.33203125)"/>
<path d="M0 0 C0.68384766 0.00902344 1.36769531 0.01804688 2.07226562 0.02734375 C3.73583287 0.05061042 5.39921631 0.08646833 7.0625 0.125 C7.0625 0.455 7.0625 0.785 7.0625 1.125 C5.78052734 1.21587891 5.78052734 1.21587891 4.47265625 1.30859375 C2.81556641 1.43427734 2.81556641 1.43427734 1.125 1.5625 C0.02285156 1.64371094 -1.07929688 1.72492188 -2.21484375 1.80859375 C-4.84859903 1.82918084 -4.84859903 1.82918084 -5.9375 3.125 C-7.95344582 3.35927778 -9.975974 3.53836124 -12 3.6875 C-13.10472656 3.77128906 -14.20945312 3.85507813 -15.34765625 3.94140625 C-16.20230469 4.00199219 -17.05695313 4.06257812 -17.9375 4.125 C-12.24793911 0.3319594 -6.71700453 -0.11888504 0 0 Z " fill="#9F9EAD" transform="translate(305.9375,184.875)"/>
<path d="M0 0 C3.21254504 4.81881756 3.45770232 9.26275458 3 15 C2.47737401 17.4131687 1.78275653 19.65173042 1 22 C0.67 22 0.34 22 0 22 C0 14.74 0 7.48 0 0 Z " fill="#A5A4B6" transform="translate(266,198)"/>
<path d="M0 0 C0.66 0 1.32 0 2 0 C1.64134677 7.41216681 -0.35920537 12.56479472 -4 19 C-4.66 17.68 -5.32 16.36 -6 15 C-5.34 15 -4.68 15 -4 15 C-4 14.34 -4 13.68 -4 13 C-3.34 13 -2.68 13 -2 13 C-2 11.35 -2 9.7 -2 8 C-1.34 8 -0.68 8 0 8 C0 5.36 0 2.72 0 0 Z " fill="#918F9F" transform="translate(350,233)"/>
<path d="M0 0 C3.4375 1 3.4375 1 6 2 C6 2.66 6 3.32 6 4 C6.66 4.33 7.32 4.66 8 5 C2.25 4.125 2.25 4.125 0 3 C-1.70363822 2.77377919 -3.41328701 2.59111527 -5.125 2.4375 C-6.03507812 2.35371094 -6.94515625 2.26992187 -7.8828125 2.18359375 C-8.58148438 2.12300781 -9.28015625 2.06242188 -10 2 C-6.26935156 -0.48709896 -4.42368032 -0.29991053 0 0 Z " fill="#9C9DAC" transform="translate(319,229)"/>
<path d="M0 0 C0.33 0 0.66 0 1 0 C2.31372143 6.02122324 1.82882854 9.51448809 -0.69921875 15.1171875 C-2.21813704 17.3157419 -3.54731734 18.01892693 -6 19 C-4.95668802 16.2713379 -3.85881954 13.74587518 -2.4375 11.1875 C-0.69733685 7.32887736 -0.36221498 4.20169375 0 0 Z " fill="#9998A5" transform="translate(278,212)"/>
<path d="M0 0 C0.66 0.99 1.32 1.98 2 3 C2.99 3.33 3.98 3.66 5 4 C5.103125 4.639375 5.20625 5.27875 5.3125 5.9375 C5.539375 6.618125 5.76625 7.29875 6 8 C8.99615946 9.3045656 8.99615946 9.3045656 12 10 C11.34 10.66 10.68 11.32 10 12 C5.36279281 8.72469104 1.31457218 5.69564393 -2 1 C-1.34 0.67 -0.68 0.34 0 0 Z " fill="#8C8BA6" transform="translate(164,277)"/>
<path d="M0 0 C-1.32 0.33 -2.64 0.66 -4 1 C-4.33 0.34 -4.66 -0.32 -5 -1 C-5.70125 -0.67 -6.4025 -0.34 -7.125 0 C-10.26003116 1.09044562 -12.70563182 1.15322643 -16 1 C-15 -1 -15 -1 -13.375 -1.625 C-8.53286768 -2.38954721 -4.24261664 -2.71527465 0 0 Z " fill="#9B9AAC" transform="translate(220,277)"/>
<path d="M0 0 C2.4178712 -0.10826289 4.83087556 -0.18739789 7.25 -0.25 C8.27287109 -0.30027344 8.27287109 -0.30027344 9.31640625 -0.3515625 C12.92181813 -0.4215705 14.64068812 -0.29151719 17.484375 2.015625 C17.98453125 2.67046875 18.4846875 3.3253125 19 4 C17.906875 3.690625 16.81375 3.38125 15.6875 3.0625 C10.51723677 1.7536901 5.30738608 1.37073653 0 1 C0 0.67 0 0.34 0 0 Z " fill="#9392A2" transform="translate(310,218)"/>
<path d="M0 0 C0.66 0 1.32 0 2 0 C0.64978174 4.41889613 -1.26115668 6.34345343 -5 9 C-4.67 7.35 -4.34 5.7 -4 4 C-3.01 3.67 -2.02 3.34 -1 3 C-0.67 2.01 -0.34 1.02 0 0 Z " fill="#88899A" transform="translate(256,301)"/>
<path d="M0 0 C4.50802601 1.25805377 7.4912812 2.90407165 11 6 C7.0507432 5.44894091 3.65079826 4.61064629 0 3 C0 2.01 0 1.02 0 0 Z " fill="#9594A4" transform="translate(323,189)"/>
<path d="M0 0 C1.21236328 0.01353516 1.21236328 0.01353516 2.44921875 0.02734375 C3.37154297 0.04474609 3.37154297 0.04474609 4.3125 0.0625 C1.69276734 2.68223266 -0.03916422 2.77063314 -3.6875 3.0625 C-6.0625 2.125 -6.0625 2.125 -7.6875 1.0625 C-4.80538698 0.10179566 -2.98899956 -0.04331883 0 0 Z " fill="#85849C" transform="translate(308.6875,307.9375)"/>
<path d="M0 0 C1.21236328 0.01353516 1.21236328 0.01353516 2.44921875 0.02734375 C3.37154297 0.04474609 3.37154297 0.04474609 4.3125 0.0625 C4.3125 0.3925 4.3125 0.7225 4.3125 1.0625 C1.64583333 1.72916667 -1.02083333 2.39583333 -3.6875 3.0625 C-4.43515625 3.24941406 -5.1828125 3.43632812 -5.953125 3.62890625 C-6.52546875 3.77199219 -7.0978125 3.91507812 -7.6875 4.0625 C-7.6875 3.0725 -7.6875 2.0825 -7.6875 1.0625 C-4.80538698 0.10179566 -2.98899956 -0.04331883 0 0 Z " fill="#938FA4" transform="translate(207.6875,263.9375)"/>
<path d="M0 0 C0.66 0.33 1.32 0.66 2 1 C0.25 4.875 0.25 4.875 -2 6 C-2.33 6.99 -2.66 7.98 -3 9 C-3.66 9 -4.32 9 -5 9 C-3.90931332 5.22454612 -3.0916909 2.52956528 0 0 Z " fill="#9392A9" transform="translate(307,231)"/>
<path d="M0 0 C-0.33 0.66 -0.66 1.32 -1 2 C-3.3140622 2.73075648 -5.64828869 3.40138258 -8 4 C-8 3.01 -8 2.02 -8 1 C-5.29120665 -0.35439668 -2.99066732 -0.06501451 0 0 Z " fill="#848497" transform="translate(292,189)"/>
<path d="M0 0 C0.33 0.66 0.66 1.32 1 2 C0.34 2 -0.32 2 -1 2 C-1.33 2.99 -1.66 3.98 -2 5 C-4.0625 5.6875 -4.0625 5.6875 -6 6 C-4.95125002 3.37812506 -4.35068687 2.20628639 -1.875 0.75 C-1.25625 0.5025 -0.6375 0.255 0 0 Z " fill="#A0A0AE" transform="translate(283,191)"/>
</svg>
