<?xml version="1.0" encoding="UTF-8"?>
<svg version="1.1" xmlns="http://www.w3.org/2000/svg" width="500" height="500">
<path d="M0 0 C0.75666962 -0.00267883 1.51333923 -0.00535767 2.29293823 -0.00811768 C9.87372967 -0.02871059 17.44457418 0.06658266 25.015625 0.4765625 C26.7795459 0.5705835 26.7795459 0.5705835 28.57910156 0.66650391 C34.94924723 1.56979095 39.60491075 4.51027339 43.71875 9.3828125 C52.2716812 21.60704908 49.98261709 39.12575767 50.015625 53.484375 C50.01986607 54.75050503 50.01986607 54.75050503 50.02419281 56.04221344 C50.03903531 60.49640702 50.04836265 64.95056937 50.05273438 69.40478516 C50.05824417 73.96924399 50.08236771 78.53340838 50.11070633 83.09777451 C50.12941659 86.64620798 50.13454242 90.194571 50.13607025 93.74304962 C50.13907068 95.42537319 50.14700934 97.1076963 50.16025543 98.7899704 C50.3331546 122.40224065 50.3331546 122.40224065 43.1875 130.0625 C42.57648438 130.75214844 41.96546875 131.44179688 41.3359375 132.15234375 C34.73400644 137.31329605 28.16010445 138.71809664 19.9375 138.62670898 C18.99479248 138.63211197 18.05208496 138.63751495 17.08081055 138.64308167 C13.99104588 138.65550185 10.90222532 138.63912242 7.8125 138.62109375 C5.64973909 138.62124889 3.4869779 138.62274041 1.32421875 138.62550354 C-3.19804243 138.62688454 -7.7199853 138.61437937 -12.2421875 138.59155273 C-18.02221715 138.56316939 -23.80171836 138.56590963 -29.58178711 138.57864285 C-34.0446418 138.5856168 -38.50737559 138.5777911 -42.97021484 138.56538582 C-45.10074397 138.56088802 -47.23128616 138.56051982 -49.36181641 138.56445122 C-52.34564567 138.56738028 -55.32876123 138.55077543 -58.3125 138.52905273 C-59.61731323 138.53580521 -59.61731323 138.53580521 -60.94848633 138.54269409 C-68.47568178 138.45221061 -76.09492493 137.03008948 -81.83984375 131.78125 C-87.81857049 124.43348149 -89.33610125 116.67605547 -89.34863281 107.49194336 C-89.35359772 106.62145355 -89.35856262 105.75096375 -89.36367798 104.85409546 C-89.37828021 101.97433681 -89.38510011 99.09463334 -89.390625 96.21484375 C-89.39638018 94.20667012 -89.40213787 92.19849649 -89.40789795 90.19032288 C-89.4184039 85.97624455 -89.42424852 81.76218528 -89.42773438 77.5480957 C-89.43320342 72.170611 -89.45719912 66.79338149 -89.48570633 61.41597652 C-89.50441485 57.26446318 -89.50954278 53.11301013 -89.51107025 48.96145821 C-89.51408125 46.98049087 -89.52205679 44.99952421 -89.53525543 43.01859856 C-89.69533888 17.13440665 -89.69533888 17.13440665 -82.1875 8.125 C-75.62825881 1.63823661 -69.9525334 0.81900417 -61.09765625 0.7109375 C-60.09724304 0.69148071 -59.09682983 0.67202393 -58.06610107 0.65197754 C-54.79415375 0.59138009 -51.52219457 0.5451247 -48.25 0.5 C-45.98851903 0.46278692 -43.7270444 0.42518629 -41.46557617 0.38720703 C-27.64458042 0.16653831 -13.82273955 0.02736719 0 0 Z M-60.1875 35.125 C-62.70355311 38.94940073 -62.35466155 42.51736914 -61.7265625 46.9140625 C-60.65464588 51.31047415 -58.03133733 54.12294317 -55.1875 57.5 C-50.33899159 60.12627539 -45.56711877 59.94441213 -40.1875 59.125 C-36.04879244 57.42167902 -33.79910484 54.99308429 -31.25 51.375 C-29.67103714 46.54523126 -29.14125638 41.9937325 -30.9140625 37.1328125 C-33.00545604 33.17106702 -35.50472743 30.59413161 -39.1875 28.125 C-48.12955155 26.25873316 -54.53187473 27.94205347 -60.1875 35.125 Z M-5.1875 84.125 C-5.765 84.57875 -6.3425 85.0325 -6.9375 85.5 C-9.77704828 89.19141277 -10.40447346 93.01380649 -10.1875 97.5625 C-9.47849576 102.61949407 -7.03985044 105.86809482 -3.1875 109.125 C1.48423804 112.03750614 6.48650512 111.85572348 11.8125 111.125 C15.90301825 109.40771937 18.22077212 106.96487183 20.75 103.375 C22.53912597 97.90237939 22.57097827 93.24075518 20.625 87.8125 C18.2542781 84.29729166 15.59969238 82.01859619 11.8125 80.125 C5.04644132 79.45060526 0.13989391 79.46353033 -5.1875 84.125 Z " fill="#73738B" transform="translate(307.1875,216.875)"/>
<path d="M0 0 C0.89904053 0.03077637 1.79808105 0.06155273 2.72436523 0.09326172 C13.28512844 0.58914948 22.18257077 2.5040239 29.625 10.4375 C35.10136349 16.51538626 35.11398093 23.66471221 35.078125 31.42578125 C35.08003845 32.34336716 35.0819519 33.26095306 35.08392334 34.2063446 C35.08527768 36.13341549 35.08163401 38.06049574 35.07324219 39.98754883 C35.06247021 42.94568085 35.0731944 45.90321406 35.0859375 48.86132812 C35.08461698 50.73698051 35.08205681 52.61263252 35.078125 54.48828125 C35.08217346 55.37469803 35.08622192 56.26111481 35.09039307 57.1743927 C35.04245798 63.39504202 35.04245798 63.39504202 32.8125 65.625 C29.72546106 65.81058556 26.72032044 65.87758091 23.6328125 65.86328125 C21.73436801 65.87872106 19.83593041 65.89502612 17.9375 65.91210938 C14.95134273 65.92845517 11.9656898 65.93756747 8.97949219 65.93041992 C-10.86868512 65.8804604 -10.86868512 65.8804604 -27.67089844 75.72875977 C-34.24101008 83.94351462 -36.08642211 92.34521894 -36.0625 102.625 C-36.083125 103.78894287 -36.10375 104.95288574 -36.125 106.15209961 C-36.17859636 109.64375863 -36.1905134 113.13297131 -36.1875 116.625 C-36.18911133 117.66672363 -36.19072266 118.70844727 -36.19238281 119.78173828 C-36.19966028 125.24551493 -36.19966028 125.24551493 -36.15185547 130.70898438 C-36.08502388 136.42004775 -36.08502388 136.42004775 -37.1875 138.625 C-43.71609057 138.72694511 -50.24447364 138.79669296 -56.77368164 138.84472656 C-58.99185863 138.864764 -61.20998332 138.89200173 -63.42797852 138.92675781 C-66.62789872 138.97562253 -69.82711674 138.99804812 -73.02734375 139.015625 C-74.00895981 139.03627014 -74.99057587 139.05691528 -76.00193787 139.07818604 C-83.53141402 139.08060531 -89.33331632 137.36865618 -95.4921875 132.984375 C-106.80627706 121.38884042 -104.34895917 104.22061374 -104.35546875 89.12109375 C-104.35869033 87.34855626 -104.36205504 85.57601902 -104.36555481 83.80348206 C-104.37150611 80.10799544 -104.37339868 76.41253208 -104.37280273 72.71704102 C-104.37270093 68.00795372 -104.38638971 63.29901657 -104.40357494 58.58996487 C-104.4147476 54.93601306 -104.41672039 51.28209709 -104.41619301 47.62812996 C-104.41736378 45.89278709 -104.42173412 44.15744301 -104.42952538 42.42211723 C-104.53344792 16.90417556 -104.53344792 16.90417556 -98.1875 9.625 C-95.9375 8.25 -95.9375 8.25 -94.1875 7.625 C-94.1875 6.965 -94.1875 6.305 -94.1875 5.625 C-71.38068691 -8.51522412 -26.13641782 -0.98274803 0 0 Z M-73.125 33.0625 C-76.74147318 37.55569395 -76.61738241 41.96865249 -76.1875 47.625 C-74.74810921 53.25170947 -70.90129352 56.48247099 -66.1875 59.625 C-60.97228611 60.41392567 -55.79554029 60.55347173 -51.25 57.625 C-47.71633044 54.60222242 -45.43688588 51.10955065 -44.1875 46.625 C-43.90501115 41.68600146 -45.13414374 37.52066143 -48.1875 33.625 C-51.93419791 29.79116958 -54.69747092 27.84375906 -60.10546875 27.4921875 C-65.35020073 27.82674826 -69.12350548 29.74211093 -73.125 33.0625 Z M-23.1875 35.625 C-24.86230014 40.76674312 -25.14171311 46.47802051 -22.9375 51.4375 C-19.60706076 55.60054905 -16.5362372 59.2176402 -11.00390625 59.890625 C-6.62490726 59.86026799 -3.17096888 59.68098394 0.8125 57.625 C0.8125 56.965 0.8125 56.305 0.8125 55.625 C1.8025 55.295 2.7925 54.965 3.8125 54.625 C6.50028928 50.63694902 8.22365786 46.27794935 7.8125 41.4375 C6.55194155 36.6316209 5.18132395 33.22073496 0.9453125 30.3671875 C-8.02619652 25.5259581 -16.73362825 27.60655328 -23.1875 35.625 Z M-74 86.625 C-76.48886713 90.81677622 -76.52046956 94.79694143 -76.1875 99.625 C-74.35034991 104.92031497 -71.16126505 108.99870815 -66.1875 111.625 C-60.80572951 112.65605037 -56.5931004 112.3278002 -51.6875 109.875 C-46.68452678 105.3723241 -45.41794639 102.43644601 -44.875 95.8125 C-44.96087828 90.04792062 -47.57641092 86.58851481 -51.1875 82.1875 C-59.38372455 77.91863305 -67.96209716 79.96248652 -74 86.625 Z " fill="#77778E" transform="translate(247.1875,143.375)"/>
<path d="M0 0 C0.83820643 2.92071702 1.12381627 5.5085398 1.12025452 8.54315186 C1.12162918 9.448965 1.12300385 10.35477814 1.12442017 11.28804016 C1.12082489 12.27418808 1.11722961 13.260336 1.11352539 14.27636719 C1.11367142 15.32058334 1.11381744 16.3647995 1.1139679 17.44065857 C1.11327113 20.89275183 1.10548973 24.34479116 1.09765625 27.796875 C1.09579123 30.19012421 1.09436772 32.58337381 1.09336853 34.97662354 C1.08954996 41.27635756 1.07972527 47.57606854 1.06866455 53.87579346 C1.05843627 60.30391122 1.05386787 66.7320327 1.04882812 73.16015625 C1.03810244 85.77344733 1.02122606 98.38672244 1 111 C-3.13271169 106.86728831 -3.23027311 101.03857124 -3.28216553 95.47627258 C-3.2784494 94.26356941 -3.2784494 94.26356941 -3.2746582 93.02636719 C-3.27976913 92.1554393 -3.28488007 91.28451141 -3.29014587 90.38719177 C-3.30398283 87.52368184 -3.30308911 84.66041429 -3.30078125 81.796875 C-3.30467226 79.7929882 -3.30900777 77.78910221 -3.31376648 75.78521729 C-3.32121667 71.58904343 -3.32094674 67.39295372 -3.31567383 63.19677734 C-3.30989002 57.84289673 -3.32678983 52.48936329 -3.3500185 47.13554001 C-3.36481721 42.99688736 -3.36561905 38.85831706 -3.36250877 34.71964264 C-3.36301921 32.74705571 -3.36820424 30.77446383 -3.37832069 28.80190277 C-3.46722668 9.03776115 -3.46722668 9.03776115 0 0 Z " fill="#9C9CAA" transform="translate(221,231)"/>
<path d="M0 0 C0.33 0 0.66 0 1 0 C1.02529705 6.51447727 1.04284444 13.02894193 1.05493164 19.54345703 C1.05996909 21.76090976 1.06679922 23.97835916 1.07543945 26.19580078 C1.08753072 29.37793805 1.0932341 32.56003151 1.09765625 35.7421875 C1.10281754 36.73805878 1.10797882 37.73393005 1.11329651 38.75997925 C1.11337204 39.68078278 1.11344757 40.6015863 1.11352539 41.55029297 C1.115746 42.3630368 1.11796661 43.17578064 1.12025452 44.01315308 C1 46 1 46 0 48 C-6.65686814 48.0505916 -13.31368694 48.0856876 -19.97070312 48.10986328 C-22.23667249 48.11993859 -24.50262881 48.13359918 -26.76855469 48.15087891 C-30.02021501 48.17506011 -33.27170387 48.18646763 -36.5234375 48.1953125 C-38.05005508 48.21079636 -38.05005508 48.21079636 -39.60751343 48.22659302 C-40.54833771 48.22674408 -41.48916199 48.22689514 -42.45849609 48.22705078 C-43.70425919 48.23371262 -43.70425919 48.23371262 -44.97518921 48.24050903 C-47 48 -47 48 -49 46 C-33.49 46 -17.98 46 -2 46 C-2.07912959 31.98368753 -2.07912959 31.98368753 -2.18017578 17.9675293 C-2.18601656 16.21142825 -2.1911131 14.45532449 -2.1953125 12.69921875 C-2.20554443 11.78611938 -2.21577637 10.87302002 -2.22631836 9.93225098 C-2.22656006 9.05959595 -2.22680176 8.18694092 -2.22705078 7.2878418 C-2.231492 6.53061325 -2.23593323 5.7733847 -2.24050903 4.99320984 C-2 3 -2 3 0 0 Z " fill="#9B9BAA" transform="translate(210,234)"/>
<path d="M0 0 C5.2013428 10.4026856 3.176666 25.84956721 3.203125 37.359375 C3.20595238 38.20346169 3.20877975 39.04754837 3.21169281 39.91721344 C3.22653531 44.37140702 3.23586265 48.82556937 3.24023438 53.27978516 C3.24574417 57.84424399 3.26986771 62.40840838 3.29820633 66.97277451 C3.31691659 70.52120798 3.32204242 74.069571 3.32357025 77.61804962 C3.32657068 79.30037319 3.33450934 80.9826963 3.34775543 82.6649704 C3.51265442 105.18468309 3.51265442 105.18468309 -2.10809326 111.28973389 C-2.73242249 111.8541217 -3.35675171 112.41850952 -4 113 C-3.125 109.125 -3.125 109.125 -2 108 C-1.63239269 105.67182036 -1.29758419 103.3381615 -1 101 C-0.34 101 0.32 101 1 101 C0.67 67.67 0.34 34.34 0 0 Z " fill="#C3C2CB" transform="translate(354,233)"/>
<path d="M0 0 C-3.33853059 2.22568706 -4.25724416 2.23038287 -8.1328125 2.16015625 C-9.22585693 2.14847412 -10.31890137 2.13679199 -11.44506836 2.12475586 C-12.6594458 2.10421143 -13.87382324 2.08366699 -15.125 2.0625 C-17.8164848 2.03952785 -20.50769116 2.02026648 -23.19921875 2.0078125 C-23.94057571 2.00408127 -24.68193268 2.00035004 -25.445755 1.99650574 C-35.50505428 1.96571917 -45.56148604 2.16947743 -55.61834717 2.37130737 C-57.82489356 2.4153117 -60.03147867 2.45741645 -62.23809814 2.49758911 C-65.37629018 2.55500551 -68.51430517 2.61837796 -71.65234375 2.68359375 C-72.59294144 2.70030121 -73.53353912 2.71700867 -74.50263977 2.73422241 C-80.48317875 2.86909542 -86.27778473 3.09259491 -92 5 C-92 5.66 -92 6.32 -92 7 C-97.35714286 12 -97.35714286 12 -101 12 C-99.21639166 7.18425748 -95.35036123 4.27545863 -90.93139648 1.87744141 C-86.60686334 0.58299882 -82.40299968 0.6407408 -77.91015625 0.5859375 C-76.90906326 0.56652603 -75.90797028 0.54711456 -74.87654114 0.52711487 C-71.60528109 0.4666709 -68.33400015 0.42043833 -65.0625 0.375 C-62.81200397 0.33712764 -60.56151565 0.29879437 -58.31103516 0.26000977 C-38.87423386 -0.05711589 -19.43874169 -0.11446985 0 0 Z " fill="#A2A2B0" transform="translate(324,217)"/>
<path d="M0 0 C12.50899967 -0.09278862 25.01791709 -0.16381024 37.52719116 -0.20724869 C43.33612243 -0.22809978 49.14481778 -0.2563726 54.95361328 -0.30175781 C60.56220816 -0.34530327 66.17057647 -0.36915575 71.77932739 -0.37950897 C73.9163062 -0.38688467 76.05327299 -0.40128771 78.19015503 -0.42292023 C81.18954 -0.45206936 84.18799557 -0.45595113 87.1875 -0.45410156 C88.06575943 -0.46848267 88.94401886 -0.48286377 89.84889221 -0.49768066 C95.92068563 -0.4573181 99.74752382 0.94220844 105 4 C101.90279155 4.87840996 100.09354597 4.99435406 97 4 C97 3.34 97 2.68 97 2 C64.99 1.67 32.98 1.34 0 1 C0 0.67 0 0.34 0 0 Z " fill="#A2A4B2" transform="translate(167,145)"/>
<path d="M0 0 C2 1 2 1 3.11279297 3.94555664 C4.31504919 8.57347099 4.25091549 13.11709249 4.1953125 17.87109375 C4.1924826 18.793423 4.18965271 19.71575226 4.18673706 20.66603088 C4.17560974 23.58999013 4.15051912 26.51363451 4.125 29.4375 C4.11496057 31.42903201 4.1058364 33.42056886 4.09765625 35.41210938 C4.07569483 40.2748595 4.04121673 45.1373765 4 50 C3.01 50.495 3.01 50.495 2 51 C1.9845388 50.17647789 1.9845388 50.17647789 1.96876526 49.33631897 C1.86092053 43.64278719 1.74630551 37.94942079 1.62768555 32.25610352 C1.58426577 30.12885993 1.54259607 28.0015799 1.50268555 25.87426758 C1.44515293 22.82361849 1.38141033 19.77315411 1.31640625 16.72265625 C1.29969376 15.76537125 1.28298126 14.80808624 1.26576233 13.8217926 C1.24581711 12.94095505 1.22587189 12.06011749 1.20532227 11.15258789 C1.18977798 10.37315323 1.1742337 9.59371857 1.15821838 8.79066467 C1.19110881 6.97706647 1.19110881 6.97706647 0 6 C-0.04080783 4.00041636 -0.04254356 1.99954746 0 0 Z " fill="#B1B1BC" transform="translate(278,157)"/>
<path d="M0 0 C0.66 0 1.32 0 2 0 C5.65876956 5.3738178 7.12627599 9.48767151 6 16 C4.42666416 20.48208845 2.99638135 23.33574577 -1 26 C-1.99 25.67 -2.98 25.34 -4 25 C-3.21625 24.278125 -2.4325 23.55625 -1.625 22.8125 C2.44623823 18.45045904 3.39501495 15.07071478 3.26953125 9.0703125 C2.82974135 5.69221616 1.51763917 3.03527835 0 0 Z " fill="#A0A0AF" transform="translate(198,228)"/>
<path d="M0 0 C0.66 0.33 1.32 0.66 2 1 C2.4140625 3.94140625 2.4140625 3.94140625 2.625 7.5625 C2.69976562 8.76003906 2.77453125 9.95757812 2.8515625 11.19140625 C2.90054687 12.11824219 2.94953125 13.04507812 3 14 C0.525 15.485 0.525 15.485 -2 17 C-1.67 16.236875 -1.34 15.47375 -1 14.6875 C0.33945668 9.74825349 0.16287658 5.08536891 0 0 Z " fill="#9D9BAA" transform="translate(276,254)"/>
<path d="M0 0 C0.66 0.33 1.32 0.66 2 1 C2.21755666 6.4389165 2.10428384 10.87080814 0 16 C-0.99 16 -1.98 16 -3 16 C-2.690625 15.34 -2.38125 14.68 -2.0625 14 C-0.43952351 9.41747814 0 4.86907852 0 0 Z " fill="#9D9EAB" transform="translate(202,182)"/>
<path d="M0 0 C0.66 0.33 1.32 0.66 2 1 C-0.97 4.3 -3.94 7.6 -7 11 C-7 8 -7 8 -5.5625 6.5 C-5.046875 6.005 -4.53125 5.51 -4 5 C-3.67 4.01 -3.34 3.02 -3 2 C-2.01 1.34 -1.02 0.68 0 0 Z " fill="#91909E" transform="translate(156,147)"/>
<path d="M0 0 C5.26053037 -0.31563182 8.44573816 0.33409063 13 3 C9.94736336 3.98120464 8.05263664 3.98120464 5 3 C5 2.34 5 1.68 5 1 C3.35 1 1.7 1 0 1 C0 0.67 0 0.34 0 0 Z " fill="#9998A5" transform="translate(259,146)"/>
</svg>
