<?xml version="1.0" encoding="UTF-8"?>
<svg version="1.1" xmlns="http://www.w3.org/2000/svg" width="500" height="500">
<path d="M0 0 C0.43828125 0.41636719 0.8765625 0.83273438 1.328125 1.26171875 C1.328125 1.92171875 1.328125 2.58171875 1.328125 3.26171875 C1.90304687 3.50664062 2.47796875 3.7515625 3.0703125 4.00390625 C16.04671515 11.23297485 25.9526017 31.68246327 29.91357422 45.27001953 C36.26070236 68.4357419 34.93878078 92.57229002 24.328125 114.26171875 C23.91046875 115.14730469 23.4928125 116.03289062 23.0625 116.9453125 C18.27941717 126.41526673 11.30660117 136.17167551 3.328125 143.26171875 C2.668125 143.26171875 2.008125 143.26171875 1.328125 143.26171875 C1.328125 143.92171875 1.328125 144.58171875 1.328125 145.26171875 C-0.65586002 146.93389103 -2.62341544 148.45095642 -4.734375 149.94921875 C-5.3619873 150.39475098 -5.98959961 150.8402832 -6.63623047 151.29931641 C-16.67694308 158.21802217 -27.94077866 162.99212747 -39.671875 166.26171875 C-40.46851563 166.48730469 -41.26515625 166.71289062 -42.0859375 166.9453125 C-64.27933614 172.05331695 -90.01239763 167.65727294 -109.515625 156.0390625 C-132.71578922 141.50738202 -147.89225162 120.9193001 -155.015625 94.4375 C-157.87350509 80.60740173 -158.57697364 63.90922493 -154.671875 50.26171875 C-154.341875 49.09769531 -154.011875 47.93367188 -153.671875 46.734375 C-148.44682872 29.36360282 -138.69676326 13.00348566 -124.671875 1.26171875 C-124.011875 1.26171875 -123.351875 1.26171875 -122.671875 1.26171875 C-122.671875 0.60171875 -122.671875 -0.05828125 -122.671875 -0.73828125 C-117.26011029 -4.73828125 -117.26011029 -4.73828125 -114.671875 -4.73828125 C-114.671875 -5.39828125 -114.671875 -6.05828125 -114.671875 -6.73828125 C-75.46799064 -27.25667787 -36.37649176 -26.98662499 0 0 Z M-76.484375 11.01171875 C-79.09409076 14.88901074 -79.84222789 17.63529291 -79.671875 22.26171875 C-78.75203479 26.78426644 -77.39677588 30.51498004 -74.671875 34.26171875 C-74.011875 34.26171875 -73.351875 34.26171875 -72.671875 34.26171875 C-72.671875 34.92171875 -72.671875 35.58171875 -72.671875 36.26171875 C-67.263892 39.6031276 -60.77626584 38.92993029 -54.671875 38.26171875 C-49.88772122 36.46665938 -46.60733369 32.8023055 -44.33203125 28.28125 C-42.81301707 23.63432496 -42.76090825 18.82411719 -44.40234375 14.20703125 C-46.9996897 9.26677325 -50.39746279 6.01985615 -55.671875 4.26171875 C-64.97660516 3.44268767 -69.71475472 4.39253448 -76.484375 11.01171875 Z M-120.421875 36.32421875 C-124.55365152 41.71848254 -124.29103038 46.60797859 -123.671875 53.26171875 C-121.38347235 58.10257051 -118.13204367 61.31632435 -113.671875 64.26171875 C-106.77006669 66.16993864 -101.7739561 64.93684254 -95.546875 61.57421875 C-91.3955227 58.23508755 -89.21198383 55.07400953 -88.21875 49.90234375 C-87.80432158 43.83661871 -89.41740872 40.08913714 -92.87109375 35.171875 C-95.90029547 31.95868706 -98.4143165 30.42046995 -102.828125 29.86328125 C-103.9315625 29.87101562 -105.035 29.87875 -106.171875 29.88671875 C-107.2753125 29.87898438 -108.37875 29.87125 -109.515625 29.86328125 C-114.32952007 30.47097593 -117.45002406 32.55151188 -120.421875 36.32421875 Z M-31.671875 36.26171875 C-35.13567819 41.49770032 -34.33297899 48.27770536 -33.671875 54.26171875 C-32.08189867 58.397022 -29.61475731 60.53098496 -26.171875 63.19921875 C-20.15050468 65.02713474 -13.43503776 65.60942583 -7.4140625 63.453125 C-2.54959123 60.41019816 -0.01911421 55.74881883 1.328125 50.26171875 C1.61703145 44.60474414 0.20990731 40.14821919 -2.671875 35.26171875 C-3.331875 35.26171875 -3.991875 35.26171875 -4.671875 35.26171875 C-4.671875 34.60171875 -4.671875 33.94171875 -4.671875 33.26171875 C-9.60014555 29.48430611 -14.20582602 29.65379123 -20.20703125 29.7734375 C-25.20430757 30.47767599 -28.41417326 32.44355219 -31.671875 36.26171875 Z M-72.984375 65.38671875 C-75.34397553 69.40677892 -75.45903479 72.70743713 -74.671875 77.26171875 C-72.90257556 80.93641759 -71.31300205 82.78850593 -68.046875 85.19921875 C-63.39418929 86.66395314 -59.42582073 86.04151617 -54.671875 85.26171875 C-54.671875 84.60171875 -54.671875 83.94171875 -54.671875 83.26171875 C-54.053125 83.03484375 -53.434375 82.80796875 -52.796875 82.57421875 C-50.56105322 81.40023065 -50.56105322 81.40023065 -49.359375 79.26171875 C-48.33369377 74.78601883 -48.52534748 70.70907708 -49.671875 66.26171875 C-52.23462732 62.95711707 -53.72125902 61.57859074 -57.671875 60.26171875 C-64.58613953 59.81563717 -67.78709927 60.61084375 -72.984375 65.38671875 Z M-121.671875 89.26171875 C-124.92527747 94.14182246 -124.24800574 99.55661927 -123.671875 105.26171875 C-122.12680869 108.8343616 -122.12680869 108.8343616 -119.671875 111.26171875 C-119.135625 112.00421875 -118.599375 112.74671875 -118.046875 113.51171875 C-113.79674979 116.64338996 -108.57487406 117.58373209 -103.34765625 117.00390625 C-99.99820806 116.22381296 -97.53993536 115.17375899 -94.671875 113.26171875 C-94.671875 112.60171875 -94.671875 111.94171875 -94.671875 111.26171875 C-94.011875 111.26171875 -93.351875 111.26171875 -92.671875 111.26171875 C-89.0789496 105.19865713 -87.6375369 100.3337048 -88.671875 93.26171875 C-89.62001871 91.02953248 -89.62001871 91.02953248 -90.671875 89.26171875 C-91.331875 89.26171875 -91.991875 89.26171875 -92.671875 89.26171875 C-92.919375 88.66359375 -93.166875 88.06546875 -93.421875 87.44921875 C-94.92994375 84.81009843 -96.04695158 83.81163241 -98.671875 82.26171875 C-108.15194384 80.75451886 -115.51114498 81.33593109 -121.671875 89.26171875 Z M-30.671875 87.26171875 C-34.89864611 93.16073183 -34.52598046 99.25966547 -33.671875 106.26171875 C-32.06268249 110.42223785 -29.61038701 112.55211211 -26.109375 115.19921875 C-19.71755136 117.17487333 -13.25989402 117.50951363 -7.171875 114.57421875 C-2.83899455 110.56630434 0.06257629 107.12926277 1.328125 101.26171875 C1.328125 95.94891467 -0.00936918 91.89216366 -2.671875 87.26171875 C-3.331875 87.26171875 -3.991875 87.26171875 -4.671875 87.26171875 C-4.671875 86.60171875 -4.671875 85.94171875 -4.671875 85.26171875 C-11.99772051 79.52478023 -24.81538533 79.94110667 -30.671875 87.26171875 Z M-76.546875 113.88671875 C-79.88686521 119.19140908 -80.1507485 124.26875938 -79.171875 130.38671875 C-76.5832179 135.34831152 -73.10237672 140.45155151 -67.671875 142.26171875 C-60.489387 142.9593808 -55.49275986 142.65708079 -49.671875 138.26171875 C-45.28765377 133.40352766 -43.23999711 130.10372741 -43.4296875 123.6015625 C-44.10456031 117.08142032 -47.09703265 113.40862892 -51.953125 109.42578125 C-60.4990585 103.63785356 -69.81444594 107.73971831 -76.546875 113.88671875 Z " fill="#6D6F87" transform="translate(291.671875,162.73828125)"/>
<path d="M0 0 C8.85505252 5.60655094 16.79648995 12.05782985 20.09765625 22.328125 C20.35049585 26.12071897 20.2980068 28.72707334 19.09765625 32.328125 C17.35546875 33.71484375 17.35546875 33.71484375 15.22265625 35.015625 C14.52398437 35.45261719 13.8253125 35.88960938 13.10546875 36.33984375 C11.09765625 37.328125 11.09765625 37.328125 8.09765625 37.328125 C8.09765625 37.988125 8.09765625 38.648125 8.09765625 39.328125 C4.44009052 41.34516492 0.77058627 43.33922613 -2.90234375 45.328125 C-3.68480469 45.76511719 -4.46726562 46.20210938 -5.2734375 46.65234375 C-10.38974848 49.40876838 -10.38974848 49.40876838 -13.0625 48.98828125 C-14.90234375 48.328125 -14.90234375 48.328125 -15.90234375 47.328125 C-16.27674789 45.2308768 -16.60204428 43.12475959 -16.90234375 41.015625 C-17.67416623 35.62566868 -17.67416623 35.62566868 -18.90234375 30.328125 C-19.56234375 30.328125 -20.22234375 30.328125 -20.90234375 30.328125 C-20.90234375 29.668125 -20.90234375 29.008125 -20.90234375 28.328125 C-32.44094782 24.60457037 -48.32367334 25.15289321 -60.16430664 27.84179688 C-63.4708232 28.4290979 -66.5947027 28.44007241 -69.953125 28.42578125 C-70.61193161 28.4243663 -71.27073822 28.42295135 -71.94950867 28.42149353 C-74.03800137 28.41593 -76.12638386 28.40338447 -78.21484375 28.390625 C-79.63736824 28.38560528 -81.05989441 28.3810432 -82.48242188 28.37695312 C-85.95576452 28.36597257 -89.42904336 28.34873335 -92.90234375 28.328125 C-92.40734375 26.843125 -92.40734375 26.843125 -91.90234375 25.328125 C-89.49523233 24.44400357 -87.18400527 23.73560245 -84.71484375 23.078125 C-73.31378699 19.77245547 -63.37470463 14.22036859 -53.16943359 8.25219727 C-46.99058558 4.69870788 -40.54376312 1.90907263 -33.90234375 -0.671875 C-32.979375 -1.04828125 -32.05640625 -1.4246875 -31.10546875 -1.8125 C-21.76805531 -4.3176597 -8.72406306 -4.36972471 0 0 Z " fill="#6D6F87" transform="translate(344.90234375,309.671875)"/>
<path d="M0 0 C0 0.66 0 1.32 0 2 C-0.804375 2.474375 -1.60875 2.94875 -2.4375 3.4375 C-5.2918076 4.79983672 -5.2918076 4.79983672 -6 8 C-5.67 8.66 -5.34 9.32 -5 10 C-4.4342627 9.84152588 -3.86852539 9.68305176 -3.28564453 9.51977539 C-0.95706599 8.99023643 1.18658683 8.79474308 3.5703125 8.68359375 C4.90328369 8.6206311 4.90328369 8.6206311 6.26318359 8.55639648 C7.20758301 8.51716064 8.15198242 8.4779248 9.125 8.4375 C10.0938916 8.3950415 11.0627832 8.35258301 12.06103516 8.30883789 C21.04352414 7.94380952 30.01195999 7.90013289 39 8 C39.495 8.99 39.495 8.99 40 10 C38.31197266 9.98259766 38.31197266 9.98259766 36.58984375 9.96484375 C20.55845442 9.54147064 20.55845442 9.54147064 4.74462891 11.51367188 C1.4357123 12.09998764 -1.69015185 12.1119568 -5.05078125 12.09765625 C-5.70958786 12.0962413 -6.36839447 12.09482635 -7.04716492 12.09336853 C-9.13565762 12.087805 -11.22404011 12.07525947 -13.3125 12.0625 C-14.73502449 12.05748028 -16.15755066 12.0529182 -17.58007812 12.04882812 C-21.05342077 12.03784757 -24.52669961 12.02060835 -28 12 C-27.67 11.01 -27.34 10.02 -27 9 C-24.4868754 8.04561101 -22.08201293 7.27181559 -19.5 6.5625 C-13.59884223 4.84564461 -5.81103399 0 0 0 Z " fill="#838496" transform="translate(280,326)"/>
<path d="M0 0 C1.59231445 -0.01160156 1.59231445 -0.01160156 3.21679688 -0.0234375 C4.23708984 -0.02085937 5.25738281 -0.01828125 6.30859375 -0.015625 C7.68035767 -0.01224121 7.68035767 -0.01224121 9.07983398 -0.00878906 C11.68011702 0.26226021 13.32489459 0.93364618 15.5625 2.25 C14.2027002 2.27187378 14.2027002 2.27187378 12.81542969 2.29418945 C9.39316369 2.35590888 5.97161549 2.43017443 2.54980469 2.51245117 C1.07985382 2.54533418 -0.39021223 2.57347494 -1.86035156 2.59643555 C-13.50676354 2.78312769 -23.92101208 3.87490617 -34.4375 9.25 C-37.41360145 10.04954964 -40.41007866 10.67815375 -43.4375 11.25 C-43.4375 11.91 -43.4375 12.57 -43.4375 13.25 C-44.7575 12.92 -46.0775 12.59 -47.4375 12.25 C-31.98583713 4.03103039 -17.52258355 -0.13100997 0 0 Z " fill="#A3A3B3" transform="translate(230.4375,140.75)"/>
<path d="M0 0 C-0.99 0.33 -1.98 0.66 -3 1 C0.31248187 1.02888146 3.62493167 1.04675799 6.9375 1.0625 C7.88302734 1.07087891 8.82855469 1.07925781 9.80273438 1.08789062 C10.70185547 1.09111328 11.60097656 1.09433594 12.52734375 1.09765625 C13.35999756 1.10289307 14.19265137 1.10812988 15.05053711 1.11352539 C17.00516798 1.21643292 17.00516798 1.21643292 18 0 C19.42092796 -0.15792261 20.84915849 -0.25111696 22.27734375 -0.31640625 C23.62481689 -0.3793689 23.62481689 -0.3793689 24.99951172 -0.44360352 C26.45381592 -0.50245728 26.45381592 -0.50245728 27.9375 -0.5625 C28.91992676 -0.6049585 29.90235352 -0.64741699 30.91455078 -0.69116211 C39.94593076 -1.05320404 48.96320959 -1.10040878 58 -1 C58.495 -0.01 58.495 -0.01 59 1 C57.31197266 0.98259766 57.31197266 0.98259766 55.58984375 0.96484375 C39.55845442 0.54147064 39.55845442 0.54147064 23.74462891 2.51367188 C20.4357123 3.09998764 17.30984815 3.1119568 13.94921875 3.09765625 C13.29041214 3.0962413 12.63160553 3.09482635 11.95283508 3.09336853 C9.86434238 3.087805 7.77595989 3.07525947 5.6875 3.0625 C4.26497551 3.05748028 2.84244934 3.0529182 1.41992188 3.04882812 C-2.05342077 3.03784757 -5.52669961 3.02060835 -9 3 C-8.67 2.01 -8.34 1.02 -8 0 C-5.04215769 -1.22393475 -3.00272755 -0.96516243 0 0 Z " fill="#8B8CA0" transform="translate(261,335)"/>
<path d="M0 0 C0 0.66 0 1.32 0 2 C-1.65 2.33 -3.3 2.66 -5 3 C-5 3.66 -5 4.32 -5 5 C-5.66 5 -6.32 5 -7 5 C-7.34224609 5.84884766 -7.34224609 5.84884766 -7.69140625 6.71484375 C-9.35318083 9.61674861 -11.41556969 11.37386444 -13.9375 13.5625 C-17.38130747 16.53606512 -17.38130747 16.53606512 -20.62890625 19.71484375 C-22 21 -22 21 -25 22 C-26.70586575 23.62652316 -28.3777546 25.29006566 -30 27 C-27.01053157 20.38782597 -21.3163716 14.86068261 -16 10 C-15.34 10 -14.68 10 -14 10 C-14 9.34 -14 8.68 -14 8 C-8.58823529 4 -8.58823529 4 -6 4 C-6 3.34 -6 2.68 -6 2 C-2.25 0 -2.25 0 0 0 Z " fill="#9F9EAD" transform="translate(183,154)"/>
<path d="M0 0 C-6.68417788 6.68417788 -22.36354039 6.41139497 -31.25 6.4375 C-39.81493744 6.3674544 -47.73912619 5.36830512 -56 3 C-52.39703505 1.7614808 -49.70525664 2.24276438 -46 2.9375 C-29.70283839 5.60233065 -15.50776919 -0.91222172 0 0 Z " fill="#A4A4B0" transform="translate(261,325)"/>
<path d="M0 0 C4.30009754 1.65139288 7.6946505 3.55633075 10.59375 7.24609375 C8.61375 7.57609375 6.63375 7.90609375 4.59375 8.24609375 C4.59375 7.25609375 4.59375 6.26609375 4.59375 5.24609375 C3.60375 4.91609375 2.61375 4.58609375 1.59375 4.24609375 C1.59375 3.58609375 1.59375 2.92609375 1.59375 2.24609375 C-3.05816107 1.33452175 -7.4816429 1.11179619 -12.21875 1.12109375 C-12.89873047 1.11722656 -13.57871094 1.11335938 -14.27929688 1.109375 C-17.62668606 0.82559543 -17.62668606 0.82559543 -20.40625 2.24609375 C-21.92553038 2.31789339 -23.44792482 2.33001382 -24.96875 2.30859375 C-25.79503906 2.29957031 -26.62132812 2.29054688 -27.47265625 2.28125 C-28.11074219 2.26964844 -28.74882812 2.25804687 -29.40625 2.24609375 C-20.52958978 -2.19223636 -9.72664546 -2.15280112 0 0 Z " fill="#A7A7B8" transform="translate(340.40625,307.75390625)"/>
<path d="M0 0 C0.96661363 3.12180401 0.98988909 5.52083795 0.5625 8.75 C0.46066406 9.54921875 0.35882813 10.3484375 0.25390625 11.171875 C0.12822266 12.07679688 0.12822266 12.07679688 0 13 C-0.66 13 -1.32 13 -2 13 C-1.97679687 13.67546875 -1.95359375 14.3509375 -1.9296875 15.046875 C-1.91164062 15.93890625 -1.89359375 16.8309375 -1.875 17.75 C-1.85179687 18.63171875 -1.82859375 19.5134375 -1.8046875 20.421875 C-2.00860498 23.1135858 -2.63448279 24.69904974 -4 27 C-4.33 27 -4.66 27 -5 27 C-4.70948717 17.31139704 -3.26994817 9.15585487 0 0 Z " fill="#9D9CAC" transform="translate(140,203)"/>
<path d="M0 0 C1.051875 0.66 2.10375 1.32 3.1875 2 C8.86862759 4.88128872 14.77681203 4.51930844 21 4 C21.99 3.67 22.98 3.34 24 3 C24 3.99 24 4.98 24 6 C16.84863134 7.57201257 9.81231977 8.55727531 3.3125 4.625 C1.36328125 3.2890625 1.36328125 3.2890625 0 2 C0 1.34 0 0.68 0 0 Z " fill="#ADAEB9" transform="translate(261,222)"/>
<path d="M0 0 C0.33 0 0.66 0 1 0 C0.29515936 9.16292833 -2.53618108 17.96512594 -7 26 C-7.625 24.1875 -7.625 24.1875 -8 22 C-7.01 20.515 -7.01 20.515 -6 19 C-5.40260055 16.95294775 -4.86590017 14.88766892 -4.375 12.8125 C-4.11460937 11.72582031 -3.85421875 10.63914062 -3.5859375 9.51953125 C-3.39257812 8.68808594 -3.19921875 7.85664063 -3 7 C-2.34 7 -1.68 7 -1 7 C-1.020625 6.030625 -1.04125 5.06125 -1.0625 4.0625 C-1 1 -1 1 0 0 Z " fill="#9FA0AF" transform="translate(322,253)"/>
<path d="M0 0 C-1.01707031 0.36351562 -1.01707031 0.36351562 -2.0546875 0.734375 C-7.73356156 2.7793989 -13.34497799 4.91833487 -18.90625 7.265625 C-21 8 -21 8 -24 8 C-24 8.66 -24 9.32 -24 10 C-25.32 9.67 -26.64 9.34 -28 9 C-6.6015401 -2.38215952 -6.6015401 -2.38215952 0 0 Z " fill="#AAAAB6" transform="translate(211,144)"/>
<path d="M0 0 C-0.99 0.33 -1.98 0.66 -3 1 C4.92 1.33 12.84 1.66 21 2 C21 2.33 21 2.66 21 3 C11.1 3 1.2 3 -9 3 C-8.67 2.01 -8.34 1.02 -8 0 C-5.04215769 -1.22393475 -3.00272755 -0.96516243 0 0 Z " fill="#A0A1AB" transform="translate(261,335)"/>
<path d="M0 0 C-4.39438569 4.39438569 -12.54284418 4.86666596 -18.52734375 5.19140625 C-21.35813454 5.18804027 -24.1727832 5.13754028 -27 5 C-27 4.67 -27 4.34 -27 4 C-25.37191406 3.81824219 -25.37191406 3.81824219 -23.7109375 3.6328125 C-22.26558596 3.46387531 -20.82027558 3.29458575 -19.375 3.125 C-18.66214844 3.04636719 -17.94929687 2.96773438 -17.21484375 2.88671875 C-11.32885689 2.18472032 -5.91712826 -0.34806637 0 0 Z " fill="#9494A2" transform="translate(261,325)"/>
<path d="M0 0 C0.66 0.33 1.32 0.66 2 1 C0.56877218 2.48523642 -0.87020889 3.96300462 -2.3125 5.4375 C-3.11300781 6.26121094 -3.91351563 7.08492187 -4.73828125 7.93359375 C-7 10 -7 10 -10 11 C-11.70586575 12.62652316 -13.3777546 14.29006566 -15 16 C-12.14405038 9.84143565 -8.02658252 5.18069633 -2 2 C-1.34 1.34 -0.68 0.68 0 0 Z " fill="#9090A1" transform="translate(168,165)"/>
<path d="M0 0 C6.93 0.495 6.93 0.495 14 1 C11 4 11 4 9.0625 4.36328125 C8.0415625 4.33814453 8.0415625 4.33814453 7 4.3125 C5.9790625 4.30669922 5.9790625 4.30669922 4.9375 4.30078125 C3 4 3 4 0 2 C0 1.34 0 0.68 0 0 Z " fill="#A5A5B4" transform="translate(222,200)"/>
<path d="M0 0 C3.00617269 3.00617269 2.59585316 5.82381598 3 10 C3.99 10 4.98 10 6 10 C6.66 9.34 7.32 8.68 8 8 C9.32 8.66 10.64 9.32 12 10 C6.60490463 13.0653951 6.60490463 13.0653951 3.6875 12.75 C2 12 2 12 1 11 C0.76636119 9.15108054 0.58696365 7.29511969 0.4375 5.4375 C0.35371094 4.42558594 0.26992188 3.41367187 0.18359375 2.37109375 C0.12300781 1.58863281 0.06242187 0.80617188 0 0 Z " fill="#8E8FA1" transform="translate(328,346)"/>
<path d="M0 0 C0.66 0.33 1.32 0.66 2 1 C2.05406122 2.93719378 2.09282025 4.87481921 2.125 6.8125 C2.14820313 7.89144531 2.17140625 8.97039062 2.1953125 10.08203125 C2 13 2 13 0 16 C-0.66 16 -1.32 16 -2 16 C-1.505 14.2675 -1.505 14.2675 -1 12.5 C0.08401934 8.22499413 0.15701377 4.39638547 0 0 Z " fill="#91919F" transform="translate(292,256)"/>
<path d="M0 0 C4.87664009 -0.34833144 7.77050005 0.58314288 12 3 C8.94730154 4.52634923 6.24154311 3.83794444 2.875 3.5625 C1.59367187 3.46066406 0.31234375 3.35882813 -1.0078125 3.25390625 C-2.48894531 3.12822266 -2.48894531 3.12822266 -4 3 C-2.68 2.67 -1.36 2.34 0 2 C0 1.34 0 0.68 0 0 Z " fill="#9495A9" transform="translate(272,190)"/>
<path d="M0 0 C0 0.99 0 1.98 0 3 C-3.96 3 -7.92 3 -12 3 C-7.09396701 -0.67952474 -5.82490317 -0.29124516 0 0 Z " fill="#9292A3" transform="translate(279,242)"/>
<path d="M0 0 C2.03529587 2.03529587 2.6384272 3.23417382 3.625 5.875 C3.88539063 6.55304688 4.14578125 7.23109375 4.4140625 7.9296875 C5 10 5 10 5 14 C4.34 14 3.68 14 3 14 C1.20724134 10.88089144 0.65709282 8.32317572 0.375 4.75 C0.30023438 3.85796875 0.22546875 2.9659375 0.1484375 2.046875 C0.09945313 1.37140625 0.05046875 0.6959375 0 0 Z " fill="#A7A9B4" transform="translate(316,196)"/>
<path d="M0 0 C-4.625 3 -4.625 3 -8 3 C-8 3.66 -8 4.32 -8 5 C-9.32 5.33 -10.64 5.66 -12 6 C-11.4375 3.625 -11.4375 3.625 -10 1 C-6.09229013 -0.56308395 -4.03965064 -1.34655021 0 0 Z " fill="#9696A4" transform="translate(361,344)"/>
<path d="M0 0 C0.66 0 1.32 0 2 0 C2 4.62 2 9.24 2 14 C0.02 14.99 0.02 14.99 -2 16 C-1.67257813 15.29488281 -1.34515625 14.58976562 -1.0078125 13.86328125 C0.08400722 10.76132833 0.20385396 8.45993947 0.125 5.1875 C0.10695312 4.21167969 0.08890625 3.23585938 0.0703125 2.23046875 C0.04710937 1.49441406 0.02390625 0.75835937 0 0 Z " fill="#8A8A9F" transform="translate(247,282)"/>
<path d="M0 0 C2 3 2 3 2 6 C2.66 6 3.32 6 4 6 C4 8.97 4 11.94 4 15 C2.25674553 12.3851183 1.58412043 10.9946567 0.875 8.0625 C0.70742187 7.39347656 0.53984375 6.72445313 0.3671875 6.03515625 C0 4 0 4 0 0 Z " fill="#A6A6B2" transform="translate(136,250)"/>
<path d="M0 0 C0.96661363 3.12180401 0.98988909 5.52083795 0.5625 8.75 C0.40974609 9.94882813 0.40974609 9.94882813 0.25390625 11.171875 C0.12822266 12.07679688 0.12822266 12.07679688 0 13 C-0.99 13 -1.98 13 -3 13 C-2.68991116 11.39536551 -2.37683713 9.79130769 -2.0625 8.1875 C-1.88847656 7.29417969 -1.71445313 6.40085938 -1.53515625 5.48046875 C-1 3 -1 3 0 0 Z " fill="#A3A4BA" transform="translate(140,203)"/>
<path d="M0 0 C0 0.66 0 1.32 0 2 C0.66 2.33 1.32 2.66 2 3 C-1.63 3 -5.26 3 -9 3 C-4.5 -0.375 -4.5 -0.375 0 0 Z " fill="#9696A7" transform="translate(188,190)"/>
<path d="M0 0 C0.98120464 3.05263664 0.98120464 4.94736336 0 8 C-1.98 8.33 -3.96 8.66 -6 9 C-5.34 8.01 -4.68 7.02 -4 6 C-3.34 6 -2.68 6 -2 6 C-1.34 4.02 -0.68 2.04 0 0 Z " fill="#8F8E9D" transform="translate(291,216)"/>
<path d="M0 0 C2.25 -0.25 2.25 -0.25 5 0 C7.3125 2 7.3125 2 9 4 C7.02 4.33 5.04 4.66 3 5 C3 4.01 3 3.02 3 2 C2.01 1.34 1.02 0.68 0 0 Z " fill="#8C8C9C" transform="translate(342,311)"/>
<path d="M0 0 C3.91402949 1.26941497 5.79072873 2.51167694 8 6 C6.35 5.67 4.7 5.34 3 5 C3 4.34 3 3.68 3 3 C2.34 3 1.68 3 1 3 C0.67 2.01 0.34 1.02 0 0 Z " fill="#909BB1" transform="translate(283,158)"/>
</svg>
