<?xml version="1.0" encoding="UTF-8"?>
<svg version="1.1" xmlns="http://www.w3.org/2000/svg" width="500" height="500">
<path d="M0 0 C1.53642522 -0.00269959 3.07284877 -0.00658588 4.60926819 -0.01159668 C7.81934986 -0.01747166 11.02898428 -0.00899534 14.23901367 0.00976562 C18.33216255 0.03253527 22.42426091 0.01943289 26.51737118 -0.00452423 C29.68750263 -0.01905342 32.85738951 -0.01434357 36.02752876 -0.00401306 C37.53565155 -0.00136437 39.0437973 -0.0045494 40.55189323 -0.01393127 C58.06296658 -0.09897205 58.06296658 -0.09897205 64.88316345 6.0213623 C69.32182579 11.02466031 69.34513217 18.41837582 69.36791992 24.76098633 C69.37429977 25.97277054 69.38067963 27.18455475 69.38725281 28.43305969 C69.38836563 29.73003281 69.38947845 31.02700592 69.390625 32.36328125 C69.39384346 33.72320083 69.39720796 35.08312007 69.40071106 36.44303894 C69.40668248 39.28828737 69.40855304 42.13350552 69.40795898 44.97875977 C69.40785754 48.60310492 69.42149982 52.22725337 69.43873119 55.85155201 C69.44991635 58.6596107 69.45187619 61.46762284 69.45134926 64.27570152 C69.45308458 66.25468273 69.46388389 68.2336494 69.47489929 70.21260071 C69.45489292 78.15395315 68.74406687 84.96701814 66.22265625 92.53125 C65.56265625 92.53125 64.90265625 92.53125 64.22265625 92.53125 C64.22265625 93.19125 64.22265625 93.85125 64.22265625 94.53125 C59.18524971 97.77885934 55.82375396 99.05896295 49.70703125 99.2734375 C48.6204422 99.31620316 48.6204422 99.31620316 47.51190186 99.35983276 C45.08202397 99.44401625 42.65367572 99.49274228 40.22265625 99.53125 C39.34859131 99.54579224 38.47452637 99.56033447 37.57397461 99.57531738 C31.85845442 99.65666167 26.14424919 99.67396672 20.42822266 99.66162109 C17.46251375 99.65623157 14.49695453 99.6616182 11.53125 99.66796875 C-19.56145141 99.68322571 -19.56145141 99.68322571 -25.77734375 93.53125 C-31.09643822 84.78048167 -29.93604682 73.08214895 -29.9453125 63.18359375 C-29.9486409 61.93171768 -29.9519693 60.67984161 -29.95539856 59.39002991 C-29.96043678 56.75701258 -29.96280785 54.12398894 -29.96264648 51.4909668 C-29.96256494 48.80763044 -29.9695591 46.12446375 -29.9831543 43.44116211 C-30.00152164 39.54275354 -30.00638447 35.64454133 -30.0078125 31.74609375 C-30.01859077 29.95980812 -30.01859077 29.95980812 -30.02958679 28.13743591 C-30.00922 20.66862391 -29.96870384 13.32398862 -26.15234375 6.71875 C-18.35526676 -0.46276828 -9.99701105 -0.06209487 0 0 Z M-7.77734375 47.53125 C-8.11077926 50.07332971 -8.11077926 50.07332971 -7.77734375 52.53125 C-5.63472957 54.67386418 -0.93090763 53.96232157 2.03515625 54.09375 C2.94845703 54.1354834 3.86175781 54.1772168 4.80273438 54.22021484 C12.9417002 54.55145183 21.07753991 54.63877462 29.22265625 54.65625 C31.03793823 54.66313843 31.03793823 54.66313843 32.88989258 54.67016602 C34.03095459 54.66815186 35.1720166 54.6661377 36.34765625 54.6640625 C37.36085937 54.66293457 38.3740625 54.66180664 39.41796875 54.66064453 C42.12120944 54.53593026 44.58966692 54.13826013 47.22265625 53.53125 C48.1568927 50.52093256 48.26715536 49.66474732 47.22265625 46.53125 C44.31946718 45.56352031 42.45223912 45.39945653 39.43164062 45.38598633 C38.46053345 45.37960648 37.48942627 45.37322662 36.4888916 45.36665344 C35.44197144 45.36554062 34.39505127 45.3644278 33.31640625 45.36328125 C31.70203674 45.35828865 31.70203674 45.35828865 30.05505371 45.35319519 C27.77873156 45.34813087 25.50240199 45.34578671 23.22607422 45.34594727 C19.73653001 45.3437587 16.24730084 45.32559186 12.7578125 45.30664062 C10.54817817 45.30370707 8.33854233 45.30172202 6.12890625 45.30078125 C5.08198608 45.29359573 4.03506592 45.28641022 2.9564209 45.27900696 C1.98531372 45.28208359 1.01420654 45.28516022 0.01367188 45.28833008 C-0.84109741 45.28690506 -1.6958667 45.28548004 -2.57653809 45.28401184 C-5.06739595 45.39359143 -5.06739595 45.39359143 -7.77734375 47.53125 Z " fill="#7D7D94" transform="translate(172.77734375,142.46875)"/>
<path d="M0 0 C1.08085876 -0.00095673 2.16171753 -0.00191345 3.27532959 -0.00289917 C5.54764871 -0.00357525 7.81996982 -0.0017612 10.09228516 0.00244141 C13.52380843 0.00777664 16.95519959 0.00248758 20.38671875 -0.00390625 C53.35804203 -0.01811055 53.35804203 -0.01811055 58.546875 3.3203125 C64.38311806 9.28919745 65.40767201 15.33937325 65.45800781 23.41674805 C65.46761536 24.6654216 65.4772229 25.91409515 65.48712158 27.2006073 C65.49197145 28.55691341 65.49624981 29.91322166 65.5 31.26953125 C65.50424107 32.30305694 65.50424107 32.30305694 65.50856781 33.35746193 C65.52352698 37.00645959 65.53277607 40.65541808 65.53710938 44.30444336 C65.54257773 48.04874531 65.5665801 51.79268064 65.59508133 55.5368681 C65.61383257 58.43761698 65.61891997 61.33827991 65.62044525 64.23908424 C65.62344612 65.61800952 65.63138641 66.99693424 65.64463043 68.37579918 C65.81167296 87.10958996 65.81167296 87.10958996 60.58135986 93.09648132 C55.44215808 97.86813536 51.27590622 98.25605509 44.34448242 98.29394531 C43.30708672 98.30139267 43.30708672 98.30139267 42.24873352 98.30899048 C39.96659337 98.32356426 37.68452274 98.33040626 35.40234375 98.3359375 C33.8105723 98.34169311 32.21880086 98.34745079 30.62702942 98.35321045 C27.29065631 98.36370698 23.95430721 98.36955839 20.61791992 98.37304688 C16.35428947 98.37852725 12.09097905 98.40255103 7.82744884 98.43101883 C4.53907867 98.44969372 1.25078482 98.45485339 -2.0376339 98.45638275 C-3.60883012 98.45939912 -5.18002532 98.46739319 -6.7511692 98.48056793 C-8.95520621 98.49772987 -11.1584711 98.49572395 -13.36254883 98.48925781 C-14.61401199 98.49290344 -15.86547516 98.49654907 -17.15486145 98.50030518 C-21.89789881 98.00907011 -25.76502637 96.81166047 -29.45217896 93.61772156 C-32.77634878 88.8779162 -33.47010271 85.06748072 -33.5078125 79.33984375 C-33.53181122 78.48195755 -33.55580994 77.62407135 -33.58053589 76.7401886 C-33.65038012 73.87079477 -33.68002463 71.00294588 -33.703125 68.1328125 C-33.71621704 67.10943787 -33.72930908 66.08606323 -33.74279785 65.03167725 C-33.82442118 58.42713678 -33.84594118 51.82398541 -33.83349609 45.21899414 C-33.82806037 41.77941629 -33.83351787 38.33996493 -33.83984375 34.90039062 C-33.83918408 32.69010388 -33.83790523 30.47981722 -33.8359375 28.26953125 C-33.83796173 27.25283859 -33.83998596 26.23614594 -33.84207153 25.18864441 C-33.79376911 10.53966069 -33.79376911 10.53966069 -29.890625 6.3203125 C-29.38917969 5.75699219 -28.88773437 5.19367188 -28.37109375 4.61328125 C-21.17664576 -1.77242317 -8.99808605 -0.01800298 0 0 Z M12.296875 26.1328125 C11.91624279 28.4588982 11.58417555 30.79336514 11.296875 33.1328125 C12.40854364 34.46469043 12.40854364 34.46469043 15.234375 34.3203125 C18.40580359 34.46559983 18.40580359 34.46559983 20.296875 32.1328125 C20.00704231 28.82597784 20.00704231 28.82597784 18.296875 26.1328125 C16.29729136 26.09200467 14.29642246 26.09026894 12.296875 26.1328125 Z M-10.703125 45.1328125 C-11.90150709 47.46135713 -11.90150709 47.46135713 -12.703125 50.1328125 C-11.713125 51.6178125 -11.713125 51.6178125 -10.703125 53.1328125 C-8.37097559 53.57796716 -8.37097559 53.57796716 -5.62670898 53.48925781 C-4.56898788 53.49225891 -3.51126678 53.49526001 -2.42149353 53.49835205 C-0.70271751 53.47983185 -0.70271751 53.47983185 1.05078125 53.4609375 C2.22197006 53.45906433 3.39315887 53.45719116 4.59983826 53.45526123 C7.07887615 53.44852968 9.55790322 53.43459353 12.03686523 53.4140625 C15.84694196 53.38291414 19.65660548 53.37309439 23.46679688 53.3671875 C25.86979675 53.35801785 28.27279239 53.3476422 30.67578125 53.3359375 C31.82365616 53.33168762 32.97153107 53.32743774 34.15419006 53.32305908 C35.208759 53.31345154 36.26332794 53.30384399 37.34985352 53.29394531 C38.2831398 53.28711731 39.21642609 53.28028931 40.17799377 53.27325439 C42.28180075 53.36748455 42.28180075 53.36748455 43.296875 52.1328125 C43.46354167 49.1328125 43.46354167 49.1328125 43.296875 46.1328125 C42.28050541 44.89438605 42.28050541 44.89438605 40.16453552 45.01255798 C38.75555748 45.0158889 38.75555748 45.0158889 37.31811523 45.01928711 C35.72657875 45.01940041 35.72657875 45.01940041 34.10289001 45.01951599 C32.948741 45.02467728 31.79459198 45.02983856 30.60546875 45.03515625 C28.8430056 45.03727867 28.8430056 45.03727867 27.04493713 45.03944397 C23.27472436 45.04506258 19.50456996 45.05761824 15.734375 45.0703125 C13.18554773 45.0753251 10.63671953 45.07988842 8.08789062 45.08398438 C1.82419867 45.09503806 -4.43945899 45.11179429 -10.703125 45.1328125 Z M12.421875 65.2578125 C11.02277857 67.15749026 11.02277857 67.15749026 11.609375 69.8203125 C11.83625 70.5834375 12.063125 71.3465625 12.296875 72.1328125 C14.606875 72.1328125 16.916875 72.1328125 19.296875 72.1328125 C19.296875 69.8228125 19.296875 67.5128125 19.296875 65.1328125 C15.74720856 63.99840981 15.74720856 63.99840981 12.421875 65.2578125 Z " fill="#7E7D94" transform="translate(291.703125,257.8671875)"/>
<path d="M0 0 C0.66902344 -0.00671722 1.33804687 -0.01343445 2.02734375 -0.02035522 C4.22956871 -0.0392839 6.4314879 -0.04325716 8.63378906 -0.04541016 C10.17450075 -0.0518431 11.71521124 -0.05857183 13.25592041 -0.06558228 C16.48379342 -0.07754325 19.71155952 -0.08126447 22.93945312 -0.08007812 C27.05615203 -0.07987533 31.17215753 -0.10714097 35.28869247 -0.14162254 C38.47165004 -0.16397084 41.65444305 -0.16791321 44.83747101 -0.16685867 C46.35398999 -0.16920412 47.87051425 -0.17796757 49.38695526 -0.19352341 C57.67642425 -0.27057741 64.87897912 -0.15125351 72.14941406 4.29052734 C72.14941406 4.95052734 72.14941406 5.61052734 72.14941406 6.29052734 C72.80941406 6.29052734 73.46941406 6.29052734 74.14941406 6.29052734 C77.37528322 12.32150012 78.26971032 16.98818957 78.31054688 23.78979492 C78.32015442 25.08496536 78.32976196 26.3801358 78.33966064 27.71455383 C78.34450935 29.12138695 78.348788 30.52822212 78.35253906 31.93505859 C78.35678013 33.00542642 78.35678013 33.00542642 78.36110687 34.09741783 C78.37606368 37.87378684 78.38531523 41.65011799 78.38964844 45.42651367 C78.39512744 49.31001062 78.41915316 53.19315598 78.44762039 57.07654285 C78.46632435 60.07843511 78.47145648 63.08024397 78.47298431 66.08218956 C78.47599397 67.51300668 78.48396493 68.94382293 78.49716949 70.37458229 C78.64112977 87.17209344 78.64112977 87.17209344 72.71191406 94.16552734 C69.20955085 97.06992611 66.54255706 98.50373467 61.98242188 98.70019531 C61.1677948 98.73831329 60.35316772 98.77643127 59.51385498 98.81570435 C58.63562073 98.84606781 57.75738647 98.87643127 56.85253906 98.90771484 C55.92838196 98.94524872 55.00422485 98.98278259 54.05206299 99.02145386 C44.31447472 99.38283561 34.57680933 99.4421257 24.83349609 99.42089844 C21.85932501 99.41545396 18.88529987 99.42093151 15.91113281 99.42724609 C13.98535124 99.42658646 12.05956975 99.42530767 10.13378906 99.42333984 C9.26179871 99.42536407 8.38980835 99.42738831 7.49139404 99.42947388 C-7.48059218 99.37278239 -7.48059218 99.37278239 -13.85058594 96.29052734 C-13.85058594 95.63052734 -13.85058594 94.97052734 -13.85058594 94.29052734 C-14.77871094 93.91927734 -14.77871094 93.91927734 -15.72558594 93.54052734 C-18.33560498 92.00522203 -18.75780443 91.09271674 -19.85058594 88.29052734 C-21.09528391 79.20947638 -21.00967004 69.92302571 -21.01855469 60.77099609 C-21.02188309 59.54697586 -21.02521149 58.32295563 -21.02864075 57.06184387 C-21.03366027 54.4998105 -21.03605063 51.93777071 -21.03588867 49.37573242 C-21.03809031 45.47026914 -21.05634041 41.56508206 -21.07519531 37.65966797 C-21.07812733 35.15511163 -21.08011341 32.65055397 -21.08105469 30.14599609 C-21.0882402 28.989561 -21.09542572 27.83312592 -21.10282898 26.64164734 C-21.05977 11.31215693 -21.05977 11.31215693 -17.29980469 6.16943359 C-16.7184375 5.73501953 -16.13707031 5.30060547 -15.53808594 4.85302734 C-14.67763672 4.17433594 -14.67763672 4.17433594 -13.79980469 3.48193359 C-9.19800173 0.66920834 -5.37358129 0.03398841 0 0 Z M25.14941406 22.29052734 C23.97471962 24.63991623 23.94906517 26.24125939 23.83300781 28.86083984 C23.79111328 29.75673828 23.74921875 30.65263672 23.70605469 31.57568359 C23.66673828 32.51283203 23.62742187 33.44998047 23.58691406 34.41552734 C23.54373047 35.36041016 23.50054687 36.30529297 23.45605469 37.27880859 C23.34982334 39.61589826 23.2477823 41.95309565 23.14941406 44.29052734 C22.55926514 44.30510986 21.96911621 44.31969238 21.36108398 44.3347168 C18.68570177 44.40921578 16.01156514 44.5058673 13.33691406 44.60302734 C11.94375977 44.63686523 11.94375977 44.63686523 10.52246094 44.67138672 C9.62978516 44.70683594 8.73710937 44.74228516 7.81738281 44.77880859 C6.99520264 44.80499268 6.17302246 44.83117676 5.32592773 44.8581543 C2.681025 45.38357468 1.72414862 46.12328638 0.14941406 48.29052734 C0.3798527 50.94518784 0.3798527 50.94518784 1.14941406 53.29052734 C3.87443314 54.19886704 5.77175377 54.4741272 8.59863281 54.60693359 C9.44619141 54.64882812 10.29375 54.69072266 11.16699219 54.73388672 C12.48860352 54.79286133 12.48860352 54.79286133 13.83691406 54.85302734 C14.72958984 54.89621094 15.62226563 54.93939453 16.54199219 54.98388672 C18.74431514 55.08988087 20.94674879 55.19194785 23.14941406 55.29052734 C23.17447021 55.88591309 23.19952637 56.48129883 23.2253418 57.09472656 C23.341189 59.7852187 23.46396602 62.47535075 23.58691406 65.16552734 C23.62623047 66.10267578 23.66554688 67.03982422 23.70605469 68.00537109 C23.74794922 68.90126953 23.78984375 69.79716797 23.83300781 70.72021484 C23.86966553 71.54763184 23.90632324 72.37504883 23.9440918 73.22753906 C24.03179734 75.35232163 24.03179734 75.35232163 25.14941406 77.29052734 C27.45941406 77.29052734 29.76941406 77.29052734 32.14941406 77.29052734 C32.80941406 70.03052734 33.46941406 62.77052734 34.14941406 55.29052734 C43.46191406 54.85302734 43.46191406 54.85302734 46.38500977 54.72241211 C47.53102661 54.66525024 47.53102661 54.66525024 48.70019531 54.60693359 C49.48048096 54.57027588 50.2607666 54.53361816 51.06469727 54.49584961 C53.34270507 54.34927471 53.34270507 54.34927471 56.14941406 53.29052734 C56.14941406 50.98052734 56.14941406 48.67052734 56.14941406 46.29052734 C53.42439499 45.38218765 51.52707436 45.10692749 48.70019531 44.97412109 C47.42885742 44.9112793 47.42885742 44.9112793 46.13183594 44.84716797 C45.25076172 44.80785156 44.3696875 44.76853516 43.46191406 44.72802734 C42.12290039 44.66325195 42.12290039 44.66325195 40.75683594 44.59716797 C38.55451298 44.49117382 36.35207933 44.38910684 34.14941406 44.29052734 C34.08882813 43.03755859 34.02824219 41.78458984 33.96582031 40.49365234 C33.8813915 38.8426001 33.79674468 37.19155899 33.71191406 35.54052734 C33.67259766 34.71552734 33.63328125 33.89052734 33.59277344 33.04052734 C33.55087891 32.24130859 33.50898438 31.44208984 33.46582031 30.61865234 C33.41083374 29.5189209 33.41083374 29.5189209 33.35473633 28.39697266 C33.14826621 26.2787513 32.7180932 24.33858174 32.14941406 22.29052734 C29.83941406 22.29052734 27.52941406 22.29052734 25.14941406 22.29052734 Z " fill="#7C7C93" transform="translate(278.8505859375,142.70947265625)"/>
<path d="M0 0 C1.39406067 0.00332336 1.39406067 0.00332336 2.81628418 0.00671387 C9.10692195 0.02434382 15.39712516 0.06546311 21.6875 0.125 C22.74599152 0.13436584 22.74599152 0.13436584 23.8258667 0.1439209 C27.69801673 0.18180627 31.56689556 0.2605528 35.4375 0.375 C36.32091064 0.38901855 37.20432129 0.40303711 38.11450195 0.41748047 C43.39677285 0.63061636 46.48897042 1.64220149 50.6875 5.125 C57.00550151 12.80905589 55.83597669 21.89887639 55.8203125 31.36328125 C55.82126923 32.63922653 55.82222595 33.91517181 55.82321167 35.2297821 C55.82389078 37.92364932 55.82256204 40.6174252 55.81787109 43.3112793 C55.8121916 46.73702576 55.81544681 50.16269354 55.82144356 53.58843708 C55.82596202 56.8883878 55.82278131 60.1883295 55.8203125 63.48828125 C55.82233673 64.70526199 55.82436096 65.92224274 55.82644653 67.17610168 C55.77467425 86.19348232 55.77467425 86.19348232 51.52734375 93.43359375 C44.5664854 99.83285419 34.44787122 98.56370844 25.65625 98.5234375 C24.09501001 98.52546191 22.53377095 98.52837639 20.97253418 98.53213501 C17.71125221 98.53654114 14.45021787 98.53018288 11.18896484 98.51611328 C7.0263777 98.49902223 2.86437101 98.50887265 -1.29819489 98.52683067 C-4.51886298 98.53771505 -7.73939538 98.53420095 -10.96006775 98.5264473 C-12.49413625 98.52445812 -14.02821742 98.52685906 -15.56227112 98.53388596 C-30.75021406 98.58820267 -30.75021406 98.58820267 -37.3125 95.125 C-41.60749675 89.83885016 -42.43770116 85.87264076 -42.47363281 79.19433594 C-42.47859772 78.49313126 -42.48356262 77.79192657 -42.48867798 77.06947327 C-42.50328309 74.74943051 -42.51009971 72.42945618 -42.515625 70.109375 C-42.52137892 68.49375406 -42.52713662 66.87813312 -42.53289795 65.26251221 C-42.543404 61.87308433 -42.54924889 58.48368015 -42.55273438 55.09423828 C-42.55821065 50.76219986 -42.58222161 46.43047708 -42.61070633 42.09853745 C-42.62938176 38.75955305 -42.63454097 35.42064384 -42.63607025 32.08161163 C-42.63908752 30.48529591 -42.64708466 28.88898122 -42.66025543 27.29271698 C-42.67741507 25.0526521 -42.67541173 22.81334711 -42.66894531 20.57324219 C-42.67259094 19.30099792 -42.67623657 18.02875366 -42.67999268 16.71795654 C-42.13544896 11.39398132 -40.76866635 7.47461759 -36.75 3.75 C-27.15942198 -2.64371868 -11.19094459 -0.03505347 0 0 Z M-14.3125 30.125 C-14.92851043 32.50392391 -14.92851043 32.50392391 -14.3125 35.125 C-12.4407597 37.67614773 -12.4407597 37.67614773 -9.9375 39.9375 C-9.12539062 40.72769531 -8.31328125 41.51789063 -7.4765625 42.33203125 C-5.52420646 44.33766477 -5.52420646 44.33766477 -3.3125 44.125 C-3.3125 44.785 -3.3125 45.445 -3.3125 46.125 C-2.6525 46.125 -1.9925 46.125 -1.3125 46.125 C-1.3125 48.105 -1.3125 50.085 -1.3125 52.125 C-1.9725 52.125 -2.6325 52.125 -3.3125 52.125 C-4.98330281 53.77660781 -4.98330281 53.77660781 -6.6875 55.875 C-8.6414587 58.19609082 -10.4873813 60.28194476 -12.75 62.3125 C-14.56086702 64.07037434 -14.56086702 64.07037434 -14.625 66.8125 C-14.55594314 69.08357126 -14.55594314 69.08357126 -13.3125 70.125 C-11.02721005 70.71268383 -11.02721005 70.71268383 -8.3125 70.125 C-6.12942728 68.17416906 -4.24198132 66.29933936 -2.3125 64.125 C2.76668969 58.40124309 2.76668969 58.40124309 6.1875 57.375 C10.62536271 58.70635881 13.24143047 62.49541911 16.2265625 65.859375 C19.30242025 69.24250321 19.30242025 69.24250321 23.5625 70.5 C24.26375 70.37625 24.965 70.2525 25.6875 70.125 C26.3475 68.475 27.0075 66.825 27.6875 65.125 C26.07155168 63.08380212 24.4018618 61.08427063 22.6875 59.125 C22.0275 59.125 21.3675 59.125 20.6875 59.125 C20.460625 58.568125 20.23375 58.01125 20 57.4375 C18.32853234 54.49253316 16.13473648 52.44343456 13.6875 50.125 C15.55573646 45.17476837 19.79288257 42.02167518 23.60742188 38.546875 C25.44396739 36.84921448 25.44396739 36.84921448 27.6875 34.125 C27.36813925 31.16167023 26.83468219 30.27218219 24.6875 28.125 C21.67444043 28.51378188 20.29064689 29.38956874 17.6875 31.125 C17.6875 31.785 17.6875 32.445 17.6875 33.125 C17.0275 33.125 16.3675 33.125 15.6875 33.125 C15.6875 33.785 15.6875 34.445 15.6875 35.125 C15.0275 35.125 14.3675 35.125 13.6875 35.125 C13.6875 35.785 13.6875 36.445 13.6875 37.125 C13.0275 37.125 12.3675 37.125 11.6875 37.125 C11.275 37.785 10.8625 38.445 10.4375 39.125 C8.6875 41.125 8.6875 41.125 5.5 41.375 C4.571875 41.2925 3.64375 41.21 2.6875 41.125 C2.6875 40.465 2.6875 39.805 2.6875 39.125 C0.85416667 36.95833333 0.85416667 36.95833333 -1.3125 35.125 C-1.9725 35.125 -2.6325 35.125 -3.3125 35.125 C-3.56 34.526875 -3.8075 33.92875 -4.0625 33.3125 C-5.49322525 30.80873081 -6.8816582 29.64427612 -9.3125 28.125 C-11.63607511 27.94009993 -11.63607511 27.94009993 -14.3125 30.125 Z " fill="#7C7C93" transform="translate(186.3125,257.875)"/>
<path d="M0 0 C0.92804443 0.0015509 1.85608887 0.00310181 2.81225586 0.00469971 C13.77386945 0.02624041 24.73274947 0.0803752 35.6875 0.5 C36.60442627 0.53077637 37.52135254 0.56155273 38.46606445 0.59326172 C44.44021707 0.87771707 44.44021707 0.87771707 46.6875 3.125 C20.2875 3.455 -6.1125 3.785 -33.3125 4.125 C-33.9725 5.445 -34.6325 6.765 -35.3125 8.125 C-36.3025 8.785 -37.2925 9.445 -38.3125 10.125 C-38.61502083 12.65683983 -38.7220912 14.94574429 -38.70068359 17.48046875 C-38.70594055 18.23832672 -38.71119751 18.99618469 -38.71661377 19.77700806 C-38.72984755 22.28904666 -38.72106409 24.80045465 -38.7109375 27.3125 C-38.71295727 29.0536308 -38.7158679 30.79476078 -38.71963501 32.53588867 C-38.72406293 36.18774457 -38.71761237 39.83938057 -38.70361328 43.49121094 C-38.68652103 48.17916872 -38.69635972 52.8666113 -38.71433067 57.55455017 C-38.72515595 61.15071516 -38.72172798 64.7467574 -38.7139473 68.34292603 C-38.7119418 70.07174744 -38.71441676 71.8005799 -38.72138596 73.52938843 C-38.72897998 75.94307092 -38.71742591 78.35591168 -38.70068359 80.76953125 C-38.70675629 81.48855621 -38.71282898 82.20758118 -38.71908569 82.94839478 C-38.72587304 85.14279277 -38.72587304 85.14279277 -38.3125 88.125 C-37.3225 88.785 -36.3325 89.445 -35.3125 90.125 C-34.62981862 91.45020503 -33.9617959 92.78312182 -33.3125 94.125 C-30.33582364 95.61333818 -27.28330848 95.30394997 -24.01708984 95.33032227 C-23.26577286 95.34022186 -22.51445587 95.35012146 -21.7403717 95.36032104 C-19.25142594 95.39196523 -16.76246107 95.41670495 -14.2734375 95.44140625 C-12.54993182 95.46197326 -10.82643121 95.48296967 -9.10293579 95.50437927 C-4.5622976 95.55962607 -0.0216137 95.60902383 4.519104 95.65722656 C9.15079832 95.70742256 13.78242609 95.76311854 18.4140625 95.81835938 C27.50515151 95.92597284 36.59629825 96.02741072 45.6875 96.125 C42.07592799 98.3827057 39.04874381 98.38388142 34.84277344 98.3996582 C33.82241753 98.4073246 33.82241753 98.4073246 32.78144836 98.41514587 C30.53650057 98.42902495 28.29186056 98.42808576 26.046875 98.42578125 C24.47991828 98.42967046 22.91296261 98.4340056 21.3460083 98.43876648 C18.06087835 98.44622605 14.77585586 98.44594033 11.49072266 98.44067383 C7.2966607 98.43489395 3.10304248 98.45177524 -1.0909462 98.4750185 C-4.32876119 98.48981109 -7.56647085 98.49061982 -10.80431366 98.48750877 C-12.3495547 98.48801969 -13.894802 98.49321405 -15.44001007 98.50332069 C-30.77139504 98.59125697 -30.77139504 98.59125697 -37.3125 95.125 C-41.60749675 89.83885016 -42.43770116 85.87264076 -42.47363281 79.19433594 C-42.47859772 78.49313126 -42.48356262 77.79192657 -42.48867798 77.06947327 C-42.50328309 74.74943051 -42.51009971 72.42945618 -42.515625 70.109375 C-42.52137892 68.49375406 -42.52713662 66.87813312 -42.53289795 65.26251221 C-42.543404 61.87308433 -42.54924889 58.48368015 -42.55273438 55.09423828 C-42.55821065 50.76219986 -42.58222161 46.43047708 -42.61070633 42.09853745 C-42.62938176 38.75955305 -42.63454097 35.42064384 -42.63607025 32.08161163 C-42.63908752 30.48529591 -42.64708466 28.88898122 -42.66025543 27.29271698 C-42.67741507 25.0526521 -42.67541173 22.81334711 -42.66894531 20.57324219 C-42.67259094 19.30099792 -42.67623657 18.02875366 -42.67999268 16.71795654 C-42.13544896 11.39398132 -40.76866635 7.47461759 -36.75 3.75 C-27.1580056 -2.64466293 -11.19215768 -0.03284838 0 0 Z " fill="#AFB0BC" transform="translate(186.3125,257.875)"/>
<path d="M0 0 C0.5625 1.9375 0.5625 1.9375 1 4 C0.67 4.33 0.34 4.66 0 5 C-0.8363575 9.71105397 -1.1262055 14.25493264 -1.12939453 19.03344727 C-1.13114685 19.69782806 -1.13289917 20.36220886 -1.13470459 21.04672241 C-1.13906834 23.21997776 -1.13620492 25.39315023 -1.1328125 27.56640625 C-1.13348703 29.08902502 -1.13445831 30.61164368 -1.13571167 32.13426208 C-1.13718115 35.31567415 -1.13505794 38.49705802 -1.13037109 41.6784668 C-1.12466939 45.74581676 -1.12796036 49.81310079 -1.13394356 53.88044834 C-1.13756527 57.02121981 -1.13640326 60.16197577 -1.13381577 63.30274773 C-1.13315121 64.8021845 -1.13395837 66.30162271 -1.13629532 67.80105782 C-1.13884889 69.89939201 -1.13494355 71.99762087 -1.12939453 74.09594727 C-1.12859894 75.28728775 -1.12780334 76.47862823 -1.12698364 77.70606995 C-1.00430772 80.88825861 -0.59839505 83.87551213 0 87 C1.65 87 3.3 87 5 87 C5.33 87.99 5.66 88.98 6 90 C31.74 90.33 57.48 90.66 84 91 C80.8846085 94.1153915 77.02569814 93.4747808 72.828125 93.6171875 C71.89494446 93.65472137 70.96176392 93.69225525 70.00030518 93.73092651 C60.23010723 94.0901414 50.45992541 94.15166923 40.68408203 94.13037109 C37.70991095 94.12492661 34.73588581 94.13040417 31.76171875 94.13671875 C29.83593717 94.13605911 27.91015568 94.13478033 25.984375 94.1328125 C25.11238464 94.13483673 24.24039429 94.13686096 23.34197998 94.13894653 C8.36999376 94.08225505 8.36999376 94.08225505 2 91 C2 90.34 2 89.68 2 89 C1.071875 88.62875 1.071875 88.62875 0.125 88.25 C-2.48501904 86.71469468 -2.9072185 85.8021894 -4 83 C-5.24469797 73.91894904 -5.1590841 64.63249837 -5.16796875 55.48046875 C-5.17129715 54.25644852 -5.17462555 53.03242828 -5.17805481 51.77131653 C-5.18307434 49.20928316 -5.18546469 46.64724336 -5.18530273 44.08520508 C-5.18750437 40.17974179 -5.20575447 36.27455471 -5.22460938 32.36914062 C-5.2275414 29.86458429 -5.22952747 27.36002663 -5.23046875 24.85546875 C-5.23765427 23.69903366 -5.24483978 22.54259857 -5.25224304 21.35112 C-5.20756522 5.44530202 -5.20756522 5.44530202 -1.42668152 1.25724792 C-0.95587662 0.84235611 -0.48507172 0.42746429 0 0 Z " fill="#BCBBC6" transform="translate(263,148)"/>
<path d="M0 0 C1.08085876 -0.00095673 2.16171753 -0.00191345 3.27532959 -0.00289917 C5.54764871 -0.00357525 7.81996982 -0.0017612 10.09228516 0.00244141 C13.52380843 0.00777664 16.95519959 0.00248758 20.38671875 -0.00390625 C31.73107716 -0.00699197 42.992816 0.11298474 54.296875 1.1328125 C54.296875 1.4628125 54.296875 1.7928125 54.296875 2.1328125 C16.181875 2.6278125 16.181875 2.6278125 -22.703125 3.1328125 C-23.363125 4.4528125 -24.023125 5.7728125 -24.703125 7.1328125 C-26.32964816 8.83867825 -27.99319066 10.5105671 -29.703125 12.1328125 C-31.57446467 14.00415217 -30.84072758 17.17451365 -30.84838867 19.66870117 C-30.85174728 20.35171295 -30.8551059 21.03472473 -30.85856628 21.73843384 C-30.86810793 24.00923455 -30.87002142 26.2799617 -30.87109375 28.55078125 C-30.87430565 30.12681611 -30.87766967 31.70285066 -30.88117981 33.27888489 C-30.88718019 36.59030854 -30.88901894 39.90170606 -30.88842773 43.21313477 C-30.88832641 47.44885438 -30.90194352 51.68440524 -30.91919994 55.92008495 C-30.93034414 59.17925275 -30.93234615 62.43838018 -30.93181801 65.69756508 C-30.93299583 67.25841157 -30.93740648 68.81925918 -30.94515038 70.3800869 C-30.954993 72.57015971 -30.95205488 74.75987204 -30.94604492 76.94995117 C-30.94746994 78.19491867 -30.94889496 79.43988617 -30.95036316 80.72257996 C-30.54627293 86.29632169 -28.7135652 90.48031401 -25.703125 95.1328125 C-29.60081039 93.65438011 -30.92849231 91.86915709 -32.703125 88.1328125 C-33.0834198 85.18067804 -33.30253224 82.42500843 -33.3828125 79.46484375 C-33.41583466 78.59793411 -33.44885681 77.73102448 -33.48287964 76.83784485 C-33.84053645 66.30259979 -33.8533558 55.75915181 -33.83349609 45.21899414 C-33.82806037 41.77941629 -33.83351787 38.33996493 -33.83984375 34.90039062 C-33.83918408 32.69010388 -33.83790523 30.47981722 -33.8359375 28.26953125 C-33.83796173 27.25283859 -33.83998596 26.23614594 -33.84207153 25.18864441 C-33.79376911 10.53966069 -33.79376911 10.53966069 -29.890625 6.3203125 C-29.38917969 5.75699219 -28.88773437 5.19367188 -28.37109375 4.61328125 C-21.17664576 -1.77242317 -8.99808605 -0.01800298 0 0 Z " fill="#D6D6DC" transform="translate(291.703125,257.8671875)"/>
<path d="M0 0 C0.33 0 0.66 0 1 0 C0.67 24.75 0.34 49.5 0 75 C0.66 75 1.32 75 2 75 C2.2475 75.53625 2.495 76.0725 2.75 76.625 C5.47661669 82.16227893 5.47661669 82.16227893 10 86 C12.44022934 86.12203618 14.85386176 86.18560857 17.29541016 86.20532227 C18.04672714 86.21522186 18.79804413 86.22512146 19.5721283 86.23532104 C22.06107406 86.26696523 24.55003893 86.29170495 27.0390625 86.31640625 C28.76256818 86.33697326 30.48606879 86.35796967 32.20956421 86.37937927 C36.7502024 86.43462607 41.2908863 86.48402383 45.831604 86.53222656 C50.46329832 86.58242256 55.09492609 86.63811854 59.7265625 86.69335938 C68.81765151 86.80097284 77.90879825 86.90241072 87 87 C83.38842799 89.2577057 80.36124381 89.25888142 76.15527344 89.2746582 C75.13491753 89.2823246 75.13491753 89.2823246 74.09394836 89.29014587 C71.84900057 89.30402495 69.60436056 89.30308576 67.359375 89.30078125 C65.79241828 89.30467046 64.22546261 89.3090056 62.6585083 89.31376648 C59.37337835 89.32122605 56.08835586 89.32094033 52.80322266 89.31567383 C48.6091607 89.30989395 44.41554248 89.32677524 40.2215538 89.3500185 C36.98373881 89.36481109 33.74602915 89.36561982 30.50818634 89.36250877 C28.9629453 89.36301969 27.417698 89.36821405 25.87248993 89.37832069 C10.54110496 89.46625697 10.54110496 89.46625697 4 86 C-0.31500921 80.68921943 -1.12521831 76.73077975 -1.12939453 70.02172852 C-1.13114685 69.31570496 -1.13289917 68.6096814 -1.13470459 67.88226318 C-1.13910666 65.54778588 -1.13619058 63.21338433 -1.1328125 60.87890625 C-1.13348609 59.25609828 -1.13445657 57.63329041 -1.13571167 56.01048279 C-1.13718648 52.60845988 -1.13504132 49.20646322 -1.13037109 45.80444336 C-1.12467848 41.44532203 -1.12795122 37.08626234 -1.13394356 32.72714329 C-1.13755889 29.37541745 -1.13640603 26.02370619 -1.13381577 22.6719799 C-1.13314895 21.0648288 -1.13396634 19.45767637 -1.13629532 17.85052681 C-1.13883725 15.60287094 -1.13495928 13.35531449 -1.12939453 11.10766602 C-1.12859894 9.82875992 -1.12780334 8.54985382 -1.12698364 7.23219299 C-1.02382969 4.60655184 -0.78633626 2.48694269 0 0 Z " fill="#B7B6C4" transform="translate(145,267)"/>
<path d="M0 0 C1.00309708 -0.0098568 1.00309708 -0.0098568 2.02645874 -0.01991272 C4.23948284 -0.03961925 6.45243899 -0.05130533 8.66552734 -0.0612793 C9.42382214 -0.06535482 10.18211693 -0.06943035 10.96339035 -0.07362938 C14.98079911 -0.09448369 18.99817384 -0.10878542 23.015625 -0.11816406 C27.14803436 -0.12919813 31.27990074 -0.16356443 35.41211891 -0.20333576 C38.60363708 -0.22959722 41.79502806 -0.23786452 44.98664474 -0.24144554 C46.50875877 -0.24629076 48.0308679 -0.25784535 49.55287552 -0.27648354 C57.86221778 -0.37187368 65.09056351 -0.28848659 72.37646484 4.17700195 C69.37646484 5.17700195 69.37646484 5.17700195 67.11911011 4.25468445 C63.75494143 2.93278338 61.10616243 2.92983281 57.49414062 2.93408203 C56.48578659 2.93123451 56.48578659 2.93123451 55.45706177 2.92832947 C53.24517982 2.92463921 51.03362989 2.93530367 48.82177734 2.9465332 C47.27627603 2.94772649 45.73077397 2.94817785 44.18527222 2.94792175 C40.94898931 2.94948379 37.71281746 2.95774998 34.4765625 2.97119141 C30.34198572 2.98815221 26.20753116 2.9920063 22.07292366 2.99124622 C18.88148852 2.99151911 15.69007974 2.99701983 12.49865341 3.00424767 C10.97492548 3.00741545 9.45119458 3.00939729 7.92746353 3.01014137 C5.79078416 3.01232676 3.6542302 3.02111855 1.51757812 3.03173828 C-0.30179764 3.03745598 -0.30179764 3.03745598 -2.15792847 3.04328918 C-5.70665848 3.18020908 -9.11927353 3.61364382 -12.62353516 4.17700195 C-8.83024156 0.0224423 -5.45325429 0.04437582 0 0 Z " fill="#DEDEE5" transform="translate(163.62353515625,142.822998046875)"/>
<path d="M0 0 C3.42145688 2.28097125 3.78885704 3.1935507 5 7 C5.80847829 11.12311043 6.13018041 15.03154864 6.14526367 19.22973633 C6.15164352 20.44152054 6.15802338 21.65330475 6.16459656 22.90180969 C6.16570938 24.19878281 6.1668222 25.49575592 6.16796875 26.83203125 C6.17118721 28.19195083 6.17455171 29.55187007 6.17805481 30.91178894 C6.18402623 33.75703737 6.18589679 36.60225552 6.18530273 39.44750977 C6.18520129 43.07185492 6.19884357 46.69600337 6.21607494 50.32030201 C6.2272601 53.1283607 6.22921994 55.93637284 6.22869301 58.74445152 C6.23042833 60.72343273 6.24122764 62.7023994 6.25224304 64.68135071 C6.23519483 71.448488 5.78414225 77.46403773 4 84 C3.67 84 3.34 84 3 84 C3.00666183 83.07149734 3.01332367 82.14299469 3.02018738 81.18635559 C3.08032336 72.43183486 3.12598711 63.67738361 3.15543652 54.92270374 C3.17108579 50.42193089 3.19231054 45.92132885 3.22631836 41.4206543 C3.25893821 37.07643138 3.27685857 32.73237267 3.28463173 28.38803673 C3.29017053 26.73144636 3.30098652 25.07486488 3.31719017 23.4183445 C3.3389997 21.09616368 3.34196551 18.7746595 3.34057617 16.45239258 C3.351362 15.76906357 3.36214783 15.08573456 3.3732605 14.38169861 C3.34496245 10.00431234 2.34599525 7.62394766 0 4 C0 2.68 0 1.36 0 0 Z " fill="#D4D3DA" transform="translate(236,148)"/>
<path d="M0 0 C1.55079495 0.0023877 3.10159283 0.00328906 4.65238953 0.0027771 C7.88766831 0.00589162 11.12249969 0.02235972 14.35766602 0.04931641 C18.50497234 0.08343716 22.65179169 0.0909402 26.79922199 0.08942604 C29.99481352 0.0899694 33.19029858 0.10092866 36.38585472 0.11542892 C37.91567366 0.12179047 39.44550463 0.12573432 40.97533607 0.12721634 C43.10787242 0.13154826 45.23988957 0.14904186 47.37231445 0.17041016 C49.19144096 0.18184555 49.19144096 0.18184555 51.0473175 0.19351196 C54.01171875 0.4609375 54.01171875 0.4609375 57.01171875 2.4609375 C56.09130295 2.46902435 55.17088715 2.47711121 54.22257996 2.48544312 C45.55558376 2.56332992 36.88874416 2.65060263 28.22194958 2.74846458 C23.76608084 2.79844612 19.31023603 2.84477594 14.85424805 2.8828125 C10.55531525 2.91964192 6.25658171 2.96599537 1.95781898 3.01900101 C0.31638389 3.03755745 -1.32509394 3.05266079 -2.96659279 3.06428146 C-5.26284894 3.08112271 -7.55864752 3.11015192 -9.85473633 3.14208984 C-11.16267654 3.15541351 -12.47061676 3.16873718 -13.81819153 3.1824646 C-17.14559603 3.2193191 -17.14559603 3.2193191 -19.98828125 5.4609375 C-22.17578125 5.0859375 -22.17578125 5.0859375 -23.98828125 4.4609375 C-16.3959091 -0.52651777 -8.76254651 -0.08920409 0 0 Z " fill="#DFE0E6" transform="translate(287.98828125,142.5390625)"/>
<path d="M0 0 C0.72264038 -0.00014603 1.44528076 -0.00029205 2.18981934 -0.0004425 C4.55968307 0.00024978 6.92946654 0.00800993 9.29931641 0.01586914 C10.94983884 0.01773575 12.60036183 0.01915851 14.25088501 0.02015686 C18.58109077 0.02396289 22.91126264 0.03377673 27.24145508 0.04486084 C31.66568544 0.05511622 36.08992132 0.0596633 40.51416016 0.06469727 C49.18474857 0.07540081 57.85530952 0.09245411 66.52587891 0.11352539 C66.52587891 0.44352539 66.52587891 0.77352539 66.52587891 1.11352539 C28.41087891 1.60852539 28.41087891 1.60852539 -10.47412109 2.11352539 C-11.13412109 3.43352539 -11.79412109 4.75352539 -12.47412109 6.11352539 C-15.09912109 8.36352539 -15.09912109 8.36352539 -17.47412109 10.11352539 C-16.87552954 4.72620145 -16.87552954 4.72620145 -15.28662109 2.30102539 C-10.90711351 -0.56830716 -5.04742962 -0.00861336 0 0 Z " fill="#9392A3" transform="translate(163.47412109375,259.886474609375)"/>
<path d="M0 0 C0.99 0.33 1.98 0.66 3 1 C3 7.6 3 14.2 3 21 C9.6 21 16.2 21 23 21 C23 21.66 23 22.32 23 23 C23.66 23 24.32 23 25 23 C25 24.98 25 26.96 25 29 C24.67 29 24.34 29 24 29 C24 27.35 24 25.7 24 24 C23.00818726 23.96241577 23.00818726 23.96241577 21.99633789 23.92407227 C19.01817695 23.80846898 16.0403608 23.68558246 13.0625 23.5625 C12.02158203 23.52318359 10.98066406 23.48386719 9.90820312 23.44335938 C8.42416992 23.38051758 8.42416992 23.38051758 6.91015625 23.31640625 C5.99371338 23.27974854 5.07727051 23.24309082 4.13305664 23.20532227 C2 23 2 23 1 22 C0.84285346 20.36743242 0.74914586 18.72864662 0.68359375 17.08984375 C0.64169922 16.10048828 0.59980469 15.11113281 0.55664062 14.09179688 C0.51732422 13.05087891 0.47800781 12.00996094 0.4375 10.9375 C0.39431641 9.89271484 0.35113281 8.84792969 0.30664062 7.77148438 C0.20018775 5.18113116 0.0981724 2.59067814 0 0 Z " fill="#A2A2B1" transform="translate(311,165)"/>
<path d="M0 0 C0.33 0 0.66 0 1 0 C1.01030746 0.89313904 1.02061493 1.78627808 1.03123474 2.70648193 C1.12920705 11.12293528 1.23172121 19.53931839 1.33933926 27.95565414 C1.3945066 32.28258496 1.44791667 36.6095226 1.49731445 40.93652344 C1.54504933 45.11220374 1.59739537 49.28780308 1.65294075 53.46338654 C1.67332298 55.05656163 1.69204282 56.64975889 1.70907402 58.24297333 C1.73320966 60.47423815 1.76325142 62.70535105 1.79467773 64.93652344 C1.81022202 66.20671326 1.8257663 67.47690308 1.84178162 68.7855835 C1.96992811 71.38904967 2.22756712 73.52885348 3 76 C3.66 76 4.32 76 5 76 C6.625 77.375 6.625 77.375 8 79 C8 79.66 8 80.32 8 81 C4.0522413 79.71964583 2.06538397 78.63311592 0 75 C-0.27444665 72.46802851 -0.38026285 70.18868529 -0.34057617 67.66113281 C-0.34101425 66.92903091 -0.34145233 66.19692902 -0.34190369 65.44264221 C-0.33981808 63.02919601 -0.31649855 60.61644944 -0.29296875 58.203125 C-0.28737197 56.52732727 -0.28310226 54.85152462 -0.28010559 53.17572021 C-0.26866325 48.76973873 -0.23920143 44.36405496 -0.20599365 39.95819092 C-0.17527955 35.4604495 -0.16159739 30.96265987 -0.14648438 26.46484375 C-0.11433107 17.64309852 -0.06314215 8.82157404 0 0 Z " fill="#9FA1B0" transform="translate(145,158)"/>
<path d="M0 0 C0 0.66 0 1.32 0 2 C-4.06777806 5.2434891 -7.81792676 5.41542643 -12.81958008 5.34057617 C-13.59084229 5.34101425 -14.36210449 5.34145233 -15.15673828 5.34190369 C-17.69459749 5.33982116 -20.23178809 5.31651597 -22.76953125 5.29296875 C-24.53358092 5.28737088 -26.29763527 5.28310168 -28.06169128 5.28010559 C-32.6961666 5.26867186 -37.33035818 5.2392174 -41.96472168 5.20599365 C-46.6971452 5.17526099 -51.42961474 5.16159343 -56.16210938 5.14648438 C-65.44153065 5.11434625 -74.7207417 5.06316773 -84 5 C-84 4.67 -84 4.34 -84 4 C-58.26 4 -32.52 4 -6 4 C-6 3.01 -6 2.02 -6 1 C-3.92446352 0.4465236 -2.15634036 0 0 0 Z " fill="#9393A6" transform="translate(237,235)"/>
<path d="M0 0 C-0.33 0.99 -0.66 1.98 -1 3 C-7.6 3 -14.2 3 -21 3 C-21 9.27 -21 15.54 -21 22 C-21.99 22.33 -22.98 22.66 -24 23 C-23.86181468 19.52048477 -23.71317399 16.04149505 -23.5625 12.5625 C-23.52318359 11.56927734 -23.48386719 10.57605469 -23.44335938 9.55273438 C-23.40146484 8.60849609 -23.35957031 7.66425781 -23.31640625 6.69140625 C-23.27974854 5.81685791 -23.24309082 4.94230957 -23.20532227 4.04125977 C-23 2 -23 2 -22 1 C-20.62200839 0.84368884 -19.2368291 0.74940042 -17.8515625 0.68359375 C-17.01109375 0.64169922 -16.170625 0.59980469 -15.3046875 0.55664062 C-13.97824219 0.49766602 -13.97824219 0.49766602 -12.625 0.4375 C-11.7484375 0.39431641 -10.871875 0.35113281 -9.96875 0.30664062 C-6.64113682 0.14636568 -3.33199011 0 0 0 Z " fill="#A5A5B4" transform="translate(335,196)"/>
<path d="M0 0 C9.95311932 -0.09271379 19.90613578 -0.163772 29.85959911 -0.20724869 C34.48150583 -0.22811627 39.10311693 -0.25641864 43.72485352 -0.30175781 C48.18579829 -0.34524535 52.64645886 -0.36914335 57.10759926 -0.37950897 C58.80886623 -0.38689514 60.51011779 -0.40131876 62.21126366 -0.42292023 C64.59585454 -0.4519937 66.97927383 -0.45595448 69.36401367 -0.45410156 C70.06604416 -0.46848267 70.76807465 -0.48286377 71.49137878 -0.49768066 C75.0647747 -0.46767153 76.9355173 -0.04122435 79.97724915 1.90338135 C82 4 82 4 82 6 C81.01 5.67 80.02 5.34 79 5 C79 4.34 79 3.68 79 3 C75.50018905 1.83339635 72.32584654 1.82463624 68.68286133 1.79467773 C67.94115189 1.78477814 67.19944244 1.77487854 66.43525696 1.76467896 C63.98421417 1.73309743 61.533152 1.70831979 59.08203125 1.68359375 C57.38237505 1.66302133 55.68272393 1.64202478 53.983078 1.62062073 C49.50985837 1.5654298 45.03659279 1.51600738 40.56329346 1.46777344 C35.99853426 1.41753668 31.43384177 1.36186196 26.86914062 1.30664062 C17.91281741 1.19909548 8.95643627 1.0976424 0 1 C0 0.67 0 0.34 0 0 Z " fill="#9C9BAB" transform="translate(271,260)"/>
<path d="M0 0 C1.21842903 2.43685807 1.04865735 3.82437345 0.9140625 6.53515625 C0.87023437 7.42654297 0.82640625 8.31792969 0.78125 9.23632812 C0.7296875 10.16896484 0.678125 11.10160156 0.625 12.0625 C0.58117187 12.99900391 0.53734375 13.93550781 0.4921875 14.90039062 C0.12875406 21.87124594 0.12875406 21.87124594 -1 23 C-2.56172745 23.08685603 -4.12729344 23.10702219 -5.69140625 23.09765625 C-6.63564453 23.09443359 -7.57988281 23.09121094 -8.55273438 23.08789062 C-10.04256836 23.07532227 -10.04256836 23.07532227 -11.5625 23.0625 C-12.55958984 23.05798828 -13.55667969 23.05347656 -14.58398438 23.04882812 C-17.05604849 23.03700007 -19.52799518 23.02051849 -22 23 C-22 22.34 -22 21.68 -22 21 C-15.4 21 -8.8 21 -2 21 C-2.07906775 14.8369817 -2.07906775 14.8369817 -2.18017578 8.67431641 C-2.1851709 7.90780762 -2.19016602 7.14129883 -2.1953125 6.3515625 C-2.20578613 5.56604004 -2.21625977 4.78051758 -2.22705078 3.97119141 C-2 2 -2 2 0 0 Z " fill="#9C9CAD" transform="translate(303,165)"/>
<path d="M0 0 C4.42344313 1.33748202 7.04141648 5.12832688 10.01953125 8.484375 C13.095389 11.86750321 13.095389 11.86750321 17.35546875 13.125 C18.40734375 12.939375 18.40734375 12.939375 19.48046875 12.75 C19.81046875 10.77 20.14046875 8.79 20.48046875 6.75 C21.14046875 6.75 21.80046875 6.75 22.48046875 6.75 C22.60546875 9.625 22.60546875 9.625 22.48046875 12.75 C20.48046875 14.75 20.48046875 14.75 17.16796875 15.125 C12.89042902 14.68999596 11.51533366 13.70056311 8.48046875 10.75 C7.96484375 10.275625 7.44921875 9.80125 6.91796875 9.3125 C4.9883187 7.2150543 3.23797913 4.99234082 1.48046875 2.75 C-2.83683538 3.22409648 -4.85600586 5.78396703 -7.76953125 8.8125 C-9.10757813 10.19115234 -9.10757813 10.19115234 -10.47265625 11.59765625 C-11.148125 12.30792969 -11.82359375 13.01820313 -12.51953125 13.75 C-13.17953125 13.42 -13.83953125 13.09 -14.51953125 12.75 C-12.63853517 10.7340042 -10.74194453 8.73828018 -8.83203125 6.75 C-8.30158203 6.17765625 -7.77113281 5.6053125 -7.22460938 5.015625 C-4.88628912 2.60557713 -3.25446387 0.96877064 0 0 Z " fill="#BDBCC9" transform="translate(192.51953125,314.25)"/>
<path d="M0 0 C0.66 0 1.32 0 2 0 C2 1.98 2 3.96 2 6 C1.34 6 0.68 6 0 6 C-0.24492187 6.57878906 -0.48984375 7.15757812 -0.7421875 7.75390625 C-2.63317579 11.13067106 -5.45864311 13.34109873 -8.3203125 15.90234375 C-10.36801012 18.45958474 -10.34445844 19.80542575 -10 23 C-8.35 23.33 -6.7 23.66 -5 24 C-5 24.33 -5 24.66 -5 25 C-6.99954746 25.04254356 -9.00041636 25.04080783 -11 25 C-12 24 -12 24 -12.375 20.75 C-11.90485771 16.04857713 -10.42109444 15.09527592 -7 12 C-6.649375 11.113125 -6.29875 10.22625 -5.9375 9.3125 C-5 7 -5 7 -2.9375 6 C-2.298125 5.67 -1.65875 5.34 -1 5 C-0.18828772 2.44480079 -0.18828772 2.44480079 0 0 Z " fill="#C8C9D4" transform="translate(183,304)"/>
<path d="M0 0 C0.33 0 0.66 0 1 0 C1.33 7.26 1.66 14.52 2 22 C3.98 22 5.96 22 8 22 C8 22.66 8 23.32 8 24 C4.625 24.1875 4.625 24.1875 1 24 C-1.1230081 20.81548785 -1.24884244 20.01526637 -1.23046875 16.3671875 C-1.22853516 15.47902344 -1.22660156 14.59085938 -1.22460938 13.67578125 C-1.21236328 12.75152344 -1.20011719 11.82726562 -1.1875 10.875 C-1.18685547 9.94300781 -1.18621094 9.01101562 -1.18554688 8.05078125 C-1.14028159 1.14028159 -1.14028159 1.14028159 0 0 Z " fill="#A2A4B2" transform="translate(302,198)"/>
<path d="M0 0 C0.33 0 0.66 0 1 0 C1.06058594 0.81984375 1.12117187 1.6396875 1.18359375 2.484375 C1.26738281 3.56203125 1.35117188 4.6396875 1.4375 5.75 C1.51871094 6.81734375 1.59992188 7.8846875 1.68359375 8.984375 C1.94090773 11.43679962 2.31812218 13.63921291 3 16 C3.66 16 4.32 16 5 16 C6.625 17.375 6.625 17.375 8 19 C8 19.66 8 20.32 8 21 C4.05448731 19.72037426 2.03894769 18.65113889 0 15 C-0.21326685 12.3270555 -0.28545631 9.9073788 -0.1875 7.25 C-0.17396484 6.55261719 -0.16042969 5.85523438 -0.14648438 5.13671875 C-0.1112945 3.42414459 -0.05749155 1.71197059 0 0 Z " fill="#B1B1BE" transform="translate(145,218)"/>
<path d="M0 0 C0.99 0.33 1.98 0.66 3 1 C3.125 3.375 3.125 3.375 3 6 C2.34 6.66 1.68 7.32 1 8 C0.01 8 -0.98 8 -2 8 C-2 8.66 -2 9.32 -2 10 C-3.32 10 -4.64 10 -6 10 C-6.33 9.01 -6.66 8.02 -7 7 C-4.69 7 -2.38 7 0 7 C0 4.69 0 2.38 0 0 Z " fill="#A7A6B4" transform="translate(311,323)"/>
<path d="M0 0 C-1.5830577 4.2742558 -4.50568404 6.26531794 -8 9 C-8.36794764 5.68847126 -8.29809215 4.39390748 -6.25 1.6875 C-4 0 -4 0 0 0 Z " fill="#A1A0AF" transform="translate(269,261)"/>
<path d="M0 0 C0 3 0 3 -1.3125 4.39453125 C-1.869375 4.86246094 -2.42625 5.33039063 -3 5.8125 C-5.59276152 8.24093156 -5.96088322 8.64794902 -6.375 12.375 C-6.189375 13.674375 -6.189375 13.674375 -6 15 C-9 14 -9 14 -9.99609375 12.265625 C-10 10 -10 10 -7.91015625 7.421875 C-6.97042969 6.54015625 -6.03070313 5.6584375 -5.0625 4.75 C-4.12535156 3.85796875 -3.18820313 2.9659375 -2.22265625 2.046875 C-1.48917969 1.37140625 -0.75570312 0.6959375 0 0 Z " fill="#CACAD4" transform="translate(209,296)"/>
<path d="M0 0 C0.66 0 1.32 0 2 0 C2 1.98 2 3.96 2 6 C1.34 6 0.68 6 0 6 C-0.268125 6.639375 -0.53625 7.27875 -0.8125 7.9375 C-2 10 -2 10 -5 11 C-5 9.68 -5 8.36 -5 7 C-4.0409375 6.6596875 -4.0409375 6.6596875 -3.0625 6.3125 C-0.72806339 5.14749104 -0.72806339 5.14749104 -0.25 2.375 C-0.1675 1.59125 -0.085 0.8075 0 0 Z " fill="#B2B2BE" transform="translate(183,304)"/>
<path d="M0 0 C0.66 0.33 1.32 0.66 2 1 C2 4 2 4 0.6875 5.38671875 C-0.875 6.59114583 -2.4375 7.79557292 -4 9 C-3.38461538 3.46153846 -3.38461538 3.46153846 -1.4375 1.125 C-0.963125 0.75375 -0.48875 0.3825 0 0 Z " fill="#A3A2B3" transform="translate(150,261)"/>
<path d="M0 0 C2.0625 0.4375 2.0625 0.4375 4 1 C2.71937515 2.7074998 1.38232443 4.37373596 0 6 C-0.66 6 -1.32 6 -2 6 C-1.125 1.125 -1.125 1.125 0 0 Z " fill="#A1A0AF" transform="translate(149,147)"/>
<path d="M0 0 C0 0.66 0 1.32 0 2 C-4.15267176 5.11450382 -4.15267176 5.11450382 -7.3125 4.6875 C-7.869375 4.460625 -8.42625 4.23375 -9 4 C-8.01 4 -7.02 4 -6 4 C-6 3.01 -6 2.02 -6 1 C-3.92446352 0.4465236 -2.15634036 0 0 0 Z " fill="#A09FB2" transform="translate(237,235)"/>
</svg>
