<?xml version="1.0" encoding="UTF-8"?>
<svg version="1.1" xmlns="http://www.w3.org/2000/svg" width="500" height="500">
<path d="M0 0 C3.47008043 3.2098244 4.38042341 5.79909816 4.75168228 10.49787617 C4.75243633 11.70701774 4.75319038 12.91615931 4.75396729 14.16194153 C4.75864726 15.17668746 4.75864726 15.17668746 4.76342177 16.21193331 C4.77137951 18.47186334 4.76508684 20.73152319 4.75878906 22.99145508 C4.76149999 24.61466122 4.7650615 26.23786614 4.76940918 27.86106873 C4.77852549 32.26615868 4.77499146 36.67115492 4.76865101 41.0762465 C4.76358452 45.6902938 4.76828451 50.30433312 4.77142334 54.91838074 C4.77506218 62.66996702 4.77026717 70.4215152 4.76074219 78.1730957 C4.74986931 87.12477073 4.75337506 96.07635456 4.764395 105.02802736 C4.77348395 112.71991721 4.77474494 120.41177967 4.76951766 128.10367316 C4.76640532 132.69478485 4.76596814 137.28585375 4.77259064 141.87696266 C4.77838644 146.19684023 4.7743264 150.51660084 4.76280212 154.83646584 C4.76016697 156.41825161 4.76090098 158.0000473 4.76532745 159.58182907 C4.79953311 173.05159141 3.06637445 183.20149723 -4.6875 194.5 C-14.56806964 204.38056964 -25.582325 209.16142619 -39.5 209.3125 C-51.773805 209.15335828 -61.08206277 203.54804469 -69.69921875 195.17578125 C-78.78033736 185.55751699 -80.95516758 176.09675237 -80.703125 163.09765625 C-80.04858767 150.90060493 -73.81259127 142.177503 -65.125 133.875 C-60.64214286 130.10199288 -56.06499664 128.03176726 -50.5 126.3125 C-49.82066406 126.08820313 -49.14132812 125.86390625 -48.44140625 125.6328125 C-37.89455355 122.53454189 -27.26959249 124.42770376 -17.5 129.3125 C-17.5 107.8625 -17.5 86.4125 -17.5 64.3125 C-32.80425793 66.48232435 -32.80425793 66.48232435 -48.08496094 68.78076172 C-55.04241164 69.86407081 -62.00423395 70.91879906 -68.96630859 71.97192383 C-70.74253556 72.24121223 -72.51857727 72.51172533 -74.29443359 72.78344727 C-82.93166966 74.1043709 -91.52490459 75.41789383 -100.24023438 76.10375977 C-103.76654247 76.42949371 -107.21333385 77.07864087 -110.6875 77.75 C-120.49615756 79.55995731 -130.50464665 81.40315355 -140.5 81.3125 C-140.46970703 82.15353271 -140.43941406 82.99456543 -140.40820312 83.86108398 C-139.62689807 106.61659361 -139.36444843 129.37001449 -139.31832886 152.13737869 C-139.31253804 154.29830495 -139.30284026 156.45918034 -139.29199219 158.62008667 C-139.27193739 162.74676484 -139.26983084 166.87327248 -139.26953125 171 C-139.26238602 172.22078751 -139.25524078 173.44157501 -139.24787903 174.69935608 C-139.28875086 190.52366938 -140.71858429 204.85986295 -151.5 217.3125 C-162.17478729 227.1300386 -172.4652215 229.65315916 -186.73828125 229.52734375 C-195.13496517 229.04778236 -201.76646337 226.2466782 -208.5 221.3125 C-209.10714844 220.87035156 -209.71429688 220.42820312 -210.33984375 219.97265625 C-217.88711403 214.01080817 -223.23337086 205.41534949 -225.1875 196 C-226.28857466 183.00731904 -224.94257067 171.73649031 -216.5 161.3125 C-214.125 158.625 -214.125 158.625 -211.5 156.3125 C-210.96117187 155.83167969 -210.42234375 155.35085938 -209.8671875 154.85546875 C-200.25006043 146.90826123 -188.9810713 143.91132029 -176.68356323 144.90184021 C-173.90361323 145.42466166 -171.39022324 146.35577902 -168.74267578 147.34790039 C-167.75888947 147.71403946 -166.77510315 148.08017853 -165.76150513 148.45741272 C-165.01520844 148.73959152 -164.26891174 149.02177032 -163.5 149.3125 C-163.50276538 148.69442915 -163.50553076 148.0763583 -163.50837994 147.43955803 C-163.57467226 132.39107661 -163.62429634 117.34264009 -163.65543652 102.29405022 C-163.67089647 95.01661811 -163.69196923 87.73928355 -163.72631836 80.46191406 C-163.75624753 74.11794822 -163.77558134 67.77405303 -163.78226548 61.43001854 C-163.78617182 58.0717857 -163.79533381 54.71375498 -163.81719017 51.35558701 C-163.83894259 47.60396043 -163.84196775 43.85275364 -163.84057617 40.10107422 C-163.851362 38.99120651 -163.86214783 37.88133881 -163.8732605 36.73783875 C-163.85100896 31.19997824 -163.73336891 27.0448567 -160.5 22.3125 C-157.00427825 19.5818352 -153.98132154 18.83395495 -149.625 18.3125 C-148.3978125 18.15652344 -147.170625 18.00054687 -145.90625 17.83984375 C-144.86984375 17.71585205 -144.86984375 17.71585205 -143.8125 17.58935547 C-139.24687896 17.04275346 -134.685945 16.45915309 -130.125 15.875 C-128.63673706 15.68574951 -128.63673706 15.68574951 -127.1184082 15.49267578 C-121.30683295 14.73599256 -115.5596259 13.83311353 -109.8125 12.6875 C-104.44229218 11.62333216 -99.23371734 10.98924051 -93.77734375 10.63647461 C-90.17145292 10.2800222 -86.69917731 9.63612243 -83.14453125 8.93359375 C-74.85727947 7.33354978 -66.54155925 6.06824761 -58.1875 4.875 C-55.96150833 4.55425754 -53.73563967 4.23267273 -51.50979614 3.91090393 C-50.01544674 3.69489118 -48.52104185 3.47926186 -47.02658081 3.26402283 C-42.22801627 2.57070858 -37.43541508 1.84614544 -32.64453125 1.1015625 C-31.43385986 0.9152124 -30.22318848 0.7288623 -28.97583008 0.53686523 C-26.73388353 0.19058158 -24.49275652 -0.16107111 -22.25268555 -0.51928711 C-6.17822712 -2.97878808 -6.17822712 -2.97878808 0 0 Z " fill="#73738A" transform="translate(360.5,135.6875)"/>
<path d="M0 0 C2.83759248 1.41879624 4.64880951 2.33162747 6.14818954 5.18519115 C7.16014256 8.52919132 7.25178736 11.35386813 7.25396729 14.84944153 C7.25708727 15.52593882 7.26020725 16.20243611 7.26342177 16.89943331 C7.27137951 19.15936334 7.26508684 21.41902319 7.25878906 23.67895508 C7.26149999 25.30216122 7.2650615 26.92536614 7.26940918 28.54856873 C7.27852549 32.95365868 7.27499146 37.35865492 7.26865101 41.7637465 C7.26358452 46.3777938 7.26828451 50.99183312 7.27142334 55.60588074 C7.27506218 63.35746702 7.27026717 71.1090152 7.26074219 78.8605957 C7.24986931 87.81227073 7.25337506 96.76385456 7.264395 105.71552736 C7.27348395 113.40741721 7.27474494 121.09927967 7.26951766 128.79117316 C7.26640532 133.38228485 7.26596814 137.97335375 7.27259064 142.56446266 C7.27838644 146.88434023 7.2743264 151.20410084 7.26280212 155.52396584 C7.26016697 157.10575161 7.26090098 158.6875473 7.26532745 160.26932907 C7.29953311 173.73909141 5.56637445 183.88899723 -2.1875 195.1875 C-12.02900069 205.02900069 -23.10869798 209.92561552 -37 210 C-40.04914352 209.81023718 -42.97444443 209.45383334 -46 209 C-46 208.67 -46 208.34 -46 208 C-44.70964844 207.96261719 -43.41929687 207.92523438 -42.08984375 207.88671875 C-40.37236851 207.82102298 -38.65492185 207.7545769 -36.9375 207.6875 C-36.08994141 207.66494141 -35.24238281 207.64238281 -34.36914062 207.61914062 C-28.82653717 207.38374048 -25.00941454 206.33272362 -20 204 C-18.68 204 -17.36 204 -16 204 C-16 203.34 -16 202.68 -16 202 C-9.375 198.125 -9.375 198.125 -6 197 C-6 195.68 -6 194.36 -6 193 C-4.3777546 191.29006566 -2.70586575 189.62652316 -1 188 C3.46833178 182.09541872 3.12324547 174.78093156 3.14044189 167.64898682 C3.14341302 166.95485333 3.14638414 166.26071985 3.1494453 165.54555202 C3.15804386 163.24422259 3.15963289 160.94294571 3.16113281 158.64160156 C3.16576687 156.98190705 3.17079231 155.3222136 3.17617798 153.66252136 C3.18923799 149.17320066 3.1957331 144.68389486 3.20018864 140.19455814 C3.20312667 137.38902907 3.2072326 134.58350402 3.21169281 131.77797699 C3.22534409 122.99688527 3.23502518 114.2158028 3.2388947 105.4347012 C3.24338503 95.30191204 3.26098788 85.16925713 3.2898953 75.0365088 C3.31148509 67.19685662 3.32159735 59.35724232 3.32293582 51.51756072 C3.32398478 46.83715754 3.32991326 42.15688097 3.34775543 37.47650909 C3.36419181 33.08024768 3.36641335 28.68420875 3.35761642 24.28792763 C3.35684396 22.67381254 3.36121627 21.05968568 3.37107468 19.44560051 C3.38373221 17.24449257 3.37795222 15.0441804 3.36749268 12.84307861 C3.36895924 11.61089222 3.3704258 10.37870583 3.3719368 9.10918045 C2.96873698 5.7386589 2.18269358 4.50820775 0 2 C0 1.34 0 0.68 0 0 Z " fill="#A3A2B1" transform="translate(358,135)"/>
<path d="M0 0 C-1.65 0.33 -3.3 0.66 -5 1 C-5 1.66 -5 2.32 -5 3 C-5.99 3.33 -6.98 3.66 -8 4 C-8.9922039 6.97661169 -9.13621809 8.95995618 -9.15821838 12.06828308 C-9.17290161 13.63950172 -9.17290161 13.63950172 -9.18788147 15.24246216 C-9.19363693 16.39116791 -9.1993924 17.53987366 -9.20532227 18.72338867 C-9.21522186 19.9332695 -9.22512146 21.14315033 -9.23532104 22.38969421 C-9.26151452 25.70758731 -9.2833742 29.02545627 -9.30332303 32.34338927 C-9.32518984 35.81076506 -9.35257513 39.27809712 -9.37937927 42.74543762 C-9.42929676 49.31143412 -9.47423909 55.87745491 -9.51740164 62.44349891 C-9.56678208 69.91866669 -9.62169722 77.39379058 -9.67708123 84.86891592 C-9.79088678 100.24590339 -9.89772892 115.62293122 -10 131 C-13.20674861 130.49967214 -16.18017794 129.94386846 -19.28515625 128.9765625 C-23.71246142 127.8127073 -27.88143262 127.55122178 -32.4375 127.375 C-33.67790039 127.31699219 -33.67790039 127.31699219 -34.94335938 127.2578125 C-36.96191073 127.16446908 -38.98092331 127.08119039 -41 127 C-41 127.66 -41 128.32 -41 129 C-45.70406799 130.86540627 -49.94744036 132.36843005 -55 133 C-50.22778996 127.44599446 -42.06782254 125.14268876 -34.97265625 124.5390625 C-28.44539256 124.28834028 -23.37358966 124.73794934 -17.24267578 127.03540039 C-16.25888947 127.40153946 -15.27510315 127.76767853 -14.26150513 128.14491272 C-13.51520844 128.42709152 -12.76891174 128.70927032 -12 129 C-12.00276538 128.38192915 -12.00553076 127.7638583 -12.00837994 127.12705803 C-12.07467226 112.07857661 -12.12429634 97.03014009 -12.15543652 81.98155022 C-12.17089647 74.70411811 -12.19196923 67.42678355 -12.22631836 60.14941406 C-12.25624753 53.80544822 -12.27558134 47.46155303 -12.28226548 41.11751854 C-12.28617182 37.7592857 -12.29533381 34.40125498 -12.31719017 31.04308701 C-12.33894259 27.29146043 -12.34196775 23.54025364 -12.34057617 19.78857422 C-12.351362 18.67870651 -12.36214783 17.56883881 -12.3732605 16.42533875 C-12.35101101 10.88798695 -12.2356222 6.7298874 -9 2 C-5.77368434 -0.56450732 -3.92142352 -1.59761699 0 0 Z " fill="#C2C3CC" transform="translate(209,156)"/>
<path d="M0 0 C1.98 0 3.96 0 6 0 C6 0.33 6 0.66 6 1 C4.35 1 2.7 1 1 1 C1.03029297 1.84103271 1.06058594 2.68206543 1.09179688 3.54858398 C1.87310193 26.30409361 2.13555157 49.05751449 2.18167114 71.82487869 C2.18746196 73.98580495 2.19715974 76.14668034 2.20800781 78.30758667 C2.22806261 82.43426484 2.23016916 86.56077248 2.23046875 90.6875 C2.23761398 91.90828751 2.24475922 93.12907501 2.25212097 94.38685608 C2.21130636 110.18901643 0.80216991 124.57960619 -10 137 C-11.95851344 138.39355764 -13.95127113 139.74282547 -16 141 C-14.79618552 138.50638429 -13.54571278 136.31856917 -12 134 C-11.34 134 -10.68 134 -10 134 C-9.566875 133.071875 -9.566875 133.071875 -9.125 132.125 C-8 130 -8 130 -6 128 C-5.3574765 125.93125966 -5.3574765 125.93125966 -5 124 C-4.34 124 -3.68 124 -3 124 C-1.47194419 116.05788928 -0.69853775 108.43786513 -0.68115234 100.35644531 C-0.67110672 99.26229309 -0.6610611 98.16814087 -0.65071106 97.04083252 C-0.62013337 93.46993475 -0.60291519 89.89911104 -0.5859375 86.328125 C-0.56720538 83.8342018 -0.54763047 81.3402848 -0.5272522 78.84637451 C-0.47614103 72.31664706 -0.43640328 65.78689911 -0.39910889 59.25708008 C-0.35997592 52.58018578 -0.30790499 45.90338161 -0.2578125 39.2265625 C-0.16130229 26.1511017 -0.07644905 13.0755927 0 0 Z " fill="#D9D9E0" transform="translate(219,216)"/>
<path d="M0 0 C1.31097656 0.01353516 1.31097656 0.01353516 2.6484375 0.02734375 C3.30070312 0.03894531 3.95296875 0.05054688 4.625 0.0625 C4.625 0.3925 4.625 0.7225 4.625 1.0625 C3.98699463 1.13766846 3.34898926 1.21283691 2.69165039 1.2902832 C-13.07875676 3.14973973 -13.07875676 3.14973973 -28.75 5.6875 C-38.83638351 7.54396215 -47.9928598 8.0625 -58.375 8.0625 C-58.375 45.0225 -58.375 81.9825 -58.375 120.0625 C-58.705 120.0625 -59.035 120.0625 -59.375 120.0625 C-59.375 82.7725 -59.375 45.4825 -59.375 7.0625 C-50.465 6.0725 -50.465 6.0725 -41.375 5.0625 C-40.055 4.4025 -38.735 3.7425 -37.375 3.0625 C-34.62939453 2.66772461 -34.62939453 2.66772461 -31.5078125 2.46484375 C-29.80818359 2.34592773 -29.80818359 2.34592773 -28.07421875 2.22460938 C-26.89472656 2.15048828 -25.71523437 2.07636719 -24.5 2 C-22.16910879 1.84486368 -19.83837187 1.68738784 -17.5078125 1.52734375 C-16.47543457 1.461521 -15.44305664 1.39569824 -14.37939453 1.32788086 C-9.51464205 0.89817292 -4.90439567 -0.06627562 0 0 Z " fill="#9F9EAD" transform="translate(277.375,207.9375)"/>
<path d="M0 0 C2.4375 1.125 2.4375 1.125 5 3 C6.00412974 7.1717201 6.12378897 11.21535054 6.12025452 15.49203491 C6.12162918 16.77923431 6.12300385 18.06643372 6.12442017 19.39263916 C6.1208817 20.80651879 6.1172469 22.22039818 6.11352539 23.63427734 C6.11324312 25.13268024 6.11340203 26.63108327 6.1139679 28.12948608 C6.11425432 32.1868648 6.10838253 36.24421384 6.10139394 40.30158567 C6.09513472 44.54567024 6.09455457 48.78975552 6.09336853 53.03384399 C6.09026279 61.06599211 6.0820596 69.09812658 6.07201904 77.13026869 C6.0608344 86.27654391 6.05534153 95.42281979 6.05032361 104.56910014 C6.03987636 123.37940782 6.02229157 142.18970281 6 161 C5.67 161 5.34 161 5 161 C4.99576806 160.26800227 4.99153612 159.53600454 4.98717594 158.78182507 C4.8836808 140.9358913 4.77501566 123.08999579 4.66066074 105.24412823 C4.60548213 96.61385586 4.55202619 87.98357936 4.50268555 79.35327148 C4.45965466 71.82739636 4.41333054 64.30154977 4.36312145 56.77571899 C4.33667188 52.79423657 4.31182419 48.81275926 4.29092598 44.83124352 C4.2711639 41.07612573 4.2469656 37.32106151 4.21950912 33.56599236 C4.20585523 31.54636339 4.19677544 29.52670509 4.18788147 27.50704956 C4.85314228 13.9481806 4.85314228 13.9481806 0 2 C0 1.34 0 0.68 0 0 Z " fill="#A8A7B7" transform="translate(358,135)"/>
<path d="M0 0 C0 22.44 0 44.88 0 68 C-9 67 -9 67 -10 66 C-12.52645767 65.75895987 -15.03005991 65.57604605 -17.5625 65.4375 C-18.59987305 65.37272461 -18.59987305 65.37272461 -19.65820312 65.30664062 C-24.44589506 65.02553662 -29.20437601 64.96223918 -34 65 C-28.57003564 61.38002376 -22.36854971 61.34944922 -16 62 C-10.90174165 63.26308202 -5.71350034 64.64324983 -1 67 C-1 45.55 -1 24.1 -1 2 C-4.96 2.66 -8.92 3.32 -13 4 C-15.99915002 4.07140833 -19.00166528 4.09994449 -22 4 C-22 3.67 -22 3.34 -22 3 C-20.02 3 -18.04 3 -16 3 C-16 2.34 -16 1.68 -16 1 C-14.45876053 0.82942804 -12.91697919 0.66375 -11.375 0.5 C-10.51648438 0.4071875 -9.65796875 0.314375 -8.7734375 0.21875 C-5.85710662 -0.01127046 -2.92538805 0 0 0 Z " fill="#A8A8B5" transform="translate(344,198)"/>
<path d="M0 0 C0 0.33 0 0.66 0 1 C-4.65520596 2.78545943 -8.780741 3.33171426 -13.75 3.5625 C-18.54274469 3.61172606 -18.54274469 3.61172606 -23 5 C-25.17020776 5.32829782 -27.34768547 5.60898026 -29.52734375 5.8671875 C-30.88192054 6.03073504 -32.23649397 6.19431036 -33.59106445 6.35791016 C-34.65630844 6.48446991 -34.65630844 6.48446991 -35.74307251 6.61358643 C-50.43726156 8.36404776 -65.11034719 10.20056625 -79.625 13.125 C-86.98911811 14.5254662 -94.5267999 14.66707901 -102 15 C-98.736367 12.82424467 -97.61102061 12.73539818 -93.8125 12.5625 C-88.97338313 12.24786843 -84.34890379 11.56127909 -79.59375 10.6171875 C-71.32374916 9.01538253 -63.02510081 7.75339678 -54.6875 6.5625 C-52.46150833 6.24175754 -50.23563967 5.92017273 -48.00979614 5.59840393 C-46.51544674 5.38239118 -45.02104185 5.16676186 -43.52658081 4.95152283 C-38.72801627 4.25820858 -33.93541508 3.53364544 -29.14453125 2.7890625 C-27.93385986 2.6027124 -26.72318848 2.4163623 -25.47583008 2.22436523 C-23.23388353 1.87808158 -20.99275652 1.52642889 -18.75268555 1.16821289 C-12.44657559 0.20333537 -6.37835175 -0.21431685 0 0 Z " fill="#D2D2DD" transform="translate(357,134)"/>
<path d="M0 0 C0.625 1.8125 0.625 1.8125 1 4 C0.01 5.485 0.01 5.485 -1 7 C-1.66 7 -2.32 7 -3 7 C-4.78460121 20.25703755 -6.02671033 33.06448921 1 45 C2.55893197 46.77013022 2.55893197 46.77013022 4 48 C3.67 48.99 3.34 49.98 3 51 C-5.52472087 41.76488573 -7.41682044 32.13457235 -7.21875 19.8046875 C-6.77805427 12.1397297 -4.6396107 6.07948988 0 0 Z " fill="#C9C9D3" transform="translate(287,279)"/>
<path d="M0 0 C1 3 1 3 -0.0390625 5.0859375 C-7.17012498 15.37855478 -15.67347014 23.58485753 -28 27 C-35.15000405 28.19634055 -41.85366098 28.07195085 -49 27 C-49 26.67 -49 26.34 -49 26 C-47.70964844 25.96261719 -46.41929687 25.92523438 -45.08984375 25.88671875 C-43.37236851 25.82102298 -41.65492185 25.7545769 -39.9375 25.6875 C-39.08994141 25.66494141 -38.24238281 25.64238281 -37.36914062 25.61914062 C-31.82653717 25.38374048 -28.00941454 24.33272362 -23 22 C-21.68 22 -20.36 22 -19 22 C-19 21.34 -19 20.68 -19 20 C-12.375 16.125 -12.375 16.125 -9 15 C-9 13.68 -9 12.36 -9 11 C-7.37897032 9.28891311 -5.70496537 7.62746694 -4 6 C-2.55883785 4.05235914 -1.28993543 2.05434161 0 0 Z " fill="#B3B4C0" transform="translate(361,317)"/>
<path d="M0 0 C0.33 0.66 0.66 1.32 1 2 C0.67 2.99 0.34 3.98 0 5 C-0.66 5 -1.32 5 -2 5 C-2 5.99 -2 6.98 -2 8 C-2.66 8 -3.32 8 -4 8 C-4.185625 9.6396875 -4.185625 9.6396875 -4.375 11.3125 C-5 15 -5 15 -7 18 C-7.42918667 21.27707868 -7.32424322 24.57280549 -7.3125 27.875 C-7.32861328 28.77347656 -7.34472656 29.67195313 -7.36132812 30.59765625 C-7.36506904 35.66286034 -7.07737718 38.78673229 -4 43 C-3.8125 45.8125 -3.8125 45.8125 -4 48 C-10.09652827 40.51789712 -10.71865351 31.3424956 -10 22 C-8.71441188 13.65457203 -6.09596729 6.09596729 0 0 Z " fill="#C3C3CE" transform="translate(145,296)"/>
<path d="M0 0 C0.33 -1.32 0.66 -2.64 1 -4 C1 -2.35 1 -0.7 1 1 C-2.02311994 1.18321939 -4.17950208 0.94379228 -7.09375 0.03125 C-11.50505982 -1.27550415 -15.86194176 -1.44802434 -20.4375 -1.625 C-21.67790039 -1.68300781 -21.67790039 -1.68300781 -22.94335938 -1.7421875 C-24.96191073 -1.83553092 -26.98092331 -1.91880961 -29 -2 C-29 -1.34 -29 -0.68 -29 0 C-33.70406799 1.86540627 -37.94744036 3.36843005 -43 4 C-32.86823918 -7.79157146 -12.51629696 -5.93993754 0 0 Z " fill="#CCCBD7" transform="translate(197,285)"/>
<path d="M0 0 C-3.43123252 2.28748834 -5.54599789 2.53680958 -9.609375 3.0703125 C-10.25440979 3.15626678 -10.89944458 3.24222107 -11.56402588 3.33078003 C-12.9285874 3.51089128 -14.2936604 3.68716336 -15.65917969 3.85986328 C-17.72986302 4.12244643 -19.79848354 4.39807969 -21.8671875 4.67578125 C-27.94747551 5.47069011 -33.85357809 6.10122825 -40 6 C-40 5.34 -40 4.68 -40 4 C-39.42967041 3.94465088 -38.85934082 3.88930176 -38.27172852 3.83227539 C-35.70151247 3.58026257 -33.13202369 3.32147272 -30.5625 3.0625 C-29.21575195 2.93198242 -29.21575195 2.93198242 -27.84179688 2.79882812 C-26.56079102 2.66831055 -26.56079102 2.66831055 -25.25390625 2.53515625 C-24.06776733 2.41732788 -24.06776733 2.41732788 -22.85766602 2.29711914 C-20.98896652 2.18448501 -20.98896652 2.18448501 -20 1 C-17.57767987 0.76072204 -15.17834005 0.57698093 -12.75 0.4375 C-12.08097656 0.39431641 -11.41195313 0.35113281 -10.72265625 0.30664062 C-7.14348779 0.08514002 -3.58580068 -0.04864458 0 0 Z " fill="#C1C0CB" transform="translate(322,202)"/>
<path d="M0 0 C0.66 0.66 1.32 1.32 2 2 C-5.875 1.125 -5.875 1.125 -7 0 C-9.52645767 -0.24104013 -12.03005991 -0.42395395 -14.5625 -0.5625 C-15.25408203 -0.60568359 -15.94566406 -0.64886719 -16.65820312 -0.69335938 C-21.44589506 -0.97446338 -26.20437601 -1.03776082 -31 -1 C-21.73929174 -7.17380551 -9.58839101 -3.81863246 0 0 Z " fill="#BDBDC7" transform="translate(341,264)"/>
<path d="M0 0 C-0.6290625 0.36351562 -1.258125 0.72703125 -1.90625 1.1015625 C-12.07849978 6.76513594 -12.07849978 6.76513594 -20 15 C-20.66 14.67 -21.32 14.34 -22 14 C-17.08257648 7.77020943 -8.72042777 -2.61612833 0 0 Z " fill="#B8BBC6" transform="translate(310,264)"/>
<path d="M0 0 C0.625 1.8125 0.625 1.8125 1 4 C0.01 5.485 0.01 5.485 -1 7 C-1.66 7 -2.32 7 -3 7 C-3.66 14.59 -4.32 22.18 -5 30 C-5.33 30 -5.66 30 -6 30 C-6.45061534 18.39665488 -6.60680162 9.91020243 0 0 Z " fill="#B9B9C7" transform="translate(287,279)"/>
<path d="M0 0 C0 0.33 0 0.66 0 1 C-4.57688276 2.7445834 -8.61733319 3.32928319 -13.5 3.5625 C-18.08116245 3.79062699 -22.48880205 4.15763125 -27 5 C-26.01 4.67 -25.02 4.34 -24 4 C-24 3.34 -24 2.68 -24 2 C-15.95072024 0.70098079 -8.16240568 -0.33853295 0 0 Z " fill="#CDCDD6" transform="translate(357,134)"/>
<path d="M0 0 C3.91121498 0.68936071 7.55508596 1.78250181 11.3125 3.0625 C12.38113281 3.42472656 13.44976562 3.78695313 14.55078125 4.16015625 C15.76314453 4.57587891 15.76314453 4.57587891 17 5 C17 5.99 17 6.98 17 8 C10.77274933 6.34608232 5.46037442 4.44240996 0 1 C0 0.67 0 0.34 0 0 Z " fill="#A8A8B5" transform="translate(153,357)"/>
<path d="M0 0 C-3.03536367 2.63904594 -4.9803181 3.38964384 -8.984375 3.51171875 C-9.91894531 3.54716797 -10.85351562 3.58261719 -11.81640625 3.61914062 C-12.78449219 3.64169922 -13.75257813 3.66425781 -14.75 3.6875 C-15.73355469 3.72166016 -16.71710938 3.75582031 -17.73046875 3.79101562 C-20.15353199 3.87335273 -22.57623998 3.94254838 -25 4 C-17.515551 0.04036816 -8.35016075 -0.32745728 0 0 Z " fill="#BAB9C7" transform="translate(254,149)"/>
<path d="M0 0 C1.32 0.33 2.64 0.66 4 1 C-2.06596891 5.23207133 -6.64395865 7.13458337 -14 8 C-14.33 7.01 -14.66 6.02 -15 5 C-9.06 4.505 -9.06 4.505 -3 4 C-3 3.34 -3 2.68 -3 2 C-2.01 2 -1.02 2 0 2 C0 1.34 0 0.68 0 0 Z " fill="#A3A2B0" transform="translate(198,357)"/>
<path d="M0 0 C0.33 0.66 0.66 1.32 1 2 C0.67 2.99 0.34 3.98 0 5 C-0.66 5 -1.32 5 -2 5 C-2 5.99 -2 6.98 -2 8 C-2.66 8 -3.32 8 -4 8 C-4.103125 9.093125 -4.20625 10.18625 -4.3125 11.3125 C-4.97307727 14.85559629 -5.2027092 15.93243723 -8 18 C-7.73661122 10.75680845 -5.19413189 5.19413189 0 0 Z " fill="#BDBDC6" transform="translate(145,296)"/>
<path d="M0 0 C2.00720923 0.28674418 4.0085944 0.61866701 6 1 C6 1.66 6 2.32 6 3 C1.71 3 -2.58 3 -7 3 C-7 2.34 -7 1.68 -7 1 C-5.5459375 1.0309375 -5.5459375 1.0309375 -4.0625 1.0625 C-1.12534105 1.35618499 -1.12534105 1.35618499 0 0 Z " fill="#828191" transform="translate(178,362)"/>
<path d="M0 0 C0.33 0.99 0.66 1.98 1 3 C-0.14453125 5.2265625 -0.14453125 5.2265625 -1.8125 7.625 C-2.35519531 8.42164063 -2.89789063 9.21828125 -3.45703125 10.0390625 C-5 12 -5 12 -7 13 C-6.36610765 9.50155614 -4.94822306 7.15913124 -2.9375 4.25 C-2.38964844 3.45078125 -1.84179688 2.6515625 -1.27734375 1.828125 C-0.85582031 1.22484375 -0.43429687 0.6215625 0 0 Z " fill="#C9C9D3" transform="translate(361,317)"/>
<path d="M0 0 C-3.01447835 2.57075841 -5.35979771 3.52207066 -9.25 4.1875 C-10.58804688 4.42533203 -10.58804688 4.42533203 -11.953125 4.66796875 C-12.96632812 4.83232422 -12.96632812 4.83232422 -14 5 C-9.80118093 0.58337475 -6.05933706 -0.28182963 0 0 Z " fill="#A1A1B2" transform="translate(168,284)"/>
<path d="M0 0 C0.99 1.485 0.99 1.485 2 3 C2.53625 3.78375 3.0725 4.5675 3.625 5.375 C5.11119981 8.21229054 5.26995835 9.85048586 5 13 C1.55834073 8.77614544 0 5.49939416 0 0 Z " fill="#CFCFD8" transform="translate(136,331)"/>
<path d="M0 0 C1.32 0.33 2.64 0.66 4 1 C-2.28571429 5.42857143 -2.28571429 5.42857143 -6 6 C-6 5.34 -6 4.68 -6 4 C-5.01 4 -4.02 4 -3 4 C-3 3.34 -3 2.68 -3 2 C-2.01 2 -1.02 2 0 2 C0 1.34 0 0.68 0 0 Z " fill="#BDBDC7" transform="translate(198,357)"/>
<path d="M0 0 C0.33 0.99 0.66 1.98 1 3 C-3.75 7.875 -3.75 7.875 -6 9 C-4.79618552 6.50638429 -3.54571278 4.31856917 -2 2 C-1.34 2 -0.68 2 0 2 C0 1.34 0 0.68 0 0 Z " fill="#B8B8C3" transform="translate(209,348)"/>
</svg>
