<?xml version="1.0" encoding="UTF-8"?>
<svg version="1.1" xmlns="http://www.w3.org/2000/svg" width="500" height="500">
<path d="M0 0 C0.81612762 0.00202423 1.63225525 0.00404846 2.47311401 0.00613403 C3.75598549 0.00350555 3.75598549 0.00350555 5.06477356 0.00082397 C7.90671792 -0.00359609 10.7486006 -0.00065575 13.59054565 0.00271606 C15.55730705 0.00204301 17.52406836 0.00107297 19.49082947 -0.00018311 C23.61937245 -0.00166034 27.74789385 0.00049506 31.87643433 0.00515747 C37.17744894 0.01085104 42.47841288 0.00757827 47.77942562 0.00158501 C51.84307743 -0.0020231 55.90671717 -0.0008808 59.97036934 0.0017128 C61.92526823 0.00238157 63.88016821 0.00155538 65.83506584 -0.00076675 C68.5647053 -0.00329695 71.29426199 0.00055272 74.02389526 0.00613403 C74.83799866 0.0041098 75.65210205 0.00208557 76.49087524 0 C82.08467538 0.0212653 82.08467538 0.0212653 84.3132019 1.13552856 C84.3132019 33.47552856 84.3132019 65.81552856 84.3132019 99.13552856 C54.2832019 99.13552856 24.2532019 99.13552856 -6.6867981 99.13552856 C-6.72690691 74.71817675 -6.72690691 74.71817675 -6.73562622 64.34841919 C-6.74161517 57.2593003 -6.74871685 50.17019426 -6.76223755 43.08108521 C-6.77306471 37.36880286 -6.77907456 31.65653429 -6.78167534 25.94424248 C-6.7835299 23.7596458 -6.78715109 21.57504991 -6.79252815 19.39045906 C-6.79973631 16.34200507 -6.80078913 13.29360878 -6.80032349 10.24514771 C-6.80391876 9.33237061 -6.80751404 8.41959351 -6.81121826 7.47915649 C-6.79881374 0.0259449 -6.79881374 0.0259449 0 0 Z M15.3132019 19.13552856 C15.3132019 40.25552856 15.3132019 61.37552856 15.3132019 83.13552856 C16.3032019 82.64052856 16.3032019 82.64052856 17.3132019 82.13552856 C17.3132019 61.34552856 17.3132019 40.55552856 17.3132019 19.13552856 C16.6532019 19.13552856 15.9932019 19.13552856 15.3132019 19.13552856 Z M37.3132019 19.13552856 C37.3132019 39.92552856 37.3132019 60.71552856 37.3132019 82.13552856 C37.9732019 82.46552856 38.6332019 82.79552856 39.3132019 83.13552856 C39.3132019 62.01552856 39.3132019 40.89552856 39.3132019 19.13552856 C38.6532019 19.13552856 37.9932019 19.13552856 37.3132019 19.13552856 Z M59.3132019 19.13552856 C59.3132019 39.92552856 59.3132019 60.71552856 59.3132019 82.13552856 C60.3032019 82.13552856 61.2932019 82.13552856 62.3132019 82.13552856 C62.3132019 61.34552856 62.3132019 40.55552856 62.3132019 19.13552856 C61.3232019 19.13552856 60.3332019 19.13552856 59.3132019 19.13552856 Z " fill="#8D8DA2" transform="translate(211.68679809570313,210.86447143554688)"/>
<path d="M0 0 C0.65058484 -0.00297112 1.30116969 -0.00594224 1.97146922 -0.0090034 C4.14373782 -0.01765022 6.31595105 -0.01919524 8.48823547 -0.02069092 C10.04908362 -0.02532199 11.60993065 -0.03034704 13.17077637 -0.03573608 C17.40655341 -0.04883545 21.64231462 -0.05530039 25.87810874 -0.05974674 C28.52738198 -0.06268185 31.17665094 -0.06678751 33.82592201 -0.07125092 C42.12329039 -0.08492024 50.42064892 -0.09458929 58.71802777 -0.09845281 C68.28027561 -0.10293032 77.84238027 -0.12046634 87.40458459 -0.1494534 C94.80605728 -0.17110763 102.20748981 -0.1811591 109.60899383 -0.18249393 C114.02471128 -0.1835394 118.44029405 -0.18939215 122.85597801 -0.20731354 C127.01337626 -0.22385873 131.17053951 -0.22591864 135.32795906 -0.21717453 C136.84763598 -0.21640756 138.36732586 -0.22070173 139.88697052 -0.23063278 C150.5871669 -0.29641771 160.74357952 -0.29534579 168.82929993 7.57794189 C169.63238586 8.33977783 170.4354718 9.10161377 171.26289368 9.88653564 C177.741609 16.7456526 178.81151718 22.95124186 178.64961243 32.20294189 C178.13226492 38.09756803 175.84863209 43.33093628 172.39179993 48.14044189 C171.73179993 48.14044189 171.07179993 48.14044189 170.39179993 48.14044189 C170.20617493 48.71794189 170.02054993 49.29544189 169.82929993 49.89044189 C166.85928002 54.53916871 160.61690124 56.93464928 155.39179993 58.14044189 C146.0748199 59.11341766 138.21589271 57.25457207 130.64179993 51.64044189 C126.18356081 47.4681231 123.30777545 41.88135024 121.39179993 36.14044189 C121.39179993 33.50044189 121.39179993 30.86044189 121.39179993 28.14044189 C74.36679993 28.63544189 74.36679993 28.63544189 26.39179993 29.14044189 C25.73179993 32.44044189 25.07179993 35.74044189 24.39179993 39.14044189 C21.28894701 47.27526227 15.83824824 52.55351935 8.20429993 56.51544189 C0.67043279 59.56486431 -6.88682399 59.09940272 -14.35820007 56.14044189 C-15.784473 55.49458245 -17.20532915 54.83566996 -18.60820007 54.14044189 C-18.60820007 53.48044189 -18.60820007 52.82044189 -18.60820007 52.14044189 C-19.59820007 52.14044189 -20.58820007 52.14044189 -21.60820007 52.14044189 C-21.60820007 51.48044189 -21.60820007 50.82044189 -21.60820007 50.14044189 C-22.26820007 50.14044189 -22.92820007 50.14044189 -23.60820007 50.14044189 C-29.50841867 43.0697995 -32.12008007 35.8649198 -31.84257507 26.67950439 C-30.98086297 17.34428993 -26.50327344 11.35383054 -19.60820007 5.14044189 C-13.41865284 0.94787871 -7.40247712 0.01894512 0 0 Z M-11.60820007 15.14044189 C-11.60820007 15.80044189 -11.60820007 16.46044189 -11.60820007 17.14044189 C-12.5285907 17.51749268 -12.5285907 17.51749268 -13.46757507 17.90216064 C-17.06349964 19.98228489 -18.16723985 23.37346465 -19.60820007 27.14044189 C-20.44913546 30.8779325 -19.31455334 32.98473859 -17.48320007 36.20294189 C-14.38752523 40.82465363 -11.05355287 43.41203893 -5.67070007 45.01544189 C-0.88833708 45.21064038 2.59175621 44.63988189 6.35664368 41.50372314 C9.40266125 38.33312408 11.72815944 35.47546981 12.51679993 31.07794189 C12.33256735 25.27461557 10.74404484 21.74178456 7.01679993 17.32794189 C1.10688786 12.40301517 -4.64848795 11.86528325 -11.60820007 15.14044189 Z M136.59492493 21.11309814 C134.48822182 24.66302967 134.085714 28.06427318 134.39179993 32.14044189 C136.09007873 37.55370557 139.67353522 41.13790981 144.39179993 44.14044189 C148.679964 45.44220599 150.75544905 45.34890166 155.01679993 43.95294189 C159.31745741 41.64332954 162.4603859 39.91859595 164.76679993 35.51544189 C165.82893539 29.77991041 165.6728454 24.40690697 162.76679993 19.26544189 C158.98176561 15.87883224 155.49373984 13.44071902 150.32929993 12.70294189 C144.28734182 13.602808 140.34798568 16.44152515 136.59492493 21.11309814 Z " fill="#84849B" transform="translate(176.6082000732422,141.85955810546875)"/>
<path d="M0 0 C1.22419144 0.00067978 1.22419144 0.00067978 2.47311401 0.00137329 C3.32836166 -0.00198532 4.18360931 -0.00534393 5.06477356 -0.00880432 C7.90671215 -0.01834402 10.74859202 -0.02025893 13.59054565 -0.02133179 C15.55730718 -0.02454224 17.52406846 -0.02790615 19.49082947 -0.03141785 C23.61937006 -0.03741666 27.74788968 -0.03925697 31.87643433 -0.03866577 C37.1774866 -0.0385641 42.47840508 -0.05221812 47.77942562 -0.06943798 C51.84307986 -0.08053386 55.9067015 -0.08258573 59.97036934 -0.08205605 C61.92527287 -0.08323974 63.88017714 -0.08768317 65.83506584 -0.09538841 C68.5647721 -0.10513991 71.2941847 -0.10232956 74.02389526 -0.09628296 C75.24505035 -0.10471222 75.24505035 -0.10471222 76.49087524 -0.11331177 C82.08488651 -0.08167843 82.08488651 -0.08167843 84.3132019 2.14663696 C84.80377819 3.67224414 85.23363344 5.21779505 85.6257019 6.77163696 C87.75203065 14.20304855 91.58748611 21.5212393 98.5632019 25.39663696 C99.1407019 25.64413696 99.7182019 25.89163696 100.3132019 26.14663696 C99.7118033 31.55922438 99.7118033 31.55922438 98.1257019 33.89663696 C92.63749543 37.68160694 86.59805158 37.44333269 80.21212769 37.43716431 C79.20973053 37.44388153 78.20733337 37.45059875 77.17456055 37.45751953 C73.86916106 37.47647831 70.56396484 37.48042258 67.2585144 37.48257446 C64.95454831 37.48900346 62.65058304 37.4957319 60.34661865 37.50274658 C55.51986804 37.51471376 50.69318896 37.51842793 45.86642456 37.51724243 C39.69046959 37.51703919 33.51497449 37.54434995 27.33912849 37.57878685 C22.58123682 37.60105484 17.82345587 37.60508001 13.06551743 37.60402298 C10.78900441 37.60637875 8.51248832 37.61520085 6.23602676 37.63068771 C3.04804769 37.6503465 -0.13893878 37.64450963 -3.32693481 37.63247681 C-4.26122314 37.64371582 -5.19551147 37.65495483 -6.15811157 37.66653442 C-12.05813651 37.61012313 -16.8331045 36.67966142 -21.6867981 33.14663696 C-23.6867981 30.14663696 -23.6867981 30.14663696 -23.58132935 28.19741821 C-22.37980278 25.44282675 -20.70862549 24.21000399 -18.3742981 22.33413696 C-11.92610724 16.78521837 -9.51039004 11.36014459 -7.30007935 3.18569946 C-6.08369927 -0.85857059 -3.86243038 0.02229332 0 0 Z " fill="#828299" transform="translate(211.68679809570313,171.85336303710938)"/>
<path d="M0 0 C1.26177063 -0.01265396 2.52354126 -0.02530792 3.82354736 -0.03834534 C5.21423751 -0.02703001 6.60492357 -0.01520257 7.99560547 -0.00291443 C9.46605289 -0.00805474 10.93649414 -0.01533688 12.40692139 -0.02459717 C16.39466942 -0.04310558 20.38174853 -0.03017665 24.36946869 -0.01050687 C28.54449738 0.00588583 32.71948392 -0.00293412 36.89453125 -0.00802612 C43.90554482 -0.0125464 50.91629153 0.00331854 57.92724609 0.03126526 C66.03045108 0.063317 74.1331748 0.0633013 82.23641396 0.04605049 C90.03460341 0.03018126 97.83261659 0.03692147 105.63079834 0.0539875 C108.94810687 0.06085631 112.26527403 0.05982734 115.58258057 0.05244255 C119.48976879 0.04477574 123.39640998 0.05691812 127.30350494 0.08429146 C128.73656846 0.09117232 130.16968311 0.09127639 131.60274506 0.08407593 C133.56036395 0.07537394 135.51804724 0.09378439 137.47558594 0.11352539 C139.11815872 0.11773577 139.11815872 0.11773577 140.79391479 0.12203121 C144.43105089 0.7473849 146.11310381 2.08448412 148.73779297 4.62818909 C150.16663768 8.23979154 149.9761859 11.7342156 148.98779297 15.44068909 C146.98597859 18.94386425 145.59821841 20.34138061 141.73779297 21.62818909 C139.78534234 21.72773631 137.82965059 21.76752354 135.87467957 21.77536011 C134.65076004 21.78251541 133.42684052 21.78967072 132.16583252 21.79704285 C130.80725123 21.79988305 129.44866967 21.80259479 128.09008789 21.80519104 C126.66097346 21.81145672 125.23186066 21.81810361 123.80274963 21.82510376 C119.10793184 21.84613234 114.41311377 21.85650429 109.71826172 21.86647034 C108.10158076 21.8705182 106.48489998 21.87463513 104.86821938 21.87882042 C97.27351514 21.89786862 89.67882061 21.91210102 82.08409709 21.92043239 C73.31864474 21.93020701 64.55344476 21.95653379 55.78808135 21.99693328 C49.01176018 22.02709321 42.23551137 22.0419011 35.45912439 22.0452134 C31.41232976 22.04756385 27.36580487 22.0565234 23.31908226 22.08167458 C19.51131322 22.10495868 15.70399145 22.10918744 11.89616966 22.09891319 C10.50058504 22.09841781 9.10497838 22.10473903 7.70946121 22.11846924 C-5.43735458 22.24055571 -5.43735458 22.24055571 -10.26220703 17.62818909 C-12.17524166 14.55069859 -12.26474101 12.77009201 -12.19970703 9.12818909 C-10.42491162 2.5022862 -6.69305433 0.00358359 0 0 Z " fill="#83839A" transform="translate(181.26220703125,336.37181091308594)"/>
<path d="M0 0 C0.909776 -0.01004562 1.819552 -0.02009125 2.75689697 -0.03044128 C4.25846092 -0.03918777 4.25846092 -0.03918777 5.7903595 -0.04811096 C6.84254669 -0.05789474 7.89473389 -0.06767853 8.97880554 -0.07775879 C12.47302476 -0.10775795 15.96720556 -0.1291118 19.46150208 -0.14796448 C21.24946921 -0.15782222 21.24946921 -0.15782222 23.0735569 -0.1678791 C29.38393085 -0.20049391 35.69428776 -0.22493857 42.00471497 -0.24440002 C47.23022518 -0.26221205 52.45519567 -0.29702884 57.68049622 -0.34693909 C63.98521684 -0.40709446 70.28943696 -0.43787003 76.59443092 -0.44757271 C78.99741241 -0.45613728 81.40038019 -0.47497977 83.80319786 -0.50431633 C87.16930354 -0.54319793 90.53345782 -0.54426877 93.8997345 -0.53639221 C94.89065598 -0.55639282 95.88157745 -0.57639343 96.90252686 -0.59700012 C102.77553047 -0.53538153 106.03034911 0.39551051 110.32056141 4.48200893 C113.17737558 8.03958036 113.9296837 10.81528363 113.85603333 15.34812927 C113.84636536 16.6687738 113.84636536 16.6687738 113.83650208 18.01609802 C113.66853333 20.16062927 113.66853333 20.16062927 112.66853333 21.16062927 C111.03861778 21.2588602 109.40443346 21.28694876 107.77156067 21.28761292 C106.71144775 21.29043274 105.65133484 21.29325256 104.55909729 21.29615784 C102.79955719 21.29312149 102.79955719 21.29312149 101.00447083 21.2900238 C99.7769812 21.29177612 98.54949158 21.29352844 97.2848053 21.29533386 C93.90885054 21.29899211 90.53295671 21.29811892 87.15700531 21.29495478 C83.63138748 21.29243084 80.10577234 21.29476881 76.58015442 21.29634094 C70.6584374 21.29816254 64.73673283 21.29575659 58.8150177 21.29100037 C51.95936523 21.28555776 45.10374249 21.28732043 38.24809074 21.29282677 C32.37209251 21.29735818 26.49610325 21.29800831 20.62010384 21.2953881 C17.1061924 21.29382548 13.59229495 21.29363115 10.0783844 21.29692459 C6.16310969 21.30033759 2.24786855 21.2956131 -1.66740417 21.2900238 C-2.84043091 21.29204803 -4.01345764 21.29407227 -5.22203064 21.29615784 C-6.81220001 21.2919281 -6.81220001 21.2919281 -8.43449402 21.28761292 C-9.36144073 21.28723589 -10.28838745 21.28685886 -11.24342346 21.28647041 C-13.33146667 21.16062927 -13.33146667 21.16062927 -14.33146667 20.16062927 C-14.63569331 15.09018529 -14.25417507 10.88000442 -12.33146667 6.16062927 C-8.69207357 2.21625909 -5.35120256 0.04637435 0 0 Z " fill="#838299" transform="translate(200.3314666748047,312.83937072753906)"/>
<path d="M0 0 C3.0625 1.375 3.0625 1.375 5 3 C5 3.66 5 4.32 5 5 C5.66 5 6.32 5 7 5 C9.00215699 9.1294488 9.33217754 12.43255885 9 17 C8 19.4375 8 19.4375 7 21 C6.34 21 5.68 21 5 21 C5 21.66 5 22.32 5 23 C0.46139393 25.65674502 -2.7417577 26.65728029 -8 26 C-13.03681343 23.28786969 -16.16583048 20.68125916 -17.875 15.1875 C-18.09429592 9.59545396 -16.03759808 6.16112166 -12.375 2.0625 C-8.06432671 -0.57180035 -4.92955597 -0.85179827 0 0 Z " fill="#9393A7" transform="translate(331,158)"/>
<path d="M0 0 C4.36045847 2.22136563 7.13277421 4.43567029 9 9 C9.53635899 13.82723092 9.52017901 15.97890786 7.3125 20.3125 C3.94954371 24.22080055 1.73527651 25.81069711 -3.4375 26.375 C-7.261188 25.97250653 -9.70351459 24.92964999 -13 23 C-13 22.34 -13 21.68 -13 21 C-13.66 21 -14.32 21 -15 21 C-17.48015176 17.27977235 -17.67363135 13.31623048 -17 9 C-13.29832178 1.73374275 -8.2260053 -1.45164799 0 0 Z " fill="#908FA3" transform="translate(177,158)"/>
<path d="M0 0 C1.25764664 -0.0071553 2.51529327 -0.01431061 3.81105042 -0.02168274 C5.21263098 -0.02452313 6.61421181 -0.02723484 8.01579285 -0.02983093 C9.48579062 -0.03609456 10.95578681 -0.04274127 12.42578125 -0.04974365 C16.42586545 -0.06716228 20.42593769 -0.07770769 24.42605042 -0.08594918 C26.92434221 -0.09109736 29.42263026 -0.09717316 31.92091942 -0.10346031 C39.73507279 -0.12251453 47.54921669 -0.13674535 55.36338884 -0.14507228 C64.38808028 -0.15484753 73.41252664 -0.18117346 82.4371317 -0.22157317 C89.40959375 -0.25171676 96.38198548 -0.26653946 103.35451144 -0.26985329 C107.52033426 -0.27220574 111.68589532 -0.28119114 115.85164833 -0.30631447 C119.77102284 -0.32956978 123.68996277 -0.33383891 127.60938835 -0.32355309 C129.04731821 -0.32305699 130.48526927 -0.32939914 131.92313385 -0.34310913 C133.88739722 -0.36078924 135.85184872 -0.35134923 137.81616211 -0.34057617 C138.91510709 -0.34296453 140.01405207 -0.34535288 141.14629841 -0.34781361 C144.79560225 0.26403984 146.46910729 1.59530973 149.09855652 4.14717102 C150.52740123 7.75877347 150.33694945 11.25319753 149.34855652 14.95967102 C147.34674214 18.46284619 145.95898196 19.86036254 142.09855652 21.14717102 C140.14610589 21.24671824 138.19041414 21.28650547 136.23544312 21.29434204 C135.01152359 21.30149734 133.78760406 21.30865265 132.52659607 21.31602478 C131.16801478 21.31886499 129.80943322 21.32157672 128.45085144 21.32417297 C127.02173701 21.33043865 125.59262421 21.33708555 124.16351318 21.34408569 C119.46869539 21.36511427 114.77387732 21.37548623 110.07902527 21.38545227 C108.46234431 21.38950013 106.84566353 21.39361706 105.22898293 21.39780235 C97.63427869 21.41685055 90.03958416 21.43108295 82.44486064 21.43941432 C73.67940829 21.44918894 64.91420831 21.47551572 56.1488449 21.51591522 C49.37252373 21.54607514 42.59627492 21.56088303 35.81988794 21.56419533 C31.77309331 21.56654578 27.72656842 21.57550533 23.67984581 21.60065651 C19.87207676 21.62394062 16.064755 21.62816937 12.25693321 21.61789513 C10.86134859 21.61739975 9.46574193 21.62372096 8.07022476 21.63745117 C-4.93442954 21.75821748 -4.93442954 21.75821748 -9.90144348 17.14717102 C-9.57144348 16.48717102 -9.24144348 15.82717102 -8.90144348 15.14717102 C-8.36669403 15.63431391 -7.83194458 16.12145679 -7.2809906 16.62336159 C-4.26137982 18.55705366 -2.40068204 18.52438973 1.17131042 18.52812195 C2.41632324 18.53658142 3.66133606 18.54504089 4.94407654 18.55375671 C6.32109201 18.54792399 7.69810618 18.54177949 9.07511902 18.53535461 C10.52733251 18.53942033 11.9795429 18.54476221 13.43174744 18.55128479 C17.3738793 18.56496431 21.31577569 18.5596572 25.25791168 18.55014753 C29.3826969 18.5425542 33.50746191 18.54959564 37.63224792 18.55430603 C44.55920533 18.55976454 51.4860668 18.55256949 58.41300964 18.5382843 C66.4224167 18.52195757 74.43159466 18.52724601 82.44099617 18.54376352 C89.31668624 18.55737569 96.19230733 18.55929937 103.06800652 18.55144751 C107.17500947 18.5467695 111.28190472 18.54614961 115.38890076 18.55605698 C119.25000487 18.56472049 123.1108135 18.55871621 126.97188568 18.54137421 C128.38925435 18.53740604 129.80664786 18.53854908 131.22400665 18.5451622 C133.15792963 18.55335386 135.09190693 18.54126216 137.02580261 18.52812195 C138.64958328 18.52642533 138.64958328 18.52642533 140.3061676 18.52469444 C143.46160617 18.09808769 144.84293026 17.36320248 147.09855652 15.14717102 C147.7301435 12.75077794 147.7301435 12.75077794 147.59855652 10.14717102 C147.60886902 9.28092102 147.61918152 8.41467102 147.62980652 7.52217102 C147.30375088 5.05373239 147.30375088 5.05373239 145.44168663 3.52254295 C142.46647067 1.77614888 140.51951471 1.76985023 137.07722473 1.76622009 C135.84351639 1.75776062 134.60980804 1.74930115 133.3387146 1.74058533 C131.97431814 1.74641811 130.60992298 1.75256261 129.24552917 1.75898743 C127.80641278 1.75492159 126.3672995 1.74957964 124.92819214 1.74305725 C121.02104815 1.72937668 117.11414174 1.73468592 113.20699358 1.74419451 C109.11650992 1.75179022 105.02604659 1.74474547 100.93556213 1.74003601 C94.06407522 1.73457696 87.192685 1.74177267 80.32121277 1.75605774 C72.38228136 1.77237159 64.44358125 1.76710562 56.50465548 1.75057852 C49.68583374 1.73695239 42.86708152 1.73504989 36.04825056 1.74289453 C31.97695399 1.74756653 27.90576602 1.74820921 23.83447647 1.73828506 C20.00455501 1.7296017 16.17493073 1.73566212 12.34504128 1.75296783 C10.94141317 1.75692595 9.53775995 1.75581017 8.13414192 1.74917984 C6.21405572 1.74094803 4.29391471 1.75311426 2.37385559 1.76622009 C1.30055307 1.76735117 0.22725056 1.76848225 -0.87857628 1.7696476 C-4.39014485 2.20820454 -6.83982051 3.41408195 -9.90144348 5.14717102 C-7.54421865 -0.07239825 -5.55554469 0.02162618 0 0 Z " fill="#DBDBE7" transform="translate(180.9014434814453,336.8528289794922)"/>
<path d="M0 0 C1.56129194 -0.00435248 3.12258174 -0.00953741 4.68386841 -0.01548767 C8.90709617 -0.02883162 13.13023419 -0.02946146 17.35347891 -0.02692437 C20.88708177 -0.02585148 24.42066671 -0.03074616 27.95426571 -0.03552979 C36.29504506 -0.04660916 44.63577936 -0.0470713 52.9765625 -0.04101562 C61.56304521 -0.03497714 70.149364 -0.04728727 78.73581874 -0.06858569 C86.1246208 -0.0862352 93.51337084 -0.09219776 100.90219319 -0.08894795 C105.30779489 -0.08714022 109.71327966 -0.08972013 114.11886215 -0.10366249 C118.26400331 -0.1162908 122.40889004 -0.11424975 126.55402756 -0.1012516 C128.06886381 -0.09889709 129.58371826 -0.10157985 131.09853363 -0.10987473 C141.78237221 -0.16412574 151.92876461 -0.14750048 160.00048828 7.7121582 C160.80357422 8.47399414 161.60666016 9.23583008 162.43408203 10.02075195 C168.91279736 16.87986891 169.98270553 23.08545817 169.82080078 32.3371582 C169.30345327 38.23178434 167.01982044 43.46515259 163.56298828 48.2746582 C162.90298828 48.2746582 162.24298828 48.2746582 161.56298828 48.2746582 C162.54198617 45.63889466 163.48315735 43.38824043 165.10595703 41.0793457 C166.93456576 37.55939647 167.09967344 34.46798948 167.06298828 30.5871582 C167.05654297 29.87889893 167.05009766 29.17063965 167.04345703 28.44091797 C166.78749342 21.05081074 164.69350462 15.65132401 159.62548828 10.18481445 C153.94153023 4.92069421 149.44668378 3.02394621 141.61743164 3.02742004 C140.93065055 3.02500563 140.24386946 3.02259121 139.53627682 3.02010363 C137.24169762 3.01448102 134.9473986 3.02311876 132.65283203 3.03173828 C131.00505498 3.03066504 129.3572783 3.02872573 127.70950317 3.02598572 C123.23849442 3.02114097 118.76758557 3.02878856 114.2965889 3.03893876 C109.61707931 3.04772624 104.93757279 3.04596167 100.25805664 3.045578 C92.39972259 3.04651439 84.54142717 3.05519472 76.68310547 3.06884766 C67.59847129 3.08457288 58.51387941 3.08984573 49.4292326 3.0891121 C39.75683713 3.0884365 30.08445796 3.09537872 20.41206741 3.10455871 C17.62528674 3.10668961 14.83850871 3.10739983 12.05172729 3.10779762 C7.6719699 3.10880259 3.29224798 3.11491185 -1.08749771 3.12496376 C-2.69473173 3.12788309 -4.30196983 3.12911528 -5.90920639 3.12853622 C-8.10332693 3.12804489 -10.29734836 3.13370751 -12.49145508 3.14094543 C-13.71924179 3.14262128 -14.9470285 3.14429712 -16.21202087 3.14602375 C-19.08119061 3.26046565 -21.65018378 3.61144967 -24.43701172 4.2746582 C-23.43701172 2.2746582 -23.43701172 2.2746582 -20.33932495 1.16682434 C-13.67210625 -0.33921124 -6.79693273 -0.01253611 0 0 Z " fill="#EAE9EE" transform="translate(185.43701171875,141.725341796875)"/>
<path d="M0 0 C0.909776 -0.01004562 1.819552 -0.02009125 2.75689697 -0.03044128 C4.25846092 -0.03918777 4.25846092 -0.03918777 5.7903595 -0.04811096 C6.84254669 -0.05789474 7.89473389 -0.06767853 8.97880554 -0.07775879 C12.47302476 -0.10775795 15.96720556 -0.1291118 19.46150208 -0.14796448 C21.24946921 -0.15782222 21.24946921 -0.15782222 23.0735569 -0.1678791 C29.38393085 -0.20049391 35.69428776 -0.22493857 42.00471497 -0.24440002 C47.23022518 -0.26221205 52.45519567 -0.29702884 57.68049622 -0.34693909 C63.98521684 -0.40709446 70.28943696 -0.43787003 76.59443092 -0.44757271 C78.99741241 -0.45613728 81.40038019 -0.47497977 83.80319786 -0.50431633 C87.16930354 -0.54319793 90.53345782 -0.54426877 93.8997345 -0.53639221 C94.89065598 -0.55639282 95.88157745 -0.57639343 96.90252686 -0.59700012 C102.77553047 -0.53538153 106.03034911 0.39551051 110.32056141 4.48200893 C113.17737558 8.03958036 113.9296837 10.81528363 113.85603333 15.34812927 C113.84636536 16.6687738 113.84636536 16.6687738 113.83650208 18.01609802 C113.66853333 20.16062927 113.66853333 20.16062927 112.66853333 21.16062927 C111.03861778 21.2588602 109.40443346 21.28694876 107.77156067 21.28761292 C106.71144775 21.29043274 105.65133484 21.29325256 104.55909729 21.29615784 C102.79955719 21.29312149 102.79955719 21.29312149 101.00447083 21.2900238 C99.7769812 21.29177612 98.54949158 21.29352844 97.2848053 21.29533386 C93.90885054 21.29899211 90.53295671 21.29811892 87.15700531 21.29495478 C83.63138748 21.29243084 80.10577234 21.29476881 76.58015442 21.29634094 C70.6584374 21.29816254 64.73673283 21.29575659 58.8150177 21.29100037 C51.95936523 21.28555776 45.10374249 21.28732043 38.24809074 21.29282677 C32.37209251 21.29735818 26.49610325 21.29800831 20.62010384 21.2953881 C17.1061924 21.29382548 13.59229495 21.29363115 10.0783844 21.29692459 C6.16310969 21.30033759 2.24786855 21.2956131 -1.66740417 21.2900238 C-2.84043091 21.29204803 -4.01345764 21.29407227 -5.22203064 21.29615784 C-6.81220001 21.2919281 -6.81220001 21.2919281 -8.43449402 21.28761292 C-9.36144073 21.28723589 -10.28838745 21.28685886 -11.24342346 21.28647041 C-13.33146667 21.16062927 -13.33146667 21.16062927 -14.33146667 20.16062927 C-14.63569331 15.09018529 -14.25417507 10.88000442 -12.33146667 6.16062927 C-8.69207357 2.21625909 -5.35120256 0.04637435 0 0 Z M-9.33146667 5.16062927 C-13.05897558 10.55909044 -12.33146667 12.90444139 -12.33146667 20.16062927 C28.58853333 20.16062927 69.50853333 20.16062927 111.66853333 20.16062927 C112.16336899 10.70119151 112.16336899 10.70119151 107.66853333 4.16062927 C104.52069528 2.06207058 103.79163559 1.90920393 100.20335388 1.89993286 C99.2893129 1.89284805 98.37527191 1.88576324 97.43353271 1.87846375 C95.93264854 1.88217987 95.93264854 1.88217987 94.40144348 1.88597107 C93.34589767 1.88086014 92.29035187 1.87574921 91.20281982 1.8704834 C87.70435456 1.85655357 84.20608557 1.85754686 80.70759583 1.85984802 C78.28005398 1.85596271 75.85251281 1.85162838 73.42497253 1.84686279 C68.33230894 1.83939309 63.23971467 1.83969713 58.14704895 1.84495544 C51.61767552 1.85074831 45.08858591 1.83382685 38.55925941 1.81061077 C33.54413694 1.79588489 28.52908298 1.79500023 23.51394272 1.7981205 C21.10657057 1.79760662 18.69919465 1.79235651 16.29184341 1.78230858 C12.92584508 1.76998522 9.56040155 1.77671188 6.19441223 1.78831482 C5.19787125 1.78067108 4.20133026 1.77302734 3.17459106 1.76515198 C-1.77956049 1.8029368 -5.36511602 1.83245407 -9.33146667 5.16062927 Z " fill="#E2E2ED" transform="translate(200.3314666748047,312.83937072753906)"/>
<path d="M0 0 C12.36918715 -0.02312154 24.73836919 -0.04091412 37.10757351 -0.05181217 C42.85045062 -0.05704141 48.59331301 -0.0641398 54.33618164 -0.07543945 C59.87339995 -0.08626687 65.41060404 -0.09227652 70.94783211 -0.09487724 C73.06544277 -0.09673176 75.18305262 -0.10035286 77.30065727 -0.10573006 C80.25571274 -0.11293856 83.21070871 -0.11399102 86.16577148 -0.11352539 C87.05049637 -0.11712067 87.93522125 -0.12071594 88.84675598 -0.12442017 C94.88594784 -0.11405216 94.88594784 -0.11405216 96 1 C96.29922386 2.32725037 96.56400789 3.66232286 96.8125 5 C98.4596378 12.60590104 100.9206413 18.88054004 107 24 C107.66 24.33 108.32 24.66 109 25 C109 25.66 109 26.32 109 27 C119.56877571 30.1905738 129.21138239 30.0166808 139.11328125 24.91015625 C140.76523603 23.97989714 142.38654331 22.99553711 144 22 C142.75159666 25.8839215 140.37292362 27.28028156 136.84375 29.1171875 C129.86670654 32.45789051 122.86064674 33.24342126 115.3125 31.3125 C105.43075412 27.69722712 100.80245266 22.46955482 96.06640625 13.1953125 C95 10 95 10 95 2 C63.32 2.33 31.64 2.66 -1 3 C-0.67 2.01 -0.34 1.02 0 0 Z " fill="#E6E5EC" transform="translate(203,168)"/>
<path d="M0 0 C11.43921636 -0.04626844 22.87841059 -0.08184119 34.31770134 -0.10362434 C39.62898938 -0.11407729 44.94021356 -0.12826397 50.25146484 -0.15087891 C55.37372595 -0.17255352 60.4959255 -0.18455723 65.61822891 -0.18975449 C67.5759287 -0.19345994 69.53362498 -0.20069541 71.49129868 -0.21146011 C74.22588221 -0.22590357 76.9602089 -0.22798096 79.69482422 -0.22705078 C80.51049866 -0.23424133 81.3261731 -0.24143188 82.16656494 -0.24884033 C87.77189568 -0.22810432 87.77189568 -0.22810432 90 2 C90.78125 4.171875 90.78125 4.171875 91.5 6.75 C92.5804795 10.53442058 93.72567992 14.27506439 95 18 C94.34 17.67 93.68 17.34 93 17 C93 16.34 93 15.68 93 15 C92.34 15 91.68 15 91 15 C90.49242138 13.58603098 89.99425075 12.16868271 89.5 10.75 C89.2215625 9.96109375 88.943125 9.1721875 88.65625 8.359375 C88 6 88 6 88 2 C87.38201538 2.01252808 86.76403076 2.02505615 86.12731934 2.03796387 C28.1129899 3.20838883 28.1129899 3.20838883 1 3 C0.85973389 3.60215332 0.71946777 4.20430664 0.57495117 4.82470703 C-1.51732595 12.74071092 -5.82979506 19.71125291 -12 25 C-12.66 24.67 -13.32 24.34 -14 24 C-13.46890625 23.45472656 -12.9378125 22.90945312 -12.390625 22.34765625 C-5.8729385 15.38990698 -2.96792077 8.92891419 0 0 Z " fill="#D7D6DE" transform="translate(206,172)"/>
<path d="M0 0 C1.65 0.33 3.3 0.66 5 1 C5 22.45 5 43.9 5 66 C2.525 66.495 2.525 66.495 0 67 C-1.81415883 65.18584117 -1.12770573 62.37554299 -1.12939453 59.93554688 C-1.13254669 58.63750122 -1.13569885 57.33945557 -1.13894653 56.0020752 C-1.13715675 54.57429979 -1.1351058 53.14652469 -1.1328125 51.71875 C-1.13348558 50.26525862 -1.13445564 48.81176736 -1.13571167 47.35827637 C-1.13718846 44.30833873 -1.1350347 41.25843034 -1.13037109 38.20849609 C-1.1246738 34.29069441 -1.12795291 30.37296122 -1.13394356 26.45516205 C-1.13754969 23.45269246 -1.13641035 20.45023923 -1.13381577 17.44776917 C-1.13314664 16.00281262 -1.13397442 14.55785461 -1.13629532 13.11289978 C-1.13882265 11.09675117 -1.13429052 9.08059738 -1.12939453 7.06445312 C-1.12859894 5.91497192 -1.12780334 4.76549072 -1.12698364 3.58117676 C-1 1 -1 1 0 0 Z M1 2 C1 22.79 1 43.58 1 65 C1.66 65.33 2.32 65.66 3 66 C3 44.88 3 23.76 3 2 C2.34 2 1.68 2 1 2 Z " fill="#E7E8EE" transform="translate(248,228)"/>
<path d="M0 0 C1.32 0.33 2.64 0.66 4 1 C3.3986014 6.41258741 3.3986014 6.41258741 1.8125 8.75 C-3.68851773 12.54380533 -9.73349585 12.29149743 -16.1328125 12.2746582 C-17.64122711 12.2823246 -17.64122711 12.2823246 -19.18011475 12.29014587 C-22.49513749 12.30401507 -25.80995174 12.30308732 -29.125 12.30078125 C-31.43375729 12.30466916 -33.74251388 12.30900403 -36.05126953 12.31376648 C-40.88641684 12.32122259 -45.72149111 12.32094144 -50.55664062 12.31567383 C-56.75065514 12.30987495 -62.94437105 12.32682349 -69.13833618 12.3500185 C-73.90472153 12.36475281 -78.67103487 12.36562803 -83.43743896 12.36250877 C-85.72117709 12.36302197 -88.00491924 12.36825933 -90.28863525 12.37832069 C-93.48168343 12.39066388 -96.67414858 12.38390614 -99.8671875 12.37231445 C-100.80866638 12.37995819 -101.75014526 12.38760193 -102.72015381 12.39547729 C-107.9215906 12.35376399 -111.45746969 11.83436623 -116 9 C-115.34 8.67 -114.68 8.34 -114 8 C-113.34 8.33 -112.68 8.66 -112 9 C-110.56230897 9.09401447 -109.1203422 9.12629664 -107.67958069 9.12698364 C-106.31886696 9.13121338 -106.31886696 9.13121338 -104.93066406 9.13552856 C-103.43369995 9.13249222 -103.43369995 9.13249222 -101.90649414 9.12939453 C-100.33320595 9.13202301 -100.33320595 9.13202301 -98.72813416 9.13470459 C-95.24712489 9.13912022 -91.76616607 9.1361859 -88.28515625 9.1328125 C-85.8738148 9.13348567 -83.46247342 9.13445581 -81.0511322 9.13571167 C-75.99119421 9.13718829 -70.93127384 9.1350354 -65.87133789 9.13037109 C-59.37658566 9.12467689 -52.88187477 9.1279511 -46.38712406 9.13394356 C-41.40555 9.13755272 -36.42398578 9.13640889 -31.44241142 9.13381577 C-29.04734734 9.13314732 -26.65228237 9.13397204 -24.25721931 9.13629532 C-20.91242218 9.13882729 -17.56769249 9.13497333 -14.22290039 9.12939453 C-13.22694855 9.13141876 -12.2309967 9.13344299 -11.2048645 9.13552856 C-10.29490219 9.13270874 -9.38493988 9.12988892 -8.44740295 9.12698364 C-7.65633683 9.12660662 -6.86527071 9.12622959 -6.05023289 9.12584114 C-3.79872406 9.07597133 -3.79872406 9.07597133 -1 8 C-0.67 5.36 -0.34 2.72 0 0 Z " fill="#CACAD3" transform="translate(308,197)"/>
<path d="M0 0 C0.68633451 -0.00226556 1.37266903 -0.00453111 2.07980156 -0.00686532 C4.39062026 -0.01321974 6.70138053 -0.01237504 9.01220703 -0.0115509 C10.66440914 -0.01454146 12.31661055 -0.01794374 13.96881104 -0.02172852 C18.464555 -0.0305823 22.96027996 -0.03290718 27.4560318 -0.0335443 C31.2038207 -0.03449215 34.95160513 -0.03816892 38.69939232 -0.0417164 C47.53739014 -0.04986585 56.37537776 -0.05230015 65.21337891 -0.05158997 C74.34403595 -0.05098873 83.474634 -0.06154864 92.60527611 -0.07733363 C100.43373583 -0.09038739 108.26217621 -0.09577479 116.09064674 -0.09513456 C120.77104387 -0.09487897 125.45138857 -0.09776341 130.1317749 -0.10831261 C134.53119922 -0.11795752 138.93052059 -0.11809774 143.32994843 -0.11079597 C144.94811909 -0.10974569 146.56629605 -0.11213914 148.18445587 -0.11815643 C150.38644 -0.1258169 152.5880633 -0.12127159 154.79003906 -0.11352539 C156.02448761 -0.11407016 157.25893616 -0.11461493 158.53079224 -0.1151762 C161.39501953 0.13371277 161.39501953 0.13371277 163.39501953 2.13371277 C162.53618982 2.13279098 161.67736012 2.13186918 160.79250526 2.13091946 C139.92045769 2.10886021 119.04841213 2.09229925 98.17635536 2.0819006 C88.08289802 2.07673857 77.98944845 2.06969763 67.89599609 2.05827332 C59.10123069 2.04832365 50.30647091 2.04185866 41.51170003 2.03962427 C36.85252586 2.03831765 32.19336779 2.03523483 27.53419876 2.02798271 C23.15288514 2.02121805 18.77159431 2.01909673 14.39027596 2.02060509 C12.77855747 2.02032896 11.16683826 2.01832648 9.55512428 2.01450729 C7.3618859 2.00956309 5.16873461 2.01071719 2.97549438 2.01345825 C1.74582254 2.01253646 0.5161507 2.01161467 -0.75078392 2.01066494 C-3.55143891 1.9368276 -3.55143891 1.9368276 -5.60498047 3.13371277 C-6.59498047 2.47371277 -7.58498047 1.81371277 -8.60498047 1.13371277 C-5.71799801 -0.30977846 -3.2271083 0.00438101 0 0 Z " fill="#9291A4" transform="translate(172.60498046875,143.8662872314453)"/>
<path d="M0 0 C1.79296875 1.53515625 1.79296875 1.53515625 3 3 C2.02160156 2.83951172 2.02160156 2.83951172 1.0234375 2.67578125 C-4.55904489 1.91004252 -8.22343309 1.55642851 -13 5 C-17.26095832 8.97689443 -18.80536025 11.98468817 -19.12890625 17.828125 C-18.83671644 22.75108063 -16.59665195 25.38978778 -13.25 28.8125 C-9.53653665 31.31194649 -7.46312237 32 -3 32 C1.33840394 30.50399864 5.13522576 28.45940179 9 26 C8.34 27.32 7.68 28.64 7 30 C6.34 30 5.68 30 5 30 C5 30.66 5 31.32 5 32 C-0.04176534 34.60220146 -5.53918523 35.08926042 -10.9609375 33.3828125 C-15.90919045 30.94109816 -19.07587196 27.14811148 -21 22 C-21.71095994 17.16547243 -21.64303241 12.80852864 -20 8.1875 C-14.26275537 1.91238869 -8.85897463 -2.02985387 0 0 Z " fill="#E3E2EA" transform="translate(331,154)"/>
<path d="M0 0 C0.33 0 0.66 0 1 0 C1.81683864 6.2079737 -0.68841815 10.92813557 -4 16 C-9.2938192 22.06487547 -15.91422234 26.41573311 -23.9921875 27.34375 C-30.09425167 27.52635541 -34.63458172 26.92659179 -40 24 C-37.56836168 22.78418084 -36.29518856 22.99407858 -33.59765625 23.18359375 C-19.78916329 24.0190103 -19.78916329 24.0190103 -8.0390625 17.42578125 C-3.60198071 12.14718395 -1.17751744 6.76471753 0 0 Z " fill="#DFDFE6" transform="translate(201,173)"/>
<path d="M0 0 C9.03477881 0.32267067 13.83359396 4.50834326 19.875 10.9375 C25.53592553 17.78476983 25.75326879 25.41730101 25 34 C23.87214158 38.69683506 21.82033297 43.07605848 19 47 C18.34 47 17.68 47 17 47 C17.97899789 44.36423645 18.92016907 42.11358223 20.54296875 39.8046875 C22.37157747 36.28473827 22.53668516 33.19333127 22.5 29.3125 C22.49355469 28.60424072 22.48710937 27.89598145 22.48046875 27.16625977 C22.19012345 18.78349419 19.29229381 12.88727124 13.25 7.0625 C9.21352226 3.79634244 5.00770225 2.21714985 0 1 C0 0.67 0 0.34 0 0 Z " fill="#E5E5EC" transform="translate(330,143)"/>
<path d="M0 0 C0.66 0.33 1.32 0.66 2 1 C1.38511719 1.51949219 0.77023438 2.03898438 0.13671875 2.57421875 C-0.67152344 3.27160156 -1.47976562 3.96898437 -2.3125 4.6875 C-3.11300781 5.37199219 -3.91351563 6.05648437 -4.73828125 6.76171875 C-10.29096466 12.2568614 -11.15173266 17.25410363 -11.25 24.8125 C-11.13492353 34.92876748 -7.87439824 39.74892241 -1 47 C-2.485 47.495 -2.485 47.495 -4 48 C-4 47.34 -4 46.68 -4 46 C-4.66 46 -5.32 46 -6 46 C-11.9002186 38.92935761 -14.51188 31.72447791 -14.234375 22.5390625 C-13.36457527 13.11623212 -8.74147008 7.44725032 -2 1 C-1.34 0.67 -0.68 0.34 0 0 Z " fill="#E9E9EF" transform="translate(159,146)"/>
<path d="M0 0 C0.66 0 1.32 0 2 0 C4.00215699 4.1294488 4.33217754 7.43255885 4 12 C3 14.4375 3 14.4375 2 16 C1.34 16 0.68 16 0 16 C0 16.66 0 17.32 0 18 C-4.52648522 20.64964989 -7.75398486 21.50442453 -13 21 C-13.66 20.34 -14.32 19.68 -15 19 C-13.783125 19.061875 -12.56625 19.12375 -11.3125 19.1875 C-7.40073507 19.19442348 -5.16318668 18.41890746 -2 16 C0.35641524 14.08593338 0.35641524 14.08593338 0.1953125 10.7421875 C0.17210937 9.46601563 0.14890625 8.18984375 0.125 6.875 C0.10695313 5.59367188 0.08890625 4.31234375 0.0703125 2.9921875 C0.04710937 2.00476563 0.02390625 1.01734375 0 0 Z " fill="#DCDCE3" transform="translate(336,163)"/>
<path d="M0 0 C3.5 1.8125 3.5 1.8125 6 4 C6 4.99 6 5.98 6 7 C5.360625 6.34 4.72125 5.68 4.0625 5 C0.45729844 2.64558265 -1.69730553 2.3663566 -5.91796875 2.52734375 C-9.14441318 3.25980112 -10.26050262 5.32385019 -12 8 C-12.99 8 -13.98 8 -15 8 C-14.76793596 4.75110346 -13.93662944 3.94435756 -11.4375 1.75 C-7.35695291 -0.32736943 -4.48465333 -0.89871029 0 0 Z " fill="#E8E7ED" transform="translate(177,158)"/>
<path d="M0 0 C2.1875 0 2.1875 0 5 1 C8.25060184 4.52294956 10.30702062 8.28794308 10.4375 13.125 C10.03280307 16.70945856 9.33585265 19.66036837 8 23 C7.34 23 6.68 23 6 23 C6.10699219 22.21496094 6.21398437 21.42992187 6.32421875 20.62109375 C7.07065577 14.07973707 7.44598974 9.70370715 4 4 C1.95955036 1.62208021 1.95955036 1.62208021 0 0 Z " fill="#D9D9E0" transform="translate(334,157)"/>
<path d="M0 0 C0.33 0 0.66 0 1 0 C1.14695312 0.81791016 1.14695312 0.81791016 1.296875 1.65234375 C2.9769371 10.12507072 5.31883412 17.19793489 12 23 C12.66 23.66 13.32 24.32 14 25 C11.875 25 11.875 25 9 24 C3.60146504 18.46650166 -0.15083549 11.88426204 -0.1875 4.0625 C-0.14000368 2.70772411 -0.0828413 1.35307462 0 0 Z " fill="#E2E2E9" transform="translate(298,169)"/>
<path d="M0 0 C1.32 0.33 2.64 0.66 4 1 C3.40140845 6.38732394 3.40140845 6.38732394 1.8125 8.8125 C-0.69122248 10.4528699 -3.0589767 10.67321963 -6 11 C-4.625 9.5 -4.625 9.5 -3 8 C-2.34 8 -1.68 8 -1 8 C-0.67 5.36 -0.34 2.72 0 0 Z " fill="#B4B4BE" transform="translate(308,197)"/>
<path d="M0 0 C0 0.66 0 1.32 0 2 C-0.78375 2.763125 -1.5675 3.52625 -2.375 4.3125 C-5.59354137 7.60767331 -6.85246067 9.98362919 -7.1875 14.5625 C-7.01335443 16.82639243 -6.64385252 18.82699773 -6 21 C-6.99 20.67 -7.98 20.34 -9 20 C-9 16.04 -9 12.08 -9 8 C-8.34 8 -7.68 8 -7 8 C-6.731875 7.236875 -6.46375 6.47375 -6.1875 5.6875 C-4.80876015 2.56719402 -3.66285015 0 0 0 Z " fill="#E7E7ED" transform="translate(165,157)"/>
<path d="M0 0 C3.17033042 0.33967826 3.99882607 0.99869191 6.1875 3.4375 C8.73466196 7.03866001 9.11845269 8.76069014 9.0625 13.125 C9.05347656 14.03507812 9.04445313 14.94515625 9.03515625 15.8828125 C9.02355469 16.58148438 9.01195312 17.28015625 9 18 C8.34 18 7.68 18 7 18 C6.97421875 17.34773438 6.9484375 16.69546875 6.921875 16.0234375 C6.45761694 8.86964285 5.12397146 5.12397146 0 0 Z " fill="#E1E1E8" transform="translate(305,315)"/>
<path d="M0 0 C0.33 0 0.66 0 1 0 C1.66 4.29 2.32 8.58 3 13 C2.34 13 1.68 13 1 13 C-1.60585556 9.09121666 -1.22321871 5.53878034 -1 1 C-0.67 0.67 -0.34 0.34 0 0 Z " fill="#E3E3E9" transform="translate(161,166)"/>
<path d="M0 0 C2.41734542 -0.08117951 4.83194949 -0.14056926 7.25 -0.1875 C7.93191406 -0.21263672 8.61382812 -0.23777344 9.31640625 -0.26367188 C12.59199289 -0.31137459 14.65348556 -0.21085076 17.484375 1.51171875 C17.98453125 2.00285156 18.4846875 2.49398438 19 3 C18.67 3.66 18.34 4.32 18 5 C17.48953125 4.51917969 16.9790625 4.03835938 16.453125 3.54296875 C13.17743934 1.48262506 10.59247281 1.49039226 6.75 1.3125 C4.85507812 1.21388672 4.85507812 1.21388672 2.921875 1.11328125 C1.95765625 1.07589844 0.9934375 1.03851563 0 1 C0 0.67 0 0.34 0 0 Z " fill="#E3E2EB" transform="translate(310,337)"/>
<path d="M0 0 C2.125 0.375 2.125 0.375 4 1 C2.1875 3.5 2.1875 3.5 0 6 C-0.99 6 -1.98 6 -3 6 C-2.42655063 3.13275314 -2.1385485 2.1385485 0 0 Z " fill="#C5C5D1" transform="translate(165,160)"/>
<path d="M0 0 C0.76183594 -0.00773438 1.52367187 -0.01546875 2.30859375 -0.0234375 C5.05470599 0.46201042 6.47215238 1.5751107 8.5625 3.375 C7.45841797 3.24931641 7.45841797 3.24931641 6.33203125 3.12109375 C5.35621094 3.01925781 4.38039062 2.91742188 3.375 2.8125 C2.41207031 2.70808594 1.44914063 2.60367188 0.45703125 2.49609375 C-2.37983377 2.37741249 -4.69173671 2.69734361 -7.4375 3.375 C-5.09054673 0.54066027 -3.66095723 -0.03704173 0 0 Z " fill="#DCDCE4" transform="translate(172.4375,153.625)"/>
<path d="M0 0 C4.83256305 0.41421969 6.82679218 2.46413986 10 6 C8.02 6 6.04 6 4 6 C3.67 4.35 3.34 2.7 3 1 C2.01 0.67 1.02 0.34 0 0 Z " fill="#8D8E9F" transform="translate(174,160)"/>
<path d="M0 0 C0.33 0 0.66 0 1 0 C1.06058594 0.60328125 1.12117187 1.2065625 1.18359375 1.828125 C1.26738281 2.62734375 1.35117188 3.4265625 1.4375 4.25 C1.51871094 5.03890625 1.59992188 5.8278125 1.68359375 6.640625 C1.97634993 8.82364639 2.42064419 10.8773182 3 13 C2.01 12.67 1.02 12.34 0 12 C0 8.04 0 4.08 0 0 Z " fill="#BBBBC8" transform="translate(156,165)"/>
<path d="M0 0 C0 0.99 0 1.98 0 3 C-2.3125 4.75 -2.3125 4.75 -5 6 C-5.99 5.67 -6.98 5.34 -8 5 C-4.04 2.525 -4.04 2.525 0 0 Z " fill="#E5E4EB" transform="translate(310,202)"/>
<path d="M0 0 C0.66 0.33 1.32 0.66 2 1 C1.814375 1.598125 1.62875 2.19625 1.4375 2.8125 C0.77906313 5.16408762 0.77906313 5.16408762 2 8 C1.01 7.67 0.02 7.34 -1 7 C-1.625 4.625 -1.625 4.625 -2 2 C-1.34 1.34 -0.68 0.68 0 0 Z " fill="#E0E1E8" transform="translate(190,197)"/>
</svg>
