<svg id="svg" version="1.1" xmlns="http://www.w3.org/2000/svg" xmlns:xlink="http://www.w3.org/1999/xlink" width="400" height="400" viewBox="0, 0, 400,400"><g id="svgg"><path id="path0" d="M273.640 100.928 C 273.537 101.031,271.051 101.287,268.115 101.496 C 260.340 102.050,256.518 102.509,250.000 103.671 C 248.163 103.999,247.183 104.204,243.519 105.024 C 239.306 105.966,229.331 108.950,228.061 109.647 C 227.707 109.841,227.163 110.000,226.852 110.000 C 226.541 110.000,225.997 110.147,225.643 110.327 C 225.289 110.507,224.583 110.818,224.074 111.018 C 220.534 112.410,218.537 113.313,212.963 116.043 C 210.009 117.489,207.537 118.804,207.469 118.966 C 207.401 119.127,207.180 119.259,206.977 119.259 C 206.616 119.259,195.918 126.157,195.556 126.624 C 195.454 126.755,194.116 127.813,192.583 128.975 C 191.050 130.136,189.465 131.384,189.061 131.747 C 188.658 132.110,186.912 133.602,185.182 135.062 C 181.697 138.003,171.405 148.370,167.962 152.407 C 166.746 153.833,165.658 155.083,165.543 155.185 C 165.428 155.287,164.934 155.954,164.444 156.667 C 163.955 157.380,163.458 158.046,163.341 158.148 C 161.617 159.644,152.200 173.994,149.654 179.004 L 148.753 180.778 183.913 215.945 C 203.251 235.286,219.265 251.111,219.499 251.111 C 219.907 251.111,222.225 249.947,225.370 248.163 C 227.199 247.125,238.087 239.981,239.087 239.163 C 239.736 238.631,241.951 236.852,246.481 233.224 C 255.691 225.846,269.015 211.377,275.370 201.851 C 275.981 200.935,276.773 199.862,277.130 199.467 C 277.486 199.072,277.778 198.531,277.778 198.263 C 277.778 197.996,277.944 197.778,278.148 197.778 C 278.352 197.778,278.519 197.528,278.519 197.222 C 278.519 196.917,278.666 196.667,278.846 196.667 C 279.026 196.667,279.268 196.375,279.385 196.019 C 279.502 195.662,280.045 194.620,280.592 193.704 C 281.495 192.191,281.984 191.333,284.135 187.489 C 284.509 186.821,284.815 186.029,284.815 185.729 C 284.815 185.430,284.981 185.185,285.185 185.185 C 285.389 185.185,285.556 184.951,285.556 184.665 C 285.556 184.378,285.913 183.420,286.349 182.535 C 286.785 181.650,287.268 180.593,287.422 180.185 C 287.576 179.778,287.955 178.861,288.265 178.148 C 289.369 175.604,291.852 168.601,291.852 168.031 C 291.852 167.712,291.999 167.360,292.180 167.249 C 292.360 167.137,292.596 166.586,292.705 166.023 C 292.813 165.460,293.093 164.333,293.327 163.519 C 293.561 162.704,293.909 161.412,294.099 160.648 C 294.289 159.884,294.622 158.551,294.838 157.685 C 295.054 156.819,295.379 155.361,295.560 154.444 C 295.740 153.528,296.071 151.861,296.294 150.741 C 297.986 142.257,299.176 131.105,299.515 120.556 C 299.955 106.885,297.651 102.307,289.744 101.135 C 287.085 100.742,273.995 100.573,273.640 100.928 M242.124 134.112 C 248.896 135.677,252.670 137.627,257.233 141.916 C 259.598 144.139,262.593 148.024,262.593 148.869 C 262.593 149.083,262.759 149.259,262.963 149.259 C 263.167 149.259,263.333 149.504,263.333 149.804 C 263.333 150.103,263.667 150.941,264.074 151.667 C 264.481 152.392,264.815 153.233,264.815 153.535 C 264.815 153.837,264.962 154.374,265.141 154.727 C 266.273 156.956,266.742 165.781,265.902 169.031 C 264.946 172.729,264.701 173.446,263.546 175.926 C 261.255 180.849,256.743 185.902,252.609 188.176 C 252.026 188.497,251.158 189.013,250.681 189.323 C 244.575 193.288,232.628 193.695,224.938 190.198 C 218.599 187.316,210.000 178.561,210.000 174.989 C 210.000 174.689,209.833 174.444,209.630 174.444 C 209.426 174.444,209.259 174.038,209.259 173.540 C 209.259 173.043,209.111 172.545,208.930 172.433 C 207.339 171.450,207.294 157.869,208.867 153.889 C 210.410 149.987,210.812 149.203,212.704 146.410 C 214.396 143.911,216.279 141.942,219.280 139.531 C 220.836 138.281,226.671 135.400,228.704 134.878 C 229.519 134.668,230.769 134.336,231.481 134.138 C 233.290 133.638,240.001 133.621,242.124 134.112 M233.704 146.458 C 219.954 149.408,214.906 166.890,225.244 175.757 C 226.895 177.173,229.576 178.889,230.137 178.889 C 230.445 178.889,230.789 179.037,230.901 179.218 C 231.386 180.004,238.470 180.447,240.926 179.846 C 243.852 179.130,246.175 177.851,248.577 175.633 C 260.988 164.176,250.156 142.928,233.704 146.458 M144.074 155.210 C 141.935 155.354,138.305 155.597,136.008 155.751 C 133.710 155.906,131.742 156.175,131.634 156.349 C 131.526 156.524,131.112 156.667,130.714 156.667 C 130.316 156.667,129.701 156.814,129.347 156.994 C 128.993 157.174,128.217 157.549,127.623 157.827 C 125.328 158.901,122.873 161.946,116.465 171.667 C 103.426 191.444,101.591 194.315,101.301 195.390 C 100.702 197.607,101.121 202.963,101.894 202.963 C 102.074 202.963,102.222 203.185,102.222 203.457 C 102.222 205.005,106.647 208.190,109.462 208.669 C 113.723 209.393,120.523 210.361,123.056 210.603 C 125.141 210.802,125.185 210.787,125.185 209.870 C 125.185 209.354,125.352 208.830,125.556 208.704 C 125.759 208.578,125.926 207.955,125.926 207.319 C 125.926 206.684,126.081 205.652,126.271 205.026 C 126.461 204.401,126.817 203.139,127.062 202.222 C 127.307 201.306,127.649 200.056,127.823 199.444 C 128.191 198.144,130.645 190.896,131.083 189.815 C 131.805 188.030,132.332 186.807,132.636 186.209 C 132.816 185.855,132.963 185.313,132.963 185.005 C 132.963 184.697,133.130 184.444,133.333 184.444 C 133.537 184.444,133.704 184.183,133.704 183.864 C 133.704 183.010,139.539 171.199,140.371 170.370 C 140.473 170.269,140.806 169.686,141.112 169.075 C 142.031 167.237,145.117 162.320,147.632 158.687 C 150.348 154.765,150.338 154.792,148.981 154.883 C 148.421 154.920,146.213 155.067,144.074 155.210 M142.733 193.981 C 142.619 194.338,142.385 194.963,142.213 195.370 C 142.041 195.778,141.700 196.778,141.455 197.593 C 141.209 198.407,140.884 199.407,140.732 199.815 C 140.579 200.222,140.250 201.306,139.999 202.222 C 139.749 203.139,139.407 204.306,139.240 204.815 C 139.072 205.324,138.609 207.157,138.210 208.889 C 136.432 216.595,136.334 218.942,137.667 221.790 C 138.435 223.429,177.071 262.222,177.936 262.222 C 178.256 262.222,178.519 262.371,178.519 262.552 C 178.519 262.943,180.698 263.386,182.778 263.417 C 184.392 263.441,187.460 262.886,193.148 261.542 C 196.481 260.755,204.611 258.105,205.055 257.661 C 205.194 257.522,205.604 257.407,205.966 257.407 C 207.809 257.407,205.488 254.934,175.512 224.957 C 144.483 193.926,143.152 192.668,142.733 193.981 M121.448 236.204 C 114.415 242.500,101.645 255.887,101.246 257.383 C 100.167 261.424,104.054 265.303,107.908 264.031 C 109.350 263.555,127.442 246.111,129.907 242.820 C 133.929 237.452,126.524 231.660,121.448 236.204 M240.556 253.188 C 238.111 254.883,235.903 256.275,235.648 256.283 C 235.394 256.290,235.185 256.444,235.185 256.623 C 235.185 256.803,234.894 257.046,234.537 257.163 C 234.181 257.279,233.222 257.779,232.407 258.272 C 226.193 262.036,212.102 268.889,210.577 268.889 C 210.284 268.889,209.941 269.056,209.815 269.259 C 209.689 269.463,209.212 269.630,208.756 269.630 C 208.299 269.630,207.768 269.766,207.574 269.933 C 207.381 270.100,205.972 270.620,204.444 271.089 C 202.917 271.557,201.333 272.074,200.926 272.238 C 200.519 272.403,199.769 272.621,199.259 272.724 C 198.750 272.827,197.667 273.100,196.852 273.331 C 195.087 273.832,192.531 274.432,190.741 274.766 C 189.206 275.053,188.937 276.059,189.589 279.074 C 189.809 280.093,190.399 283.426,190.900 286.481 C 192.187 294.336,193.474 296.650,197.475 298.304 C 198.355 298.667,199.363 299.114,199.717 299.297 C 200.541 299.723,203.228 299.730,203.489 299.307 C 203.599 299.130,204.152 298.892,204.718 298.779 C 205.285 298.665,207.043 297.727,208.626 296.694 C 210.209 295.660,211.666 294.815,211.863 294.815 C 212.061 294.815,212.222 294.648,212.222 294.444 C 212.222 294.241,212.458 294.074,212.747 294.074 C 213.035 294.074,213.327 293.939,213.395 293.775 C 213.463 293.610,219.179 289.759,226.097 285.217 C 240.768 275.585,242.046 274.418,243.530 269.294 C 244.110 267.291,245.293 254.281,245.120 251.813 L 245.000 250.107 240.556 253.188 M140.556 252.276 C 139.032 253.103,101.804 290.565,101.275 291.804 C 99.324 296.369,104.167 301.124,108.442 298.842 C 110.286 297.858,147.778 260.408,147.778 259.551 C 147.778 259.211,147.944 258.830,148.148 258.704 C 148.352 258.578,148.519 257.911,148.519 257.222 C 148.519 256.533,148.352 255.867,148.148 255.741 C 147.944 255.615,147.778 255.264,147.778 254.962 C 147.778 252.827,142.890 251.009,140.556 252.276 M158.729 269.531 C 156.998 269.787,136.440 290.523,136.095 292.361 C 135.122 297.550,140.131 300.986,144.465 298.101 C 145.635 297.323,163.863 279.114,164.825 277.764 C 167.231 274.384,164.189 268.788,160.231 269.315 C 160.002 269.345,159.326 269.443,158.729 269.531 " stroke="none" fill="#a4a4bc" fill-rule="evenodd"></path><path id="path1" d="M0.000 200.000 L 0.000 400.000 200.000 400.000 L 400.000 400.000 400.000 200.000 L 400.000 0.000 200.000 0.000 L 0.000 0.000 0.000 200.000 M293.210 101.133 C 295.624 102.161,298.718 105.397,299.280 107.480 C 299.842 109.564,299.531 136.460,298.902 140.185 C 297.457 148.742,296.557 153.568,295.898 156.296 C 295.676 157.213,295.408 158.589,295.301 159.354 C 295.194 160.119,294.958 160.838,294.776 160.950 C 294.594 161.063,294.444 161.635,294.444 162.222 C 294.444 162.809,294.278 163.393,294.074 163.519 C 293.870 163.644,293.704 164.080,293.704 164.486 C 293.704 165.952,289.358 178.143,287.747 181.199 C 287.560 181.552,287.407 182.094,287.407 182.402 C 287.407 182.711,287.241 182.963,287.037 182.963 C 286.833 182.963,286.667 183.190,286.667 183.468 C 286.667 184.102,283.208 190.866,281.244 194.074 C 280.433 195.398,279.530 196.898,279.237 197.407 C 278.944 197.917,278.620 198.417,278.519 198.519 C 278.417 198.620,278.104 199.120,277.823 199.630 C 277.326 200.532,272.632 207.038,272.212 207.407 C 272.096 207.509,271.601 208.176,271.111 208.889 C 270.621 209.602,270.130 210.269,270.018 210.370 C 269.906 210.472,268.981 211.552,267.963 212.770 C 260.317 221.911,247.272 234.269,240.000 239.260 C 239.287 239.749,238.620 240.249,238.519 240.371 C 238.229 240.717,229.956 246.332,228.611 247.095 C 227.949 247.470,226.782 248.137,226.019 248.576 C 222.280 250.724,220.027 251.852,219.476 251.852 C 219.143 251.852,202.942 235.924,183.475 216.457 C 146.030 179.011,147.118 180.191,148.826 178.893 C 148.962 178.789,149.635 177.620,150.321 176.296 C 152.647 171.804,160.086 160.877,164.750 155.101 C 168.835 150.043,178.600 139.767,182.561 136.356 C 183.665 135.407,184.915 134.295,185.339 133.886 C 186.473 132.793,193.557 127.147,194.732 126.400 C 195.287 126.047,195.824 125.661,195.926 125.542 C 196.210 125.210,203.385 120.370,203.592 120.370 C 203.692 120.370,204.245 120.035,204.821 119.625 C 207.034 118.050,217.194 112.919,220.926 111.493 C 221.333 111.338,222.167 110.999,222.778 110.741 C 224.216 110.133,225.075 109.806,226.667 109.259 C 227.380 109.014,228.296 108.685,228.704 108.527 C 229.675 108.149,235.111 106.424,236.296 106.116 C 236.806 105.984,237.806 105.709,238.519 105.506 C 245.331 103.561,254.696 101.901,263.094 101.148 C 265.304 100.950,267.207 100.694,267.322 100.579 C 268.013 99.888,291.465 100.390,293.210 101.133 M232.778 134.807 C 226.908 135.583,221.309 138.339,217.069 142.541 C 213.579 145.998,213.243 146.496,209.952 153.051 C 209.775 153.404,209.630 153.996,209.630 154.365 C 209.630 154.735,209.480 155.195,209.297 155.389 C 208.466 156.269,207.909 164.972,208.506 167.766 C 209.172 170.881,209.667 172.710,210.036 173.421 C 210.220 173.775,210.370 174.316,210.370 174.625 C 210.370 174.933,210.537 175.185,210.741 175.185 C 210.944 175.185,211.111 175.432,211.111 175.734 C 211.111 177.508,219.782 187.407,221.336 187.407 C 221.455 187.407,221.995 187.717,222.535 188.095 C 230.294 193.522,244.165 192.988,253.333 186.911 C 256.474 184.829,262.963 177.166,262.963 175.539 C 262.963 175.339,263.110 174.886,263.290 174.532 C 265.226 170.727,266.091 164.565,265.360 159.792 C 264.746 155.784,264.483 154.490,264.085 153.519 C 260.195 144.030,253.917 138.301,244.074 135.257 C 242.322 134.716,235.520 134.445,232.778 134.807 M242.778 146.373 C 259.245 152.065,258.706 173.979,241.941 180.373 C 240.443 180.944,232.668 180.964,232.102 180.398 C 231.883 180.179,231.409 180.000,231.048 180.000 C 228.537 180.000,222.982 175.168,220.987 171.248 C 219.288 167.909,218.587 160.944,219.681 158.258 C 221.213 154.497,222.091 153.063,224.169 150.933 C 229.254 145.721,236.062 144.052,242.778 146.373 M151.111 154.426 C 151.111 154.620,149.202 157.676,146.868 161.217 C 144.534 164.758,142.037 168.724,141.318 170.031 C 139.855 172.692,134.155 184.172,133.656 185.463 C 133.478 185.921,133.189 186.671,133.013 187.130 C 132.836 187.588,132.520 188.380,132.309 188.889 C 132.099 189.398,131.726 190.398,131.481 191.111 C 131.237 191.824,130.893 192.741,130.718 193.148 C 130.315 194.087,128.929 198.297,128.462 200.000 C 128.266 200.713,127.937 201.880,127.729 202.593 C 127.366 203.840,126.955 205.612,126.484 207.963 C 125.745 211.652,125.536 211.951,123.909 211.673 C 119.915 210.989,113.970 210.099,111.481 209.811 C 106.531 209.239,102.922 206.917,101.162 203.173 C 100.113 200.941,100.049 196.177,101.041 194.149 C 101.917 192.358,102.719 190.972,103.014 190.741 C 103.143 190.639,103.560 190.041,103.940 189.412 C 104.319 188.782,105.064 187.616,105.594 186.819 C 106.125 186.022,110.324 179.674,114.926 172.713 C 124.294 158.540,124.664 158.132,130.185 155.897 C 131.196 155.488,133.329 155.251,139.562 154.855 C 142.479 154.669,144.965 154.418,145.087 154.296 C 145.457 153.926,151.111 154.048,151.111 154.426 M176.073 224.407 C 208.130 256.465,209.351 257.778,207.110 257.778 C 206.731 257.778,206.309 257.888,206.174 258.024 C 205.612 258.586,198.987 260.815,194.722 261.876 C 193.958 262.067,192.625 262.399,191.759 262.616 C 186.811 263.853,180.872 264.417,179.474 263.782 C 179.050 263.590,178.214 263.202,177.616 262.920 C 175.445 261.897,137.951 223.956,136.885 221.703 C 135.848 219.510,135.604 216.305,136.280 213.747 C 136.474 213.010,136.904 211.157,137.235 209.630 C 137.566 208.102,137.971 206.435,138.135 205.926 C 138.299 205.417,138.638 204.250,138.888 203.333 C 139.139 202.417,139.472 201.333,139.630 200.926 C 139.787 200.519,140.130 199.435,140.393 198.519 C 140.655 197.602,141.007 196.694,141.176 196.500 C 141.344 196.306,141.481 195.846,141.481 195.476 C 141.481 195.107,141.636 194.515,141.825 194.162 C 142.014 193.808,142.258 193.227,142.369 192.870 C 142.848 191.323,145.081 193.412,176.073 224.407 M126.852 233.704 C 126.978 233.907,127.337 234.074,127.650 234.074 C 129.906 234.074,133.180 240.246,131.481 241.296 C 131.278 241.422,131.111 241.813,131.111 242.165 C 131.111 242.517,126.141 247.758,120.067 253.810 L 109.022 264.815 106.728 264.815 C 101.898 264.815,98.851 260.408,100.769 256.197 C 101.409 254.791,122.274 234.261,123.519 233.813 C 124.969 233.290,126.564 233.237,126.852 233.704 M246.079 251.144 C 246.029 254.201,245.259 263.922,244.825 266.974 C 244.347 270.330,242.733 273.777,240.641 275.908 C 239.236 277.340,216.779 292.605,215.648 292.898 C 215.394 292.963,215.185 293.172,215.185 293.360 C 215.185 293.549,214.935 293.704,214.630 293.704 C 214.324 293.704,214.074 293.870,214.074 294.074 C 214.074 294.278,213.856 294.444,213.588 294.444 C 213.321 294.444,212.745 294.778,212.308 295.185 C 211.870 295.593,211.403 295.926,211.269 295.926 C 211.135 295.926,210.229 296.510,209.256 297.224 C 201.239 303.110,191.867 298.972,190.380 288.889 C 190.154 287.361,189.803 285.028,189.598 283.704 C 189.393 282.380,189.078 280.296,188.898 279.074 C 188.717 277.852,188.461 276.426,188.329 275.906 C 188.052 274.814,188.976 274.232,191.852 273.687 C 192.769 273.513,194.269 273.184,195.185 272.955 C 196.102 272.726,197.395 272.449,198.059 272.340 C 198.723 272.230,199.358 271.992,199.470 271.811 C 199.582 271.630,200.082 271.481,200.582 271.481 C 201.082 271.481,201.781 271.335,202.135 271.157 C 202.488 270.978,203.444 270.634,204.259 270.391 C 205.074 270.149,206.074 269.809,206.481 269.635 C 206.889 269.461,208.472 268.863,210.000 268.306 C 211.528 267.748,213.824 266.818,215.102 266.239 C 216.380 265.659,217.672 265.185,217.972 265.185 C 218.273 265.185,218.519 265.019,218.519 264.815 C 218.519 264.611,218.749 264.444,219.032 264.444 C 219.581 264.444,224.016 262.207,228.459 259.689 C 229.954 258.841,231.257 258.148,231.355 258.148 C 231.453 258.148,232.260 257.648,233.148 257.037 C 234.036 256.426,234.941 255.926,235.159 255.926 C 235.377 255.926,235.556 255.759,235.556 255.556 C 235.556 255.352,235.764 255.179,236.019 255.171 C 236.273 255.163,238.481 253.755,240.926 252.041 C 246.023 248.468,246.122 248.451,246.079 251.144 M146.053 251.916 C 148.897 253.780,149.872 257.929,148.069 260.498 C 147.086 261.900,110.952 298.104,109.640 299.003 C 104.868 302.270,98.094 296.137,100.795 290.994 C 101.322 289.992,138.537 252.691,139.922 251.778 C 141.380 250.817,144.482 250.886,146.053 251.916 M163.532 269.433 C 166.193 270.992,167.242 274.075,166.073 276.899 C 165.427 278.458,146.196 298.129,144.370 299.099 C 139.135 301.878,132.877 295.827,135.885 290.894 C 136.800 289.394,156.048 270.140,157.547 269.227 C 159.192 268.223,161.611 268.307,163.532 269.433 " stroke="none" fill="#fbfbfb" fill-rule="evenodd"></path><path id="path2" d="M279.352 100.644 C 280.523 100.718,282.440 100.718,283.611 100.644 C 284.782 100.571,283.824 100.510,281.481 100.510 C 279.139 100.510,278.181 100.571,279.352 100.644 M267.222 101.111 L 264.259 101.346 267.222 101.381 C 268.852 101.401,271.019 101.287,272.037 101.128 L 273.889 100.840 272.037 100.858 C 271.019 100.868,268.852 100.982,267.222 101.111 M288.179 100.880 C 288.264 100.956,289.333 101.111,290.556 101.225 C 292.017 101.361,292.397 101.328,291.667 101.130 C 290.524 100.820,287.903 100.632,288.179 100.880 M259.815 101.852 L 257.963 102.106 260.000 102.127 C 261.120 102.139,262.454 102.015,262.963 101.852 C 264.174 101.464,262.643 101.464,259.815 101.852 M254.444 102.593 L 253.148 102.865 254.444 102.888 C 255.157 102.901,256.074 102.768,256.481 102.593 L 257.222 102.274 256.481 102.297 C 256.074 102.310,255.157 102.443,254.444 102.593 M250.185 103.333 L 249.074 103.616 250.185 103.654 C 250.796 103.675,251.546 103.531,251.852 103.333 C 252.540 102.889,251.933 102.889,250.185 103.333 M295.556 103.120 C 295.556 103.256,295.993 103.805,296.528 104.339 C 297.063 104.874,297.809 105.992,298.186 106.823 C 298.564 107.653,298.876 108.074,298.881 107.758 C 298.890 107.073,297.054 104.103,296.174 103.381 C 295.834 103.101,295.556 102.984,295.556 103.120 M246.481 104.074 L 245.741 104.392 246.481 104.413 C 246.889 104.424,247.472 104.272,247.778 104.074 C 248.514 103.598,247.589 103.598,246.481 104.074 M243.148 104.815 L 242.407 105.133 243.148 105.153 C 243.556 105.165,244.139 105.012,244.444 104.815 C 245.181 104.339,244.255 104.339,243.148 104.815 M240.000 105.556 C 239.264 106.031,240.189 106.031,241.296 105.556 L 242.037 105.237 241.296 105.217 C 240.889 105.206,240.306 105.358,240.000 105.556 M237.407 106.296 C 236.671 106.772,237.596 106.772,238.704 106.296 L 239.444 105.978 238.704 105.958 C 238.296 105.946,237.713 106.099,237.407 106.296 M234.815 107.054 C 234.409 107.329,234.559 107.363,235.370 107.181 C 236.732 106.877,237.028 106.665,236.080 106.672 C 235.690 106.675,235.120 106.847,234.815 107.054 M230.272 108.412 C 229.301 108.736,228.574 109.068,228.657 109.151 C 228.826 109.320,232.593 108.142,232.593 107.920 C 232.593 107.692,232.149 107.786,230.272 108.412 M298.959 109.630 C 298.989 111.849,299.538 113.539,299.560 111.481 C 299.570 110.565,299.434 109.481,299.259 109.074 C 299.003 108.478,298.944 108.587,298.959 109.630 M226.852 109.630 C 226.138 109.937,226.140 109.949,226.923 109.974 C 227.369 109.988,227.837 109.833,227.963 109.630 C 228.234 109.192,227.871 109.192,226.852 109.630 M213.770 115.230 C 211.260 116.466,209.268 117.540,209.344 117.615 C 209.419 117.691,211.639 116.680,214.278 115.369 C 216.916 114.058,218.907 112.985,218.704 112.984 C 218.500 112.983,216.280 113.994,213.770 115.230 M200.961 122.586 C 198.803 124.009,197.037 125.256,197.037 125.358 C 197.037 125.513,204.688 120.605,205.154 120.150 C 205.815 119.507,204.287 120.394,200.961 122.586 M299.172 126.667 C 299.022 127.176,298.913 128.593,298.931 129.815 C 298.963 132.029,298.965 132.032,299.311 130.556 C 299.736 128.750,299.608 125.186,299.172 126.667 M189.956 130.648 C 185.573 134.200,183.704 135.837,183.704 136.125 C 183.704 136.311,187.123 133.514,188.808 131.950 C 189.079 131.698,190.292 130.730,191.502 129.799 C 193.424 128.320,193.987 127.778,193.601 127.778 C 193.545 127.778,191.904 129.069,189.956 130.648 M232.143 134.008 C 231.795 134.146,233.913 134.259,236.852 134.259 C 239.790 134.259,241.909 134.146,241.560 134.008 C 241.211 133.869,239.093 133.756,236.852 133.756 C 234.611 133.756,232.492 133.869,232.143 134.008 M298.367 136.610 C 298.218 138.106,298.177 139.411,298.275 139.509 C 298.519 139.754,299.010 134.991,298.803 134.380 C 298.712 134.110,298.515 135.113,298.367 136.610 M228.889 134.820 C 228.498 135.076,228.718 135.114,229.630 134.946 C 231.227 134.653,231.528 134.443,230.340 134.450 C 229.847 134.453,229.194 134.620,228.889 134.820 M245.111 135.190 C 246.394 135.568,248.299 136.304,249.343 136.824 C 250.387 137.345,251.316 137.696,251.407 137.605 C 251.803 137.209,244.813 134.438,243.519 134.478 C 243.111 134.491,243.828 134.811,245.111 135.190 M225.185 136.129 C 223.000 137.263,223.407 137.262,226.141 136.127 C 227.347 135.626,228.000 135.227,227.593 135.240 C 227.185 135.253,226.102 135.653,225.185 136.129 M178.638 140.659 C 173.964 145.159,170.243 149.136,167.455 152.611 C 165.684 154.820,166.930 153.587,170.095 150.000 C 170.903 149.083,174.252 145.625,177.537 142.315 C 180.822 139.005,183.429 136.301,183.329 136.307 C 183.230 136.313,181.119 138.272,178.638 140.659 M221.203 138.232 C 220.134 138.890,219.259 139.551,219.259 139.701 C 219.259 139.852,220.051 139.454,221.019 138.817 C 224.164 136.747,224.295 136.331,221.203 138.232 M252.037 138.031 C 252.825 138.761,255.150 140.370,255.418 140.370 C 255.573 140.370,255.125 139.942,254.424 139.418 C 253.089 138.420,251.398 137.438,252.037 138.031 M216.691 141.715 C 214.107 144.038,209.984 149.900,210.008 151.215 C 210.013 151.463,210.582 150.618,211.273 149.336 C 212.886 146.342,213.987 144.916,216.777 142.203 C 219.463 139.591,219.406 139.274,216.691 141.715 M297.665 142.222 C 297.535 143.343,297.250 145.343,297.031 146.667 C 296.369 150.681,296.251 152.227,296.792 149.815 C 297.544 146.464,298.272 141.297,298.075 140.707 C 297.979 140.420,297.795 141.102,297.665 142.222 M257.593 142.582 C 258.611 143.696,259.542 144.696,259.661 144.804 C 259.779 144.912,260.488 145.914,261.235 147.032 C 261.982 148.150,262.593 148.932,262.593 148.771 C 262.593 148.093,259.551 144.121,257.720 142.407 L 255.741 140.556 257.593 142.582 M239.079 146.264 C 244.945 147.376,248.964 150.042,251.663 154.608 C 252.378 155.818,252.963 156.636,252.963 156.425 C 252.963 153.000,245.178 146.908,239.599 145.967 C 235.777 145.322,235.363 145.559,239.079 146.264 M232.778 146.296 C 231.787 146.548,231.767 146.579,232.593 146.579 C 233.102 146.579,234.019 146.452,234.630 146.296 C 235.621 146.044,235.641 146.014,234.815 146.014 C 234.306 146.014,233.389 146.141,232.778 146.296 M222.397 153.617 C 221.193 155.505,220.368 157.256,220.374 157.913 C 220.376 158.144,220.792 157.444,221.298 156.356 C 221.804 155.268,222.571 153.884,223.002 153.279 C 223.432 152.674,223.720 152.115,223.641 152.036 C 223.562 151.957,223.002 152.668,222.397 153.617 M295.786 152.792 C 295.659 153.123,295.574 153.922,295.596 154.567 C 295.631 155.590,295.678 155.529,295.959 154.097 C 296.290 152.412,296.198 151.720,295.786 152.792 M208.765 153.951 C 208.630 154.086,208.529 154.545,208.542 154.969 C 208.564 155.679,208.594 155.669,208.920 154.854 C 209.283 153.947,209.208 153.508,208.765 153.951 M144.815 154.837 C 142.419 155.058,142.585 155.078,146.019 154.980 C 148.208 154.917,150.000 154.950,150.000 155.052 C 150.000 155.154,149.488 156.017,148.863 156.970 C 148.130 158.087,148.035 158.343,148.594 157.691 C 149.072 157.134,149.760 156.175,150.123 155.561 L 150.783 154.444 149.188 154.512 C 148.310 154.550,146.343 154.696,144.815 154.837 M264.841 154.700 C 264.924 155.662,265.504 156.477,265.530 155.670 C 265.544 155.224,265.389 154.756,265.185 154.630 C 264.981 154.504,264.827 154.536,264.841 154.700 M135.185 155.556 L 132.778 155.798 135.185 155.841 C 136.509 155.864,138.259 155.745,139.074 155.577 L 140.556 155.270 139.074 155.292 C 138.259 155.303,136.509 155.422,135.185 155.556 M162.709 158.426 C 160.070 161.872,158.782 163.704,158.998 163.704 C 159.086 163.704,160.048 162.495,161.137 161.019 C 162.225 159.542,163.214 158.250,163.335 158.148 C 163.725 157.819,165.241 155.556,165.071 155.556 C 164.981 155.556,163.918 156.847,162.709 158.426 M130.556 156.296 C 129.841 156.603,129.844 156.616,130.626 156.641 C 131.073 156.655,131.541 156.500,131.667 156.296 C 131.937 155.858,131.575 155.858,130.556 156.296 M295.046 156.496 C 294.919 156.827,294.832 157.459,294.853 157.901 C 294.877 158.408,295.002 158.228,295.195 157.410 C 295.518 156.034,295.430 155.494,295.046 156.496 M208.009 156.866 C 207.882 157.197,207.793 157.829,207.811 158.271 C 207.835 158.840,207.949 158.711,208.203 157.830 C 208.572 156.548,208.420 155.795,208.009 156.866 M265.795 158.704 C 265.919 159.722,266.083 160.625,266.159 160.710 C 266.448 161.035,266.228 158.297,265.907 157.593 C 265.680 157.094,265.644 157.457,265.795 158.704 M219.815 159.630 C 219.674 160.270,219.642 160.877,219.744 160.979 C 219.846 161.081,220.045 160.640,220.185 160.000 C 220.326 159.360,220.358 158.753,220.256 158.651 C 220.154 158.549,219.955 158.989,219.815 159.630 M124.200 160.098 C 123.584 160.757,122.712 161.880,122.261 162.593 L 121.441 163.889 122.294 162.783 C 122.764 162.176,123.695 161.112,124.364 160.419 C 125.033 159.727,125.522 159.102,125.450 159.030 C 125.378 158.959,124.816 159.439,124.200 160.098 M294.327 159.401 C 294.188 159.764,294.085 160.339,294.098 160.678 C 294.113 161.088,294.242 160.994,294.478 160.402 C 294.675 159.910,294.778 159.335,294.708 159.125 C 294.638 158.914,294.466 159.038,294.327 159.401 M253.871 163.077 C 253.881 165.279,253.997 166.695,254.130 166.225 C 254.449 165.092,254.438 161.166,254.112 160.000 C 253.970 159.491,253.861 160.875,253.871 163.077 M146.003 161.019 C 144.683 162.900,141.456 168.246,141.570 168.360 C 141.632 168.423,142.875 166.567,144.332 164.237 C 146.814 160.266,147.621 158.712,146.003 161.019 M207.513 163.148 C 207.516 164.167,207.588 164.539,207.673 163.976 C 207.758 163.413,207.756 162.580,207.668 162.125 C 207.580 161.669,207.511 162.130,207.513 163.148 M158.215 164.549 C 156.827 166.222,151.029 175.597,151.248 175.815 C 151.332 175.900,151.950 175.002,152.620 173.818 C 153.291 172.635,154.979 169.958,156.372 167.870 C 158.625 164.494,159.361 163.169,158.215 164.549 M292.778 165.185 C 292.639 165.623,292.608 166.065,292.710 166.167 C 292.812 166.269,293.009 165.994,293.148 165.556 C 293.287 165.117,293.318 164.676,293.216 164.574 C 293.114 164.472,292.917 164.747,292.778 165.185 M219.682 165.926 C 219.682 166.231,219.825 166.815,220.000 167.222 C 220.201 167.689,220.318 167.758,220.318 167.407 C 220.318 167.102,220.175 166.519,220.000 166.111 C 219.799 165.644,219.682 165.576,219.682 165.926 M265.790 167.365 C 265.648 168.258,265.609 169.066,265.705 169.161 C 265.953 169.410,266.403 166.801,266.211 166.224 C 266.122 165.959,265.933 166.473,265.790 167.365 M207.820 168.148 C 207.803 168.657,207.951 169.324,208.148 169.630 C 208.605 170.337,208.605 169.576,208.148 168.148 L 207.852 167.222 207.820 168.148 M252.264 170.569 C 251.258 172.807,250.490 173.844,248.375 175.823 C 246.926 177.179,246.282 177.912,246.944 177.453 C 249.827 175.451,254.096 169.504,253.636 168.132 C 253.571 167.939,252.954 169.036,252.264 170.569 M265.026 170.952 C 264.890 171.495,264.862 172.023,264.964 172.124 C 265.066 172.226,265.261 171.866,265.397 171.323 C 265.533 170.780,265.561 170.253,265.459 170.151 C 265.357 170.049,265.163 170.410,265.026 170.952 M221.111 170.497 C 221.111 170.664,221.683 171.662,222.382 172.715 C 223.715 174.722,225.926 177.055,225.926 176.455 C 225.926 176.262,225.597 175.899,225.195 175.648 C 224.793 175.397,223.710 174.067,222.788 172.692 C 221.866 171.318,221.111 170.330,221.111 170.497 M109.474 181.674 C 102.313 192.498,101.313 194.074,101.607 194.074 C 101.690 194.074,102.981 192.199,104.475 189.907 C 105.969 187.616,109.117 182.824,111.470 179.259 C 116.936 170.980,117.088 170.741,116.881 170.741 C 116.785 170.741,113.452 175.661,109.474 181.674 M290.256 172.849 C 289.908 173.790,289.703 174.641,289.802 174.741 C 289.901 174.840,290.085 174.605,290.211 174.220 C 290.337 173.834,290.613 173.055,290.825 172.488 C 291.037 171.921,291.139 171.386,291.051 171.298 C 290.963 171.210,290.605 171.908,290.256 172.849 M139.074 172.593 C 138.758 173.204,138.583 173.704,138.685 173.704 C 138.787 173.704,139.128 173.204,139.444 172.593 C 139.760 171.981,139.936 171.481,139.834 171.481 C 139.732 171.481,139.390 171.981,139.074 172.593 M135.935 178.625 C 134.708 181.187,133.712 183.419,133.722 183.586 C 133.732 183.752,134.809 181.730,136.115 179.091 C 137.421 176.452,138.417 174.219,138.328 174.130 C 138.239 174.041,137.162 176.064,135.935 178.625 M289.259 175.498 C 289.259 175.738,288.905 176.689,288.471 177.611 C 288.038 178.533,287.766 179.371,287.867 179.472 C 287.968 179.573,288.428 178.728,288.889 177.593 C 289.350 176.458,289.621 175.424,289.493 175.295 C 289.364 175.167,289.259 175.258,289.259 175.498 M261.831 178.436 C 261.130 179.602,259.306 181.879,257.778 183.496 C 256.171 185.198,255.550 186.026,256.304 185.462 C 257.021 184.925,257.938 184.097,258.341 183.621 C 260.279 181.335,261.852 179.295,261.852 179.069 C 261.852 178.931,262.203 178.324,262.633 177.721 C 263.063 177.118,263.345 176.555,263.261 176.470 C 263.176 176.386,262.533 177.271,261.831 178.436 M210.741 176.783 C 210.741 177.999,216.303 184.710,218.704 186.391 C 219.315 186.819,218.672 186.108,217.275 184.811 C 215.878 183.515,213.836 181.111,212.738 179.471 C 211.639 177.830,210.741 176.621,210.741 176.783 M226.640 177.184 C 227.142 177.794,229.259 179.070,229.259 178.762 C 229.259 178.682,228.551 178.150,227.685 177.579 C 226.795 176.992,226.341 176.820,226.640 177.184 M148.833 179.789 C 148.384 180.775,148.728 181.134,183.726 216.133 C 203.167 235.575,219.266 251.481,219.501 251.481 C 220.039 251.481,223.003 249.916,222.817 249.730 C 222.741 249.655,222.072 249.935,221.329 250.352 C 220.585 250.770,219.774 251.111,219.525 251.111 C 218.259 251.111,148.707 180.747,149.197 179.962 C 149.463 179.536,149.592 179.098,149.484 178.990 C 149.376 178.882,149.083 179.241,148.833 179.789 M232.222 180.000 C 233.650 180.457,234.411 180.457,233.704 180.000 C 233.398 179.803,232.731 179.655,232.222 179.672 L 231.296 179.703 232.222 180.000 M240.000 180.000 C 239.293 180.457,240.054 180.457,241.481 180.000 L 242.407 179.703 241.481 179.672 C 240.972 179.655,240.306 179.803,240.000 180.000 M235.840 180.639 C 236.506 180.721,237.506 180.720,238.062 180.635 C 238.619 180.551,238.074 180.483,236.852 180.485 C 235.630 180.487,235.174 180.556,235.840 180.639 M253.241 187.321 C 252.477 187.844,251.920 188.339,252.002 188.422 C 252.208 188.628,254.805 186.919,254.810 186.574 C 254.816 186.226,254.893 186.190,253.241 187.321 M283.000 189.466 C 282.572 190.190,282.219 190.899,282.214 191.040 C 282.209 191.181,281.880 191.713,281.481 192.222 C 281.083 192.731,280.754 193.306,280.749 193.500 C 280.735 194.114,281.340 193.253,282.756 190.648 C 284.172 188.041,284.351 187.175,283.000 189.466 M222.222 188.746 C 222.222 189.143,227.017 191.119,229.715 191.834 C 234.523 193.108,242.714 192.765,246.296 191.140 L 247.222 190.720 246.296 190.938 C 245.787 191.058,244.454 191.390,243.333 191.676 C 238.095 193.013,230.124 192.148,224.600 189.643 C 223.292 189.050,222.222 188.647,222.222 188.746 M142.840 192.840 C 142.378 193.301,142.590 193.635,143.241 193.471 C 144.060 193.265,207.270 256.360,206.879 256.994 C 206.738 257.221,206.309 257.407,205.926 257.407 C 205.543 257.407,205.133 257.563,205.015 257.754 C 204.882 257.969,205.259 257.969,206.009 257.754 C 206.674 257.563,207.260 257.407,207.312 257.407 C 208.153 257.407,202.498 251.570,175.462 224.536 C 157.892 206.967,143.420 192.593,143.302 192.593 C 143.183 192.593,142.975 192.704,142.840 192.840 M279.828 195.032 C 279.483 195.559,279.264 196.054,279.342 196.132 C 279.420 196.210,279.776 195.779,280.133 195.174 C 280.931 193.823,280.693 193.712,279.828 195.032 M100.952 195.397 C 100.816 195.940,100.788 196.467,100.890 196.569 C 100.992 196.671,101.187 196.310,101.323 195.767 C 101.459 195.224,101.487 194.697,101.385 194.595 C 101.283 194.493,101.089 194.854,100.952 195.397 M128.540 197.128 C 128.282 197.995,127.922 199.087,127.739 199.554 C 127.557 200.022,127.415 200.689,127.425 201.036 C 127.435 201.383,127.686 200.917,127.983 200.000 C 128.280 199.083,128.704 197.779,128.925 197.102 C 129.146 196.425,129.256 195.799,129.168 195.711 C 129.080 195.624,128.798 196.261,128.540 197.128 M100.471 198.519 C 100.471 199.435,100.543 199.810,100.632 199.352 C 100.720 198.894,100.720 198.144,100.632 197.685 C 100.543 197.227,100.471 197.602,100.471 198.519 M140.784 198.396 C 140.760 198.634,140.633 199.134,140.501 199.507 C 140.315 200.033,140.364 200.090,140.721 199.762 C 140.974 199.529,141.101 199.029,141.004 198.650 C 140.906 198.272,140.807 198.158,140.784 198.396 M275.100 202.142 C 274.341 203.306,273.206 204.968,272.580 205.833 C 271.953 206.699,271.510 207.407,271.595 207.407 C 271.743 207.407,274.495 203.742,276.254 201.204 C 276.712 200.542,276.951 200.005,276.784 200.012 C 276.618 200.019,275.860 200.977,275.100 202.142 M100.772 200.741 C 100.784 201.046,100.936 201.630,101.111 202.037 L 101.429 202.778 101.450 202.037 C 101.461 201.630,101.309 201.046,101.111 200.741 C 100.792 200.247,100.754 200.247,100.772 200.741 M139.905 201.111 C 139.785 201.620,139.262 203.537,138.744 205.370 C 138.225 207.204,137.806 209.037,137.813 209.444 C 137.821 209.852,138.063 209.269,138.352 208.148 C 139.104 205.233,139.661 203.297,140.080 202.148 C 140.281 201.599,140.372 200.932,140.284 200.667 C 140.195 200.402,140.025 200.602,139.905 201.111 M126.898 202.422 C 126.771 202.753,126.684 203.385,126.705 203.827 C 126.729 204.334,126.854 204.154,127.047 203.336 C 127.370 201.959,127.282 201.420,126.898 202.422 M102.109 204.116 C 102.852 205.395,105.467 207.790,106.085 207.756 C 106.303 207.744,106.148 207.536,105.741 207.293 C 104.531 206.573,102.222 204.085,102.222 203.503 C 102.222 203.206,102.046 202.963,101.831 202.963 C 101.616 202.963,101.741 203.481,102.109 204.116 M126.157 205.385 C 126.030 205.716,125.941 206.348,125.959 206.790 C 125.983 207.359,126.097 207.230,126.351 206.348 C 126.720 205.066,126.568 204.313,126.157 205.385 M270.474 208.490 C 270.241 208.864,268.612 210.898,266.854 213.011 C 265.096 215.123,264.443 216.019,265.403 215.000 C 267.777 212.480,271.248 208.162,271.055 207.969 C 270.969 207.882,270.707 208.117,270.474 208.490 M109.259 208.889 C 110.687 209.346,111.448 209.346,110.741 208.889 C 110.435 208.691,109.769 208.544,109.259 208.561 L 108.333 208.592 109.259 208.889 M125.432 208.765 C 125.296 208.901,125.185 209.401,125.185 209.877 C 125.185 210.658,125.021 210.741,123.457 210.741 C 121.390 210.741,121.451 210.934,123.604 211.209 C 125.143 211.406,125.177 211.386,125.538 210.077 C 125.911 208.725,125.879 208.319,125.432 208.765 M112.623 209.393 C 112.708 209.466,113.528 209.635,114.444 209.769 C 115.609 209.938,115.944 209.899,115.556 209.641 C 115.056 209.308,112.252 209.071,112.623 209.393 M117.438 210.133 C 117.523 210.206,118.426 210.372,119.444 210.501 C 120.709 210.661,121.120 210.621,120.741 210.374 C 120.239 210.047,117.070 209.816,117.438 210.133 M137.274 211.189 C 137.149 211.655,137.063 212.454,137.083 212.963 C 137.104 213.509,137.251 213.214,137.440 212.246 C 137.781 210.511,137.661 209.747,137.274 211.189 M136.530 214.907 C 136.218 216.069,136.251 219.356,136.580 219.871 C 136.729 220.106,136.854 218.898,136.857 217.186 C 136.863 213.769,136.853 213.700,136.530 214.907 M259.444 221.012 C 255.656 224.996,249.250 231.015,246.330 233.333 C 244.338 234.915,242.126 236.953,243.148 236.264 C 246.555 233.969,264.579 217.001,263.519 217.088 C 263.315 217.104,261.481 218.870,259.444 221.012 M137.045 221.044 C 137.041 221.313,137.524 222.230,138.118 223.081 C 139.185 224.610,176.662 262.222,177.118 262.222 C 177.247 262.222,168.568 253.431,157.831 242.685 C 146.953 231.798,138.032 222.574,137.682 221.852 C 137.336 221.139,137.050 220.776,137.045 221.044 M124.722 234.335 C 125.181 234.424,125.931 234.424,126.389 234.335 C 126.847 234.247,126.472 234.175,125.556 234.175 C 124.639 234.175,124.264 234.247,124.722 234.335 M120.946 236.111 C 119.976 237.028,119.324 237.771,119.498 237.763 C 119.944 237.742,123.481 234.444,123.058 234.444 C 122.867 234.444,121.916 235.194,120.946 236.111 M240.486 237.927 C 239.632 238.558,238.924 239.210,238.912 239.377 C 238.891 239.652,239.636 239.167,241.640 237.602 C 243.037 236.511,242.010 236.800,240.486 237.927 M130.847 239.815 C 130.849 240.833,130.921 241.206,131.007 240.643 C 131.092 240.080,131.089 239.247,131.001 238.791 C 130.914 238.336,130.844 238.796,130.847 239.815 M232.251 243.736 C 227.188 247.102,226.126 247.884,227.778 247.028 C 229.996 245.880,238.395 240.043,237.315 240.401 C 237.264 240.418,234.985 241.919,232.251 243.736 M129.890 242.814 C 129.524 243.303,129.359 243.704,129.523 243.704 C 129.846 243.704,130.868 242.223,130.674 242.037 C 130.609 241.975,130.256 242.325,129.890 242.814 M113.047 243.945 C 112.176 244.831,111.601 245.556,111.768 245.556 C 112.159 245.556,115.004 242.651,114.791 242.470 C 114.702 242.395,113.917 243.059,113.047 243.945 M125.556 247.407 C 123.706 249.241,122.328 250.741,122.493 250.741 C 122.658 250.741,124.286 249.241,126.111 247.407 C 127.936 245.574,129.314 244.074,129.173 244.074 C 129.033 244.074,127.405 245.574,125.556 247.407 M224.074 248.919 L 223.148 249.674 224.352 249.087 C 225.014 248.764,225.556 248.420,225.556 248.324 C 225.556 247.955,224.966 248.193,224.074 248.919 M245.185 251.914 C 245.185 254.679,245.370 254.623,245.693 251.759 C 245.844 250.416,245.795 249.630,245.559 249.630 C 245.348 249.630,245.185 250.625,245.185 251.914 M105.638 251.350 C 104.970 252.033,104.564 252.593,104.735 252.593 C 105.127 252.593,107.224 250.426,107.010 250.243 C 106.923 250.168,106.305 250.667,105.638 251.350 M140.185 252.186 C 139.574 252.573,130.574 261.446,120.185 271.906 L 101.296 290.923 120.741 271.595 C 141.011 251.446,140.864 251.572,143.726 251.956 C 144.554 252.067,145.096 252.007,144.978 251.817 C 144.598 251.201,141.347 251.452,140.185 252.186 M238.994 253.809 C 237.117 255.055,235.644 256.138,235.722 256.216 C 235.884 256.377,242.593 251.926,242.593 251.657 C 242.593 251.410,242.748 251.317,238.994 253.809 M117.495 255.429 C 115.812 257.128,114.566 258.519,114.726 258.519 C 115.114 258.519,120.933 252.654,120.721 252.477 C 120.630 252.402,119.178 253.730,117.495 255.429 M146.515 253.148 C 147.024 253.657,147.546 254.074,147.674 254.074 C 147.802 254.074,147.515 253.657,147.037 253.148 C 146.559 252.639,146.037 252.222,145.878 252.222 C 145.719 252.222,146.006 252.639,146.515 253.148 M100.994 256.808 C 100.855 257.171,100.751 257.746,100.764 258.086 C 100.780 258.495,100.908 258.402,101.145 257.810 C 101.342 257.318,101.445 256.743,101.375 256.532 C 101.305 256.321,101.133 256.445,100.994 256.808 M244.677 259.759 C 244.521 261.765,244.473 263.485,244.569 263.581 C 244.809 263.821,245.300 257.700,245.111 256.820 C 245.028 256.430,244.832 257.753,244.677 259.759 M202.407 258.717 C 200.912 259.402,201.806 259.403,203.383 258.718 C 204.069 258.421,204.380 258.184,204.074 258.193 C 203.769 258.201,203.019 258.437,202.407 258.717 M100.948 260.185 C 101.341 262.233,103.581 264.474,105.185 264.425 C 105.491 264.415,105.027 264.061,104.155 263.638 C 102.577 262.873,102.090 262.304,101.200 260.185 L 100.734 259.074 100.948 260.185 M227.037 260.957 C 225.509 261.853,224.392 262.587,224.554 262.589 C 224.924 262.594,230.370 259.618,230.370 259.411 C 230.370 259.084,229.710 259.391,227.037 260.957 M111.538 261.376 C 110.856 262.073,110.368 262.713,110.452 262.798 C 110.537 262.883,111.167 262.374,111.852 261.667 C 112.537 260.960,113.026 260.320,112.938 260.244 C 112.850 260.169,112.220 260.678,111.538 261.376 M197.222 260.370 L 196.481 260.689 197.222 260.709 C 197.630 260.720,198.213 260.568,198.519 260.370 C 199.255 259.895,198.329 259.895,197.222 260.370 M128.136 279.692 C 117.639 290.250,109.140 298.889,109.249 298.889 C 109.358 298.889,118.113 290.222,128.704 279.630 C 139.295 269.037,147.794 260.398,147.591 260.432 C 147.388 260.467,138.634 269.133,128.136 279.692 M194.815 261.111 C 194.321 261.430,194.321 261.470,194.815 261.470 C 195.120 261.470,195.620 261.309,195.926 261.111 C 196.420 260.792,196.420 260.752,195.926 260.752 C 195.620 260.752,195.120 260.914,194.815 261.111 M191.852 261.852 C 191.358 262.171,191.358 262.211,191.852 262.211 C 192.157 262.211,192.657 262.049,192.963 261.852 C 193.457 261.533,193.457 261.493,192.963 261.493 C 192.657 261.493,192.157 261.654,191.852 261.852 M188.519 262.593 C 187.811 263.050,188.572 263.050,190.000 262.593 L 190.926 262.296 190.000 262.265 C 189.491 262.248,188.824 262.395,188.519 262.593 M108.519 263.754 C 107.556 264.281,107.461 264.404,108.148 264.229 C 108.657 264.100,109.318 263.762,109.616 263.479 C 110.301 262.828,110.129 262.871,108.519 263.754 M179.815 263.333 C 180.922 263.809,181.847 263.809,181.111 263.333 C 180.806 263.136,180.222 262.983,179.815 262.995 L 179.074 263.015 179.815 263.333 M184.630 263.333 L 183.889 263.652 184.630 263.641 C 185.037 263.635,185.787 263.496,186.296 263.333 L 187.222 263.037 186.296 263.026 C 185.787 263.020,185.037 263.158,184.630 263.333 M244.129 266.111 C 243.995 269.256,242.390 272.998,240.185 275.310 C 239.440 276.092,238.905 276.807,238.998 276.899 C 240.186 278.087,244.700 268.809,244.347 265.903 C 244.194 264.638,244.192 264.639,244.129 266.111 M214.074 267.097 C 213.157 267.518,211.907 268.089,211.296 268.367 C 210.685 268.645,210.435 268.869,210.741 268.866 C 211.371 268.859,216.683 266.367,216.111 266.347 C 215.907 266.339,214.991 266.677,214.074 267.097 M158.704 269.270 C 158.119 269.560,158.241 269.597,159.285 269.444 C 161.376 269.138,162.881 269.622,164.331 271.067 C 165.181 271.915,165.517 272.111,165.246 271.600 C 164.229 269.689,160.520 268.368,158.704 269.270 M147.051 279.886 C 141.441 285.527,137.252 289.819,137.742 289.423 C 139.087 288.337,157.738 269.630,157.477 269.630 C 157.352 269.630,152.660 274.245,147.051 279.886 M199.815 272.222 C 199.101 272.529,199.103 272.541,199.886 272.567 C 200.332 272.581,200.800 272.426,200.926 272.222 C 201.197 271.784,200.834 271.784,199.815 272.222 M165.556 274.665 C 165.556 276.144,165.335 277.072,164.784 277.906 L 164.013 279.074 164.968 277.963 C 165.838 276.950,166.465 272.593,165.741 272.593 C 165.639 272.593,165.556 273.525,165.556 274.665 M194.259 273.704 L 193.519 274.022 194.259 274.042 C 194.667 274.054,195.250 273.901,195.556 273.704 C 196.292 273.228,195.367 273.228,194.259 273.704 M190.926 274.444 L 190.185 274.763 190.926 274.763 C 191.333 274.763,192.000 274.620,192.407 274.444 L 193.148 274.126 192.407 274.126 C 192.000 274.126,191.333 274.269,190.926 274.444 M188.889 275.741 C 188.889 276.250,188.953 276.667,189.031 276.667 C 189.109 276.667,189.253 276.250,189.350 275.741 C 189.447 275.231,189.383 274.815,189.208 274.815 C 189.032 274.815,188.889 275.231,188.889 275.741 M225.293 285.678 C 218.732 289.990,213.357 293.638,213.348 293.784 C 213.332 294.071,236.126 279.163,237.024 278.299 C 238.036 277.326,237.232 277.832,225.293 285.678 M189.322 279.074 C 189.328 279.481,189.467 280.231,189.630 280.741 L 189.926 281.667 189.937 280.741 C 189.943 280.231,189.805 279.481,189.630 279.074 L 189.311 278.333 189.322 279.074 M159.803 283.043 C 158.587 284.309,158.004 285.017,158.507 284.617 C 159.589 283.756,162.222 281.118,162.222 280.896 C 162.222 280.566,161.945 280.813,159.803 283.043 M190.081 283.519 C 190.077 284.130,190.207 285.046,190.370 285.556 L 190.667 286.481 190.660 285.556 C 190.656 285.046,190.526 284.130,190.370 283.519 L 190.088 282.407 190.081 283.519 M190.773 287.963 C 190.745 289.301,191.585 292.590,192.203 293.560 C 192.628 294.227,192.636 294.225,192.375 293.519 C 192.225 293.111,191.808 291.444,191.449 289.815 C 191.090 288.185,190.785 287.352,190.773 287.963 M152.025 290.820 L 149.815 293.122 151.898 291.283 C 153.643 289.743,154.719 288.519,154.329 288.519 C 154.278 288.519,153.241 289.554,152.025 290.820 M135.780 292.067 C 135.472 292.871,135.507 294.907,135.839 295.428 C 135.989 295.663,136.111 294.871,136.111 293.668 C 136.111 291.260,136.104 291.225,135.780 292.067 M193.024 295.185 C 193.722 296.323,197.017 298.886,197.778 298.883 C 198.083 298.881,197.603 298.463,196.711 297.953 C 195.819 297.443,194.497 296.403,193.773 295.642 C 192.922 294.748,192.657 294.586,193.024 295.185 M210.308 295.576 C 209.765 295.982,208.358 296.893,207.182 297.601 C 206.006 298.309,205.207 298.889,205.407 298.889 C 205.736 298.889,211.254 295.536,211.763 295.027 C 212.290 294.500,211.196 294.913,210.308 295.576 M145.427 297.237 C 144.440 298.146,143.780 298.889,143.961 298.889 C 144.142 298.889,145.026 298.139,145.926 297.222 C 148.016 295.092,147.749 295.100,145.427 297.237 M136.296 296.587 C 136.296 296.979,138.463 299.076,138.646 298.862 C 138.721 298.775,138.222 298.157,137.539 297.490 C 136.855 296.822,136.296 296.416,136.296 296.587 M102.222 297.963 C 102.701 298.472,103.222 298.889,103.381 298.889 C 103.540 298.889,103.253 298.472,102.744 297.963 C 102.235 297.454,101.713 297.037,101.585 297.037 C 101.457 297.037,101.744 297.454,102.222 297.963 M139.444 299.259 C 139.570 299.463,140.039 299.627,140.485 299.624 C 141.145 299.619,141.192 299.551,140.741 299.259 C 140.011 298.788,139.153 298.788,139.444 299.259 M141.852 299.259 C 141.400 299.551,141.448 299.619,142.108 299.624 C 142.554 299.627,143.022 299.463,143.148 299.259 C 143.440 298.788,142.582 298.788,141.852 299.259 " stroke="none" fill="#c4c4d4" fill-rule="evenodd"></path><path id="path3" d="M272.870 100.642 C 273.736 100.720,275.153 100.720,276.019 100.642 C 276.884 100.564,276.176 100.500,274.444 100.500 C 272.713 100.500,272.005 100.564,272.870 100.642 M286.566 100.638 C 287.223 100.719,288.390 100.721,289.158 100.641 C 289.927 100.560,289.389 100.494,287.963 100.492 C 286.537 100.490,285.908 100.556,286.566 100.638 M268.060 101.003 C 268.521 101.091,269.187 101.088,269.541 100.995 C 269.895 100.903,269.519 100.830,268.704 100.834 C 267.889 100.838,267.599 100.914,268.060 101.003 M262.685 101.366 C 263.042 101.460,263.625 101.460,263.981 101.366 C 264.338 101.273,264.046 101.197,263.333 101.197 C 262.620 101.197,262.329 101.273,262.685 101.366 M299.141 131.300 C 299.007 132.113,298.916 133.278,298.938 133.889 C 298.961 134.500,299.125 134.000,299.304 132.778 C 299.666 130.292,299.523 128.988,299.141 131.300 M180.542 138.611 L 178.704 140.556 180.648 138.718 C 181.718 137.707,182.593 136.832,182.593 136.773 C 182.593 136.497,182.249 136.804,180.542 138.611 M257.037 142.407 C 258.143 143.528,259.132 144.444,259.234 144.444 C 259.336 144.444,258.514 143.528,257.407 142.407 C 256.301 141.287,255.312 140.370,255.210 140.370 C 255.109 140.370,255.931 141.287,257.037 142.407 M249.074 150.741 C 249.870 151.556,250.604 152.222,250.706 152.222 C 250.808 152.222,250.240 151.556,249.444 150.741 C 248.649 149.926,247.914 149.259,247.813 149.259 C 247.711 149.259,248.278 149.926,249.074 150.741 M149.360 154.344 C 150.249 154.437,150.665 154.637,150.506 154.895 C 150.355 155.140,150.427 155.194,150.690 155.032 C 151.463 154.554,150.732 154.072,149.330 154.136 L 147.963 154.199 149.360 154.344 M145.648 154.700 C 146.005 154.793,146.588 154.793,146.944 154.700 C 147.301 154.607,147.009 154.530,146.296 154.530 C 145.583 154.530,145.292 154.607,145.648 154.700 M139.357 155.081 C 139.920 155.166,140.753 155.163,141.209 155.076 C 141.664 154.988,141.204 154.918,140.185 154.921 C 139.167 154.924,138.794 154.995,139.357 155.081 M207.864 160.000 C 207.864 160.713,207.940 161.005,208.033 160.648 C 208.126 160.292,208.126 159.708,208.033 159.352 C 207.940 158.995,207.864 159.287,207.864 160.000 M266.050 163.333 C 266.050 164.861,266.116 165.486,266.196 164.722 C 266.276 163.958,266.276 162.708,266.196 161.944 C 266.116 161.181,266.050 161.806,266.050 163.333 M219.378 163.333 C 219.378 164.657,219.445 165.199,219.527 164.537 C 219.609 163.875,219.609 162.792,219.527 162.130 C 219.445 161.468,219.378 162.009,219.378 163.333 M158.519 163.704 C 158.083 164.315,157.811 164.815,157.913 164.815 C 158.014 164.815,158.454 164.315,158.889 163.704 C 159.324 163.093,159.597 162.593,159.495 162.593 C 159.393 162.593,158.954 163.093,158.519 163.704 M118.889 167.037 C 118.059 168.259,117.463 169.259,117.565 169.259 C 117.667 169.259,118.429 168.259,119.259 167.037 C 120.089 165.815,120.685 164.815,120.583 164.815 C 120.481 164.815,119.719 165.815,118.889 167.037 M223.333 174.560 C 223.333 174.624,223.875 175.166,224.537 175.764 L 225.741 176.852 224.653 175.648 C 223.639 174.526,223.333 174.274,223.333 174.560 M216.111 183.704 C 217.321 184.926,218.393 185.926,218.495 185.926 C 218.597 185.926,217.691 184.926,216.481 183.704 C 215.272 182.481,214.199 181.481,214.097 181.481 C 213.995 181.481,214.902 182.481,216.111 183.704 M151.296 184.074 C 152.092 184.889,152.826 185.556,152.928 185.556 C 153.030 185.556,152.462 184.889,151.667 184.074 C 150.871 183.259,150.137 182.593,150.035 182.593 C 149.933 182.593,150.501 183.259,151.296 184.074 M159.074 191.852 C 159.870 192.667,160.604 193.333,160.706 193.333 C 160.808 193.333,160.240 192.667,159.444 191.852 C 158.649 191.037,157.914 190.370,157.813 190.370 C 157.711 190.370,158.278 191.037,159.074 191.852 M175.238 224.259 C 192.887 241.981,207.416 256.731,207.523 257.037 C 207.697 257.530,207.723 257.530,207.749 257.036 C 207.765 256.730,193.236 241.980,175.463 224.258 L 143.148 192.037 175.238 224.259 M166.852 199.630 C 167.647 200.444,168.382 201.111,168.484 201.111 C 168.586 201.111,168.018 200.444,167.222 199.630 C 166.427 198.815,165.692 198.148,165.590 198.148 C 165.489 198.148,166.056 198.815,166.852 199.630 M174.630 207.407 C 175.425 208.222,176.160 208.889,176.261 208.889 C 176.363 208.889,175.796 208.222,175.000 207.407 C 174.204 206.593,173.470 205.926,173.368 205.926 C 173.266 205.926,173.834 206.593,174.630 207.407 M137.249 210.212 C 137.112 210.754,137.072 211.270,137.160 211.357 C 137.247 211.445,137.430 211.072,137.566 210.529 C 137.702 209.986,137.742 209.471,137.655 209.383 C 137.568 209.296,137.385 209.669,137.249 210.212 M182.037 214.815 C 183.040 215.833,183.944 216.667,184.046 216.667 C 184.148 216.667,183.411 215.833,182.407 214.815 C 181.404 213.796,180.500 212.963,180.398 212.963 C 180.296 212.963,181.034 213.796,182.037 214.815 M257.587 223.426 L 252.778 228.333 257.685 223.524 C 262.244 219.056,262.760 218.519,262.495 218.519 C 262.441 218.519,260.232 220.727,257.587 223.426 M189.444 222.222 C 190.240 223.037,190.974 223.704,191.076 223.704 C 191.178 223.704,190.610 223.037,189.815 222.222 C 189.019 221.407,188.285 220.741,188.183 220.741 C 188.081 220.741,188.649 221.407,189.444 222.222 M196.667 229.375 C 196.667 229.439,197.208 229.981,197.870 230.579 L 199.074 231.667 197.986 230.463 C 196.972 229.341,196.667 229.089,196.667 229.375 M249.792 230.833 L 248.704 232.037 249.907 230.949 C 250.569 230.351,251.111 229.809,251.111 229.746 C 251.111 229.459,250.806 229.711,249.792 230.833 M205.000 237.778 C 205.796 238.593,206.530 239.259,206.632 239.259 C 206.734 239.259,206.166 238.593,205.370 237.778 C 204.575 236.963,203.840 236.296,203.739 236.296 C 203.637 236.296,204.204 236.963,205.000 237.778 M131.205 239.815 C 131.209 240.630,131.284 240.919,131.373 240.459 C 131.462 239.998,131.458 239.331,131.366 238.977 C 131.273 238.623,131.200 239.000,131.205 239.815 M211.481 244.190 C 211.481 244.254,212.023 244.795,212.685 245.394 L 213.889 246.481 212.801 245.278 C 211.787 244.156,211.481 243.904,211.481 244.190 M245.641 252.222 C 245.641 252.935,245.718 253.227,245.811 252.870 C 245.904 252.514,245.904 251.931,245.811 251.574 C 245.718 251.218,245.641 251.509,245.641 252.222 M120.554 271.204 L 101.667 290.185 120.648 271.298 C 131.088 260.910,139.630 252.368,139.630 252.316 C 139.630 252.056,138.110 253.560,120.554 271.204 M245.286 255.556 C 245.286 256.472,245.358 256.847,245.447 256.389 C 245.535 255.931,245.535 255.181,245.447 254.722 C 245.358 254.264,245.286 254.639,245.286 255.556 M148.624 257.222 C 148.627 258.241,148.699 258.613,148.784 258.050 C 148.869 257.487,148.867 256.654,148.779 256.199 C 148.691 255.743,148.622 256.204,148.624 257.222 M233.519 257.037 C 232.907 257.442,232.574 257.770,232.778 257.767 C 233.149 257.761,235.163 256.318,234.815 256.307 C 234.713 256.304,234.130 256.632,233.519 257.037 M100.376 258.735 C 100.379 259.532,100.528 260.416,100.707 260.698 C 100.905 261.012,100.956 260.508,100.837 259.402 C 100.594 257.146,100.369 256.819,100.376 258.735 M244.901 261.852 C 244.901 262.565,244.977 262.856,245.070 262.500 C 245.163 262.144,245.163 261.560,245.070 261.204 C 244.977 260.847,244.901 261.139,244.901 261.852 M145.723 262.685 L 144.259 264.259 145.833 262.795 C 146.699 261.990,147.407 261.282,147.407 261.221 C 147.407 260.941,147.085 261.221,145.723 262.685 M181.766 263.972 C 182.432 264.055,183.432 264.053,183.988 263.968 C 184.545 263.884,184.000 263.816,182.778 263.818 C 181.556 263.821,181.100 263.890,181.766 263.972 M244.538 265.000 C 244.542 265.815,244.618 266.105,244.706 265.644 C 244.795 265.183,244.792 264.516,244.699 264.162 C 244.606 263.808,244.534 264.185,244.538 265.000 M105.463 264.706 C 105.921 264.794,106.671 264.794,107.130 264.706 C 107.588 264.618,107.213 264.545,106.296 264.545 C 105.380 264.545,105.005 264.618,105.463 264.706 M140.548 267.870 L 137.222 271.296 140.648 267.971 C 142.532 266.142,144.074 264.600,144.074 264.545 C 144.074 264.276,143.637 264.688,140.548 267.870 M166.019 274.630 C 166.023 275.444,166.099 275.734,166.188 275.273 C 166.276 274.813,166.273 274.146,166.180 273.792 C 166.088 273.438,166.015 273.815,166.019 274.630 M131.655 276.759 L 129.444 279.074 131.759 276.863 C 133.032 275.648,134.074 274.606,134.074 274.549 C 134.074 274.275,133.709 274.609,131.655 276.759 M237.593 277.995 L 236.481 278.950 237.685 278.154 C 238.347 277.715,238.889 277.285,238.889 277.197 C 238.889 276.920,238.732 277.016,237.593 277.995 M163.333 279.815 C 162.434 280.731,161.781 281.481,161.883 281.481 C 161.985 281.481,162.804 280.731,163.704 279.815 C 164.603 278.898,165.256 278.148,165.154 278.148 C 165.052 278.148,164.233 278.898,163.333 279.815 M123.884 284.537 L 118.704 289.815 123.981 284.635 C 128.884 279.822,129.427 279.259,129.162 279.259 C 129.108 279.259,126.733 281.634,123.884 284.537 M156.472 286.759 L 153.889 289.444 156.574 286.862 C 159.068 284.463,159.428 284.074,159.157 284.074 C 159.100 284.074,157.892 285.282,156.472 286.759 M148.883 294.352 L 144.259 299.074 148.981 294.450 C 151.579 291.907,153.704 289.782,153.704 289.728 C 153.704 289.462,153.179 289.965,148.883 294.352 M116.100 292.315 L 113.889 294.630 116.204 292.419 C 118.354 290.366,118.688 290.000,118.414 290.000 C 118.357 290.000,117.315 291.042,116.100 292.315 " stroke="none" fill="#d5d5e0" fill-rule="evenodd"></path><path id="path4" d="M266.481 100.742 C 265.851 100.903,266.652 100.942,268.333 100.832 C 269.963 100.725,271.366 100.577,271.451 100.504 C 271.736 100.257,267.604 100.455,266.481 100.742 M290.401 100.503 C 290.486 100.577,291.056 100.748,291.667 100.885 C 292.478 101.067,292.628 101.032,292.222 100.758 C 291.722 100.419,290.030 100.183,290.401 100.503 M259.259 101.481 L 258.333 101.778 259.259 101.771 C 259.769 101.767,260.685 101.637,261.296 101.481 L 262.407 101.199 261.296 101.192 C 260.685 101.188,259.769 101.318,259.259 101.481 M254.074 102.227 C 253.683 102.484,253.903 102.521,254.815 102.354 C 256.412 102.061,256.713 101.850,255.525 101.858 C 255.032 101.861,254.380 102.027,254.074 102.227 M249.630 102.963 C 248.922 103.420,249.684 103.420,251.111 102.963 L 252.037 102.666 251.111 102.635 C 250.602 102.618,249.935 102.765,249.630 102.963 M245.926 103.709 C 245.535 103.965,245.755 104.003,246.667 103.835 C 248.264 103.542,248.565 103.331,247.377 103.339 C 246.884 103.342,246.231 103.509,245.926 103.709 M242.593 104.461 C 242.187 104.736,242.337 104.770,243.148 104.589 C 244.510 104.284,244.806 104.072,243.858 104.080 C 243.468 104.083,242.898 104.255,242.593 104.461 M239.630 105.202 C 239.224 105.477,239.374 105.511,240.185 105.330 C 241.547 105.025,241.843 104.813,240.895 104.820 C 240.505 104.824,239.935 104.995,239.630 105.202 M237.037 105.943 C 236.631 106.217,236.781 106.252,237.593 106.070 C 238.954 105.766,239.250 105.554,238.302 105.561 C 237.912 105.564,237.343 105.736,237.037 105.943 M298.448 106.111 C 298.635 106.519,298.881 107.102,298.995 107.407 C 299.173 107.887,299.205 107.884,299.230 107.386 C 299.246 107.068,299.000 106.485,298.683 106.089 C 298.117 105.382,298.113 105.382,298.448 106.111 M216.375 113.400 C 215.501 113.823,214.848 114.230,214.922 114.305 C 214.996 114.379,215.877 114.033,216.880 113.536 C 217.883 113.038,218.537 112.631,218.333 112.631 C 218.130 112.630,217.248 112.976,216.375 113.400 M205.926 118.922 C 205.311 119.425,205.249 119.551,205.741 119.297 C 206.949 118.672,207.619 118.159,207.222 118.162 C 207.019 118.163,206.435 118.505,205.926 118.922 M192.833 127.790 C 191.479 128.816,190.370 129.742,190.370 129.849 C 190.370 129.956,191.412 129.257,192.685 128.295 C 195.381 126.259,195.777 125.926,195.500 125.926 C 195.387 125.926,194.187 126.765,192.833 127.790 M188.693 131.044 C 188.076 131.606,187.169 132.347,186.678 132.691 C 186.187 133.035,185.863 133.394,185.959 133.490 C 186.054 133.585,187.044 132.846,188.159 131.847 C 189.273 130.849,190.102 130.030,190.000 130.027 C 189.898 130.024,189.310 130.482,188.693 131.044 M233.520 134.399 C 232.909 134.530,234.492 134.636,237.037 134.636 C 239.582 134.636,241.165 134.530,240.554 134.399 C 239.944 134.269,238.361 134.162,237.037 134.162 C 235.713 134.162,234.130 134.269,233.520 134.399 M183.568 135.401 C 182.985 135.914,182.580 136.407,182.669 136.497 C 182.759 136.586,183.309 136.161,183.893 135.552 C 185.182 134.206,185.015 134.129,183.568 135.401 M299.000 136.667 C 299.000 137.787,299.069 138.245,299.154 137.685 C 299.239 137.125,299.239 136.208,299.154 135.648 C 299.069 135.088,299.000 135.546,299.000 136.667 M176.576 142.112 C 173.585 145.107,171.215 147.635,171.310 147.729 C 171.404 147.824,171.523 147.826,171.574 147.734 C 171.625 147.642,174.081 145.114,177.032 142.117 C 179.983 139.119,182.311 136.667,182.206 136.667 C 182.100 136.667,179.567 139.117,176.576 142.112 M222.963 137.818 C 222.454 138.239,222.246 138.475,222.501 138.343 C 224.635 137.240,224.932 137.042,224.444 137.048 C 224.139 137.051,223.472 137.398,222.963 137.818 M250.772 137.903 C 251.568 138.549,254.444 140.364,254.444 140.221 C 254.444 139.978,251.244 137.778,250.890 137.778 C 250.740 137.778,250.687 137.834,250.772 137.903 M216.366 142.707 C 215.513 143.576,214.815 144.384,214.815 144.502 C 214.815 144.621,215.568 143.964,216.488 143.044 C 217.408 142.124,218.106 141.316,218.039 141.249 C 217.972 141.182,217.219 141.838,216.366 142.707 M298.249 142.593 C 298.249 143.509,298.321 143.884,298.410 143.426 C 298.498 142.968,298.498 142.218,298.410 141.759 C 298.321 141.301,298.249 141.676,298.249 142.593 M259.243 145.093 C 259.931 145.958,260.561 146.667,260.643 146.667 C 260.904 146.667,259.317 144.583,258.643 144.041 C 258.285 143.754,258.555 144.227,259.243 145.093 M213.333 146.296 C 212.898 146.907,212.625 147.407,212.727 147.407 C 212.829 147.407,213.269 146.907,213.704 146.296 C 214.139 145.685,214.412 145.185,214.310 145.185 C 214.208 145.185,213.768 145.685,213.333 146.296 M236.208 145.447 C 236.669 145.536,237.335 145.532,237.690 145.440 C 238.044 145.347,237.667 145.274,236.852 145.279 C 236.037 145.283,235.747 145.359,236.208 145.447 M232.407 145.926 C 231.941 146.127,231.872 146.244,232.222 146.244 C 232.528 146.244,233.111 146.101,233.519 145.926 C 233.985 145.725,234.054 145.608,233.704 145.608 C 233.398 145.608,232.815 145.751,232.407 145.926 M240.370 145.926 C 240.676 146.123,241.176 146.285,241.481 146.285 C 241.975 146.285,241.975 146.245,241.481 145.926 C 241.176 145.728,240.676 145.567,240.370 145.567 C 239.877 145.567,239.877 145.607,240.370 145.926 M211.667 148.889 C 211.351 149.500,211.175 150.000,211.277 150.000 C 211.379 150.000,211.721 149.500,212.037 148.889 C 212.353 148.278,212.528 147.778,212.426 147.778 C 212.325 147.778,211.983 148.278,211.667 148.889 M169.051 150.093 L 167.963 151.296 169.167 150.208 C 169.829 149.610,170.370 149.069,170.370 149.005 C 170.370 148.719,170.065 148.971,169.051 150.093 M224.074 150.926 C 223.174 151.843,222.522 152.593,222.624 152.593 C 222.725 152.593,223.545 151.843,224.444 150.926 C 225.344 150.009,225.997 149.259,225.895 149.259 C 225.793 149.259,224.974 150.009,224.074 150.926 M296.878 150.212 C 296.742 150.754,296.702 151.270,296.789 151.357 C 296.877 151.445,297.060 151.072,297.196 150.529 C 297.332 149.986,297.372 149.471,297.285 149.383 C 297.197 149.296,297.015 149.669,296.878 150.212 M166.436 153.056 C 165.342 154.303,164.703 155.185,164.893 155.185 C 164.985 155.185,165.597 154.519,166.252 153.704 C 167.523 152.122,167.652 151.668,166.436 153.056 M251.653 153.611 C 252.224 154.477,252.762 155.185,252.848 155.185 C 253.115 155.185,251.697 152.931,251.141 152.472 C 250.851 152.233,251.082 152.745,251.653 153.611 M296.138 153.915 C 296.001 154.458,295.961 154.974,296.049 155.061 C 296.136 155.148,296.319 154.776,296.455 154.233 C 296.591 153.690,296.631 153.174,296.544 153.087 C 296.457 153.000,296.274 153.373,296.138 153.915 M144.074 154.464 C 143.240 154.652,143.701 154.684,145.370 154.555 C 146.796 154.444,148.032 154.290,148.117 154.214 C 148.382 153.974,145.436 154.157,144.074 154.464 M264.450 155.031 C 264.453 155.421,264.625 155.991,264.832 156.296 C 265.106 156.702,265.141 156.552,264.959 155.741 C 264.655 154.379,264.443 154.083,264.450 155.031 M134.444 155.200 C 133.864 155.395,134.416 155.432,135.926 155.299 C 137.250 155.182,138.403 155.026,138.488 154.951 C 138.791 154.683,135.352 154.895,134.444 155.200 M163.282 156.944 C 162.107 158.363,161.684 159.021,162.112 158.764 C 162.586 158.480,164.231 156.296,163.972 156.296 C 163.887 156.296,163.577 156.588,163.282 156.944 M208.564 157.222 C 208.533 157.630,208.423 158.380,208.318 158.889 L 208.127 159.815 208.524 158.906 C 208.742 158.407,208.853 157.657,208.770 157.240 C 208.623 156.501,208.618 156.501,208.564 157.222 M125.093 158.709 C 123.921 159.629,122.963 160.491,122.963 160.626 C 122.963 160.760,123.338 160.529,123.796 160.113 C 124.255 159.697,125.363 158.834,126.259 158.197 C 127.156 157.559,127.739 157.037,127.556 157.037 C 127.372 157.037,126.264 157.790,125.093 158.709 M265.255 158.148 C 265.247 158.657,265.374 159.824,265.537 160.741 C 265.759 161.991,265.839 162.130,265.858 161.296 C 265.872 160.685,265.745 159.519,265.577 158.704 C 265.385 157.776,265.265 157.569,265.255 158.148 M146.275 161.513 C 145.031 163.363,144.068 164.932,144.136 164.998 C 144.204 165.064,145.302 163.550,146.576 161.633 C 147.850 159.716,148.813 158.148,148.715 158.148 C 148.617 158.148,147.520 159.662,146.275 161.513 M219.490 158.718 C 219.363 159.049,219.278 159.765,219.302 160.308 C 219.334 161.048,219.417 160.924,219.633 159.815 C 219.940 158.241,219.872 157.722,219.490 158.718 M254.259 163.148 C 254.259 165.452,254.382 167.144,254.531 166.909 C 254.681 166.674,254.803 164.981,254.803 163.148 C 254.803 161.315,254.681 159.622,254.531 159.387 C 254.382 159.152,254.259 160.844,254.259 163.148 M160.333 160.833 C 158.465 163.261,158.416 163.333,158.614 163.333 C 158.716 163.333,159.492 162.417,160.338 161.296 C 161.184 160.176,161.801 159.259,161.710 159.259 C 161.618 159.259,160.999 159.968,160.333 160.833 M121.111 163.333 C 120.281 164.556,119.685 165.556,119.787 165.556 C 119.889 165.556,120.651 164.556,121.481 163.333 C 122.311 162.111,122.907 161.111,122.805 161.111 C 122.704 161.111,121.941 162.111,121.111 163.333 M207.896 163.333 C 207.896 164.657,207.964 165.199,208.046 164.537 C 208.128 163.875,208.128 162.792,208.046 162.130 C 207.964 161.468,207.896 162.009,207.896 163.333 M265.383 166.494 C 265.238 167.843,265.198 169.025,265.293 169.120 C 265.388 169.215,265.584 168.189,265.728 166.840 C 265.873 165.490,265.913 164.308,265.818 164.213 C 265.723 164.118,265.527 165.145,265.383 166.494 M219.265 166.327 C 219.268 166.819,219.434 167.472,219.635 167.778 C 219.891 168.169,219.928 167.949,219.761 167.037 C 219.468 165.440,219.257 165.138,219.265 166.327 M208.391 168.333 C 208.515 169.148,208.678 169.884,208.753 169.969 C 209.033 170.287,208.823 168.304,208.501 167.593 C 208.267 167.076,208.234 167.301,208.391 168.333 M253.733 168.473 C 253.717 168.753,253.189 170.003,252.560 171.250 C 251.931 172.498,251.586 173.352,251.793 173.148 C 252.495 172.457,254.128 168.864,253.944 168.412 C 253.817 168.098,253.753 168.116,253.733 168.473 M140.172 171.574 L 139.585 172.778 140.340 171.852 C 141.067 170.960,141.304 170.370,140.935 170.370 C 140.839 170.370,140.495 170.912,140.172 171.574 M152.548 172.315 C 152.305 172.773,151.865 173.565,151.570 174.074 C 151.055 174.962,151.058 174.970,151.656 174.259 C 152.394 173.381,153.430 171.481,153.171 171.481 C 153.071 171.481,152.791 171.856,152.548 172.315 M221.738 172.621 C 222.106 173.248,222.644 173.956,222.933 174.195 C 223.223 174.434,222.992 173.921,222.421 173.056 C 221.222 171.238,220.749 170.937,221.738 172.621 M290.825 172.685 C 290.194 174.429,290.281 174.901,290.950 173.361 C 291.252 172.664,291.450 171.944,291.389 171.761 C 291.329 171.578,291.074 171.994,290.825 172.685 M249.465 175.532 L 248.004 177.222 249.632 175.661 C 250.527 174.802,251.185 174.042,251.093 173.971 C 251.001 173.900,250.269 174.603,249.465 175.532 M213.985 180.926 C 214.410 181.537,215.724 182.954,216.906 184.074 C 218.953 186.015,218.934 185.980,216.492 183.333 C 213.071 179.624,213.103 179.655,213.985 180.926 M258.148 182.593 C 257.295 183.611,256.681 184.444,256.783 184.444 C 256.885 184.444,257.666 183.611,258.519 182.593 C 259.371 181.574,259.986 180.741,259.884 180.741 C 259.782 180.741,259.001 181.574,258.148 182.593 M154.444 187.337 C 154.444 187.730,155.875 189.071,156.064 188.856 C 156.137 188.772,155.803 188.323,155.321 187.857 C 154.839 187.392,154.444 187.158,154.444 187.337 M225.370 189.823 C 226.389 190.303,227.472 190.698,227.778 190.702 C 228.083 190.706,227.347 190.300,226.141 189.799 C 223.383 188.654,222.920 188.669,225.370 189.823 M228.889 191.094 C 229.194 191.301,229.764 191.473,230.154 191.476 C 231.102 191.483,230.806 191.271,229.444 190.967 C 228.633 190.785,228.483 190.820,228.889 191.094 M243.704 191.111 C 242.941 191.355,242.908 191.413,243.519 191.439 C 243.926 191.456,244.509 191.309,244.815 191.111 C 245.464 190.692,245.013 190.692,243.704 191.111 M239.444 191.852 L 237.963 192.117 239.259 192.133 C 239.972 192.141,240.972 192.015,241.481 191.852 C 242.672 191.471,241.573 191.471,239.444 191.852 M233.796 192.107 C 234.153 192.200,234.736 192.200,235.093 192.107 C 235.449 192.014,235.157 191.938,234.444 191.938 C 233.731 191.938,233.440 192.014,233.796 192.107 M175.648 224.260 C 206.262 254.963,208.292 257.091,207.398 257.534 C 207.189 257.637,207.231 257.679,207.491 257.627 C 208.851 257.352,205.660 253.988,175.840 224.259 L 143.519 192.037 175.648 224.260 M162.222 195.115 C 162.222 195.508,163.652 196.849,163.842 196.634 C 163.915 196.550,163.581 196.101,163.099 195.635 C 162.617 195.170,162.222 194.935,162.222 195.115 M276.755 200.771 C 276.092 201.773,275.626 202.593,275.720 202.593 C 275.973 202.593,278.241 199.229,278.090 199.078 C 278.019 199.007,277.419 199.769,276.755 200.771 M127.963 200.370 C 127.824 200.808,127.793 201.250,127.895 201.352 C 127.997 201.454,128.194 201.179,128.333 200.741 C 128.472 200.303,128.503 199.861,128.401 199.759 C 128.299 199.657,128.102 199.932,127.963 200.370 M170.000 202.892 C 170.000 203.286,171.430 204.627,171.619 204.411 C 171.693 204.328,171.358 203.878,170.876 203.413 C 170.394 202.947,170.000 202.713,170.000 202.892 M274.763 203.611 C 273.698 204.897,273.246 205.556,273.429 205.556 C 273.532 205.556,274.061 204.972,274.605 204.259 C 275.614 202.936,275.736 202.437,274.763 203.611 M104.377 207.222 C 104.982 207.731,105.591 208.148,105.730 208.148 C 105.869 208.148,105.488 207.731,104.882 207.222 C 104.277 206.713,103.668 206.296,103.529 206.296 C 103.390 206.296,103.772 206.713,104.377 207.222 M108.519 209.254 C 108.824 209.454,109.477 209.621,109.969 209.624 C 111.158 209.631,110.857 209.421,109.259 209.128 C 108.347 208.960,108.128 208.998,108.519 209.254 M113.148 209.983 C 113.859 210.305,115.843 210.515,115.525 210.234 C 115.440 210.159,114.704 209.997,113.889 209.873 C 112.856 209.715,112.632 209.749,113.148 209.983 M118.148 210.741 C 118.454 210.938,119.120 211.086,119.630 211.069 L 120.556 211.037 119.630 210.741 C 118.202 210.284,117.441 210.284,118.148 210.741 M267.778 212.593 C 266.925 213.611,266.311 214.444,266.413 214.444 C 266.514 214.444,267.295 213.611,268.148 212.593 C 269.001 211.574,269.615 210.741,269.513 210.741 C 269.412 210.741,268.631 211.574,267.778 212.593 M122.778 211.487 C 123.716 211.883,125.556 211.941,125.553 211.574 C 125.552 211.421,124.760 211.269,123.794 211.236 C 122.543 211.192,122.250 211.265,122.778 211.487 M136.163 214.152 C 136.038 214.618,135.960 216.167,135.990 217.593 L 136.043 220.185 136.292 216.852 C 136.556 213.320,136.530 212.781,136.163 214.152 M255.926 225.282 C 252.361 228.778,250.944 230.282,252.778 228.624 C 256.143 225.581,262.913 218.873,262.585 218.907 C 262.487 218.918,259.491 221.786,255.926 225.282 M192.593 225.485 C 192.593 225.878,194.023 227.220,194.212 227.004 C 194.285 226.920,193.951 226.471,193.469 226.005 C 192.987 225.540,192.593 225.306,192.593 225.485 M247.750 232.870 L 246.852 233.889 247.963 232.963 C 248.574 232.454,249.144 231.995,249.228 231.944 C 249.313 231.894,249.217 231.852,249.015 231.852 C 248.813 231.852,248.244 232.310,247.750 232.870 M124.202 233.617 C 123.967 233.766,124.493 233.889,125.370 233.889 C 126.248 233.889,126.889 233.764,126.795 233.611 C 126.575 233.256,124.763 233.260,124.202 233.617 M128.651 234.777 C 129.234 235.161,130.024 235.951,130.408 236.534 C 130.792 237.116,131.107 237.390,131.109 237.142 C 131.112 236.556,128.629 234.073,128.043 234.077 C 127.795 234.078,128.069 234.393,128.651 234.777 M111.664 244.907 L 101.667 255.000 111.759 245.003 C 117.310 239.504,121.852 234.962,121.852 234.910 C 121.852 234.648,120.955 235.528,111.664 244.907 M242.222 237.252 C 240.177 238.870,239.417 239.659,240.926 238.597 C 242.409 237.554,244.305 235.955,244.074 235.943 C 243.972 235.937,243.139 236.527,242.222 237.252 M151.561 237.543 C 152.027 238.025,152.476 238.359,152.559 238.286 C 152.775 238.097,151.434 236.667,151.041 236.667 C 150.861 236.667,151.095 237.061,151.561 237.543 M131.294 239.625 C 131.295 240.605,131.421 241.331,131.574 241.238 C 131.931 241.019,131.925 238.837,131.566 238.273 C 131.416 238.036,131.293 238.644,131.294 239.625 M208.148 241.041 C 208.148 241.434,209.578 242.775,209.768 242.559 C 209.841 242.476,209.506 242.027,209.024 241.561 C 208.543 241.095,208.148 240.861,208.148 241.041 M120.188 253.333 L 109.451 264.259 120.358 253.441 C 126.357 247.491,131.188 242.574,131.095 242.515 C 131.002 242.456,126.094 247.324,120.188 253.333 M230.273 245.644 C 229.302 246.269,228.582 246.854,228.672 246.944 C 228.846 247.117,232.222 244.899,232.222 244.612 C 232.222 244.385,232.265 244.362,230.273 245.644 M245.015 249.235 C 244.873 249.464,245.002 249.535,245.331 249.408 C 245.768 249.241,245.916 249.594,246.030 251.081 L 246.175 252.967 246.143 251.050 C 246.113 249.239,245.561 248.351,245.015 249.235 M242.037 251.329 L 240.926 252.283 242.130 251.487 C 242.792 251.049,243.333 250.618,243.333 250.530 C 243.333 250.253,243.176 250.350,242.037 251.329 M140.163 251.687 C 139.478 252.236,139.485 252.243,140.312 251.841 C 140.789 251.609,142.148 251.475,143.333 251.543 C 144.518 251.611,145.409 251.542,145.314 251.389 C 144.981 250.853,140.910 251.089,140.163 251.687 M137.407 253.889 C 136.508 254.806,135.855 255.556,135.957 255.556 C 136.059 255.556,136.878 254.806,137.778 253.889 C 138.677 252.972,139.330 252.222,139.228 252.222 C 139.126 252.222,138.307 252.972,137.407 253.889 M245.641 254.444 C 245.641 255.157,245.718 255.449,245.811 255.093 C 245.904 254.736,245.904 254.153,245.811 253.796 C 245.718 253.440,245.641 253.731,245.641 254.444 M245.310 259.630 C 245.310 261.157,245.375 261.782,245.455 261.019 C 245.535 260.255,245.535 259.005,245.455 258.241 C 245.375 257.477,245.310 258.102,245.310 259.630 M130.546 260.833 L 127.963 263.519 130.648 260.936 C 133.142 258.537,133.502 258.148,133.231 258.148 C 133.174 258.148,131.966 259.356,130.546 260.833 M229.184 259.220 C 226.777 260.591,226.449 261.038,228.704 259.874 C 230.878 258.752,231.813 258.146,231.296 258.194 C 231.093 258.212,230.142 258.674,229.184 259.220 M174.527 260.463 C 176.561 262.323,177.182 262.727,175.946 261.385 C 175.244 260.623,174.524 260.000,174.345 260.000 C 174.167 260.000,174.249 260.208,174.527 260.463 M197.778 260.741 C 197.015 260.985,196.982 261.043,197.593 261.069 C 198.000 261.086,198.583 260.938,198.889 260.741 C 199.538 260.321,199.087 260.321,197.778 260.741 M195.185 261.481 C 194.422 261.726,194.390 261.784,195.000 261.809 C 195.407 261.826,195.991 261.679,196.296 261.481 C 196.945 261.062,196.495 261.062,195.185 261.481 M189.259 262.963 C 188.496 263.207,188.464 263.265,189.074 263.291 C 189.481 263.308,190.065 263.160,190.370 262.963 C 191.019 262.544,190.569 262.544,189.259 262.963 M244.908 264.259 C 244.912 265.074,244.988 265.364,245.077 264.903 C 245.165 264.442,245.162 263.776,245.069 263.422 C 244.977 263.068,244.904 263.444,244.908 264.259 M185.556 263.704 C 184.793 263.948,184.760 264.006,185.370 264.031 C 185.778 264.049,186.361 263.901,186.667 263.704 C 187.316 263.284,186.865 263.284,185.556 263.704 M142.798 265.902 L 141.337 267.593 142.965 266.031 C 143.861 265.172,144.518 264.412,144.426 264.341 C 144.334 264.270,143.602 264.973,142.798 265.902 M216.019 265.772 C 215.356 266.062,214.815 266.384,214.815 266.488 C 214.815 266.680,217.413 265.674,217.728 265.359 C 218.043 265.043,217.241 265.238,216.019 265.772 M122.768 268.611 L 120.185 271.296 122.870 268.714 C 125.364 266.315,125.725 265.926,125.453 265.926 C 125.397 265.926,124.188 267.134,122.768 268.611 M244.530 267.407 C 244.530 268.120,244.607 268.412,244.700 268.056 C 244.793 267.699,244.793 267.116,244.700 266.759 C 244.607 266.403,244.530 266.694,244.530 267.407 M135.630 272.859 C 134.754 273.731,134.179 274.444,134.351 274.444 C 134.732 274.444,137.610 271.540,137.383 271.385 C 137.295 271.324,136.506 271.987,135.630 272.859 M196.667 272.610 C 196.261 272.884,196.411 272.918,197.222 272.737 C 198.584 272.432,198.880 272.220,197.932 272.228 C 197.542 272.231,196.972 272.403,196.667 272.610 M166.111 274.630 C 166.111 275.711,166.234 276.404,166.383 276.168 C 166.533 275.933,166.655 275.241,166.655 274.630 C 166.655 274.019,166.533 273.326,166.383 273.091 C 166.234 272.856,166.111 273.548,166.111 274.630 M193.704 273.338 C 193.313 273.595,193.532 273.632,194.444 273.465 C 196.042 273.172,196.343 272.961,195.154 272.969 C 194.662 272.972,194.009 273.138,193.704 273.338 M114.990 276.389 L 112.407 279.074 115.093 276.491 C 117.587 274.093,117.947 273.704,117.675 273.704 C 117.619 273.704,116.411 274.912,114.990 276.389 M190.185 274.084 C 189.691 274.303,189.998 274.339,191.111 274.191 C 192.028 274.070,192.847 273.911,192.932 273.837 C 193.254 273.559,190.893 273.771,190.185 274.084 M239.987 276.180 C 238.852 277.360,238.538 277.808,239.271 277.198 C 240.505 276.173,242.436 274.074,242.145 274.074 C 242.072 274.074,241.101 275.022,239.987 276.180 M188.180 275.370 C 188.169 275.778,188.321 276.361,188.519 276.667 C 188.994 277.403,188.994 276.478,188.519 275.370 L 188.200 274.630 188.180 275.370 M188.982 279.444 C 188.986 280.259,189.062 280.549,189.151 280.088 C 189.239 279.628,189.236 278.961,189.143 278.607 C 189.051 278.253,188.978 278.630,188.982 279.444 M127.609 281.095 L 125.774 283.148 127.777 281.217 C 128.878 280.155,129.704 279.231,129.612 279.164 C 129.520 279.096,128.619 279.966,127.609 281.095 M160.549 283.056 L 156.852 286.852 160.648 283.155 C 162.736 281.122,164.444 279.414,164.444 279.359 C 164.444 279.091,163.982 279.530,160.549 283.056 M107.212 284.167 L 104.630 286.852 107.315 284.269 C 109.809 281.870,110.169 281.481,109.897 281.481 C 109.841 281.481,108.633 282.690,107.212 284.167 M189.723 284.259 C 189.727 285.074,189.803 285.364,189.892 284.903 C 189.980 284.442,189.977 283.776,189.884 283.422 C 189.791 283.068,189.719 283.444,189.723 284.259 M120.107 288.528 C 119.249 289.338,118.674 290.000,118.828 290.000 C 118.983 290.000,119.760 289.333,120.556 288.519 C 122.417 286.612,122.130 286.618,120.107 288.528 M152.771 290.833 L 149.074 294.630 152.870 290.933 C 154.958 288.900,156.667 287.191,156.667 287.137 C 156.667 286.869,156.204 287.307,152.771 290.833 M190.464 288.704 C 190.468 289.519,190.544 289.808,190.632 289.348 C 190.721 288.887,190.718 288.220,190.625 287.866 C 190.532 287.512,190.460 287.889,190.464 288.704 M137.193 289.005 C 136.972 289.257,136.487 289.959,136.113 290.565 C 135.493 291.569,135.535 291.552,136.590 290.370 C 137.227 289.657,137.754 288.949,137.763 288.796 C 137.783 288.421,137.665 288.464,137.193 289.005 M217.229 291.687 C 216.214 292.389,215.518 292.963,215.681 292.963 C 216.035 292.963,219.259 290.778,219.259 290.538 C 219.259 290.288,219.222 290.309,217.229 291.687 M190.793 291.111 C 190.793 291.417,190.936 292.000,191.111 292.407 C 191.312 292.874,191.429 292.943,191.429 292.593 C 191.429 292.287,191.286 291.704,191.111 291.296 C 190.910 290.829,190.793 290.761,190.793 291.111 M135.228 293.774 C 135.205 294.934,135.310 295.959,135.463 296.054 C 135.616 296.148,135.691 295.450,135.630 294.502 C 135.456 291.797,135.275 291.469,135.228 293.774 M112.297 296.193 C 111.421 297.064,110.845 297.778,111.018 297.778 C 111.399 297.778,114.277 294.874,114.050 294.718 C 113.961 294.657,113.172 295.321,112.297 296.193 M146.654 296.944 L 144.630 299.074 146.759 297.050 C 148.738 295.169,149.059 294.815,148.784 294.815 C 148.726 294.815,147.767 295.773,146.654 296.944 M207.424 298.001 C 206.312 298.693,205.571 299.259,205.777 299.259 C 206.223 299.259,209.630 297.138,209.630 296.860 C 209.630 296.612,209.769 296.540,207.424 298.001 M137.222 298.340 C 137.630 298.672,138.296 299.107,138.704 299.307 L 139.444 299.670 138.704 299.067 C 138.296 298.736,137.630 298.301,137.222 298.101 L 136.481 297.737 137.222 298.340 " stroke="none" fill="#e5e5ec" fill-rule="evenodd"></path></g></svg>